<?xml version="1.0" encoding="UTF-8"?>
<svg id="Groupe_1_copie_4_Image" data-name="Groupe 1 copie 4 Image" xmlns="http://www.w3.org/2000/svg" viewBox="0 0 509.94 572.85">
  <defs>
    <style>
      .cls-1 {
        fill: #595141;
      }

      .cls-2 {
        fill: #483f2f;
      }

      .cls-3 {
        fill: #67856f;
      }

      .cls-4 {
        fill: #73b184;
      }

      .cls-5 {
        fill: #e6a533;
      }

      .cls-6 {
        fill: #73b285;
      }

      .cls-7 {
        fill: #617e69;
      }

      .cls-8 {
        fill: #505850;
      }

      .cls-9 {
        fill: #e6cb33;
      }

      .cls-10 {
        fill: #79f09b;
      }

      .cls-11 {
        fill: #4f4738;
      }

      .cls-12 {
        fill: #5d7865;
      }

      .cls-13 {
        fill: #57605a;
      }

      .cls-14 {
        fill: #4b4231;
      }

      .cls-15 {
        fill: #958949;
      }
    </style>
  </defs>
  <path class="cls-8" d="M90.91,282.09c-1.03,2.64,4.18,3.07,6,2,2.14.5,3.87.69,6,1-.4,4.23,2.72,1.02,3,1,2.13-.16,4.79.65,7,1-.37,2.26.45,2.84,2,1,.6.14,1.44-.15,2,0-.59,2.76,1.42,1.88,2.98,2.47,3.72,1.41,7.35,3.02,11.02,4.53,7.02,2.88,7.7,3.52,14,8-.28,2.06-.06,2.29,2,2,3.91,2.76,8.11,5.13,12,8-.29,2.04-.04,2.3,2,2,.35.25,1.19.39,2,1-.47,2.67.63,2.04,3,2,.37.3.65.71,1,1-.1,2.01,1,2.99,3,3,.33.42,1.74.65,2,1,1.63,2.23.99,5.44,6,8-.61,2.75,1.64,1.72,2,2,1.79,1.41,3.45,4.03,5,6,13.92,17.68,27.1,33.39,49.46,41.04,8.83,3.02,19.02,3.1,27.82,6.18,12.72,4.46,28.73,16.32,37.72,26.28,2.49,2.75,5.69,7.64,5,11.5-.12.12.45,1.72-.66,2.02-2.02.55-4.82-.19-6.71-1.15-4.4-2.24-12.09-15.39-18.13-19.87-17.58-13.04-36.12-11.82-54.17-19.83-27.23-12.08-34.99-28.13-52.35-49.65-8.99-11.15-41.3-34.74-54.75-39.25-15.93-5.34-34.55-6.02-51.23-7.27-5.97-.45-12.07-1.53-18.48-.98-4.83.41-12.74,1.74-16.52,4.98-.32.07-.68-.06-1,0l-1,1c-.31.09-.7-.1-1,0l-1,1c-6.95,2.85-11.38,4.7-16,11l-1,1c-.99,1.75-1.5,3.05-2,5-4.04-.48-1.1,2.03-1,3,.47,4.71.5,7.22,2.8,11.69,3.92,7.61,8.43,6.13,15.2,9.31.15.07.83,2.35,2.02.49-1.89-3.34.13-7.84-2.02-10.49,1.6-5.74,2.24-6.16,7-9,2.37.04,3.47.67,3-2,.52-.2,1.8.22,2,0,2.12.24,2.24.13,2-2,.87-.1,2.13-.09,3,0,7.3.8,16.45,1.76,23.57,4.93,4.39,1.96,7.13,8.38,11.43,9.07,2.71.43,6.2-.36,9,0-.37,2.26.45,2.84,2,1,.63.1,1.43-.14,2,0-.76,2.81,2.75,2.21,5,3,1.03.36,1.29.64,2,1-.28,2.05-.05,2.29,2,2,20.18,12.09,28.77,36.49,39,57,17.22,34.53,41.23,73.83,76.6,92.9,3.63,1.96,9.52,3.39,13.29,5.71,7.71,4.76,11.82,11.91,17.6,18.4,1.42,1.6,6.09,4.85,6.3,5.21.71,1.19.05,3.34.22,4.78-2.75,2.22-4.61,4.04-8.01,5.49-14.32,6.1-46.28,3.97-61.99,1.51-3.55-.56-7.48-1.22-11-2-15.42-3.4-30.88-9.23-44.67-16.83-27.47-15.14-39.7-28.54-50.82-58.18-7.22-19.26-1.48-48.59-1.51-69.99,3.03.56,1.92-1.53,2-3.46.25-6.05.4-16.21.03-21.99-.17-2.65-1.28-10.77-2.07-13.01-.89-2.51-1.22-2.76-3.96-2.54-1.82-5.45-2.26-7.93-7-12,.33-1.87-.12-2.35-2-2-.27-.33-7.03-2.36-8-3-.11-.07.28-1.39-.17-1.78-.69-.59-9.65-1.19-7.83,1.78-6.38.25-6.08.25-11,4-.46.35-2.35-.15-2.95,1.63-.66,1.96.87,2.85.95,3.37.15.91-.24,2.33,0,3-1.88,1.55-1.3,2.39,1,2,.72,1.28,1.96,2.03,3,3,1.12,2.77,1.12,5.24,0,8-1.53.24-4.34.12-6,0,.36-2.28-.41-2.81-2-1-.92-.16-2.19.21-3,0,.1-1.7.36-2.34-1.49-1.99l-.51.99c-3.8-1.18-8.5-3.12-12-5-.92-3.54-4.15-5.23-6.03-8.47-3.15-5.45-3.7-11.86-3.04-18.09.78-7.33,6.62-8.29,9.06-14.44.7-.37,1.27-.67,2-1,1.8-.81,4.66-.1,4-3,.89-.18,2.11.18,3,0,2.05-.42,4.62-.5,4-3,.89-.18,2.13.19,3,0,2.24-.5,5.8-.45,5-3,1.68-.38,7.67-.77,8-1,2.12.24,2.24.13,2-2,.93-.16,2.06.15,3,0,1.59,1.81,2.36,1.28,2-1,1.66-.05,3.34.06,5,0,11-.39,23.74-.63,35-1,.99-.03,2.01-.04,3,0ZM85.91,385.09c-.03,2.33.07,4.67,0,7-.05,1.57-.89,4.38-1,7-.57,14.28-2.89,28.29,0,42,.73,3.48.59,4.28,2,8,4.19,11.02,16.25,31.85,26.07,38.43,3.22,2.16,5.07,2.64,8.93,2.57-.1,3.65,7.61,4.81,10,6,16.74,8.35,33.09,17.29,52,21,7.08,1.39,14.99,2.71,22.46,3.04,4.44.2,30.89.25,32.52-2.08-.59-9.42-9.4-19-17.6-22.83-2.75-1.28-5.23-1.32-7.38-2.13-.29-.11-.71.11-1,0,.53-2.43-1.24-2.07-2.63-2.82-3.1-1.66-6.11-2.89-9.37-4.18-8.95-9.42-20.68-18.21-30-27-.92-.86-2.19-2.85-3-4-2.36-3.35-.97-.83-3-2-3.53-6.6-9.62-15.56-14.18-22.31-.51-.76-3.54-6.62-4.82-3.69-.5-1.62-.64-2.7-1-4-.58-2.12.05-3.93-3-5-.11-.29.11-.71,0-1-.19-.49-.84-.74-1-1-.19-.31-.7-.63-1-1,.11-1.02-.39-1.37-1-2-3.84-3.95-3.71-6.65-6-11-1.28-8.01-6.1-15.29-9.2-22.3-.81-1.83-.93-3.83-1.8-5.7-6.68-14.34-20.14-39.18-38-40-1.4-.06-3.97-.42-4.99.49,7.71,15.24,7.19,33.7,6.99,50.51Z"/>
  <path class="cls-12" d="M507.91,166.09c-.04,2.37-.67,3.47,2,3,.29,5.78-1.69,10.61-3,16-4.25-.59-1.08,3-1,4,.05.65.03,1.35,0,2-2.32-.33-2.76.34-1,2-2.66,11.46-8.25,20.93-14,31-2.12-.24-2.25-.12-2,2-.11.13.09,1.86-.55,2.91-5.92,9.65-15.94,25.63-23.98,33.06-.76.7-9.15,5.71-5.96,6.04,3.24-.17,6.31.69,9.5,1-.87,3.58,5.17,1.52,8.46,2.05.84.14,3.55,1.44,4.54,1.95,1.03,2.91,1.17,5.94,1,9-1.81,2.35-2.77,3.16-5,5-1.6,1.33-6.01,2.07-6,6-.43.31-.78,1.68-2.03,2.42-2.18,1.29-11.51,4.14-11.97,4.59-2.93,2.87,8.3,3.82,9,3.99-.47,2.67.63,2.04,3,2,1.48,1.46,1.21.84,2,3l-3,8c-6.07,7.07-14.82,11.55-24,13-5.33.84-3.91.85,0,3,2.43,1.33,1.89.53,4,3l1,3c-.86,5.9-6.17,6.7-11,9-1.8.86-4.51.82-3.62,4.03.16.59,6.58,9.39,7.17,9.96.98.95,2.31.88,2.45,1.01.7.7,1.31,1.25,2,2,.32,2.48-.07,7.77,3,7,1.82,6.84,3.76,14.03,5,21,.86,4.83.96,9.71,1.99,14.51v19.49c-.87,3.05-3.47,11.08-5.55,12.94-6.8,6.11-22.6-4.74-24.44-2.95,2.4,40.91-6.71,77.86-24.15,114.36-1.87,3.92-7.48,16.54-9.81,18.92-6.91,7.04-25.2-2.45-30.05-8.78s-12.67-19.77-19.8-24.46c-15.27-10.04-48.58-15.63-66.58-13.91-27.75,2.65-31.49,16-50.14,31.86-2.97,2.53-14.17,11.26-17.23,11.84-12.63,2.4-23.11-23.66-29.23-32.06-1.03-1.41-3.19-1.77-4.46-3.82s-1.79-5.53-2.56-7.93c3.52.78,7.45,1.44,11,2-.33,2.09.86,3.17,1.78,4.72,4,6.75,9.56,17.34,13.79,23.22,1.51,2.1,5.31,6.23,7.85,6.09,2.17-.12,12.77-8.14,15.06-10.04,9.1-7.57,21.11-22.45,30.91-27.13.92-.44,1.47-1.8,1.61-1.85,28.52-10.32,71.25-2.6,95.96,13.55,4.81,3.14,10.19,10.99,14.39,15.1,1.9,1.86,15.07,14.39,16.15,14.39,12.34-6.63,13.15-17.31,17.7-28.33,2.55-6.16,6.8-12.08,8.34-18.65.64-2.74-.05-6.48.45-8.05.33-1.03,1.2-1.9,2-5,2.33.33,2.76-.33,1-2,.55-2.12.52-5.06,1-7,2.26.37,2.84-.45,1-2,.15-.58-.14-1.41,0-2,2.36.31,2.71-.27,1-2,.88-3.5,2.59-6.43,3-10,2.17.49,2.45-1.04,2.74-2.71,1.14-6.51,2.08-17.12,2.32-23.77.15-4.21-1.53-7.65-3.06-11.52,3.38-21.46,12.84-10.92,28-9,.2-2.26-.27-4.8,0-7,2.29.35,2.8-.39,1-2,.83-11-3.05-33.29-6.48-44.02-2.21-6.91-8.16-15.54-11.52-22.98l-1-2c-.42-.98-1.13-.92-2-4l4-8c1.71-.42,3.63-.38,6-1,1-.26,3.91.81,2.99-1.48-.58-1.45-5.75-8.11-7.99-8.52-.65-7.68,8.63-6.31,14.28-8.22,2.19-.74,11.32-5.16,12.25-6.75,1.94-3.33-3.95-5.19-6.54-7.51-1.9-1.7-3.4-3.54-4.99-5.51l1-8c2.51-.94,5.47-1.11,8-2,1.73,1.71,2.3,1.36,2-1,8.69-3.12,6.87-3.01,13-9,.16-.16,3.72.5,1.8-2.83-.39-.68-13.16-6.5-14.8-4.17-1.43-.78-9.54-4.69-9.83-5.16-3.45-5.5,4.99-8.79,7.84-11.33,15.79-14.09,42.12-57.32,44.73-78.27.33-2.69.85-10.41.28-12.59-.29-1.12-1.92-.54-2.02-.66-.39-.46.51-2.41-2.73-2.82-2.71-.34-5.61,1.02-8.79.89-12.74-.54-24.69-3.15-38.01-2.09-1.77.14-3.44.35-4.48,2.02-2.59-.22-5.45.28-8,0-5.43-.59-11.32-1.47-17-2-.01-1.46-.57-2.57-2-3,.13-.18,1.93-3.79,2-4,18.46,2.77,36.96,1.54,55.54,1.96,2.61.06,5.07,1,7.91,1.09,6.28.19,14.38-1.09,19.92-.72,7.41.49,4.75,6.38,5.63,7.67Z"/>
  <path class="cls-14" d="M250.91,12.09c-.13.6.13,1.39,0,2-2.9-.6-1.82,1.43-2.28,3.17-2.46,9.33-2.77,13.67-2.72,22.83,0,.67-.02,1.33,0,2-3.04-.56-1.91,1.53-2,3.45-.31,7.13.61,12.76,2.53,19.56.47,1.66-.19,3.55,2.47,2.98.02.66-.05,1.34,0,2,.42,5.31-.2,13.42,0,19.55.06,1.92-1.02,4.01,2,3.45.03.66-.05,1.34,0,2-1.42,1.02-1.43,5.81-1.04,7.37.3,1.19,1.9.48,2.04.63,1,1.11,1.75,2.49,2,4s-.25,3.47,0,5c2.24,13.53,6.28,23.57-.83,36.67-8.53,15.7-23.11,20.59-39.9,14.56-2.53-.91-6.69-4.81-7.27-7.23-.34-1.4-.1-5.26,0-7,.02-.38.89-2.01,1-4,3.02.56,1.93-1.53,2-3.45.21-5.78,1.06-11.53,1-17.09-.02-1.92.98-4.02-2-3.45.02-1.33.02-2.67,0-4-.02-1.44,1.73-5.61-2-5-.31-.9-.74-3.76-1-4,.3-2.02.02-2.3-2-2-4.47-6-9.26-9.44-14-16,.29-2.06.06-2.28-2-2-.81-1.16-1.85-3.84-2-4,.29-2.05.05-2.29-2-2-.07-.32.08-.7,0-1-1.06-3.83-2.27-6.26-3.04-10.51-.33-1.82,1.31-4.06-1.96-3.49-.09-1.31-.01-2.68,0-4,3.01.99,2.2-3.81,1.97-6.52-.14-1.61-.97-1.39-.97-1.48-.04-.63-.07-1.38,0-2,2.35-.58,5.39-3.27,7.8-1.77.54.34.8,1.37,3.2,2.77.54.31,1.4.71,2,1-.24,2.13-.12,2.24,2,2,.14.15.69-.13,1,0-.61,2.64,1.97,2.44,4,3,1.24.34,2.51.57,4,1l-1,5c-2.32-.54-4.3-.1-7.29-1.21-3.27-1.21-5.36-4.16-8.7-4.78-.86,7.22.75,12.2,4.17,18.32.52.94,5.1,7.49,5.51,7.74,2.87,1.74,16.51,6.8,19.78,6.99,8.02.47,19.7-5.3,23.98-12.09,4.03-6.39-1.62-17.31-2.33-24.58-1.46-14.95,3.81-32.11,7.87-46.37-1.57-.31-2.3.16-3.54.95-17.64,11.31-20.01,26.7-25.46,45.04-3.08-.73-1.58,3.07-3.5,4-1.26.61-2.6.54-2.51-1.49.35-7.43,4.77-16.93,6.01-24.51.15-.92-.12-2.04,0-3,2.12.24,2.25.12,2-2,.11-.12.15-1.59,1-3,2.85.73,1.5-1.61,2.29-2.65,1.03-1.36,1.71-.25,2.71-3.35.09-.28-.07-.67,0-1,2.04.29,2.3.04,2-2,.08-.08.53-1.31,1-2,1.98.08,3.08-.98,3-3,.74-.68,1.65-.73,2-1,2.02.01,3.09-.99,3-3,.73-.5,1.79-.83,2-1,2.04.3,2.29.04,2-2,2.45-1.26,3.3-1.49,6-2,14.06-2.63,7.71,1.29,6,9ZM241.91,90.09c-2.7.18-3.94,2.79-6.3,4.19-8.29,4.91-17.15,7.46-26.7,4.81,7.63,7.87,6.45,29.99,20.48,29.05,4.37-.29,12.42-8.33,13.75-12.33,2.55-7.67-2.62-17.55-1.23-25.73ZM247.9,125.09c-5.34,2.12-8.77,8.52-14.72,9.77-7.41,1.55-10.09-1.16-16.27-3.77.07,4.11-3.24,22.56-1.84,24.84.21.35,6.5,2.75,7.56,2.92,17.64,2.97,30.27-18.04,25.26-33.76Z"/>
  <path class="cls-2" d="M389.91,9.09l4.52,7.93,3.48,3.07c.14.26-.13.73,0,1,1,2.07,2.65,6.23,5,6,.1.31-.11.71,0,1,1.76,4.7,3.23,9.01,5.7,13.8.83,1.61.6,3.39,3.3,3.2.49,1.52.64,2.7,1,4,.51,1.83,1.73,10.51,2.08,10.94.23.29,1.36.03,1.92.06.12.62-.12,1.39,0,2,.55,2.73,3.52,3.31,4,7,.57,4.37-.69,9.69-6.02,6.52-1.41-.84-3.07-9.05-3.98-11.52l.97-.55c-1.92-2.51-.93-8.29-3.97-7.45-.08-.32.08-.69,0-1-.12-.44-.58-.81-1-1-.05-.33.05-.67,0-1-.94-6.31-1.57-4.77-4-9-1.58-2.75-2.64-5.49-4-8l.9-.59c-.22-2.89-3.11-4.42-4.9-6.41-.12-.28.11-.71,0-1-.14-.37-.68-.7-1-1-4.91-3.95-6.81-14.04-13.99-15.99,1.52,7.03,1.39,14.3,2.07,21.42.22,2.31,1.72,4.41,1.93,7.07.47,5.93-1.29,30.23,1.01,32.99,1.89,2.27,18.27,14.22,21.3,15.7,4.67,2.27,15.54,6.02,19.71,2.35,1.18-1.03,9.63-13.32,10.19-14.81,1.38-3.65.72-7.87.78-11.72.05-3.61-.63-6.09,0-10,.06-.34-.09-.73,0-1,1.84,0,5.09-.67,5.86,1.64,1.33,3.96-.12,20.37-.86,25.36-.05.33.05.67,0,1-2.13-.24-2.24-.12-2,2-.15.09.12.69,0,1-2.13-.24-2.24-.12-2,2-.15.09.12.69,0,1-2.13-.24-2.24-.12-2,2-.16.09.14.72,0,1-2.62-.5-2.1.7-2,3-9.33,14.67-14.18,37.77-15,55-1.56.41-1.5,3.68,0,4-.13,1.2.28,3.13,0,4-.07.21-1.87,3.82-2,4-.08.11-1.32-.2-1.71.28-.51.63-.18,1.6-.29,1.72-11.6,12.08-26.16,5.74-32.5-8-1.37-2.98-1.7-6.01-2.5-9,1.69-1.92,1.64-3.52-1-3-.71-2.97-3.12-12.8-3-15,.03-.51,2.94-2.39-1-2-.11-1.31.14-2.69,0-4-.4-3.61-1.81-8.76-2-12-.44-7.43.51-13.9,1-21,3.17.56,1.78-1.59,1.97-3.49,1.04-10.5,2.39-19.29,2.03-30.06-.06-1.93,1.02-4.01-2-3.45-.02-1.66.06-3.34,0-5,1.8-1.61,1.29-2.35-1-2-.11-2.65.19-5.36,0-8,2.97.57,1.99-1.55,2.01-3.47.13-9.89-2.32-19.88-4.02-29.53l6-1c5.85,1.49,6.9,3.08,11,7ZM381.91,83.09c-.11.61.07,1.35,0,2-4.4-.74-1.11,5.23-1,7,.08,1.32-.07,2.67,0,4-2.38,2.39-.82,5.57,0,8,2.22,6.62,6.44,12.33,11.53,16.97,4.64,4.23,9.88,8.95,16.77,7.04,4.08-1.13,9.31-23.13,11.72-27.5-14.9-2.86-27.14-10.24-38.02-20.52-2.37-.36-2.2.19-1.99,2.5l.99.5ZM383.91,124.09c-3.73-2.34-2.89,2.61,0,2,.25,2.35,1.2,4.68,1,7,0,.11-1.61,1.37-.99,1.99.22.23,1.73-.22,1.99,0,.08.07.06,1.52,0,2-.22,1.73-1.92,6.35,2,6,1.11,6.51,3.61,15.26,10.96,17.56,4.44,1.39,12.04-3.6,12.04-7.06v-17.5c-13.26,2.76-17.92-6.29-27-12Z"/>
  <path class="cls-7" d="M205.91,149.09c-.1,1.74-.34,5.6,0,7-2.7.44-5.36,1.39-8,2-16.47,3.83-33.61,5.62-50.54,5.04-3.86-.13-7.1-1.46-11.46-1.04,1.08-3.09-3.38-2.52-3.97-.39-.18.64.97,1.27.97,1.39.25,10.17,1.32,20.45,3.12,30.38,2.69,14.8,6.69,23.64,15.88,35.62l2,2c6.91,8.06,22.18,13.84,13.43,26.93-5.21,7.8-23.67,15.58-4.46,20.6,2.86.75,5.45-1.35,8.52,2.5,4.87,6.1-7.47,10-6.38,14.27.39,1.53,8.13,7.09,9.65,7.49,3.89,1.01,8.8-2.6,11.34.63,1.35,1.72,1.27,11.47.85,14.04-.39,2.42-3.16,4.99-2.94,6,.6,2.73,17.01,5.4,12.99,13.56-.58-.15-2.35.86-3.49.8-1.49-.08-3.22-.98-4.51-.8.15-4.32-6.97-4.11-9-5-.63-.27-1.37-.68-2-1-5.01-2.56-4.37-5.77-6-8,2.42-2.91,4.62-6.06,5-9.99-7.99,1.87-28.18-12.38-28.08-19.54.06-4.26,4.4-3.27,5.08-6.96-.32-1.35-14.07-4.76-14.75-11.15-.74-6.97,7.03-8.15,11.23-11.39,3.63-2.8,5.62-6.67,8.53-9.97.59-.67,3.19,1.18,2-4-.29-1.26.08-2.1-.93-3.53-2.35-3.34-10.87-8.95-14.51-13.53-3.95-4.96-9.73-14.18-11.56-19.94-.72-2.27-1.72-9.58-2.02-10-.14-.2-1.42.06-1.98,0,0-.66.04-1.34,0-2-.15-2.44.3-7.01-.01-10.53-.17-1.9,1.14-4.02-1.99-3.47-.3-2.03-.69-4-1-6l.72-15.8-.72-5.2c1.18-3.69.33-3.45,4-5,.41,1.56,3.68,1.5,4,0,8.41.02,17.73-.56,26,0,.84.06,3.5,3.07,3-1,3.31-.14,6.7.2,10,0l.6.98,1.4-.98c10.06-.9,19.98-3.78,30-5Z"/>
  <path class="cls-7" d="M313.91,76.09c3.21-1.32,15.94-7.73,17.91-4.91,1.52,2.16-2.22,5.58-2.7,7.61-.65,2.76,1.33,16.86,2.81,18.3,1.69,1.64,4.48-5.79,4.76-6.72,1.47-4.94-.17-12.09,6.52-10.09,1.85.55,12.4,13.15,15.18,15.84,2.51,2.43,6.08,4.13,8.56,6.44,2.13,1.98,3,5.26,5.96,6.54.19,3.24,1.6,8.39,2,12-4.13.19-2.95-5.16-4.25-6.75-.59-.72-2.7-.87-3.7-1.78-4.52-4.1-9.26-7.68-13.53-11.49-2.03-1.81-8.45-11.51-10.6-8.38s-3.44,11.38-9.66,12.28c-7.63,1.1-12.38-19.97-11.27-25.87-2.45-2.78-23.59,15.56-25.72,15.87-5.29.76-3.79-7.38-4.28-7.88-.52-.54-3.67.38-4.73.78-9.86,3.66-22.61,20.62-31.27,23.23-.89-1.28-.47-2.68,0-4,2.87-.37,8.27-5.98,9-9,7.02-5.37,24.33-19.63,33-19,2.54,2.31-1.49,7.55-1,7.99,2.5,2.26,4.48-3.53,5-3.99,2.07-1.86,3.89-2.01,6-3s6.62-1.03,6-4Z"/>
  <path class="cls-11" d="M436.91,54.09c-.63,3.91.05,6.39,0,10l-16,5c-.48-3.69-3.45-4.27-4-7,4.03,1.79,11.62-1.09,14.94-3.55,2.22-1.64,2.4-4.52,5.06-4.45Z"/>
  <path class="cls-13" d="M11.91,297.09c-2.45,6.14-8.28,7.11-9.06,14.44-.67,6.23-.11,12.64,3.04,18.09,1.87,3.25,5.11,4.93,6.03,8.47-15.28-8.2-16.47-32.21,0-41Z"/>
  <path class="cls-1" d="M70.91,337.09c2.74-.22,3.07.03,3.96,2.54.79,2.24,1.91,10.36,2.07,13.01.36,5.79.21,15.95-.03,21.99-.08,1.92,1.03,4.01-2,3.46-.02-13.92.42-27.75-4-41Z"/>
  <path class="cls-1" d="M215.91,34.09c-1.25,7.58-5.67,17.08-6.01,24.51-.09,2.03,1.25,2.1,2.51,1.49,1.92-.93.43-4.73,3.5-4-.6,2.01-3.22,8.79-4.43,10.07-2.88,3.06-4.93,1.48-7.57.93,1.91-1.85,6.48-.11,6-4-4.62,1.23-3.77-1.84-4-2,3.09.59,1.7-1.52,2.12-3.33,1.6-6.95,2.9-14.15,5.19-20.9.55-1.62.17-3.27,2.69-2.76Z"/>
  <path class="cls-11" d="M378.91,2.09l-6,1c1.7,9.65,4.15,19.64,4.02,29.53-.03,1.92.96,4.03-2.01,3.47-.4-5.76-.36-12.83-1.11-18.39-1.05-7.83-8.97-19.2,5.11-15.61Z"/>
  <path class="cls-11" d="M375.91,51.09c3.02-.56,1.94,1.53,2,3.45.36,10.77-1,19.56-2.03,30.06-.19,1.89,1.2,4.04-1.97,3.49.85-12.39,2.17-24.5,2-37Z"/>
  <path class="cls-11" d="M436.91,53.09c1.66-5.14,6.71-3.09,7.79,1.71.84,3.77.66,18.59-.05,22.57-.3,1.67-.56,3.2-2.74,2.72.74-4.99,2.2-21.4.86-25.36-.78-2.31-4.03-1.63-5.86-1.64Z"/>
  <path class="cls-13" d="M87.91,282.09c-11.26.37-24,.61-35,1,9.15-3.01,19.85-2.12,29.51-2.02,1.69.02,4.45-.64,5.49,1.02Z"/>
  <path class="cls-7" d="M453.91,393.09c2.71-.59,1.99,1.35,2.32,3.13,2.04,10.99,2.79,20.11-.32,30.87v-19.49c-1.04-4.8-1.14-9.68-2-14.51Z"/>
  <path class="cls-7" d="M437.91,348.09l6,15c-.13-.13-1.47-.06-2.45-1.01-.59-.57-7.01-9.37-7.17-9.96-.89-3.21,1.82-3.17,3.62-4.03Z"/>
  <path class="cls-1" d="M250.91,14.09c-1.79,8.62-2.89,17.45-5,26-.05-9.16.26-13.5,2.72-22.83.46-1.74-.62-3.77,2.28-3.17Z"/>
  <path class="cls-1" d="M245.91,42.09c.24,9.58,2.76,18.46,3,26-2.65.57-2-1.32-2.47-2.98-1.92-6.8-2.84-12.43-2.53-19.56.08-1.92-1.04-4.01,2-3.45Z"/>
  <path class="cls-1" d="M207.91,121.09c2.98-.56,1.98,1.53,2,3.45.06,5.57-.78,11.31-1,17.09-.07,1.92,1.01,4.01-2,3.45.44-7.97.87-16.02,1-24Z"/>
  <path class="cls-1" d="M250.91,93.09c-3.02.56-1.94-1.53-2-3.45-.2-6.12.42-14.24,0-19.55,3.11,7.28,1.6,15.35,2,23Z"/>
  <path class="cls-3" d="M126.91,181.09c-1.41-9.01-3.22-10.92,0-21l.72,5.2-.72,15.8Z"/>
  <path class="cls-1" d="M244.91,3.09c.31-4.09,9.12-3.8,10.53-1,1.05,2.08-1.16,9.8-4.53,10,1.71-7.71,8.06-11.63-6-9Z"/>
  <path class="cls-11" d="M411.91,45.09c-2.71.19-2.47-1.59-3.3-3.2-2.47-4.79-3.94-9.09-5.7-13.8,3.8,4.37,7.22,11.45,9,17Z"/>
  <path class="cls-2" d="M205.91,61.09c.22.17-.63,3.24,4,2,.49,3.88-4.08,2.14-6,4-.97-.2-1.68-.93-2-1l1-5c.79.23,2.65-.27,3,0Z"/>
  <path class="cls-3" d="M127.91,187.09c3.13-.56,1.82,1.57,1.99,3.47.31,3.52-.13,8.09.01,10.53-2.78-4.05-1.37-9.77-2-14Z"/>
  <path class="cls-7" d="M480.91,273.09c6.31,3.24,4.69,4.22,1,9,.17-3.06.03-6.09-1-9-.99-.51-3.71-1.81-4.54-1.95-3.29-.53-9.32,1.53-8.46-2.05,5.34.51,10.85-2.07,13,4Z"/>
  <path class="cls-1" d="M177.91,67.09c3.27-.57,1.63,1.67,1.96,3.49.77,4.25,1.98,6.68,3.04,10.51-2.49.52-2.1-1.17-2.73-2.72-1.8-4.41-1.96-6.68-2.27-11.28Z"/>
  <path class="cls-13" d="M116.91,288.09c3.23.88,6.26,1.84,9.35,3.16,1.62.69,5.17,1.43,4.65,3.84-3.68-1.51-7.3-3.12-11.02-4.53-1.55-.59-3.57.28-2.98-2.47Z"/>
  <path class="cls-3" d="M264.91,98.09c-.73,3.02-6.13,8.63-9,9-.47,1.32-.89,2.72,0,4-.48.15-1.2,1.03-2,1-.25-1.53.25-3.47,0-5,.66-.06,1.35.08,2,0,1.87-5.29,5.29-6.16,9-9Z"/>
  <path class="cls-3" d="M301.91,83.09c-.51.46-2.49,6.25-5,3.99-.5-.45,3.53-5.68,1-7.99,3.01.22,2.44,1.93,4,4Z"/>
  <path class="cls-11" d="M416.91,60.09c-.56-.03-1.69.24-1.92-.06-.34-.44-1.56-9.11-2.08-10.94,3.76,2.21,3.31,7.34,4,11Z"/>
  <path class="cls-13" d="M36.91,345.09c1.12-2.76,1.12-5.23,0-8,.18.17,1.53.04,2.47.99,2.55,2.58,1.2,6.43-2.47,7.01Z"/>
  <path class="cls-3" d="M129.91,203.09c.56.07,1.84-.19,1.98,0,.3.41,1.3,7.73,2.02,10-2.81.72-3.98-7.39-4-10Z"/>
  <path class="cls-1" d="M189.91,54.09c-2.4-1.39-2.66-2.43-3.2-2.77-2.4-1.5-5.45,1.19-7.8,1.77.73-6.57,9.78-4.35,11,1Z"/>
  <path class="cls-13" d="M45.91,320.09c-1.82-2.97,7.14-2.38,7.83-1.78.45.39.06,1.71.17,1.78-2.66.07-5.34-.1-8,0Z"/>
  <path class="cls-7" d="M467.91,317.09l3-8c1.98,5.44-.14,4.67-3,8Z"/>
  <path class="cls-1" d="M251.91,103.09c-.13-.15-1.74.56-2.04-.63-.39-1.56-.38-6.35,1.04-7.37.14,1.71,1.99,5.22,1,8Z"/>
  <path class="cls-1" d="M178.91,55.09c0,.09.83-.13.97,1.48.23,2.71,1.04,7.51-1.97,6.52.03-2.67-.72-5.86,1-8Z"/>
  <path class="cls-7" d="M476.91,287.09c-.18,3.93-3.99,4.55-6,6,0-3.93,4.4-4.67,6-6Z"/>
  <path class="cls-7" d="M448.91,372.09c-3.07.77-2.68-4.52-3-7,2.97,3.2,2.02,3.3,3,7Z"/>
  <path class="cls-11" d="M397.91,20.09l-3.48-3.07-4.52-7.93c4.65,4.45,5.16,5.53,8,11Z"/>
  <path class="cls-3" d="M313.91,76.09c.62,2.97-3.89,3.01-6,4-.61-2.88,3.81-3.1,6-4Z"/>
  <path class="cls-13" d="M96.91,284.09c-1.82,1.07-7.03.64-6-2,3.23.13,4.41,1.63,6,2Z"/>
  <path class="cls-13" d="M34.91,324.09l-2,5c-.09-.52-1.62-1.41-.95-3.37.6-1.77,2.49-1.27,2.95-1.63Z"/>
  <path class="cls-1" d="M205.91,112.09c3.73-.61,1.98,3.56,2,5-1.61-1.28-1.42-3.3-2-5Z"/>
  <path class="cls-13" d="M32.91,287.09c.8,2.55-2.76,2.5-5,3-.8-2.56,2.75-2.49,5-3Z"/>
  <path class="cls-7" d="M443.91,330.09v3c-3.91-2.15-5.33-2.16,0-3Z"/>
  <path class="cls-7" d="M418.91,152.09c-1.5-.32-1.56-3.59,0-4-.05,1,.26,1.52,0,4Z"/>
  <path class="cls-3" d="M160.91,250.09c1.19,5.18-1.41,3.33-2,4l2-4Z"/>
  <path class="cls-1" d="M194.91,57.09c1.85.77,4.64.14,4,3-2.03-.56-4.61-.36-4-3Z"/>
  <path class="cls-7" d="M506.91,185.09c-.28,1.17.43,2.87-1,4-.08-1-3.25-4.59,1-4Z"/>
  <path class="cls-11" d="M397.91,21.09c2.36-.33,4.3,3.84,5,6-2.35.23-4-3.93-5-6Z"/>
  <path class="cls-13" d="M17.91,293.09c.66,2.9-2.2,2.19-4,3-.62-2.5,1.95-2.58,4-3Z"/>
  <path class="cls-3" d="M134.91,155.09c-.32,1.5-3.59,1.56-4,0,3.74-1.57,3.03,0,4,0Z"/>
  <path class="cls-13" d="M24.91,290.09c.62,2.5-1.95,2.58-4,3-.62-2.5,1.95-2.58,4-3Z"/>
  <path class="cls-1" d="M234.91,8.09c.09,2.01-.98,3.01-3,3,.26-.2.24-1.13,3-3Z"/>
  <path class="cls-1" d="M229.91,12.09c.08,2.02-1.02,3.08-3,3,2.08-3.04,1.56-1.68,3-3Z"/>
  <path class="cls-13" d="M169.91,322.09c-2-.01-3.1-.99-3-3,.25.21,1.54-.02,2.52.97.61.62.31,1.81.48,2.03Z"/>
  <path class="cls-1" d="M223.91,20.09c-1,3.09-1.68,1.99-2.71,3.35-.79,1.04.56,3.39-2.29,2.65,1.24-2.07,1.54-6,5-6Z"/>
  <path class="cls-7" d="M507.91,166.09c.52.77,1.74-2.17,2,3-2.67.47-2.04-.63-2-3Z"/>
  <path class="cls-13" d="M105.91,286.09c-.28.02-3.4,3.23-3-1,1.12.16,2.17-.02,3,1Z"/>
  <path class="cls-3" d="M163.91,154.09c.5,4.07-2.16,1.06-3,1,.48-1.31,1.9-.95,3-1Z"/>
  <path class="cls-11" d="M435.91,90.09c-.99,2.07-1.37,2.01-2,3-.1-2.3-.62-3.5,2-3Z"/>
  <path class="cls-7" d="M468.91,306.09c-2.37.04-3.47.67-3-2,2.47.59,1.71.72,3,2Z"/>
  <path class="cls-13" d="M165.91,318.09c-2.37.04-3.47.67-3-2,.78.59,1.55.81,3,2Z"/>
  <path class="cls-7" d="M448.91,339.09l-1-3c.34.4,1.65.53,1.85,1.65.15.88-.83,1.23-.85,1.35Z"/>
  <path class="cls-13" d="M158.91,313.09c2.04,1.51,1.85,1.89,2,2-2.04.3-2.29.04-2-2Z"/>
  <path class="cls-13" d="M61.91,323.09c1.88-.35,2.33.13,2,2-.26-.23-1.74.26-2,0s.22-1.72,0-2Z"/>
  <path class="cls-1" d="M202.91,106.09c2.02-.3,2.3-.02,2,2-1.19-1.08-.19.43-2-2Z"/>
  <path class="cls-13" d="M33.91,334.09c-2.3.39-2.88-.45-1-2,.04.11.86,1.76,1,2Z"/>
  <path class="cls-1" d="M186.91,88.09c2.06-.28,2.29-.06,2,2-.11-.15-.37.32-2-2Z"/>
  <path class="cls-11" d="M437.91,87.09c-.19.5.24,1.75,0,2s-1.62-.22-2,0c-.24-2.12-.13-2.24,2-2Z"/>
  <path class="cls-11" d="M439.91,84.09c-.19.5.24,1.75,0,2s-1.62-.22-2,0c-.24-2.12-.13-2.24,2-2Z"/>
  <path class="cls-1" d="M182.91,82.09c2.05-.29,2.29-.05,2,2-.72-.77-1.15,1.83-2-2Z"/>
  <path class="cls-11" d="M441.91,81.09c-.52,3.54-.58,1.16-2,2-.24-2.12-.13-2.24,2-2Z"/>
  <path class="cls-13" d="M23.91,343.09l.51-.99c1.85-.35,1.59.29,1.49,1.99-1.02-.27-1.6-.87-2-1Z"/>
  <path class="cls-13" d="M28.91,344.09c1.59-1.81,2.36-1.28,2,1-1.76-.13-1.89-.98-2-1Z"/>
  <path class="cls-7" d="M505.91,191.09c-.07,1.73-.97,1.89-1,2-1.76-1.66-1.32-2.33,1-2Z"/>
  <path class="cls-13" d="M47.91,283.09c.36,2.28-.41,2.81-2,1,.11-.02.23-.95,2-1Z"/>
  <path class="cls-13" d="M42.91,284.09c.24,2.13.12,2.24-2,2,.72-.5-1.82-1.36,2-2Z"/>
  <path class="cls-7" d="M490.91,224.09c-1.8,3.14-1.53,1.47-2,2-.25-2.12-.12-2.24,2-2Z"/>
  <path class="cls-13" d="M114.91,288.09c-1.55,1.84-2.37,1.26-2-1,1.6.25,1.89.98,2,1Z"/>
  <path class="cls-11" d="M374.91,44.09c2.29-.35,2.8.39,1,2,0-.11-.93-.22-1-2Z"/>
  <path class="cls-1" d="M191.91,55.09c3.36,1.6.78.61,2,2-2.12.24-2.24.13-2-2Z"/>
  <path class="cls-1" d="M217.91,29.09c.25,2.12.12,2.24-2,2,.46-3.73,1.37-1.33,2-2Z"/>
  <path class="cls-1" d="M238.91,5.09c.29,2.04.04,2.3-2,2,.37-.31-1.28-.31,2-2Z"/>
  <path class="cls-3" d="M175.91,154.09l-1.4.98-.6-.98c1.18-.07,1.87.01,2,0Z"/>
  <path class="cls-13" d="M144.91,303.09c2.19,1.55,1.85,1.89,2,2-2.06.29-2.28.06-2-2Z"/>
  <path class="cls-1" d="M225.91,17.09c.3,2.04.04,2.29-2,2,.8-3.78,1.22-1.25,2-2Z"/>
  <path class="cls-10" d="M435.91,165.09c2.55.28,5.41-.22,8,0,.2.02.8.86,1.59.93,17.44,1.4,34.9,1.15,52.41,1.07.1.12,1.73-.46,2.02.66.57,2.17.06,9.9-.28,12.59-2.61,20.94-28.94,64.17-44.73,78.27-2.85,2.54-11.29,5.83-7.84,11.33.29.47,8.41,4.38,9.83,5.16.41.22,1.15,2.04,2.25,2.21l10.75,4.79c-6.13,5.99-4.31,5.88-13,9-1.01.36-1.85.95-2,1-2.53.89-5.49,1.06-8,2-7.02,2.63-3.89,4.42-1,8,1.59,1.97,3.09,3.81,4.99,5.51,2.59,2.32,8.47,4.18,6.54,7.51-.93,1.59-10.06,6.01-12.25,6.75-5.65,1.91-14.93.54-14.28,8.22.34,3.95,4.3,6.22,5,10-2.37.62-4.29.58-6,1-6.15,1.5-5.5,2.72-4,8,.87,3.08,1.58,3.02,2,4,.33.78.72,1.38,1,2,3.36,7.44,9.31,16.07,11.52,22.98,3.43,10.73,7.31,33.03,6.48,44.02,0,.11-.79.25-1,2-.27,2.2.2,4.74,0,7-15.16-1.93-24.62-12.46-28,9-1.93,12.24-.54,25.45-2,38-.41,3.57-2.12,6.5-3,10-.03.11-.64.55-1,2-.14.59.15,1.42,0,2-.03.11-.64.55-1,2-.48,1.94-.45,4.88-1,7-.03.11-.63.56-1,2-.8,3.1-1.67,3.97-2,5-19.1-2.9-35.93,10.13-54.48,8.98-13.61-.84-25.29-7.23-37.28-9.72-10.03-2.08-20.63-2.48-31.06-4.94-29.64-7-57.37-24.35-81.1-42.9-18.89-14.77-33.89-41.7-50.06-59.94-2.61-2.94-9.87-9.09-14.02-8.48-10.23-20.51-18.82-44.91-39-57-.16-.09,1.11-.42-2-2-.71-.36-.97-.64-2-1,.43-2.62-2.95-2.51-5-3-.57-.14-1.37.1-2,0-.11-.02-.27-.78-2-1-2.8-.36-6.29.43-9,0-.75-5.08-6.96-9.42-11.34-11.26-1.44-.6-2.82-.04-3.75-.36-6.47-2.2-12.42-5.8-19.91-2.39-.87-.09-2.13-.1-3,0-3.66.4-1.34,1.28-2,2-.2.22-1.48-.2-2,0-2.41.92-2.1,1.47-3,2-4.76,2.84-5.4,3.26-7,9-1.06,3.79-1.63,5.96,0,10-6.77-3.18-11.28-1.69-15.2-9.31-2.3-4.47-2.33-6.99-2.8-11.69,1.43-.52.76-2.06,1-3,.5-1.95,1.01-3.25,2-5,.17-.29.71-.61,1-1,4.62-6.3,9.05-8.15,16-11,.45-.19.78-.92,1-1,.3-.1.69.09,1,0,.54-.17.9-.98,1-1,.32-.06.68.07,1,0l35-4c16.68,1.26,35.3,1.94,51.23,7.27,13.46,4.51,45.76,28.09,54.75,39.25,17.36,21.53,25.11,37.57,52.35,49.65,18.05,8.01,36.6,6.79,54.17,19.83,6.04,4.48,13.72,17.63,18.13,19.87,1.89.96,4.69,1.7,6.71,1.15,1.11-.3.54-1.9.66-2.02s1.76.45,2.04-.67c1.21-4.74-2.97-7.91-4.6-11.27-1.33-2.73-1.95-5.82-3.6-8.4-7.71-12.05-64.69-32.35-81.17-43.83-4.8-3.34-17.18-21.91-20.67-22.83,4.02-8.16-12.39-10.83-12.99-13.56-.22-1.01,2.55-3.58,2.94-6,.42-2.57.5-12.31-.85-14.04-2.54-3.23-7.45.38-11.34-.63-1.51-.39-9.26-5.96-9.65-7.49-1.09-4.27,11.25-8.17,6.38-14.27-3.07-3.85-5.66-1.75-8.52-2.5-19.21-5.02-.75-12.8,4.46-20.6,8.75-13.1-6.52-18.87-13.43-26.93-.67-.79-1.7-1.61-2-2-9.19-11.98-13.2-20.82-15.88-35.62-1.8-9.93-2.86-20.21-3.12-30.38.92-.53,1.93-.9,3-1,4.35-.41,7.6.91,11.46,1.04,16.93.57,34.08-1.21,50.54-5.04,1.52,16.93,19.63,18.31,33.38,16.88,18.67-1.95,29.16-12.57,38.65-27.35,4.39-6.84,1.95-10.53,11.49-11.51,12.79-1.32,30.7-1.64,43.94-2.06,7.79-.25,29.66-1.34,35.09,3.99.66.65,7.99,14.67,8.63,16.37,2.85,7.56.62,12.13,8.48,17.52,13.86,9.51,27.8,8.25,42.39,1.72,2.07-.92,3.45-3.03,5.21-3.79,3.52-1.53,8.81-.36,10.74-4.76ZM387.21,334.87c-1.04-1.75-1.05-10.64-4.27-12.29-5.14-2.64-9.36,2.31-12.72,2.33-1.88.01-2.44-2.12-4-2.62-3.63-1.15-7.25.76-10.76.84-21.9.5-52.68-2.84-73.1-.1-3.32.45-3.57,2.67-6.89,3.11-6.81.91-11.4-.81-17.28-1.82-14.79-2.54-12.89,7.93-3.77,14.76,15.9,11.89,70.02,14.5,89.87,11.89,10.97-1.44,34.99-6.88,43.53-13.47,3.14-2.42-.45-2.35-.62-2.63Z"/>
  <path class="cls-6" d="M406.91,508.09c-.51,1.57.19,5.32-.45,8.05-1.55,6.57-5.79,12.49-8.34,18.65-4.56,11.03-5.36,21.7-17.7,28.33-1.08,0-14.25-12.52-16.15-14.39-4.2-4.11-9.58-11.96-14.39-15.1-24.71-16.14-67.44-23.87-95.96-13.55.09-.75-.97-1.7-1-2-.16-1.44.49-3.6-.22-4.78-.21-.35-4.87-3.6-6.3-5.21-5.77-6.5-9.89-13.64-17.6-18.4-3.76-2.32-9.66-3.76-13.29-5.71-35.37-19.06-59.38-58.37-76.6-92.9,4.15-.61,11.41,5.53,14.02,8.48,16.17,18.24,31.17,45.16,50.06,59.94,23.73,18.55,51.46,35.9,81.1,42.9,10.43,2.46,21.03,2.86,31.06,4.94,11.99,2.49,23.67,8.88,37.28,9.72,18.55,1.15,35.38-11.88,54.48-8.98Z"/>
  <path class="cls-15" d="M86.91,449.09c16.96,4.47,32.96,3.33,49.82-.68,3.38-.8,15.87-5.66,17.53-5.4.43.07,3.96,5.28,5.61,6.64.57.47,4.33,3.03,5.04,3.44.74,1.38,1.28,2.01,3,2,.81,1.15,2.08,3.14,3,4-2.58,19.65-31.69,30.67-49,31-3.86.07-5.71-.41-8.93-2.57-9.82-6.58-21.88-27.41-26.07-38.43Z"/>
  <path class="cls-15" d="M131.91,496.09c5.77-1.26,12.86-1.98,18.29-4.21,8.18-3.36,22.64-11.59,26.23-19.79.69-1.57-.05-6.09,2.56-3.36,5.76,6.01,8.54,13.61,17.92,16.9,1.47.51,3.34.2,3.99.46,3.86,4.06,6.22,4.83,12,7,.29.11.71-.11,1,0,10.07,6.25,18.95,10.76,20,23.99h-50c-18.91-3.7-35.26-12.64-52-20.99Z"/>
  <path class="cls-15" d="M132.91,402.09c2.29,4.35,2.16,7.05,6,11-.11,1.03.49,1.38,1,2,.3.37.81.69,1,1l1,1c.11.29-.11.71,0,1,.67,1.73-.28,5.71,3,5,.36,1.3.5,2.38,1,4,.45,1.48,3.34,9.43,2.97,9.96-20.63,7.36-42.69,10.98-63.97,4.04-2.89-13.71-.57-27.72,0-42,3.37.66,9.36,3,12.5,3h15c5.03,0,11.66-4.56,15.94-6.99.47.1,4,5.92,4.56,6.99Z"/>
  <path class="cls-9" d="M83.91,334.09c5.04,4.42,12.37,6.52,16.99,11.51,3.87,4.17,15.62,23.93,18.01,29.49,1.04,2.43,1.29,5.59,2,8-11.51,3.9-23.41,7.56-35,2,.2-16.81.72-35.27-6.99-50.51,1.02-.91,3.59-.56,4.99-.49Z"/>
  <path class="cls-4" d="M253.91,520.09c-.13.05-.69,1.42-1.61,1.85-9.8,4.68-21.82,19.56-30.91,27.13-2.29,1.91-12.89,9.92-15.06,10.04-2.54.14-6.34-3.99-7.85-6.09-4.23-5.88-9.78-16.46-13.79-23.22-.92-1.55-2.1-2.63-1.78-4.72,15.7,2.46,47.67,4.59,61.99-1.51,3.4-1.45,5.26-3.26,8.01-5.49.03.3,1.09,1.25,1,2Z"/>
  <path class="cls-4" d="M196.91,337.09c3.49.92,15.87,19.49,20.67,22.83,16.48,11.48,73.46,31.78,81.17,43.83,1.65,2.58,2.27,5.66,3.6,8.4,1.64,3.37,5.81,6.53,4.6,11.27-.28,1.12-1.91.54-2.04.67.69-3.86-2.52-8.74-5-11.5-8.99-9.96-25.01-21.81-37.72-26.28-8.8-3.09-18.99-3.17-27.82-6.18-22.36-7.65-35.55-23.36-49.46-41.04,1.5.22,3.21-1.89,4-2,1.29-.18,3.03.72,4.51.8,1.14.06,2.9-.95,3.49-.8Z"/>
  <path class="cls-2" d="M200.91,486.09c-.65-.26-2.52.05-3.99-.46-9.38-3.29-12.16-10.89-17.92-16.9-2.61-2.73-1.88,1.79-2.56,3.36-3.59,8.2-18.05,16.43-26.23,19.79-5.43,2.23-12.52,2.95-18.29,4.21-2.39-1.19-10.1-2.35-10-6,17.31-.33,46.42-11.35,49-31,9.32,8.79,21.05,17.58,30,27Z"/>
  <path class="cls-2" d="M145.91,427.09c1.27-2.93,4.31,2.93,4.82,3.69,4.56,6.76,10.65,15.71,14.18,22.31-.71-.41-4.47-2.97-5.04-3.44-1.65-1.36-5.18-6.57-5.61-6.64-1.66-.26-14.15,4.6-17.53,5.4-16.86,4.01-32.87,5.14-49.82.68-1.41-3.72-1.27-4.52-2-8,21.28,6.93,43.34,3.32,63.97-4.04.38-.52-2.51-8.48-2.97-9.96Z"/>
  <path class="cls-2" d="M121.91,374.09c.87,1.87,1,3.87,1.8,5.7,3.1,7.02,7.92,14.29,9.2,22.3-.56-1.07-4.09-6.89-4.56-6.99-4.28,2.43-10.91,6.99-15.94,6.99h-15c-3.14,0-9.13-2.34-12.5-3,.11-2.62.95-5.43,1-7,6.85,2.42,34.57,4.65,36.85-3.72.92-3.39-1.52-4.15-1.85-5.28-.71-2.41-.96-5.57-2-8l3-1Z"/>
  <path class="cls-15" d="M120.91,383.09c.33,1.13,2.78,1.89,1.85,5.28-2.28,8.37-30,6.14-36.85,3.72.07-2.33-.03-4.67,0-7,11.59,5.56,23.49,1.9,35-2Z"/>
  <path class="cls-11" d="M213.91,493.09c2.15.81,4.63.85,7.38,2.13,8.2,3.83,17.01,13.41,17.6,22.83-1.63,2.33-28.08,2.28-32.52,2.08-7.47-.33-15.38-1.65-22.46-3.04h50c-1.06-13.24-9.94-17.75-20-24Z"/>
  <path class="cls-11" d="M121.91,374.09l-3,1c-2.38-5.56-14.13-25.32-18.01-29.49-4.63-4.98-11.95-7.09-16.99-11.51,17.86.82,31.32,25.66,38,40Z"/>
  <path class="cls-13" d="M77.91,327.09c-4.31-.69-7.05-7.11-11.43-9.07-7.11-3.18-16.27-4.13-23.57-4.93,7.5-3.42,13.45.19,19.91,2.39.93.32,2.31-.25,3.75.36,4.38,1.83,10.58,6.18,11.34,11.26Z"/>
  <path class="cls-13" d="M66.91,289.09l-35,4c3.77-3.25,11.68-4.58,16.52-4.98,6.42-.54,12.51.53,18.48.98Z"/>
  <path class="cls-11" d="M200.91,486.09c3.25,1.29,6.27,2.52,9.37,4.18,1.4.75,3.16.39,2.63,2.82-5.78-2.17-8.14-2.94-12-7Z"/>
  <path class="cls-13" d="M25.91,326.09c2.14,2.64.12,7.15,2.02,10.49-1.19,1.87-1.87-.42-2.02-.49-1.63-4.04-1.06-6.21,0-10Z"/>
  <path class="cls-11" d="M144.91,423.09c-3.28.71-2.33-3.27-3-5,3.05,1.07,2.42,2.88,3,5Z"/>
  <path class="cls-13" d="M90.91,328.09c2.05.49,5.43.38,5,3-2.25-.79-5.76-.19-5-3Z"/>
  <path class="cls-13" d="M8.91,312.09c-.24.94.43,2.48-1,3-.1-.97-3.04-3.48,1-3Z"/>
  <path class="cls-13" d="M35.91,315.09c.47,2.67-.63,2.04-3,2,.9-.53.59-1.08,3-2Z"/>
  <path class="cls-11" d="M164.91,453.09c2.03,1.17.64-1.35,3,2-1.72,0-2.26-.62-3-2Z"/>
  <path class="cls-13" d="M39.91,313.09c.24,2.13.12,2.24-2,2,.66-.72-1.66-1.6,2-2Z"/>
  <path class="cls-13" d="M179.91,332.09v1c-.36-.28-2.61.75-2-2,.63.32,1.37.73,2,1Z"/>
  <path class="cls-13" d="M97.91,332.09c3.11,1.58,1.84,1.91,2,2-2.05.29-2.28.05-2-2Z"/>
  <path class="cls-13" d="M88.91,328.09c-1.55,1.84-2.37,1.26-2-1,1.73.22,1.89.98,2,1Z"/>
  <path class="cls-11" d="M139.91,415.09c-.51-.62-1.11-.97-1-2,.61.63,1.11.98,1,2Z"/>
  <path class="cls-13" d="M29.91,294.09l1-1c-.1.02-.46.83-1,1Z"/>
  <path class="cls-11" d="M141.91,417.09l-1-1c.16.26.81.51,1,1Z"/>
  <path class="cls-13" d="M10.91,307.09l1-1c-.29.39-.83.71-1,1Z"/>
  <path class="cls-13" d="M27.91,295.09l1-1c-.22.08-.55.81-1,1Z"/>
  <path class="cls-4" d="M255.91,111.09c8.66-2.61,21.41-19.57,31.27-23.23,1.06-.39,4.2-1.31,4.73-.78.49.5-1.01,8.64,4.28,7.88,2.13-.31,23.27-18.64,25.72-15.87-1.11,5.9,3.64,26.97,11.27,25.87,6.22-.9,7.55-9.21,9.66-12.28s8.57,6.57,10.6,8.38c4.27,3.82,9.01,7.4,13.53,11.49,1,.91,3.11,1.05,3.7,1.78,1.3,1.6.11,6.95,4.25,6.75.14,1.31-.11,2.69,0,4,.07.85.02,1.73,1,2-.12,2.2,2.29,12.03,3,15,.34,1.41.82,2.34,1,3,.8,2.99,1.13,6.03,2.5,9,6.34,13.74,20.9,20.08,32.5,8,1.32.2,2.69.88,4,1,5.68.53,11.57,1.41,17,2-1.93,4.41-7.21,3.23-10.74,4.76-1.76.77-3.14,2.87-5.21,3.79-14.59,6.53-28.53,7.79-42.39-1.72-7.86-5.39-5.63-9.96-8.48-17.52-.64-1.69-7.97-15.72-8.63-16.37-5.43-5.33-27.3-4.24-35.09-3.99-13.24.42-31.15.74-43.94,2.06-9.54.98-7.1,4.67-11.49,11.51-9.49,14.78-19.98,25.4-38.65,27.35-13.75,1.44-31.86.06-33.38-16.88,2.64-.61,5.3-1.56,8-2,.58,2.42,4.74,6.32,7.27,7.23,16.79,6.03,31.37,1.13,39.9-14.56,7.12-13.1,3.08-23.13.83-36.67.8.03,1.52-.85,2-1Z"/>
  <path class="cls-7" d="M443.91,165.09c1.04-1.67,2.71-1.88,4.48-2.02,13.32-1.06,25.27,1.56,38.01,2.09,3.18.13,6.08-1.23,8.79-.89,3.23.4,2.33,2.36,2.73,2.82-17.52.08-34.97.32-52.41-1.07-.79-.06-1.39-.91-1.59-.93Z"/>
  <path class="cls-7" d="M417.91,440.09c1.53,3.87,3.21,7.31,3.06,11.52-.24,6.65-1.18,17.26-2.32,23.77-.29,1.67-.58,3.2-2.74,2.71,1.46-12.55.07-25.76,2-38Z"/>
  <path class="cls-7" d="M456.91,275.09c1.65-2.33,14.41,3.48,14.8,4.17,1.92,3.34-1.64,2.67-1.8,2.83l-10.75-4.79c-1.09-.16-1.84-1.99-2.25-2.21Z"/>
  <path class="cls-7" d="M430.91,330.09c2.24.4,7.41,7.07,7.99,8.52.92,2.3-1.99,1.22-2.99,1.48-.7-3.78-4.66-6.05-5-10Z"/>
  <path class="cls-7" d="M429.91,341.09l-4,8c-1.5-5.28-2.15-6.5,4-8Z"/>
  <path class="cls-7" d="M446.91,294.09l-1,8c-2.89-3.58-6.02-5.37,1-8Z"/>
  <path class="cls-7" d="M416.91,160.09c1.43.43,1.99,1.54,2,3-1.31-.12-2.68-.8-4-1,.11-.11-.22-1.08.29-1.72.39-.48,1.63-.17,1.71-.28Z"/>
  <path class="cls-7" d="M456.91,291.09c.3,2.36-.27,2.71-2,1,.15-.05.99-.64,2-1Z"/>
  <path class="cls-7" d="M446.91,422.09c1.8,1.61,1.29,2.35-1,2,.21-1.75.99-1.89,1-2Z"/>
  <path class="cls-7" d="M412.91,488.09c1.71,1.73,1.36,2.31-1,2,.36-1.45.97-1.89,1-2Z"/>
  <path class="cls-7" d="M411.91,492.09c1.84,1.55,1.26,2.37-1,2,.36-1.45.97-1.89,1-2Z"/>
  <path class="cls-7" d="M409.91,501.09c1.76,1.67,1.33,2.33-1,2,.37-1.44.97-1.89,1-2Z"/>
  <path class="cls-7" d="M428.91,355.09c-.28-.62-.67-1.22-1-2l1,2Z"/>
  <path class="cls-5" d="M215.91,56.09c5.45-18.34,7.82-33.72,25.46-45.04,1.23-.79,1.97-1.26,3.54-.95-4.07,14.26-9.34,31.42-7.87,46.37.71,7.27,6.37,18.18,2.33,24.58-4.29,6.8-15.96,12.57-23.98,12.09-3.27-.19-16.91-5.24-19.78-6.99-.41-.25-4.99-6.8-5.51-7.74-3.42-6.11-5.03-11.09-4.17-18.32,3.34.62,5.43,3.57,8.7,4.78,2.99,1.11,4.98.67,7.29,1.21.32.07,1.03.8,2,1,2.64.55,4.69,2.12,7.57-.93,1.21-1.28,3.83-8.06,4.43-10.07Z"/>
  <path class="cls-5" d="M241.91,90.09c-1.39,8.18,3.78,18.06,1.23,25.73-1.33,4-9.38,12.04-13.75,12.33-14.03.93-12.86-21.19-20.48-29.05,9.55,2.65,18.41.09,26.7-4.81,2.36-1.4,3.6-4.02,6.3-4.19Z"/>
  <path class="cls-5" d="M247.9,125.09c5.01,15.72-7.62,36.73-25.26,33.76-1.07-.18-7.35-2.58-7.56-2.92-1.4-2.28,1.91-20.73,1.84-24.84,6.18,2.61,8.86,5.32,16.27,3.77,5.95-1.25,9.38-7.64,14.72-9.77Z"/>
  <path class="cls-5" d="M393.91,27.09c.35.28.59.76,1,1,.11.29-.12.72,0,1,1.14,2.68,2.74,4.67,4,7,1.36,2.51,2.42,5.25,4,8,.12,3.21,1.86,6.63,4,9,.05.33-.05.67,0,1,.06.46.55.86,1,1,.08.31-.08.68,0,1,.86,3.57,2,5.28,3,8,.91,2.47,2.57,10.68,3.98,11.52,5.33,3.18,6.59-2.14,6.02-6.52l16-5c-.05,3.85.61,8.07-.78,11.72-.56,1.49-9.01,13.77-10.19,14.81-4.18,3.67-15.04-.08-19.71-2.35-3.04-1.47-19.42-13.43-21.3-15.7-2.3-2.77-.54-27.06-1.01-32.99-.21-2.66-1.71-4.76-1.93-7.07-.68-7.11-.56-14.38-2.07-21.42,7.19,1.95,9.09,12.04,13.99,15.99Z"/>
  <path class="cls-5" d="M382.91,80.09c10.88,10.28,23.12,17.65,38.02,20.52-2.41,4.36-7.64,26.37-11.72,27.5-6.89,1.91-12.14-2.81-16.77-7.04-5.08-4.64-9.3-10.36-11.53-16.97-.09-2.65.14-5.35,0-8-.07-1.33.08-2.68,0-4,1.9-1.41.76-4.81,1-7,.07-.65-.11-1.39,0-2,.08-.47,1.51-1.76,1-3Z"/>
  <path class="cls-5" d="M383.91,124.09c9.08,5.71,13.74,14.76,27,12v17.5c0,3.46-7.59,8.45-12.04,7.06-7.35-2.29-9.85-11.05-10.96-17.56-.36-2.12-.17-4.39-2-6,.06-.48.08-1.93,0-2l-1-2c.2-2.32-.75-4.65-1-7-.07-.65.05-1.34,0-2Z"/>
  <path class="cls-11" d="M406.91,53.09c-2.14-2.37-3.88-5.79-4-9,2.43,4.23,3.06,2.69,4,9Z"/>
  <path class="cls-11" d="M381.91,85.09c-.24,2.19.9,5.59-1,7-.11-1.77-3.4-7.74,1-7Z"/>
  <path class="cls-11" d="M407.91,56.09c3.04-.83,2.05,4.94,3.97,7.45l-.97.55c-1-2.72-2.14-4.43-3-8Z"/>
  <path class="cls-11" d="M387.91,143.09c-3.92.35-2.22-4.27-2-6,1.83,1.61,1.64,3.88,2,6Z"/>
  <path class="cls-11" d="M380.91,104.09c-.82-2.43-2.38-5.61,0-8,.14,2.65-.09,5.35,0,8Z"/>
  <path class="cls-11" d="M394.91,29.09c1.8,1.99,4.68,3.52,4.9,6.41l-.9.59c-1.26-2.33-2.86-4.32-4-7Z"/>
  <path class="cls-11" d="M382.91,80.09c.51,1.24-.92,2.53-1,3l-.99-.5c-.21-2.3-.38-2.86,1.99-2.5Z"/>
  <path class="cls-11" d="M378.91,142.09c2.64-.52,2.69,1.08,1,3-.18-.66-.66-1.59-1-3Z"/>
  <path class="cls-11" d="M383.91,124.09c.05.66-.07,1.35,0,2-2.89.61-3.73-4.34,0-2Z"/>
  <path class="cls-11" d="M385.91,135.09c-.26-.23-1.77.22-1.99,0-.62-.63.98-1.88.99-1.99l1,2Z"/>
  <path class="cls-11" d="M374.91,125.09c3.94-.39,1.03,1.49,1,2-.98-.27-.93-1.15-1-2Z"/>
  <path class="cls-11" d="M394.91,28.09c-.41-.24-.65-.72-1-1,.32.3.86.63,1,1Z"/>
  <path class="cls-11" d="M407.91,55.09c-.45-.14-.94-.54-1-1,.42.19.88.56,1,1Z"/>
  <path class="cls-3" d="M132.91,163.09c0-.13-1.15-.75-.97-1.39.59-2.13,5.05-2.7,3.97.39-1.07.1-2.08.47-3,1Z"/>
  <path class="cls-3" d="M153.91,231.09l-2-2c.3.39,1.33,1.21,2,2Z"/>
  <path class="cls-6" d="M387.21,334.87c.17.29,3.75.22.62,2.63-8.55,6.59-32.56,12.02-43.53,13.47-19.85,2.61-73.98,0-89.87-11.89-9.13-6.83-11.02-17.3,3.77-14.76,5.88,1.01,10.48,2.74,17.28,1.82,3.32-.44,3.57-2.67,6.89-3.11,20.42-2.74,51.2.6,73.1.1,3.51-.08,7.12-1.99,10.76-.84,1.56.49,2.12,2.63,4,2.62,3.37-.02,7.58-4.97,12.72-2.33,3.23,1.66,3.24,10.54,4.27,12.29Z"/>
</svg>