<?xml version="1.0" encoding="UTF-8"?>
<svg id="Calque_1" data-name="Calque 1" xmlns="http://www.w3.org/2000/svg" viewBox="0 0 395.12 564.96">
  <defs>
    <style>
      .cls-1 {
        fill: #938849;
      }

      .cls-2 {
        fill: #6d8775;
      }

      .cls-3 {
        fill: #807461;
      }

      .cls-4 {
        fill: #74ba87;
      }

      .cls-5 {
        fill: #444030;
      }

      .cls-6 {
        fill: #5c5f44;
      }

      .cls-7 {
        fill: #8c9e92;
      }

      .cls-8 {
        fill: #79ef9b;
      }

      .cls-9 {
        fill: #73b084;
      }

      .cls-10 {
        fill: #e5c933;
      }

      .cls-11 {
        fill: #6a8672;
      }

      .cls-12 {
        fill: #555139;
      }

      .cls-13 {
        fill: #e6a534;
      }

      .cls-14 {
        fill: #64816d;
      }
    </style>
  </defs>
  <path class="cls-11" d="M133.84,152.74c.14.1-.09,2.25,1.64,2.86,1.41.5,3.15-.11,4.35.13.61.13,1.5.74,2.99,1-.99,2.89,6.1,2.57,8.98,2.99,3.08.46,6.94.46,9.98,1,.28.05,1.89,1.34,4.99,2,12.51,2.67,27.07,2.19,39.9,2,3.4-.05,1.93-.19,4.78-.81,2.58-.56,7.7,2.93,7.19-1.19,1.47.31,2.58.95,4.24.78,6.36-.66,18.79-6.73,24.25-6.84,2.83-.06,4.01,1.39,6.43,2.07.13.84.05,2.09,0,2.99-.25,4.32-.12,5.81,0,9.98.13,4.67-.32,7.52-1,11.98-.88,5.87-2.25,12.28-3.99,17.97-2.3,7.51-8.33,15.53-14.96,19.96-.5.33-6.48,1.85-7.01,3.49-1.11,3.48,4.75,2.76,7.01,4.49.09.32-.11.72,0,1,.97,2.5,1.06,6.31,5.03,4.54,1.07-4.84,3.48-8.84,4.94-13.52.09-.3-.08-.68,0-1,6.48,2.95,6.57-2.12,8.98-5.99,2.2-3.54,2.24-3.19,4.99-5.99l4.99,2c-3.07,2.65-3.12,3.66-2,6.99.17.49-.11,1.38,0,2-2.73,4.33-6.68,7.71-9.39,12.06-1.66,2.66-4.03,9.65-5.1,10.9-1.25,1.44-3.89.14-4.24,3.71-.41,4.23,5.02,19.23,5.69,24.82,3.17,26.44-6.95,56.36-8.9,82.27-2.75-.59-1.94,1.36-2.31,3.13-2.25,10.88-2.69,25.39-.66,36.32.49,2.64-1.09,2.77,2.96,2.48,1.05,12.57,7.1,25.38,8.81,38.6,1.15,8.86,1.48,17.32,1.17,26.29,2.12.37,4.05-.77,5.98-1,.23-.03,1.14.97,2.28.73,8.26-1.8,15.92-10.37,22.66-14.7-.39,1.7.51,3.74-.51,5.97-1.36,2.96-17.07,11.81-20.75,13.18-2.3.85-9.14,1.68-9.52,1.98-.51.39,0,1.65-.14,1.83-.26.31-.66.59-1,1-.1.13-1.34-.52-2.01.69-1.95,3.56-2.86,14.65-5.48,20.27-2.6,5.6-7.28,11.81-10.47,17.97-.33.65-.67,1.34-1,2-2.01-.08-3.02.97-2.99,2.99-.93,1.38-1.64,3.23-2.99,4.99-2.06-.28-2.28-.06-2,2-2.83,3.61-5.91,7.31-8.98,10.98-3.92.17-4.56,4.01-5.99,5.99-2.74,3.79-3.38,3.4-5.99,5.99-1.99.03-3.1.98-2.99,2.99-7.94,6.88-23.93,18.14-34.56,18.9-7.37.52-23.35-10.42-29.8-14.88-21.42-14.82-34.85-30.47-52.35-48.93,4.11.07,7.33-3.68,8.98-6.99,4.08,1.36,3.36,5.29,4.79,7.68,7.78,13.03,32.78,32.47,45.08,43.23,6.52,5.7,17.25,13.77,26.17,12.72,3.12-.37,5.27-1.92,7.75-2.74,7.13-2.37,16.82-5.39,19.95-12.97-1.45-1.42-6.67,6.33-8.97,2.99,15.06-12.78,26.33-22.86,37.91-38.93,11.84-16.45,17.59-25.05,18.94-46.43.57-9.06-1.14-23.34-2.11-32.81-.77-7.47-4.81-14.25-5.86-21.59-.44-3.07,1.57-8.88-2-7.99.05-.66-.02-1.33,0-2,.24-9.73-.44-20.3,0-30.44.21-4.79,1.35-5.73.99-11.49-.07-1.07-.18-5.75,0-5.99.12-.16,1.42.1,1.99,0,.4-1.05-.98-1.88-.99-1.99-.09-1.32-.24-7.67,0-7.99.12-.16,1.42.1,1.99,0,.4-1.04-.98-1.88-.99-1.99-.16-2.23-.06-4.73,0-6.99,4.12.48,1.21-2.47,1-3.99-.08-.59-.1-2.89,0-2.99.16-.18,1.41.11,1.99,0,.35-.9-1-1.87-.99-1.99.4-4.87.93-8.81,1-13.98,3.31,1.15,2.97-8.53,0-6.99.14-7.94-.4-16.04,0-23.96,0-.18.84-.8.92-1.59,1.28-12.4-3.85-3.72-9.21-1.21-1.87.87-18.13,6.8-19.14,6.8h-16.46c1.73,6.46,1.95,29.06-3.41,33.02-3.83,2.83-8.85.02-10.55-4.07-2.95-7.09-10.49-11.92-17.96-14.47-1.84-.63-9.24-3.27-7.76.77,1.05,2.86,5.91,11.36,9.76,10.7,1.06,1.85,3.6,2.97,3.97,6.58.87,8.46-8.46,2.5-12.48,2.36-8.73-.32-19.31,9.23-27.97,11.96-7.78,2.46-13.55,1.97-20.88,3.06s-15.04,2.99-22.75,3.19c-1.84.52-3.96,4.02-4.69,5.79-1.83-.82.38-5.4-3.38-3.88-1.43.58-3.4,4.16-5.6,5.88l-1-1c.07-1.66-.05-3.33,0-4.99.76-.02,2.87.14,2.99,0,.66-.78.15-4.12-1.69-4.8-6.44-2.38-16.35-2.12-22.97-4.97-11.04,3.61-17.36-.23-27.21-4.21-4.04-1.63-5.67-2.72-9.98-3.99.61-2.61-1.95-2.47-3.99-2.99-1.84-1.98-2.62-1.9-3.99-4.99,3.67.29,2.73-2.84-1-2-.06-.32.04-.67,0-1-.24-2.12-.22-5.84,0-7.99,3.7-.17,4.21-4.4,4.07-7.53-.06-1.29-1.07-2.32-1.07-2.45-.04-2.71-.15-6.8,0-8.98.04-.66-.07-1.34,0-2,.86,0,1.41-.71,2-1,4.91-2.39,2.31-2.5,2.99-6.99.32-2.09.54-5.14,1-6.99,3.23.12,3.41-3.48,3.99-5.99.13-.58-.12-1.38,0-2l1.33-.03c.89-2.91,6.57-3.19,5.65.03-.35,1-.09,3.05-.68,4.78-3.33,9.78-15.21,38.07-10.8,47.14,1.16,2.38,3.6,1.5,4.5,1.99,29,15.98,75.39,19.42,106.95,9.7,5.39-1.66,10.64-5.19,15.49-6.46,5.13-1.34,11.86-1.22,17.21-3.25,1.41-1.62-7.53-14.89-7.85-17.66-.2-1.71,1.5-1.8,1.86-2.3h3.99c1.6,0,3.46-.18,4.99,0-.57,2.55,1.31,1.97,2.89,2.55,6.47,2.39,11.56,5.71,18.06,8.43,2.31.97,2.46.42,3.99,2.99.3.52-.6,1.66.5,2,2.72.85,2.34-.24,2.49-2,.55-6.38,2.7-11.85,1.99-18.47-.56-5.22-4.47-8.76-4.83-12.23-.92-8.78,11.03-.73,13.35-.28,4.8.91,21.37-1.8,25.97-3.88,1.5-.68,2.8-1.02,2.42-3.06-5.19.76-9.57-2.2-13.98-4.48-4.14-2.13-16.05-11.82-17.64-12.3-5.38-1.61-13.77,2.44-18.25-.74-1.03-.73-.79-2.22-1-2.45-.43-.46-4.4,1.08,0-2.99v2.99c1.99.27,2.58-1.62,4.51-1.97,3.08-.57,10.08.99,12.23-1.27.47-.49.07-1.55.21-1.75,2.25-3.11,6.06-1.94,10.18-3.29,14.43-4.7,21.99-10.51,32.71-20.67,4.25.79,2.56-1.38,2.99-2,1.56-2.21,3.46-3.77,4.99-5.99,4.89-1.84,3.73-3.92,4.99-7.99.09-.3-.09-.69,0-1,.03-.11.63-1.02,1-2,.2-.53-.22-1.81,0-2,.26-.23,1.77.22,1.99,0,.63-.64-.98-1.88-.99-1.99-.12-1.64.04-3.34,0-4.99,3.01.56,1.93-1.53,2-3.45.24-7.15-.17-14.36,0-21.51-1.78.32-7.52-.34-6.98,3-1.72.26-3.4.8-4.99,1-8.89,1.12-18.5,2.72-27.79,4.68-1.77.37-3.71-.45-3.13,2.31-21.92,1.25-39.34-2.82-60.09-7.24-4.32-.92-9.08-3.46-13.39-3.66-3.45-.16-6.33,1.2-9.82.95-2.92-.21-1.02-2.59-1.48-4.02.09-.05-.34-1.36.72-1.97.83-.49,11.74-3.39,12.25-3.02ZM228.06,238.16c-.89-1.57-3.98-6.73-5.75-6.44-.88.14-13.51,7.19-15.67,8.38-.79.43-2.69.15-1.96,1.96,1.4,3.45,11.32,8.2,14.98,10.01.92.46,2.87.38,2.98.49.41.42-1.45,3.59-1,3.98h12.96c.46-1.8-1.36-2.33-1.74-3.74-1.47-5.46-2.06-9.87-4.79-14.65Z"/>
  <path class="cls-2" d="M138.83,135.77c.28.02,1.26,1.09,2,1-.28,3.1-.19,5.27-2.3,8.72-.29.48-1.63.18-1.69.27.57-3.08-1.52-1.77-3.43-2.02-6.87-.9-19.87,2.79-27.01,5-9.79,3.04-23.43,9.74-31.99,14.91-27.25,16.46-44.38,60.29-54.29,88.92.91-3.22-4.76-2.94-5.65-.03l-1.33.03c3.95-20.74,10.14-29.63,16.96-47.92.11-.29-.1-.7,0-1,2.84.64,2.23-2.12,2.99-3.99,1.05-2.6,1.94-5.39,2.99-7.99,2.84.6,3.14-3.79,3.99-5.99.11-.29-.11-.7,0-1,2.48.49,3.31-2.95,3.99-4.99,4.29-4.54,8.4-8.71,12.97-12.98,2.03,0,2.99-1,2.99-2.99,13.19-11.81,21.21-14.69,37.91-19.96,1.87-.59,3.57-1.88,3.99-2,.56-.16,1.43.15,2,0,6.7-1.82,14.1-3.95,20.95-4.99,1.53-.23,3.39.17,4.99,0,.65-.07,1.34.05,2,0,2.31-.19,4.12-1.26,6.98-1Z"/>
  <path class="cls-12" d="M362.27,248.57c-2.33.27-4.1-.42-3.99-2.99-1.69-.96-2.14-1.21-3.99-2-5.29-2.26-8.68-3.33-14.47-4.03-1.87-.23-4.04,1.25-3.49-1.95-1.87-.05-4.19-.2-5.99,0l-1,4.99c4.31-.34,10.32,1.6,14.96,1.49-5.39,3.79-10.18,8.74-13.5,14.45-1.55,2.67-5.11,13.33-5.67,13.84-.69.62-2.02,0-2.78.17-.26.06-.68.92-1.49.92-.8,0-1.35-.93-1.5-.92-2.08.06-4.42-.29-6.41.06-2.79.5-4.95,3.19-7.5,2.43-2.12-.63-11.82-11.38-12.02-14.47-.87.29-3.7-.32-4,0-.34.36.29,3.84,0,5,2.56,4.71,6.83,7.79,9.98,11.98l1,1v1c.54-.04,1.69,1.31,3.99.6,2.63-.81,4.79-3.93,8.54-4.53,5.52-.88,15.85,1.54,18.36,6.87.55.39,1.06.82,1.55,1.29.45.27.78.7,1.07,1.17.52.64,1,1.34,1.45,2.08,0,0,0,0,0,0,1.18.8,2.32.27,2.95.5.88-5.48-7.57-10.39-8.01-13.53-1.02-7.26,12.57-24.12,19-27.95,4.2-1.84,27.15,24.1,23.94,31.5-5.14-1.75-28.58,11.05-29.93,13.97-.82,1.77,2.08,3.78-4,2.99v1c.14.33.29.66.43.98.56.62,1.09,1.27,1.56,1.97,1.67-.09,3.93-.31,5-.95.53-.32,2.09-2.97,3.51-3.97,7.05-4.96,14.66-9.78,23.41-11,.14,10.55-2.42,21.01-9,29.42-1.09,1.4-10.71,11.18-11.46,11.5-2.06.86-1.38-1.42-1.47-2.48-.69-8.31-2.61-12.93-4-20.47-3.04-.49-2.01,1.27-1.73,3.21.4,2.76,1.5,5.48,1.71,8.29.32,4.31-.54,9.39.02,13.46.21,1.51,1.41,2.79,2.99,2.99,5.24.68,15.21-8.91,18.39-13.04,16.57-21.59,13.38-48.89-6.42-66.82Z"/>
  <path class="cls-6" d="M69,339.41c2.2-1.72,4.16-5.3,5.6-5.88,3.76-1.51,1.55,3.07,3.38,3.88-.5,1.2-.58,2.73-1,3.99-.33-.02-.67.03-1,0-.11,0-.77-1.43-1.99-.99-.07.65.07,1.34,0,1.99s.06,1.34,0,2c-2.95-.47-1.78.76-2,2.99-.06.65,0,1.34,0,2-5.93,1.1-.22,1.83,0,2,1.71,1.34,5.98,7.98,6.98,9.98,1.23,2.47,2.94,6.39,3.99,8.98,15.13,37.36,24.51,86.68,5.99,123.78-1.65,3.31-4.87,7.06-8.98,6.99-2.84-2.99-5.52-4.7-8.98-8.98-.29-3.23-.23-3.29,2.99-2.99,1.86,1.83,2.66,3.62,5.47,5.03,1,.5.76,1.67,1.97-.08,3.55-5.12,10.49-28.97,9.52-34.9,4.66.2,2.02-6.78,2-8.98-.14-13.54-.22-27.09-4.99-39.93,4.46-2.68,3.84-5.48-1-6.99-1.2-5.33-3.21-10.5-4.74-15.72-.76-2.58-.27-5.26-1.45-8.53-2.08-5.76-7.45-12.53-8.98-18.96-1.02-2.58-5.42-3.39-6.86-1.04-1.06,1.74-6.81,20.29-7.46,23.24-.48,2.17-.45,3.88-.44,6.04l-2.99-1c.9-6.4.77-11.03,2.71-17.75,2.65-9.17,9.72-20.45,11.25-29.17.41-.23.66-.73,1-1Z"/>
  <path class="cls-12" d="M292.44,287.5l3.98.48c-5.95,12.01-10.19,28.37-8.95,41.93.46,4.99,2.09,12.21,2.98,17.49.11.62-.11,1.38,0,2,.82,4.55,2.61,9.12,3.7,12.51,3.71,11.56,10.89,23.79,4.28,35.4h-3.99c-.31-1.12-7.97-6.96-9.81-9.65-3.45-5.05-7.21-13.55-9.14-19.3-.99-2.94-1.37-9.75-3.99-8.98-.02-.66-.02-1.33,0-2,0-.14,1.05-1.12,1.04-2.41-.08-8.56-2.36-17.37-.04-25.54,1.35,7.75,5.48,16.23,4,24.95,16.58-6.96,4.49-24.59,6.97-37.92l-11.96.99c0-1.33-.07-2.67,0-3.99,13.23-1.29,13.98-3.4,16.96-14.97,3.25.54,3.29-6.13,3.99-8.98.14-.59-.16-1.46,0-2ZM285.46,355.38c-5.92,6.85-9.83,2.86-3.87,15.35,3.75,7.84,6.55,13.06,12.84,18.59.31.27-.77,3.1,1.99,1.99.15-.62-.16-1.53,0-1.99,4.08-11.27-5.53-16.82-5.99-24.96,0-.11,1.54-1.46.99-1.99-.24-.23-1.73.22-1.99,0-.08-.07-.07-1.55,0-2,.02-.11,1.65-1.3.99-1.99-.22-.23-1.7.22-1.99,0-.12-.1-.63-2.19-1-2.99-.41-.92.97-2.47-1.49-2-1.08-.08-.25,1.7-.51,2Z"/>
  <path class="cls-2" d="M345.31,325.43h2c.21,1.51,1.41,2.79,2.99,2.99l-3.98,11.97c19.03-4.46,29.22-15.99,37.4-32.93,1.74-3.6.32-4.87,3.49-7.99.14-.14,1.3.55,2-.69,1.06-1.87.52-5.56,1.22-7.56.56-1.6,2.33-2.14,2.75-4.24,1.46-7.39-1.87-18.03,1.01-25.44,3,27.47-.34,57.6-24.44,75.87-6.99,5.3-25.16,12.68-33.38,8.45-5.68-2.92,3.11-8.35,4.98-11.91.66-1.26,3.82-8.06,3.96-8.52Z"/>
  <path class="cls-12" d="M133.84,32.95c2.98.71,2.33,1.14,2.99,2.99-6.46,3.7-6.42,11.16-9.09,16.36-4.69,9.15-12.99,19.82-14.61,30.3-1.01,6.52,2.79,15.01-7.22,11.24l-2,47.91c-.57.15-1.44-.16-2,0-2.36-2.37,0-5.25,0-6.49v-47.92c0-4.29,4.18-1.36,5.41-1.6.99-.19,5.96-15.6,7.38-18.54,3.66-7.62,9.24-18.15,13.42-25.51,1.52-2.68,4.58-4.22,4.72-7.76.33-.35.66-.66,1-1Z"/>
  <path class="cls-11" d="M197.68,125.78c.12,0,.66,1,2.18.84,5.99-.64,10.72-6.27,18.08-2.61,1.68.83,1.33,3.3,3.68,2.77.16.52-.11,1.37,0,2-1.96,2.81.1,6.67-4.99,5.99.16-2.75.86-6.52-2.52-7.04-3.92-.6-17.44,4.79-22.42,5.04-2.58-2.83-1.84.87-2,1-2.31,2.04-8.09,2.39-10.97,2.99-.04-1.85-.97-3.36-2.98-2.99-.17,1.37-.71,2.65-1.01,3.99-1.64,7.33,3.02,5.63,8.98,5.99l-1,4.99c-4.09-1.27-10.55-1.95-14.96-2.99,0-1.77-2.01-4.45-2.99-5.99.34-.49-.82-2.6,2-3.99,2-.99,1.42,1.76,2.99-2,.21-.5.87-.72,1-2,1.95-.71,4.18.81,5.55.88.17,0,.3-1.04,2.43-1.87l.58.76c2.39-.73,6.24.19,5.4-2.76,1.31-.38,2.65-.74,3.99-1,1.73,1.7,2.3,1.36,2-1,.6-.06,1.41-.07,2,0,1.02.13,3.46,3.03,2.99-1,.66,0,1.33,0,2,0Z"/>
  <path class="cls-3" d="M191.7,17.97c.16.03.3.05.44.05.38-1.22.94-2.38,1.7-3.43.17-1.08.56-2.16,1.1-3.15.18-.33.38-.6.59-.86,1.57-6.59,3.35-13.08-6.38-9.63-20.25,7.19-26.97,34.06-35.87,50.98-1.07,2.03-.41,2.43-3.48,1.97.13.18,1.93,3.78,2,3.99l2.99-1c-.76-1.09,5.74-18.59,6.91-20.28.98-1.41,4.36-2.2,6.05-2.68,4.12-8.41,10.95-25.4,21.95-25.95.99-.05,2,0,2.99,0,.33.38-.73,8.79-1,9.98Z"/>
  <path class="cls-14" d="M388.21,235.59c.25.75-.24,2.2,0,2.99,1.59,5.34,2.97,9.99,3.97,15.55.33,1.86-1.13,3.99,2.02,3.42.17,1.28-.14,2.7,0,3.99-2.89,7.41.45,18.05-1.01,25.44-.41,2.1-2.18,2.64-2.75,4.24-.71,2.01-.16,5.69-1.22,7.56-.71,1.24-1.86.55-2,.69.02-19.03,4.59-44.79-5.6-61.78-1.5-2.5-4.39-5.85-6.37-8.1,5.28-2.75,7.94,5.24,12.97,5.99Z"/>
  <path class="cls-2" d="M325.36,191.67c-.17.01-1.1.95-2.41,1.04-3.64.26-7.39-.26-11.05-.05l.49,4c-.16,0-1.38.89-2.99,1,.12-3.46.62-2.78-2.46-3.01-11.74-.88-35.48,8.28-44.43,15.99l-4.99-2c9.37-9.55,42.06-20.94,55.24-19.84,3.7.31,8.95,1.78,12.59,2.87Z"/>
  <path class="cls-14" d="M327.36,191.67c-.57,4.23,2.93,1.1,3.99,1,.65-.06,1.34,0,2,0,.03.56-.24,1.69.06,1.92.4.31,8.27,1.72,9.92,2.07.87.19,2.1-.18,2.99,0-.62,2.78,2.05,2.29,3.99,2.99,2.13.77,3.01,1.14,4.99,2-.63,2.83,2.11,2.25,3.99,2.99.29.12.73-.12,1,0,.35,1.67.66,3.43,1.57,4.91,2.65,4.3,9.33,9.94,11.49,13.54,1.12,1.86.51,2.69-.1,4.51-2.04-2.02-3.82-4.38-5.99-4.99-7.96-17.55-27.2-22.98-44.89-24.96.97-2.9-3.3-2.74-4.99-1-1.65-.06-3.33-.03-4.99,0l-.49-4c3.66-.21,7.4.31,11.05.05,1.31-.09,2.24-1.03,2.41-1.04.66-.05,1.34.05,2,0Z"/>
  <path class="cls-2" d="M19.13,319.44c9.85,3.97,16.18,7.81,27.21,4.21,6.62,2.85,16.54,2.58,22.97,4.97,1.83.68,2.35,4.01,1.69,4.8-.12.14-2.23-.02-2.99,0-20.25.52-26.12-.47-43.93-9.44-1.58-.79-5.29-2.24-4.95-4.53Z"/>
  <path class="cls-3" d="M57.03,388.32c0,1,0,2,0,2.99-1.39-.54-4.07,0-2.99,2.49.66,1.52,2.52-.32,2.99,4.49.83,8.59.98,22.06,1,30.95,0,2.15-2.51,11.77-.75,13.78.39.45,1.68.1,1.74.19,1.26,1.89-1.01,11.99-1,13.98-2.3-11.35-5.2-24.88-5.97-36.45-.8-11.92.41-22.26,1.98-33.43l2.99,1Z"/>
  <path class="cls-3" d="M132.84,33.95c-.14,3.53-3.2,5.08-4.72,7.76-4.18,7.36-9.76,17.89-13.42,25.51-1.41,2.94-6.39,18.35-7.38,18.54-1.23.24-5.41-2.69-5.41,1.6v47.92c0,1.24-2.36,4.12,0,6.49-.42.12-2.12,1.41-3.99,2,.06-2.2,2-6.91,2-8.49v-51.41c0-.4,6.63-2.02,7.49-2.99,1.13-1.29,1.88-7.5,2.98-9.99,5.22-11.8,14.32-28.29,22.45-36.93Z"/>
  <path class="cls-11" d="M298.43,397.31h2c-.56,3.46,0,9.15,0,12.98-1.38,1.52-1.58,4.01-2,5.99-.35,1.68-.53,3.32-1,4.99-2.03-.29-2.29-.04-2,2-.29.22-1.52,5.78-2,6.99l-8.98,8.98c.18-4.06,3.94-7.02,4.62-11.02.39-2.26-.66-2.81-.63-2.96,1.29-8.24,8.34-19.35,5.99-27.95h3.99Z"/>
  <path class="cls-14" d="M186.71,143.75c-.36,2.93.37,1.65,2,2,4.14.88,12.46,3.81,15.96,5.99,3.07,1.91,6.14,4.59,9.98,6.99.09.06.3,1.09,1,2,.15.19-.36,1.37.16,1.84.63.56,2.08,0,2.83.16.51,4.12-4.61.63-7.19,1.19-2.85.62-1.38.76-4.78.81.75-3.33-.65-2.45-1.96-3.51-6.68-5.37-13.72-9.91-21.98-12.47l1-4.99c.98.06,2.02-.11,2.99,0Z"/>
  <path class="cls-2" d="M388.21,235.59c-5.03-.74-7.69-8.74-12.97-5.99-.47-.54-1.4-1.41-2-2,.6-1.82,1.21-2.65.1-4.51-2.16-3.6-8.84-9.25-11.49-13.54-.91-1.48-1.22-3.24-1.57-4.91,12.73,5.82,23.56,17.59,27.93,30.95Z"/>
  <path class="cls-2" d="M214.64,158.73c-3.84-2.4-6.9-5.07-9.98-6.99,7.57-.71,11.58-10.16,11.97-16.97,5.09.68,3.03-3.18,4.99-5.99,1.37,7.59,1.61,13.25-1.81,20.65-1.7,3.69-5,5.34-5.18,9.29Z"/>
  <path class="cls-6" d="M135.84,46.92c3.44,2.03,7.5,3.02,10.97,4.99,1.32.75,1.43-.22,2.99,2,.13.18,1.93,3.78,2,3.99.29,1.02-.2,2.8,0,3.99-3.24-2.13-4.45-4.73-7.64-6.81s-2.88-1.35-5.33-1.17c-2.28.16-3.81-.75-4.99,2-.31-1.76-2.05-3.19-1.75-6.29.36-3.8,2.13-2.18,3.75-2.7Z"/>
  <path class="cls-7" d="M247.56,469.18c-.37,12.74-6.29,26.35-14.12,36.28-1.11,1.41-1.7,2.68-3.83,2.65,3.19-6.16,7.88-12.38,10.47-17.97,2.61-5.63,3.53-16.71,5.48-20.27.66-1.21,1.9-.56,2.01-.69Z"/>
  <path class="cls-3" d="M290.45,349.39c2.99-.61,1.72,1.52,2.26,3.18,3.31,10.32,11.69,26.12,10.59,36.14-.37,3.36-2.53,6.44-2.88,8.59h-2c6.61-11.61-.58-23.84-4.28-35.4-1.09-3.39-2.87-7.96-3.7-12.51Z"/>
  <path class="cls-6" d="M59.03,443.23c1.08-6.1,2.73-.2,2.99,0-1.83,1.02-.93,3.59-.72,5.19.99,7.61,3.43,15.04,3.71,22.76-.26-.26-2-.17-3.04-1.41-1.57-1.88-1.05-4.87-2.95-6.57-.24-2.03-.98-3.56-1-5.99-.01-1.98,2.25-12.08,1-13.98Z"/>
  <path class="cls-3" d="M65.01,471.18c1.2,1.16,1.36,3.84,2,4.99-2.36,1.97-.51,6.22,1.47,8.05.83.76,2.34.75,2.52.94,1.25,1.31,2.05,3.06,2.99,3.99-3.23-.29-3.29-.23-2.99,2.99-.07-.08-1.26.26-2.03-.68-4.8-5.82-9.04-20.75-9.94-28.27,1.9,1.71,1.38,4.7,2.95,6.57,1.03,1.24,2.77,1.16,3.04,1.41Z"/>
  <path class="cls-2" d="M253.54,158.73c-2.42-.68-3.6-2.12-6.43-2.07-5.46.11-17.89,6.18-24.25,6.84-1.66.17-2.77-.47-4.24-.78-.76-.16-2.21.4-2.83-.16-.51-.46,0-1.64-.16-1.84,10.23,3.6,23.18-5.73,32.46-6.05,3.27-.11,4.94.75,5.44,4.05Z"/>
  <path class="cls-2" d="M221.62,126.78c-2.35.53-2-1.94-3.68-2.77-7.36-3.65-12.09,1.97-18.08,2.61-1.52.16-2.06-.84-2.18-.84,8.34-2.17,20.29-11.04,23.94,1Z"/>
  <path class="cls-2" d="M388.21,238.59c2.22-.49,2.21,1.09,2.85,2.59,2.23,5.23,2.41,10.82,3.14,16.38-3.15.57-1.69-1.56-2.02-3.42-.99-5.56-2.38-10.21-3.97-15.55Z"/>
  <path class="cls-2" d="M252.54,183.68c2.11,3.98-.26,10.92-1.51,15.01-.5,1.64.15,3.53-2.48,2.96,1.74-5.69,3.11-12.1,3.99-17.97Z"/>
  <path class="cls-2" d="M233.59,221.62c-3.09,2.88-1,4.61,0,7.99-2.26-1.74-8.12-1.02-7.01-4.49.52-1.64,6.51-3.16,7.01-3.49Z"/>
  <path class="cls-3" d="M142.82,30.95c1.29,2.42,1.66,9.85,1.04,12.35-.29,1.19-1.82.45-2.04.63.22-3.78-.34-7.73.03-11.5.16-1.61.95-1.39.97-1.48Z"/>
  <path class="cls-2" d="M253.54,171.7c-.12-4.18-.25-5.66,0-9.98,1.68,2.64,1.67,7.37,0,9.98Z"/>
  <path class="cls-2" d="M333.34,192.67c2.22,0,10.99,1.44,9.98,3.99-1.64-.36-9.52-1.76-9.92-2.07-.29-.23-.03-1.36-.06-1.92Z"/>
  <path class="cls-7" d="M211.65,531.07c-1.34,1.6-2.06,6-5.99,5.99,1.43-1.98,2.07-5.82,5.99-5.99Z"/>
  <path class="cls-3" d="M142.82,28.95l-4.99-1c1.21-1.05,1.25-2.89,4.39-1.92,2.86.88.65,2.65.6,2.92Z"/>
  <path class="cls-7" d="M40.07,185.68c-.85,2.2-1.15,6.59-3.99,5.99.88-2.19,1.13-6.59,3.99-5.99Z"/>
  <path class="cls-2" d="M184.71,128.78c.83,2.95-3.02,2.02-5.4,2.76l-.58-.76c2.45-.96,3.46-1.27,5.99-2Z"/>
  <path class="cls-7" d="M44.06,179.69c-.68,2.04-1.51,5.48-3.99,4.99,1.95-5.37,2.2-3.09,3.99-4.99Z"/>
  <path class="cls-7" d="M300.42,410.28c0,1.15,2.13,6.48-2,5.99.41-1.97.61-4.47,2-5.99Z"/>
  <path class="cls-2" d="M346.31,196.66c2.04.42,4.61.5,3.99,2.99-1.94-.7-4.61-.22-3.99-2.99Z"/>
  <path class="cls-2" d="M355.29,201.65c1.83.79,4.64.1,3.99,2.99-1.88-.74-4.62-.16-3.99-2.99Z"/>
  <path class="cls-2" d="M331.35,192.67c-1.06.1-4.56,3.23-3.99-1,1.49-.11,2.84-.15,3.99,1Z"/>
  <path class="cls-7" d="M33.09,199.65c-.76,1.88-.16,4.63-2.99,3.99.67-1.96.24-4.61,2.99-3.99Z"/>
  <path class="cls-7" d="M5.16,312.46c2.04.53,4.6.39,3.99,2.99-5.03-1.49-2.67-1.58-3.99-2.99Z"/>
  <path class="cls-7" d="M60.02,163.72c0,2-.96,2.99-2.99,2.99.78-.72,1.48-1.64,2.99-2.99Z"/>
  <path class="cls-7" d="M199.68,543.05c-1.1,1.09-1.14,1.39-2.99,2.99-.1-2.01,1-2.97,2.99-2.99Z"/>
  <path class="cls-7" d="M228.6,510.11c-1.81,3.63-2.86,2.8-2.99,2.99-.02-2.02.99-3.08,2.99-2.99Z"/>
  <path class="cls-2" d="M195.69,125.78c.47,4.02-1.98,1.13-2.99,1,.48-1.26,1.9-1.01,2.99-1Z"/>
  <path class="cls-2" d="M.17,305.47c3.73-.85,4.67,2.29,1,2-.26-.58-.79-.8-1-2Z"/>
  <path class="cls-7" d="M297.43,421.27c-1.02,3.67-.93,1.17-2,2-.3-2.03-.04-2.29,2-2Z"/>
  <path class="cls-2" d="M69,339.41c-.34.27-.58.77-1,1,.02-.13-.04-.96,0-2l1,1Z"/>
  <path class="cls-2" d="M190.7,126.78c.3,2.36-.27,2.7-2,1,.11-.02.28-.83,2-1Z"/>
  <path class="cls-7" d="M222.62,518.1c-1.47,1.91-1.88,1.85-2,2-.28-2.06-.06-2.27,2-2Z"/>
  <path class="cls-2" d="M.17,296.48c.33-3.21,1.05-7.33,2.99-9.98,0,.13,1.02,1.16,1.07,2.45.14,3.13-.37,7.36-4.07,7.53Z"/>
  <path class="cls-8" d="M236.58,274.52c-.4,7.92.14,16.02,0,23.96-.04,2.33.03,4.66,0,6.99-.07,5.17-.6,9.11-1,13.98l-1,2c-.1.11-.08,2.4,0,2.99-1.5.69-.96,2.68-1,3.99-.06,2.26-.16,4.75,0,6.99l-1,2c-.24.32-.09,6.67,0,7.99l-1,2c-.18.24-.07,4.92,0,5.99-1.09,2.05-2.99,8.61-2.99,10.48v22.96c0,1.16,1.31,7.01,2,8.49-.02.66.05,1.34,0,2-.2,2.78-1.04,9.12,2,7.99,1.05,7.34,5.09,14.11,5.86,21.59.97,9.47,2.68,23.75,2.11,32.81-1.36,21.38-7.1,29.98-18.94,46.43l-21.63,16.79c-6.83,4.74-27.68,17.67-34.97,18.91-8.84,1.5-18.22-2.22-26.19,3.23-12.3-10.76-37.3-30.2-45.08-43.23-1.43-2.39-.72-6.32-4.79-7.68,18.52-37.1,9.14-86.42-5.99-123.78,2.46.04,3.12-1.25,3.09-3.5-.02-2.07-5.55-11.05-7.08-5.48-1-2.01-5.27-8.64-6.98-9.98,0-.67,0-1.33,0-2s-.06-1.35,0-2c2.94.47,1.79-.75,2-2.99.06-.65-.08-1.35,0-2l2-1c.33.03.67-.02,1,0,24.94,1.2,48.69-6.76,72.03-14.27,3.89-1.25,9.79-1.66,13-2.96s3.61-4.98,5.41-5.57c5.24-1.74,13.58-.97,20.28-3.67,7.86-3.17,6-5.78,9.57-10.39,1.89-2.43,4.46-4.19,6.24-6.73,1.73-2.47,2.81-6.89,4.61-8.36,2.23-1.82,5.83-1.49,8.24-2.74,6.42-3.32,13.13-9.57,20.23-12.2ZM104.91,362.37c-3.84-.28-1.32,1.05-1,2,1.37,4.07,1.87,7.67,2,11.98.07,2.32.04,4.67,0,6.99-.45,26.52,3.16,38.22,14.09,62.26,3.87,8.51,15.06,24.15,25.77,17.06,2.8-1.85,2.5-4.32,4.06-5.92,4.16-4.24,11.93-6.21,17.89-13.04,12.8-14.67,24.6-35.11,27.96-54.38,1.16-6.65,3.38-22.39,1.79-28.28-.32-1.17-1.56-1.33-1.79-1.66-.19-.27.53-1.8-.57-2.05-5.38-1.23-5.18,4.64-5.41,8.04-.22,3.24.34,6.84,0,9.98-2.62-.78-2.41,2.73-2.99,4.99-.14.55.09,1.36,0,2-.02.11-.91.25-1,2-.03.62-.09,1.43,0,2-1.01.29-.85,1.18-1,2-1.02,5.62-14.09,23.83-18.44,28.96-3.48,4.1-22.21,23-26.74,21.82-1.26-.33-8.55-8.72-9.69-10.35-11.82-16.83-13.43-48.49-20.43-68.4-.6-1.72-3.06-4.47-4.5-2.97-.21.21.06,3.86,0,4.99Z"/>
  <path class="cls-8" d="M120.87,157.73c.46,1.43-1.44,3.81,1.48,4.02,3.49.25,6.38-1.11,9.82-.95,4.31.2,9.07,2.74,13.39,3.66,20.76,4.42,38.17,8.49,60.09,7.24,10.14-.58,21.66-2.93,30.92-6.99,1.58-.2,3.26-.74,4.99-1,.98-.14,3.61-1.33,3.98-1,1.7,7.51.84,15.3,1.01,22.96.04,1.65-.12,3.35,0,4.99l-1,2c-.22.19.2,1.47,0,2l-1,2c-.09.31.09.7,0,1-2.04,2.42-3.18,5.37-4.99,7.99-1.53,2.22-3.43,3.78-4.99,5.99-1.99-.24-2.15,1.2-2.99,2-10.72,10.16-18.28,15.98-32.71,20.67-4.13,1.34-7.94.17-10.18,3.29-7.2.81-11.06-3.47-16.96,2-4.4,4.07-.43,2.53,0,2.99.21.23-.03,1.72,1,2.45,4.48,3.18,12.87-.87,18.25.74,1.59.48,13.5,10.17,17.64,12.3,4.41,2.27,8.79,5.24,13.98,4.48.38,2.04-.92,2.38-2.42,3.06-4.6,2.08-21.16,4.79-25.97,3.88-2.32-.44-14.27-8.5-13.35.28.36,3.47,4.28,7.01,4.83,12.23.7,6.63-1.45,12.1-1.99,18.47h-2.99c-1.53-2.58-1.68-2.03-3.99-2.99-2.94-6.68-14.19-10.2-20.95-10.98-1.52-.18-3.39,0-4.99,0,.37-2.25-.24-2.33-2.54-2.04-2.51.32-1.08,1.52-1.45,2.04s-2.06.59-1.86,2.3c.32,2.77,9.26,16.04,7.85,17.66-5.34,2.03-12.08,1.91-17.21,3.25-4.86,1.27-10.1,4.8-15.49,6.46-31.56,9.72-77.95,6.28-106.95-9.7-.36-13.62,7.49-25.79,12.49-37.91,6.93-16.81,14.37-34.15,22.02-50.84,9.39-20.48,42.12-48,62.57-57.17,3.07-1.38,9.85-2.41,10.65-2.82ZM98.69,206.9c-9.66,1.32-20.84,7.32-26.69,15.22-17.15,23.15,13.82,36.46,32.89,28.93,7.48-2.96,16.53-14.2,17.73-22.18,2.5-16.57-8.4-24.09-23.94-21.97Z"/>
  <path class="cls-9" d="M367.26,222.61c2.17.61,3.94,2.97,5.99,4.99.6.59,1.52,1.46,2,2,1.99,2.24,4.88,5.6,6.37,8.1,10.19,16.99,5.62,42.75,5.6,61.78-3.17,3.13-1.75,4.39-3.49,7.99-8.19,16.94-18.38,28.47-37.4,32.93l3.98-11.97c5.24.68,15.21-8.91,18.39-13.04,16.57-21.59,13.38-48.89-6.42-66.82-1.99-1.8-1.41-1.53-3.99-2.99-1.69-.96-2.14-1.21-3.99-2,.49-2.27-1.11-2.18-2.6-2.83-5.59-2.45-9.32-2.99-15.35-3.16-1.87-.05-4.19-.2-5.99,0-43.24,4.75-67.67,48.83-63.83,89.33.57,5.99,3.2,12.79,3.85,19.1.38,3.72-.85,8.18,1.13,11.35-.02.66-.02,1.33,0,2,.05,2.2,1.52,9.96,3.99,8.98,1.93,5.75,5.69,14.25,9.14,19.3,1.84,2.69,9.5,8.53,9.81,9.65,2.35,8.6-4.69,19.71-5.99,27.95-6.36,9.65-14.84,17.32-22.93,25.47l-10.98,8.47c-1.93.23-3.86,1.37-5.98,1,.31-8.97-.02-17.43-1.17-26.29-1.71-13.22-7.76-26.03-8.81-38.6-.95-11.38-.86-30.48,0-41.93,1.94-25.92,12.07-55.84,8.9-82.27-.67-5.59-6.11-20.6-5.69-24.82.35-3.56,2.99-2.27,4.24-3.71,1.08-1.25,3.44-8.24,5.1-10.9,2.72-4.35,6.67-7.73,9.39-12.06,9.46-.99,18.96-3.18,28.44-3.98,28.06-2.36,51.32-.65,78.29,6.98Z"/>
  <path class="cls-4" d="M20.12,252.56c9.9-28.63,27.04-72.46,54.29-88.92,8.55-5.17,22.19-11.87,31.99-14.91,7.14-2.22,20.14-5.9,27.01-5,1.91.25,4-1.05,3.43,2.02-1.2,1.84-3.03,4.94-2.99,6.99-.51-.37-11.42,2.53-12.25,3.02-1.05.62-.62,1.92-.72,1.97-.8.41-7.58,1.44-10.65,2.82-20.45,9.17-53.18,36.69-62.57,57.17-7.65,16.68-15.08,34.03-22.02,50.84-5,12.12-12.85,24.29-12.49,37.91-.89-.49-3.34.4-4.5-1.99-4.41-9.07,7.46-37.35,10.8-47.14.59-1.73.34-3.78.68-4.78Z"/>
  <path class="cls-4" d="M178.73,307.47c1.7,4.08,6.72,6.89,10.55,4.07,5.36-3.96,5.14-26.56,3.41-33.02h16.46c1.02,0,17.28-5.93,19.14-6.8,5.36-2.5,10.49-11.18,9.21,1.21-.08.79-.91,1.41-.92,1.59-7.1,2.62-13.81,8.88-20.23,12.2-2.41,1.25-6,.91-8.24,2.74-1.81,1.47-2.89,5.89-4.61,8.36-1.77,2.54-4.35,4.3-6.24,6.73-3.58,4.6-1.72,7.22-9.57,10.39-6.69,2.7-15.03,1.93-20.28,3.67-1.8.6-2.35,4.34-5.41,5.57-3.21,1.3-9.12,1.71-13,2.96-23.34,7.51-47.08,15.47-72.03,14.27.41-1.26.5-2.79,1-3.99.73-1.77,2.85-5.26,4.69-5.79,7.71-.2,15.17-2.06,22.75-3.19s13.1-.61,20.88-3.06c8.65-2.73,19.23-12.29,27.97-11.96,4.02.15,13.34,6.11,12.48-2.36-.37-3.61-2.91-4.73-3.97-6.58-.81-1.41-5.79-8.92-2.51-7.97,4.93,1.43,13.27,8.69,18.47,10.97Z"/>
  <path class="cls-8" d="M317.38,196.66c.35.01,3.37.82,4.99,1,17.69,1.98,36.93,7.41,44.89,24.96-26.97-7.63-50.23-9.34-78.29-6.98-9.48.8-18.98,3-28.44,3.98-.11-.62.17-1.5,0-2,9.86-10.66,24.55-17.21,38.85-19.52,3.62-.59,6.59-.22,10.03-.45,1.61-.11,2.83-1,2.99-1,1.65-.03,3.34-.06,4.99,0Z"/>
  <path class="cls-9" d="M221.62,506.12c-11.57,16.08-22.84,26.15-37.91,38.93-1.88,1.6-4.08,2.9-5.99,4.48-1.56,1.29-4.94,3.43-4.98,5.5-2.48.82-4.62,2.37-7.75,2.74-8.92,1.05-19.65-7.02-26.17-12.72,7.98-5.45,17.36-1.73,26.19-3.23,7.29-1.24,28.14-14.17,34.97-18.91l21.63-16.79Z"/>
  <path class="cls-9" d="M182.72,148.74c8.26,2.56,15.31,7.1,21.98,12.47,1.31,1.05,2.7.17,1.96,3.51-12.83.19-27.39.67-39.9-2-.02-4.5.02-9.02,0-13.53,0-1.45,1-2.93,1-3.44,4.41,1.04,10.87,1.73,14.96,2.99Z"/>
  <path class="cls-9" d="M228.06,238.16c2.73,4.78,3.32,9.19,4.79,14.65.38,1.41,2.2,1.93,1.74,3.74h-12.96c-.45-.39,1.41-3.56,1-3.98-.11-.11-2.06-.03-2.98-.49-3.65-1.82-13.58-6.57-14.98-10.01-.73-1.81,1.17-1.53,1.96-1.96,2.16-1.19,14.8-8.24,15.67-8.38,1.77-.29,4.86,4.87,5.75,6.44Z"/>
  <path class="cls-13" d="M161.77,141.76c2.83,6.13-.78,12.63,0,18.97-3.03-.53-6.89-.54-9.98-1,.82-3.31-6.24-2.51-8.98-2.99-1.5-.26-2.38-.87-2.99-1,1.3-1.79,4.44-12.57,5-12.98.65-.48,4.37,1.96,6.43,2.02,2.39.07,8.37-1.74,10.52-3.02Z"/>
  <path class="cls-5" d="M145.81,131.77c2.12.57,3.16,5.93,7.48,5.92,3.93,0,5.71-5.46,9.47-5.92.99.95,2.68,1.71,3.99,2v2c-2.82,1.39-1.66,3.51-2,3.99-.1.15-2.52,1.71-2.99,2-2.14,1.28-8.12,3.09-10.52,3.02-2.05-.06-5.78-2.5-6.43-2.02-.56.41-3.7,11.18-5,12.98-1.2-.25-2.93.37-4.35-.13-1.72-.61-1.5-2.76-1.64-2.86-.04-2.05,1.79-5.15,2.99-6.99.06-.09,1.4.21,1.69-.27,2.11-3.45,2.02-5.62,2.3-8.72.16-1.72.45-3.35,1-4.99,1.2.19,2.95-.28,3.99,0Z"/>
  <path class="cls-14" d="M284.46,439.23c-.28.37-.7.65-1,1-2.9-.03-2.32,1.45-2.99,2.99-.28.65-.86,1.41-1,2-6.74,4.33-14.4,12.91-22.66,14.7-1.14.25-2.05-.75-2.28-.73l10.98-8.47c8.09-8.15,16.57-15.82,22.93-25.47-.02.15,1.02.69.63,2.96-.69,3.99-4.44,6.96-4.62,11.02Z"/>
  <path class="cls-14" d="M262.52,210.64c8.95-7.71,32.69-16.87,44.43-15.99,3.08.23,2.58-.45,2.46,3.01-3.44.23-6.4-.14-10.03.45-14.3,2.31-28.99,8.86-38.85,19.52-1.12-3.32-1.08-4.34,2-6.99Z"/>
  <path class="cls-14" d="M238.58,353.38c-.86,11.44-.95,30.54,0,41.93-4.05.29-2.47.16-2.96-2.48-2.04-10.93-1.59-25.44.66-36.32.37-1.77-.44-3.72,2.31-3.13Z"/>
  <path class="cls-14" d="M178.73,307.47c-5.21-2.27-13.54-9.53-18.47-10.97-3.27-.95,1.71,6.56,2.51,7.97-3.86.66-8.71-7.83-9.76-10.7-1.48-4.05,5.92-1.4,7.76-.77,7.47,2.54,15.01,7.37,17.96,14.47Z"/>
  <path class="cls-6" d="M167.76,145.75c0,.52-1.01,1.99-1,3.44.03,4.51-.02,9.03,0,13.53-3.1-.66-4.7-1.95-4.99-2-.78-6.34,2.83-12.84,0-18.97.47-.28,2.89-1.85,2.99-2,.98,1.54,3,4.22,2.99,5.99Z"/>
  <path class="cls-2" d="M230.6,395.31c-.69-1.48-2-7.32-2-8.49v-22.96c0-1.87,1.91-8.43,2.99-10.48.36,5.75-.78,6.7-.99,11.49-.45,10.14.23,20.71,0,30.44Z"/>
  <path class="cls-2" d="M183.72,545.05c2.31,3.34,7.52-4.41,8.97-2.99-3.13,7.58-12.82,10.61-19.95,12.97.04-2.07,3.42-4.21,4.98-5.5,1.91-1.58,4.11-2.88,5.99-4.48Z"/>
  <path class="cls-2" d="M236.58,164.72c-9.27,4.06-20.78,6.41-30.92,6.99-.59-2.76,1.36-1.93,3.13-2.31,9.3-1.96,18.91-3.56,27.79-4.68Z"/>
  <path class="cls-2" d="M241.57,163.72c-.54-3.33,5.19-2.67,6.98-3-.17,7.15.24,14.36,0,21.51-.06,1.92,1.02,4.01-2,3.45-.16-7.66.69-15.45-1.01-22.96-.37-.33-3.01.86-3.98,1Z"/>
  <path class="cls-2" d="M176.73,297.48c-6.5-2.72-11.59-6.04-18.06-8.43-1.58-.58-3.46,0-2.89-2.55,6.76.78,18.01,4.3,20.95,10.98Z"/>
  <path class="cls-14" d="M188.7,237.59c-.14.2.26,1.25-.21,1.75-2.15,2.26-9.15.7-12.23,1.27-1.93.36-2.53,2.24-4.51,1.97v-2.99c5.9-5.46,9.75-1.18,16.96-2Z"/>
  <path class="cls-2" d="M142.82,156.73c2.74.48,9.79-.32,8.98,2.99-2.88-.43-9.97-.1-8.98-2.99Z"/>
  <path class="cls-2" d="M230.6,397.31c3.56-.9,1.56,4.92,2,7.99-3.03,1.14-2.19-5.2-2-7.99Z"/>
  <path class="cls-2" d="M5.16,274.52c.84-2.34.38-5.93,2.99-6.99-.68,4.49,1.92,4.6-2.99,6.99Z"/>
  <path class="cls-4" d="M236.58,298.48c2.97-1.54,3.31,8.13,0,6.99.03-2.33-.04-4.66,0-6.99Z"/>
  <path class="cls-2" d="M13.14,254.56c-.58,2.51-.76,6.11-3.99,5.99.48-1.91,1.91-6.8,3.99-5.99Z"/>
  <path class="cls-2" d="M146.81,286.5c.37-.51-1.07-1.72,1.45-2.04,2.3-.29,2.91-.21,2.54,2.04h-3.99Z"/>
  <path class="cls-2" d="M234.59,324.44c.21,1.52,3.12,4.47-1,3.99.03-1.31-.5-3.3,1-3.99Z"/>
  <path class="cls-2" d="M183.72,300.48c-.15,1.76.23,2.86-2.49,2-1.1-.35-.2-1.49-.5-2h2.99Z"/>
  <path class="cls-2" d="M244.56,197.66c-1.26,4.06-.1,6.14-4.99,7.99,1.81-2.62,2.95-5.56,4.99-7.99Z"/>
  <path class="cls-2" d="M234.59,211.63c-.43.61,1.25,2.78-2.99,2,.85-.8,1.01-2.24,2.99-2Z"/>
  <path class="cls-2" d="M235.59,319.44c0,.12,1.35,1.09.99,1.99-.58.12-1.83-.17-1.99,0l1-2Z"/>
  <path class="cls-2" d="M232.59,345.4c0,.11,1.39.94.99,1.99-.57.11-1.87-.15-1.99,0l1-2Z"/>
  <path class="cls-2" d="M246.56,190.67c0,.11,1.62,1.35.99,1.99-.22.23-1.73-.22-1.99,0l1-2Z"/>
  <path class="cls-2" d="M233.59,335.42c0,.11,1.39.94.99,1.99-.57.11-1.87-.15-1.99,0l1-2Z"/>
  <path class="cls-2" d="M244.56,196.66l1-2c-.37.98-.97,1.89-1,2Z"/>
  <path class="cls-3" d="M137.83,45.93c-.94.08-1.5.84-2,1-1.62.51-3.39-1.11-3.75,2.7-.29,3.1,1.44,4.53,1.75,6.29.24,1.34.83,2.63,1,3.99.03.21,0,3.17,0,3.99,0,1.55-.98,3.68-1,5.99l-4.93,8.54c-1.22,6.43.98,14.78.94,20.41-.03,4.2-1.52,8.74-2,12.98-.92,8.31-2.44,16.6-2.99,24.96-6.84,1.04-14.25,3.17-20.95,4.99l2-47.91c10.01,3.77,6.21-4.72,7.22-11.24,1.62-10.48,9.92-21.14,14.61-30.3,2.67-5.2,2.63-12.66,9.09-16.36,1.3,3.62,1.16,6.09,1,9.98Z"/>
  <path class="cls-12" d="M127.86,111.81c2.8-.96,3.56,1.39,3.99,3.99.06.37.07,1.93,0,2-.13.14-1.93-.46-2.09.63-.19,1.34,1.03,2.02,1.09,2.36.23,1.2-.61,3.26,1,3.99-.13,1.31.08,2.68,0,3.99-3.65-.88-1.46,5-2,7.99-1.6.17-3.46-.23-4.99,0,.55-8.36,2.07-16.65,2.99-24.96Z"/>
  <path class="cls-7" d="M131.85,128.78c-.15,2.64.11,5.34,0,7.99-.66.05-1.34-.07-2,0,.53-2.98-1.66-8.87,2-7.99Z"/>
  <path class="cls-7" d="M141.82,131.77c-.54,1.64-.84,3.27-1,4.99-.74.09-1.72-.97-2-1,.04-1.31,1.85-3.25,2-3.99h1Z"/>
  <path class="cls-1" d="M338.33,287.5c.88-5.48-7.57-10.39-8.01-13.53-1.02-7.26,12.57-24.12,19-27.95,4.2-1.84,27.15,24.1,23.94,31.5-5.14-1.75-28.58,11.05-29.93,13.97-3,.92-2.09-2.99-3.16-3.86-.53-.44-1.45.01-1.83-.13Z"/>
  <path class="cls-1" d="M329.35,242.58c4.31-.34,10.32,1.6,14.96,1.49-5.39,3.79-10.18,8.74-13.5,14.45-1.55,2.67-5.11,13.33-5.67,13.84-.69.62-2.02,0-2.78.17-.14-1.5-2.85-1.5-2.99,0-2.08.06-4.42-.29-6.41.06-2.79.5-4.95,3.19-7.5,2.43-2.12-.63-11.82-11.38-12.02-14.47,1.57-.52,7.99-6.77,10.94-8.52,4.69-2.79,19.93-9.05,24.97-9.45Z"/>
  <path class="cls-6" d="M330.35,237.59l-1,4.99c-5.04.4-20.28,6.66-24.97,9.45-2.95,1.75-9.37,8-10.94,8.52-.87.29-3.7-.32-4,0-.34.36.29,3.84,0,5-1.29,5.33-12.73,20.21-15.03,27.39-1.51,4.71-2.67,15.39-2.93,20.53-.07,1.32,0,2.67,0,3.99-.02,4.08.3,7.99,1,11.98-2.32,8.17-.04,16.98.04,25.54.01,1.29-1.04,2.27-1.04,2.41-1.98-3.17-.74-7.63-1.13-11.35-.65-6.32-3.28-13.12-3.85-19.1-3.84-40.51,20.6-84.58,63.83-89.33Z"/>
  <path class="cls-1" d="M346.31,297.48c.53-.32,2.09-2.97,3.51-3.97,7.05-4.96,14.66-9.78,23.41-11,.14,10.55-2.42,21.01-9,29.42-1.09,1.4-10.71,11.18-11.46,11.5-2.06.86-1.38-1.42-1.47-2.48-.69-8.31-2.61-12.93-4-20.47-.15-.84-1.03-1.93-1-2.99Z"/>
  <path class="cls-1" d="M299.43,277.52c.28.38.64.69,1,1v1c-1.63.13-7.39,6.09-7.98,7.99-.16.53.14,1.41,0,2-2.99-.66-3.3,6.29-3.99,8.98-2.98,11.57-3.72,13.69-16.96,14.97.25-5.14,1.42-15.82,2.93-20.53,2.3-7.18,13.74-22.06,15.03-27.39,2.56,4.71,6.83,7.79,9.98,11.98Z"/>
  <path class="cls-6" d="M336.34,237.59c6.03.17,9.77.7,15.35,3.16,1.5.66,3.1.56,2.6,2.83-5.29-2.26-8.68-3.33-14.47-4.03-1.87-.23-4.04,1.25-3.49-1.95Z"/>
  <path class="cls-6" d="M362.27,248.57c-2.33.27-4.1-.42-3.99-2.99,2.58,1.46,2,1.2,3.99,2.99Z"/>
  <path class="cls-1" d="M322.37,272.53c-.26.06-.68.92-1.49.92s-1.35-.93-1.5-.92c.14-1.5,2.85-1.5,2.99,0Z"/>
  <path class="cls-3" d="M300.42,278.52c-.36-.3-.71-.62-1-1l1,1Z"/>
  <path class="cls-10" d="M87.95,410.28c4.77,12.84,4.85,26.39,4.99,39.93-4.3-.38-9.23-2.57-13.24-4.22-8.34-3.45-19.94-6.98-21.68-16.74-.02-8.89-.17-22.36-1-30.95,9.32,6.53,19.35,11.25,30.92,11.98Z"/>
  <path class="cls-10" d="M90.95,459.2c.97,5.93-5.97,29.78-9.52,34.9-1.21,1.75-.97.58-1.97.08-2.81-1.41-3.61-3.2-5.47-5.03-.95-.93-1.74-2.69-2.99-3.99-.19-3.59-2.41-6.14-3.99-8.98-.64-1.15-.8-3.83-2-4.99-.28-7.72-2.72-15.15-3.71-22.76-.21-1.6-1.11-4.17.72-5.19,8.17,6.32,18.17,10.32,27.95,13.49,1.03.58.82,1.55.97,2.48Z"/>
  <path class="cls-10" d="M86.96,403.3c-5.27-1.64-12.45-2.31-17.87-4.57-3.73-1.56-9.15-6.28-12.05-7.41,0-1,0-2,0-2.99-.01-2.16-.04-3.87.44-6.04.65-2.95,6.4-21.5,7.46-23.24,1.43-2.35,5.84-1.54,6.86,1.04,1.52,6.43,6.89,13.21,8.98,18.96,1.18,3.27.69,5.95,1.45,8.53,1.54,5.22,3.54,10.39,4.74,15.72Z"/>
  <path class="cls-12" d="M92.94,450.21c.02,2.21,2.67,9.18-2,8.98-.15-.94.06-1.9-.97-2.48-9.78-3.17-19.78-7.17-27.95-13.49-.26-.2-1.91-6.1-2.99,0-.06-.1-1.35.25-1.74-.19-1.76-2.01.75-11.63.75-13.78,1.74,9.76,13.34,13.29,21.68,16.74,4.01,1.66,8.93,3.85,13.24,4.22Z"/>
  <path class="cls-12" d="M57.03,391.32c2.91,1.13,8.32,5.85,12.05,7.41,5.42,2.27,12.61,2.93,17.87,4.57,4.83,1.5,5.46,4.3,1,6.99-11.57-.73-21.6-5.44-30.92-11.98-.46-4.81-2.33-2.97-2.99-4.49-1.08-2.5,1.59-3.04,2.99-2.49Z"/>
  <path class="cls-8" d="M78.98,361.37c1.54-5.57,7.06,3.42,7.08,5.48.02,2.25-.63,3.54-3.09,3.5-1.05-2.6-2.76-6.51-3.99-8.98Z"/>
  <path class="cls-11" d="M73.99,344.4c-.21,2.24.95,3.47-2,2.99.22-2.23-.96-3.47,2-2.99Z"/>
  <path class="cls-11" d="M71.99,349.39c0,.67,0,1.33,0,2-.22-.17-5.93-.9,0-2Z"/>
  <path class="cls-11" d="M75.98,341.41l-2,1c.08-.65-.06-1.34,0-1.99,1.21-.44,1.88.98,1.99.99Z"/>
  <path class="cls-1" d="M271.5,317.45l11.96-.99c-2.48,13.33,9.61,30.96-6.97,37.92,1.49-8.72-2.65-17.2-4-24.95-.69-3.99-1.02-7.9-1-11.98Z"/>
  <path class="cls-1" d="M287.46,355.38c.36.81.87,2.9,1,2.99l1,2c-.07.44-.08,1.93,0,2l1,2c.45,8.13,10.07,13.69,5.99,24.96h-2c-6.29-5.53-9.1-10.75-12.84-18.59-5.97-12.49-2.05-8.5,3.87-15.35h2Z"/>
  <path class="cls-1" d="M292.44,289.5c-.7,2.86-.74,9.52-3.99,8.98.69-2.69,1-9.64,3.99-8.98Z"/>
  <path class="cls-6" d="M271.5,359.37c2.62-.77,3,6.04,3.99,8.98-2.47.97-3.94-6.78-3.99-8.98Z"/>
  <path class="cls-6" d="M288.45,358.38c.29.23,1.77-.22,1.99,0,.66.69-.97,1.88-.99,1.99l-1-2Z"/>
  <path class="cls-6" d="M296.43,389.32c-.17.46.15,1.37,0,1.99-2.76,1.11-1.68-1.72-1.99-1.99h2Z"/>
  <path class="cls-6" d="M285.46,355.38c.26-.3-.57-2.09.51-2,2.46-.47,1.07,1.09,1.49,2h-2Z"/>
  <path class="cls-6" d="M289.45,362.37c.26.23,1.75-.22,1.99,0,.55.52-1,1.88-.99,1.99l-1-2Z"/>
  <path class="cls-13" d="M189.7,7.99c.92,5.38-3.38,8.69-5.21,13.3-.56,1.41-.45,2.82-.77,3.67-6.83,18.22-9.59,37.64-11.97,56.9-.57,4.6-1.73,9.31-2,13.98-4.32,2.6-4.42,7.77-11.45,8.09-10.02.45-6.43-7.23-11.5-8.09-.26-5.34.5-10.91-.26-16.21-.97-6.79-6.1-14.25-7.72-21.72-.25-1.13.17-2.75,0-3.99,2.44-.18,2.14-.9,5.33,1.17s4.41,4.68,7.64,6.81c.83.55.47,1.76,2.99,2,.65.06,1.34-.01,1.99,0,.1-.65-.09-1.36,0-1.99.08-.58.06-1.4,0-2l7.76-20.68c1.67-1.71,2.24-3.28,3.22-5.27,4.12-8.41,10.95-25.4,21.95-25.95Z"/>
  <path class="cls-13" d="M157.78,111.81c.37.08.99,1.04,2.46,1.09,2.24.07,2.39-1.07,2.52-1.09,1.2-.2,2.72.14,3.99,0-1.13,6.58-.28,13.97-3.99,19.96-3.77.46-5.55,5.91-9.47,5.92-4.33,0-5.37-5.35-7.48-5.92,1.01-6.53,1.93-16.47,1-22.96,3.87.74,6.98,2.15,10.97,2.99Z"/>
  <path class="cls-5" d="M166.76,111.81c-1.27.14-2.79-.2-3.99,0-1.2-1.27-4.07-1.79-4.99,0-3.99-.85-7.1-2.25-10.97-2.99-.36-2.48-2.06-5.96-4.99-4.99-.12-2.64.17-5.35,0-7.99,1.58.17,3.49-.25,4.99,0,5.06.85,1.48,8.54,11.5,8.09,7.03-.32,7.13-5.48,11.45-8.09.64-.39,2.21-.31,2.99-1-.02.33,1.04,2.06,1.04,3.48,0,8.61-6.01,7.58-7.03,13.49Z"/>
  <path class="cls-6" d="M171.75,81.86c2.81-.04,3.23-.82,2.98,2.46-.26,3.47-1.73,6.97-1.98,10.52-.78.68-2.35.61-2.99,1,.26-4.66,1.43-9.38,2-13.98Z"/>
  <path class="cls-2" d="M169.75,133.77c-1.58,3.75-1,1.01-2.99,2v-2c.86.19,2.05-.12,2.99,0Z"/>
  <path class="cls-9" d="M216.63,134.77c-.39,6.81-4.4,16.26-11.97,16.97-3.5-2.18-11.82-5.11-15.96-5.99.29-2.74-.11-1.78-2-2-.97-.11-2.01.06-2.99,0-5.96-.36-10.62,1.34-8.98-5.99,1.69.74,3.12-.81,3.99-1,2.88-.61,8.66-.96,10.97-2.99l2-1c4.98-.25,18.5-5.64,22.42-5.04,3.38.52,2.68,4.28,2.52,7.04Z"/>
  <path class="cls-2" d="M178.73,136.77c-.87.18-2.3,1.74-3.99,1,.3-1.34.84-2.62,1.01-3.99,2.01-.37,2.94,1.15,2.98,2.99Z"/>
  <path class="cls-2" d="M191.7,132.77l-2,1c.15-.13-.59-3.82,2-1Z"/>
  <path class="cls-6" d="M167.76,33.95c-.98,1.99-1.55,3.56-3.22,5.27l-7.76,20.68c-.48-4.78-1.56-2.37-2-2.99-.76-1.09,5.74-18.59,6.91-20.28.98-1.41,4.36-2.2,6.05-2.68Z"/>
  <path class="cls-12" d="M154.79,56.91c.43.62,1.52-1.79,2,2.99.06.59.08,1.42,0,2-2.12-.24-2.23-.12-2,2-2.53-.24-2.16-1.45-2.99-2-.2-1.19.29-2.98,0-3.99l2.99-1Z"/>
  <path class="cls-2" d="M317.38,196.66c1.69-1.74,5.96-1.9,4.99,1-1.62-.18-4.64-.99-4.99-1Z"/>
  <path class="cls-11" d="M186.71,143.75c1.88.22,2.28-.75,2,2-1.62-.34-2.36.93-2-2Z"/>
  <path class="cls-11" d="M283.47,440.23c-.43.51.04,3.45-2.99,2.99.67-1.54.1-3.02,2.99-2.99Z"/>
  <path class="cls-12" d="M138.83,53.91c.17,1.24-.25,2.86,0,3.99l-1.01,3-2.98-1c-.17-1.36-.76-2.65-1-3.99,1.17-2.74,2.71-1.83,4.99-2Z"/>
  <path class="cls-6" d="M71,485.15c-.18-.18-1.69-.18-2.52-.94-1.98-1.82-3.84-6.08-1.47-8.05,1.58,2.85,3.8,5.4,3.99,8.98Z"/>
  <path class="cls-11" d="M104.91,362.37c.07-1.12-.2-4.77,0-4.99,1.44-1.49,3.9,1.25,4.5,2.97,7,19.91,8.61,51.57,20.43,68.4,1.14,1.62,8.42,10.02,9.69,10.35,4.53,1.18,23.26-17.71,26.74-21.82,4.35-5.13,17.42-23.34,18.44-28.96,3.93.36,1.1-1.38,1-2-.09-.57-.03-1.38,0-2,2.26.37,2.83-.45,1-2,.09-.64-.14-1.45,0-2,2.32.9,2.77-2.95,2.99-4.99.34-3.15-.22-6.75,0-9.98,4.2.69-.55-6.94,5.99-5.99.23.33,1.48.49,1.79,1.66,1.59,5.89-.63,21.64-1.79,28.28-2.41-.53-2.07,1.22-2.81,2.63-2.45,4.64-3.44,7.37-7.16,11.35-9.02,9.61-19.38,22.39-27.93,32.94-.31.38-.38.76-1,1-2.09.81-4.52-.66-3.99,3.99-2.24,1.48-.6,1-3.99,2-2.33.68-5.89.84-8.44,2.02l-10.51-1.02c-6.12-7.36-9.69-11.16-12.97-20.96,1.86-1.2,2.33,3.92,3.99,1.99,1.13-1.32-3.3-9.5-3.88-11.57-2.5-8.93-4.51-18.13-6.83-27.11-.72-2.79.66-11.44-4.24-10.23-.12-4.31-.62-7.91-2-11.98.96-.27.95-1.15,1-2Z"/>
  <path class="cls-9" d="M116.88,423.26c3.28,9.81,6.84,13.61,12.97,20.96.93,1.12,1.4,4.35,4.01,5.46,6.26,2.66,10.9-2.49,14.94-6.46,3.39-.99,1.75-.52,3.99-2,1.77-1.16,3.54-.88,3.99-3.99.62-.24.69-.61,1-1,6.22-2.59,13.47-10.21,17.93-15.5s8.6-10.92,10-17.44c3.73-3.97,4.72-6.71,7.16-11.35.74-1.4.4-3.16,2.81-2.63-3.36,19.27-15.16,39.7-27.96,54.38-5.96,6.83-13.74,8.8-17.89,13.04-1.56,1.59-1.26,4.06-4.06,5.92-10.71,7.09-21.9-8.55-25.77-17.06-10.94-24.05-14.54-35.74-14.09-62.26,3.88,13.34,6.57,26.76,10.97,39.93Z"/>
  <path class="cls-14" d="M105.91,376.34c4.91-1.22,3.52,7.43,4.24,10.23,2.32,8.98,4.33,18.17,6.83,27.11.58,2.08,5.02,10.26,3.88,11.57-1.65,1.93-2.13-3.2-3.99-1.99-4.4-13.17-7.09-26.59-10.97-39.93.04-2.32.07-4.67,0-6.99Z"/>
  <path class="cls-9" d="M189.7,365.36c.23-3.41.03-9.27,5.41-8.04,1.11.25.39,1.78.57,2.05-6.53-.95-1.79,6.68-5.99,5.99Z"/>
  <path class="cls-9" d="M189.7,375.35c-.22,2.04-.68,5.89-2.99,4.99.58-2.26.37-5.77,2.99-4.99Z"/>
  <path class="cls-9" d="M104.91,362.37c-.05.84-.04,1.73-1,2-.32-.95-2.84-2.28,1-2Z"/>
  <path class="cls-9" d="M186.71,382.33c1.84,1.55,1.26,2.37-1,2,.09-1.74.98-1.89,1-2Z"/>
  <path class="cls-9" d="M185.71,386.33c.1.62,2.93,2.36-1,2,.15-.81-.01-1.71,1-2Z"/>
  <path class="cls-5" d="M98.69,206.9c15.54-2.12,26.44,5.4,23.94,21.97-1.2,7.98-10.25,19.22-17.73,22.18-19.08,7.54-50.05-5.78-32.89-28.93,5.85-7.89,17.03-13.9,26.69-15.22Z"/>
  <path class="cls-6" d="M141.82,103.82c2.92-.96,4.63,2.51,4.99,4.99.93,6.49.01,16.43-1,22.96-1.04-.28-2.79.19-3.99,0h-1c.17-.85-.07-2.03,0-2.99,3.01.56,1.93-1.53,2-3.45.2-5.98-.8-11.99-1-17.51-.05-1.33.06-2.67,0-3.99Z"/>
  <path class="cls-6" d="M146.81,95.84c-1.5-.25-3.4.17-4.99,0-.2-2.96.25-6.03,0-8.98,1.8-2.63,1.92-11.4-2-10.98-.69-2.9-1.31-4.39-2.99-6.99.28-2.48.75-5.88-2-4.99,0-.82.03-3.78,0-3.99l2.98,1,1.01-3c1.62,7.47,6.75,14.93,7.72,21.72.76,5.3,0,10.88.26,16.21Z"/>
  <path class="cls-12" d="M133.84,69.88c-.01,1.3.03,2.63,0,3.99-.09,4.98.03,10,0,14.97-.01,2.28-.48,2.25,0,5.99.16,1.28-.11,2.69,0,3.99h-3.99c.04-5.63-2.16-13.98-.94-20.41l4.93-8.54Z"/>
  <path class="cls-6" d="M133.84,98.83c.31,3.58,1.18,6.56,1,10.98-4-.46-1.14,1.91-1,2.99.12.89.03,2.05,0,2.99h-2c-.43-2.6-1.19-4.95-3.99-3.99.47-4.24,1.96-8.78,2-12.98h3.99Z"/>
  <path class="cls-7" d="M134.84,63.89c2.74-.89,2.28,2.51,2,4.99-.21,1.81-1.17,6.21-2.99,4.99.03-1.36-.01-2.69,0-3.99.02-2.31,1-4.44,1-5.99Z"/>
  <path class="cls-7" d="M141.82,86.85c-.22-2.65-1.26-7.9-2-10.98"/>
  <path class="cls-7" d="M133.84,94.84c-.48-3.74-.01-3.71,0-5.99,1.54,1.7,1.56,4.25,0,5.99Z"/>
  <path class="cls-6" d="M131.85,117.8l1,1c-.06.66.06,1.34,0,2h-2c-.07-.34-1.29-1.02-1.09-2.36.16-1.09,1.95-.49,2.09-.63Z"/>
  <path class="cls-7" d="M132.84,120.79c-.17,1.97-.94,3.39-1,3.99-1.61-.73-.77-2.79-1-3.99h2Z"/>
  <path class="cls-7" d="M134.84,109.81c-.05,1.09.31,2.51-1,2.99-.15-1.08-3-3.45,1-2.99Z"/>
  <path class="cls-7" d="M133.84,115.8c-.05,1.73-.97,2.71-1,2.99l-1-1c.07-.07.06-1.62,0-2h2Z"/>
  <path class="cls-6" d="M156.78,61.9c-.09.63.09,1.35,0,1.99-.66-.01-1.34.06-1.99,0-.24-2.12-.12-2.24,2-2Z"/>
  <path class="cls-3" d="M162.77,111.81c-.14.02-.28,1.17-2.52,1.09-1.47-.05-2.09-1.01-2.46-1.09.92-1.79,3.79-1.27,4.99,0Z"/>
  <path class="cls-14" d="M185.71,403.3c-1.4,6.53-5.76,12.41-10,17.44-4.46,5.29-11.71,12.91-17.93,15.5,8.55-10.55,18.91-23.33,27.93-32.94Z"/>
  <path class="cls-14" d="M148.8,443.23c-4.04,3.97-8.68,9.12-14.94,6.46-2.61-1.11-3.08-4.34-4.01-5.46l10.51,1.02c2.56-1.18,6.12-1.34,8.44-2.02Z"/>
  <path class="cls-14" d="M156.78,437.24c-.45,3.11-2.22,2.83-3.99,3.99-.53-4.65,1.9-3.18,3.99-3.99Z"/>
  <path class="cls-11" d="M286.5,430.89c-2.85,3.25-4.92,7.03-7.38,10.57-1,1.44-2.03,2.73-3.35,4.01-1.22,1.19-2.71,2.3-4.16,2.9-1.25.51-2.13,1.66-1.75,3.08.32,1.18,1.82,2.26,3.08,1.75,4.14-1.7,7.2-4.7,9.81-8.25s4.46-7.29,7.28-10.51c.89-1.02,1-2.54,0-3.54-.91-.91-2.64-1.02-3.54,0h0Z"/>
  <path class="cls-11" d="M294.96,410.15c-1.01,5.02-2.35,9.97-4.04,14.81-1.53,4.39-3.27,8.77-5.96,12.59s-6.79,6.46-10.63,9.16c-4.06,2.85-8.08,5.76-12.24,8.45-4.42,2.85-9.04,5.39-14.1,6.9-3.08.92-1.77,5.75,1.33,4.82,9.82-2.93,18.08-9.21,26.35-15.02,4.27-2.99,8.9-5.81,12.21-9.92,3.11-3.87,5.16-8.37,6.9-12.98,2.15-5.68,3.81-11.53,5.01-17.48.27-1.32-.38-2.7-1.75-3.08-1.23-.34-2.81.42-3.08,1.75h0Z"/>
  <path class="cls-12" d="M302.86,276.75c-.17.21-.35.38-.54.56-.38.35.32-.21.07-.05-.11.07-.22.15-.33.22-.49.33-1,.65-1.49.97-.97.63-1.95,1.24-2.89,1.91s-1.93,1.43-2.67,2.36c-.83,1.04-1.4,2.14-1.93,3.35-.28.64-.45,1.22-.25,1.93.16.58.61,1.21,1.15,1.49,1.08.57,2.87.38,3.42-.9.22-.51.44-1.03.7-1.52.13-.25.26-.49.41-.73.06-.09.12-.18.18-.28.31-.48-.37.41,0,0,.33-.37.66-.71,1.04-1.03.06-.05.28-.17.3-.25-.03.12-.45.34-.07.06.21-.15.42-.3.64-.45.93-.63,1.88-1.23,2.82-1.84,1.04-.67,2.21-1.31,3-2.28.43-.53.73-1.06.73-1.77,0-.61-.27-1.35-.73-1.77-.91-.84-2.66-1.09-3.54,0h0Z"/>
  <path class="cls-12" d="M294.49,290.17c3.22,0,3.22-5,0-5s-3.22,5,0,5h0Z"/>
  <path class="cls-12" d="M330.59,282.62c1.49,2.42,3.32,4.5,5.42,6.4s2.79,4.37,3.8,6.89c2.28,5.65,4.66,11.28,6.02,17.24.71,3.14,5.54,1.81,4.82-1.33-1.39-6.11-3.86-11.88-6.19-17.67-1.09-2.7-1.95-5.66-4.01-7.8-.97-1.01-2.08-1.87-3.03-2.9s-1.78-2.15-2.52-3.35c-1.69-2.73-6.02-.22-4.32,2.52h0Z"/>
  <path class="cls-5" d="M131.68,50.71c1.21,6.05,3.12,11.9,5.64,17.53,1.12,2.5,2.39,4.95,3.2,7.58.86,2.8.96,5.66,1,8.57.17,12.51.58,25.07.05,37.58-.3,7.01-.99,13.98-2.43,20.85-.28,1.32.39,2.7,1.75,3.08,1.24.34,2.8-.42,3.08-1.75,2.64-12.54,2.91-25.37,2.81-38.13-.05-6.39-.14-12.78-.21-19.17-.04-3.25,0-6.5-.57-9.71-.51-2.94-1.71-5.69-2.94-8.38-2.87-6.26-5.17-12.6-6.53-19.37-.27-1.32-1.84-2.09-3.08-1.75-1.38.38-2.01,1.75-1.75,3.08h0Z"/>
  <path class="cls-5" d="M134.95,52.05c6.47,2.49,12.51,6.13,17.75,10.67,2.45,2.13,5.59-1.07,3.54-3.54-1-1.2.82-3.55,1.47-4.46,1.47-2.07,2.65-4.1,3.36-6.56.66-2.28.99-4.66,1.72-6.92.69-2.14,1.87-4.06,3.14-5.9s2.8-3.74,4.12-5.66,2.45-4.03,3.42-6.19c1.92-4.28,3.62-8.52,7.3-11.62s8.5-4.81,13.06-6.25l-3.08-1.75c.75,2.27-.1,4.58-1.01,6.69-.97,2.26-2.12,4.44-3.29,6.6-2.38,4.38-4.89,8.69-6.79,13.32-2.01,4.89-2.79,9.85-2.6,15.12.1,2.74.2,5.46-.15,8.19s-1,5.22-1.69,7.77c-1.39,5.14-3.01,10.22-3.66,15.53s.47,10.88-1.1,16.15c-1.48,4.94-4.26,9.38-5.75,14.33-1.58,5.27-1.96,10.82-2.3,16.28-.19,3.02-.36,6.05-.73,9.06s-1.38,6.1-1.53,9.19,1.11,6.37,1.66,9.51.7,6.43.55,9.66,4.85,3.21,5,0c.13-2.9,0-5.78-.38-8.66s-1.24-5.61-1.73-8.45c-.45-2.66.51-5.3.95-7.9.46-2.76.74-5.54.94-8.33.39-5.41.48-10.89,1.66-16.21s3.73-9.78,5.63-14.72c.98-2.55,1.62-5.16,1.83-7.88s-.04-5.65.03-8.47c.12-5.28,1.68-10.36,3.1-15.4,1.49-5.3,2.84-10.67,2.79-16.22-.03-2.88-.31-5.77-.04-8.65.21-2.29.86-4.55,1.63-6.71,1.81-5.05,4.67-9.65,7.2-14.35,1.33-2.47,2.6-4.98,3.66-7.58,1.19-2.91,1.95-6.11.94-9.19-.41-1.25-1.73-2.17-3.08-1.75-4.72,1.49-9.54,3.24-13.55,6.19-2.09,1.54-3.9,3.28-5.41,5.39s-2.58,4.49-3.62,6.85-2.09,4.73-3.5,6.9-3.07,4.22-4.57,6.35-2.73,4.25-3.61,6.64-1.25,5.16-1.99,7.71c-.37,1.29-.87,2.46-1.61,3.59-.87,1.33-1.92,2.54-2.61,3.97-1.35,2.78-1.35,5.88.68,8.32l3.54-3.54c-5.93-5.14-12.63-9.14-19.96-11.96-1.26-.48-2.74.54-3.08,1.75-.39,1.41.48,2.59,1.75,3.08h0Z"/>
  <path class="cls-12" d="M106.61,98.19c2.29,1.83,2.96,4.96,1.37,7.47l4.57.6c-.74-3.51-1.35-7.05-1.78-10.61-.15-1.24-.83-2.3-2.17-2.46-1.25-.15-2.36.58-2.74,1.79-1.39,4.41-2.2,8.96-2.49,13.57-.08,1.35,1.21,2.5,2.5,2.5,1.5,0,2.32-1.15,2.5-2.5.67-5.09,1.33-10.18,2-15.27l-4.91.66c.89,3.91,1.22,7.87,1.06,11.88-.13,3.23,4.8,3.19,5,0,.29-4.58,1.13-9.06,2.46-13.45l-4.91-.66c-.24,3.71-.78,7.36-1.61,10.98-.72,3.14,3.85,4.4,4.82,1.33,1.53-4.83,2.81-9.73,3.83-14.69l-4.91-.66-.14,19.32c0,1.35,1.16,2.5,2.5,2.5,1.48,0,2.35-1.15,2.5-2.5,1-8.75,2.06-17.52,4.79-25.93l-4.91-.66c-.34,3.85-1.1,7.63-2.2,11.33l4.91.66c-.28-5.4-.23-10.81.17-16.2h-5c.3,2.85-.09,5.52-1.19,8.16l4.91.66c.29-3.54,1.34-6.98,3.03-10.1l-4.66-1.26c.27,4.54-.39,8.95-1.98,13.22-.98,2.63,3.46,4.54,4.57,1.93,2.79-6.57,5.57-13.13,8.36-19.7l-4.66-1.26c.19,5.55-.44,11.03-1.89,16.39l4.91.66c-.05-7.05.6-14.06,1.99-20.98.25-1.22-.25-2.47-1.45-2.95-1.05-.42-2.61-.13-3.12,1.02-1.76,3.92-3.51,7.84-5.27,11.76-1.26,2.82-4.7,8.23-.61,10.39,1.43.75,3.21.11,3.67-1.49,1.76-6.14,3.88-12.18,6.4-18.05l-4.57-1.93c-1.64,3.89-3.81,7.56-6.32,10.95l4.57,1.93c1-4.16,2.84-8.07,5.56-11.38l-4.18-2.43c-1.29,4.25-3.08,8.27-5.35,12.09l4.57,1.93c1.29-4.99,3.75-9.55,7.25-13.33l-3.93-3.03c-3.14,7.29-5.36,14.89-6.48,22.75-.17,1.23.2,2.45,1.45,2.95,1.08.43,2.56.11,3.12-1.02,3.01-6.13,4.9-12.67,6.63-19.25l-4.91-.66c-.07,7.81.57,15.59,1.83,23.29.2,1.21,1.63,1.96,2.74,1.79,1.32-.2,2.02-1.18,2.17-2.46.61-5.18.7-10.39.27-15.59-.23-2.75-4.04-3.47-4.91-.66-2.19,7.06-3.88,14.25-5.06,21.55l4.91.66c-.23-5.39,0-10.81.77-16.15l-4.91-.66c.19,6.91.2,13.81.03,20.72l4.91-.66c-1.24-4.41-1.51-9.02-.67-13.53l-4.91-.66c-.83,6.91-1.9,13.79-3.19,20.64l4.91.66c.13-6.17.51-12.32,1.14-18.46.14-1.34-1.25-2.5-2.5-2.5-1.48,0-2.34,1.15-2.5,2.5-.82,7-1.64,13.99-2.46,20.99-.14,1.22,1.06,2.32,2.17,2.46,1.28.15,2.32-.59,2.74-1.79,3.37-9.56,6.74-19.12,10.11-28.69l-4.91-.66c.41,8.02.14,16.06-.78,24.04h5c-.01-3.69-.02-7.39-.03-11.08l-4.91.66c.93,5.2.29,10.73-1.85,15.56l4.57.6c-.92-4.45-1.03-9-.43-13.51.36-2.77-4.51-3.45-4.91-.66-1.07,7.45-2.62,14.82-4.62,22.07l4.91.66c-.41-8.15.3-16.28,2.18-24.23l-4.82-1.33c-1.31,9.65-2.44,19.32-3.35,29.02h5c-.25-9.13-.07-18.26.52-27.36.18-2.78-4.39-3.45-4.91-.66-1.87,10.06-3.77,20.14-6.9,29.91l4.91.66c-.37-6.47.19-12.9,1.73-19.2l-4.91-.66c-1.1,9.23-2.2,18.46-3.31,27.69-.33,2.77,4.45,3.44,4.91.66.82-5,1.08-10.03.63-15.08-.11-1.24-.87-2.3-2.17-2.46-1.13-.13-2.53.55-2.74,1.79-1.05,6.1-2.1,12.2-3.15,18.31h4.82c-.87-4.22-1-8.61-.32-12.86l-4.91-.66.08,9.04h5c-.76-6.79-.37-13.62,1.23-20.26.76-3.12-4.04-4.46-4.82-1.33l-5.08,20.43,4.91.66c-1.02-9.05.19-18.11,3.55-26.58l-4.91-.66c-.12,8.53-.24,17.06-.36,25.6h5c-.08-7.49-.15-15.06,2.11-22.27l-4.91-.66c-.29,10.06-.58,20.12-.88,30.19-.08,2.78,4.3,3.45,4.91.66,1.64-7.45,4.3-14.6,8-21.27l-4.66-1.26c.1,6.08.05,12.16-.16,18.24-.1,2.88,4.1,3.3,4.91.66,1.82-5.91,3.64-11.83,5.47-17.74l-4.91-.66c-.29,5.66-.57,11.31-.86,16.97-.14,2.76,4.46,3.47,4.91.66,1.2-7.45,1.92-14.95,2.11-22.5.08-3.24-4.8-3.19-5,0-.36,5.87-1.28,11.66-2.72,17.35l4.91.66c-.2-6.79.96-13.44,3.39-19.78l-4.91-.66c.02,6.38-1.18,12.77-3.68,18.65l4.66,1.26c-.07-6.99.9-13.87,2.89-20.57.92-3.09-3.88-4.4-4.82-1.33-2.18,7.15-4.94,14.1-8.29,20.79l4.66,1.26c-.39-3.21-.4-6.42-.02-9.62.33-2.8-4.31-3.39-4.91-.66-1.17,5.34-3.17,10.37-6,15.04l3.42-.9c-.11-.08-.22-.33-.26-.39-1.11-1.97-3.9-1.37-4.57.6-.7,2.06-1.23,4.16-1.59,6.3h4.82c-.45-1.57-.61-3.17-.34-4.79.22-1.33-.35-2.69-1.75-3.08-1.29-.35-2.74.43-3.08,1.75-.72,2.81-1.45,5.63-2.17,8.44-.81,3.13,3.84,4.38,4.82,1.33.21-.64.56-1.17,1.12-1.56l-3.67-1.49c.14.58.28,1.16.43,1.74.33,1.35,1.79,2.04,3.08,1.75l7.19-1.63c2.34-.53,2.43-4.34,0-4.82-.64-.12-1.27-.25-1.91-.37l-.66,4.91c2.65.06,5.27-.68,7.47-2.17,1.38-.93,1.86-3.51,0-4.32-2.35-1.02-4.71-2.05-7.06-3.07l-.6,4.57c2.5-.38,5.04-.41,7.56-.22v-5c-3.11-.18-6.21-.1-9.31.24-1.24.13-2.3.85-2.46,2.17-.14,1.18.56,2.46,1.79,2.74,3.64.84,7.34,1.41,11.06,1.76v-5c-1.9.18-3.79.36-5.69.55-3.19.31-3.24,4.75,0,5,2.65.21,5.31.42,7.96.62v-5l-3.85-.06v5l4.77-.02v-5l-10.36.12c-2.73.03-3.51,4.32-.66,4.91,3.3.68,6.65,1.1,10.02,1.23v-5l-7.54.03c-3.22.01-3.22,5,0,5h6.27c3.22,0,3.22-4.99,0-5-4.39,0-8.79-.01-13.18-.02-3.22,0-3.22,4.94,0,5,3.53.06,7.07.13,10.6.19l-.66-4.91c-4.32.61-8.64,1.22-12.96,1.84-1.21.17-1.95,1.65-1.79,2.74.18,1.22,1.19,2.16,2.46,2.17l11.46.05c3.22.01,3.22-4.92,0-5s-6.63.34-9.83,1.22l2.43,4.18c.57-.49,1.8-.71,2.74-1.01,1.43-.46,2.78-1.09,3.72-2.29,1.14-1.45,1.19-3.24,1.37-5.01.19-1.95.38-3.9.57-5.86.13-1.35-1.24-2.5-2.5-2.5-1.46,0-2.37,1.15-2.5,2.5-.17,1.72-.33,3.44-.5,5.15-.07.72-.04,1.55-.22,2.25-.11.43-.15.43-.29.53-.47.34-1.6.57-2.44.83-1.3.41-2.44.96-3.48,1.86-1.94,1.68.13,4.81,2.43,4.18,2.8-.77,5.6-1.11,8.5-1.04v-5l-11.46-.05.66,4.91c4.32-.61,8.64-1.22,12.96-1.84,1.21-.17,1.95-1.65,1.79-2.74-.19-1.23-1.18-2.14-2.46-2.17-3.53-.06-7.07-.13-10.6-.19v5c4.39,0,8.79.01,13.18.02v-5h-6.27v5l7.54-.03c3.23-.01,3.21-4.87,0-5-2.93-.12-5.82-.46-8.69-1.06l-.66,4.91,10.36-.12c3.22-.04,3.22-5.01,0-5l-4.77.02c-3.22.01-3.22,4.95,0,5l3.85.06c1.35.02,2.5-1.16,2.5-2.5,0-1.44-1.15-2.39-2.5-2.5-2.65-.21-5.31-.42-7.96-.62v5c1.9-.18,3.79-.36,5.69-.55,3.21-.31,3.22-4.7,0-5s-6.52-.84-9.73-1.58l-.66,4.91c3.1-.34,6.2-.42,9.31-.24,1.35.08,2.5-1.21,2.5-2.5,0-1.44-1.15-2.4-2.5-2.5-2.99-.23-5.93-.05-8.89.4-2.04.31-2.51,3.74-.6,4.57,2.35,1.02,4.71,2.05,7.06,3.07v-4.32c-1.52,1.03-3.1,1.53-4.95,1.49-2.76-.07-3.47,4.36-.66,4.91.64.12,1.27.25,1.91.37v-4.82l-7.19,1.63,3.08,1.75c-.14-.58-.28-1.16-.43-1.74-.36-1.48-2.35-2.4-3.67-1.49-1.67,1.15-2.8,2.62-3.42,4.55l4.82,1.33c.72-2.81,1.45-5.63,2.17-8.44l-4.82-1.33c-.42,2.52-.36,4.98.34,7.45.63,2.21,4.39,2.54,4.82,0,.36-2.15.89-4.24,1.59-6.3l-4.57.6c.52.93,1.19,1.57,2.05,2.19,1.11.8,2.77.17,3.42-.9,3.04-5.01,5.25-10.51,6.5-16.23l-4.91-.66c-.37,3.21-.37,6.42.02,9.62.14,1.11.68,2.09,1.84,2.41,1.02.28,2.33-.17,2.82-1.15,3.53-7.07,6.48-14.43,8.79-21.99l-4.82-1.33c-2.1,7.1-3.13,14.5-3.06,21.9.01,1.1.77,2.12,1.84,2.41.97.27,2.4-.15,2.82-1.15,2.86-6.72,4.39-13.85,4.37-21.17,0-1.23-.95-2.31-2.17-2.46-1.31-.16-2.28.6-2.74,1.79-2.58,6.71-3.78,13.92-3.57,21.11.08,2.75,4.2,3.47,4.91.66,1.55-6.12,2.51-12.38,2.9-18.68h-5c-.18,7.09-.81,14.16-1.93,21.17l4.91.66c.29-5.66.57-11.31.86-16.97.15-2.89-4.1-3.29-4.91-.66l-5.47,17.74,4.91.66c.21-6.08.27-12.16.16-18.24-.04-2.42-3.43-3.48-4.66-1.26-3.9,7.03-6.78,14.61-8.51,22.47l4.91.66c.29-10.06.58-20.12.88-30.19.08-2.89-4.08-3.3-4.91-.66-2.39,7.63-2.38,15.69-2.29,23.6.04,3.22,4.95,3.22,5,0,.12-8.53.24-17.06.36-25.6.02-1.23-.96-2.31-2.17-2.46-1.32-.16-2.27.6-2.74,1.79-3.5,8.82-4.79,18.48-3.73,27.91.14,1.24.84,2.3,2.17,2.46,1.2.14,2.44-.56,2.74-1.79,1.69-6.81,3.39-13.62,5.08-20.43l-4.82-1.33c-1.71,7.06-2.22,14.37-1.41,21.59.15,1.34,1.04,2.5,2.5,2.5,1.35,0,2.51-1.14,2.5-2.5l-.08-9.04c-.01-1.23-.94-2.31-2.17-2.46-1.12-.13-2.55.55-2.74,1.79-.83,5.2-.74,10.36.32,15.52.48,2.34,4.4,2.43,4.82,0l3.15-18.31-4.91-.66c.4,4.58.29,9.21-.46,13.75l4.91.66c1.1-9.23,2.2-18.46,3.31-27.69.34-2.82-4.25-3.36-4.91-.66-1.64,6.71-2.3,13.64-1.9,20.53.16,2.8,4.03,3.41,4.91.66,3.13-9.76,5.02-19.84,6.9-29.91l-4.91-.66c-.6,9.11-.77,18.24-.52,27.36.09,3.27,4.7,3.16,5,0,.88-9.25,1.93-18.48,3.18-27.69.18-1.34-.32-2.68-1.75-3.08-1.27-.35-2.76.43-3.08,1.75-1.98,8.36-2.79,16.98-2.36,25.56.14,2.75,4.13,3.47,4.91.66,2.01-7.25,3.55-14.62,4.62-22.07l-4.91-.66c-.65,4.96-.4,9.94.61,14.84.41,1.99,3.7,2.56,4.57.6,2.73-6.17,3.55-12.77,2.36-19.42-.51-2.82-4.92-2.1-4.91.66.01,3.69.02,7.39.03,11.08,0,1.35,1.15,2.5,2.5,2.5,1.48,0,2.34-1.15,2.5-2.5.93-7.98,1.19-16.02.78-24.04-.14-2.86-3.97-3.33-4.91-.66-3.37,9.56-6.74,19.12-10.11,28.69l4.91.66c.82-7,1.64-13.99,2.46-20.99h-5c-.64,6.13-1.02,12.29-1.14,18.46-.06,2.75,4.38,3.48,4.91.66,1.37-7.28,2.49-14.61,3.37-21.97.33-2.78-4.4-3.43-4.91-.66-1,5.4-.82,10.89.67,16.19.77,2.74,4.84,2.16,4.91-.66.17-6.91.16-13.82-.03-20.72-.03-1.24-.92-2.31-2.17-2.46-1.11-.13-2.56.55-2.74,1.79-.85,5.8-1.2,11.62-.95,17.48.05,1.24.91,2.31,2.17,2.46,1.12.13,2.54-.55,2.74-1.79,1.18-7.29,2.87-14.49,5.06-21.55l-4.91-.66c.43,5.2.34,10.41-.27,15.59l4.91-.66c-1.19-7.26-1.71-14.61-1.65-21.96.02-2.81-4.19-3.41-4.91-.66-1.62,6.15-3.32,12.33-6.13,18.06l4.57,1.93c1.05-7.4,3.01-14.69,5.97-21.56.49-1.15.43-2.42-.64-3.23-.96-.72-2.42-.73-3.28.2-4.08,4.41-7.03,9.72-8.54,15.54-.71,2.73,3.11,4.39,4.57,1.93,2.48-4.17,4.44-8.64,5.85-13.28.69-2.28-2.56-4.4-4.18-2.43-3.27,3.99-5.64,8.56-6.85,13.59-.69,2.89,2.93,4.14,4.57,1.93,2.78-3.77,5-7.83,6.82-12.15,1.09-2.59-3.45-4.53-4.57-1.93-2.69,6.27-5.02,12.68-6.9,19.25l3.67-1.49c.87.46.29,1.32.71.21.25-.66.59-1.3.88-1.95l2.03-4.52c1.35-3.02,2.7-6.03,4.05-9.05l-4.57-1.93c-1.48,7.34-2.22,14.82-2.17,22.3.02,2.8,4.17,3.42,4.91.66,1.56-5.77,2.27-11.75,2.07-17.72-.04-1.1-.75-2.11-1.84-2.41-.97-.27-2.4.15-2.82,1.15-2.79,6.57-5.57,13.13-8.36,19.7l4.57,1.93c1.73-4.63,2.46-9.61,2.16-14.55-.14-2.35-3.41-3.57-4.66-1.26-2.13,3.93-3.35,8.17-3.71,12.62-.1,1.22,1.03,2.32,2.17,2.46,1.33.16,2.25-.61,2.74-1.79,1.24-2.99,1.71-6.28,1.37-9.49s-4.76-3.26-5,0c-.4,5.39-.46,10.8-.17,16.2.15,2.78,4.09,3.44,4.91.66,1.23-4.13,2-8.37,2.38-12.66.26-2.92-4.08-3.23-4.91-.66-2.86,8.83-3.92,18.08-4.96,27.26h5l.14-19.32c.02-2.75-4.33-3.48-4.91-.66-1.02,4.96-2.3,9.86-3.83,14.69l4.82,1.33c.93-4.05,1.52-8.17,1.79-12.31.19-2.89-4.11-3.28-4.91-.66-1.46,4.81-2.33,9.76-2.64,14.78h5c.18-4.44-.25-8.88-1.24-13.21-.27-1.2-1.57-1.97-2.74-1.79-1.33.2-2,1.18-2.17,2.46-.67,5.09-1.33,10.18-2,15.27h5c.26-4.17,1.05-8.26,2.31-12.24l-4.91-.66c.49,4.01,1.13,7.99,1.96,11.94.46,2.2,3.49,2.31,4.57.6,2.68-4.23,1.8-10.37-2.16-13.53-1.05-.84-2.51-1.03-3.54,0-.87.87-1.06,2.69,0,3.54h0Z"/>
  <path class="cls-12" d="M128.49,62.92l1.99-7.44h-4.82c1.71,5.98,2.54,12.1,2.49,18.32-.03,3.22,4.91,3.21,5,0,.16-5.89-.87-11.79-3.05-17.26-.62-1.56-2.84-2.7-4.18-1.1-4.25,5.1-7.86,10.67-10.66,16.69l4.66,1.26c.34-3.1,1.58-6.21,3.5-8.67l-3.93-.51c6.86,14.45,2.89,31.18,3.18,46.49.09,4.72.57,9.46,1.68,14.05.43,1.79,2.92,2.47,4.18,1.1,1.77-1.92,2.53-4.29,2.88-6.84.39-2.86.57-5.76.74-8.64.34-6.01.36-12.03.08-18.04-.15-3.2-5.15-3.22-5,0,.26,5.52.26,11.06,0,16.58-.13,2.68-.32,5.36-.58,8.03-.17,1.82-.35,3.97-1.65,5.37l4.18,1.1c-1.98-8.15-1.61-16.59-1.17-24.9s.85-16.08-.34-24.08c-.66-4.43-1.92-8.71-3.85-12.76-.64-1.34-2.98-1.73-3.93-.51-2.81,3.62-4.46,7.65-4.96,12.2-.27,2.43,3.64,3.45,4.66,1.26,2.61-5.62,5.9-10.92,9.88-15.68l-4.18-1.1c2.04,5.1,3.02,10.44,2.88,15.93h5c.05-6.64-.85-13.27-2.67-19.65-.67-2.35-4.18-2.41-4.82,0l-1.99,7.44c-.83,3.11,3.99,4.44,4.82,1.33h0Z"/>
  <path class="cls-12" d="M136.57,31.93c-.22,1.13-1.1,2.1-1.86,3.24-.98,1.47-1.25,2.96-1.61,4.65-.32,1.48-1.33,2.63-2.28,3.87-1.1,1.44-2.19,2.89-3.29,4.33l4.57,1.93c.32-1.55,1.07-2.84,1.91-4.15.96-1.51,1.94-3.01,2.92-4.51,2.01-3.11,4.03-6.22,6.04-9.33,1.2-1.85-.78-4.25-2.82-3.67-2.88.82-5.05,2.85-6.72,5.26s-2.68,5.24-4.33,7.69,2.04,5.16,3.93,3.03c3.61-4.08,6.97-8.36,10.09-12.83l-4.66-1.26c.05,3.02-.62,5.75-1.68,8.56s-1.11,7.2,2.41,8.17c4.11,1.14,4.7-4.37,4.84-7.08.17-3.08-.29-6.23-1.29-9.14-.84-2.43-3.94-2.3-4.82,0-1.89,4.91-3.6,10.17-2.15,15.43l3.67-2.82-2-1.05c-1.2-.63-2.72-.31-3.42.9-.66,1.13-.3,2.79.9,3.42l2,1.05c1.89.99,4.27-.65,3.67-2.82-1.2-4.32.61-8.78,2.15-12.77h-4.82c.68,1.98,1.09,4,1.14,6.09.02,1.04,0,2.09-.15,3.11-.06.47-.29,1.01-.28,1.47-.05.16-.04.16.04-.02l2.48-.25c-.06.15-.08-.23-.05-.12.05.21-.03-.41-.02-.17,0,.17.01-.44.02-.51.03-.21.26-.89.39-1.24.37-1.04.79-2.05,1.09-3.11.64-2.3.93-4.71.89-7.09-.04-2.6-3.28-3.24-4.66-1.26-2.87,4.12-5.98,8.05-9.31,11.81l3.93,3.03c1.49-2.21,2.46-4.7,3.86-6.96,1.03-1.67,2.44-3.19,4.21-3.7l-2.82-3.67c-2.08,3.22-4.16,6.43-6.25,9.65-1.91,2.96-4.4,6.02-5.13,9.54-.25,1.21.25,2.47,1.45,2.95s2.35,0,3.12-1.02c1.17-1.54,2.34-3.08,3.51-4.62,1.05-1.38,2.06-2.73,2.49-4.45.22-.86.29-1.74.53-2.59.11-.38.44-.89.8-1.41.91-1.33,1.89-2.58,2.21-4.21.26-1.32-.38-2.7-1.75-3.08-1.23-.34-2.81.41-3.08,1.75h0Z"/>
  <path class="cls-12" d="M127.1,45.88c-1.36,4.31-1.69,8.82-1.05,13.29.59,4.12,2.69,7.94,2.98,12.09.22,3.17,5,3.25,5,0,0-6.73-.69-13.45-2.01-20.05-.57-2.88-4.77-2.03-4.91.66-.2,3.76,1.82,6.94,3.43,10.18.73,1.47,1.3,3,1.28,4.67-.02,1.91-.67,3.76-1.36,5.52-1.55,3.96-3.23,7.78-4.33,11.9s-1.83,8.45-2.4,12.74c-.63,4.77-1.01,9.56-1.38,14.36-.11,1.35,1.22,2.5,2.5,2.5,1.44,0,2.39-1.15,2.5-2.5.65-8.35,1.31-16.74,3.37-24.89,1.05-4.14,2.59-8.01,4.22-11.95s2.59-7.99,1.14-12.05c-1.22-3.42-4.16-6.71-3.97-10.48l-4.91.66c1.23,6.17,1.83,12.43,1.83,18.72h5c-.3-4.21-2.15-7.97-2.94-12.07s-.4-8.12.82-11.98c.97-3.08-3.85-4.39-4.82-1.33h0Z"/>
  <path class="cls-12" d="M130.11,81.18c-1.15,4.35.12,8.74.42,13.11s.11,8.76-.29,13.12c-.82,8.87-2.49,17.65-2.94,26.56-.16,3.22,4.84,3.21,5,0,.44-8.75,2.06-17.37,2.89-26.08.41-4.28.62-8.59.38-12.88-.12-2.2-.42-4.37-.71-6.55-.26-1.98-.45-4,.07-5.95.82-3.11-4-4.44-4.82-1.33h0Z"/>
  <path class="cls-14" d="M239.28,237.41c2.72-5.2,6.08-10.04,10.06-14.36,1.99-2.16,4.11-4.19,6.36-6.08,1.09-.92,2.21-1.8,3.36-2.64.55-.4,1.11-.79,1.68-1.18.34-.23.68-.47,1.02-.68l.35-.21c.23-.11.21-.11-.05,0,1.26.47,2.74-.53,3.08-1.75.39-1.4-.48-2.6-1.75-3.08-1.91-.72-3.64.36-5.17,1.41-1.42.96-2.79,1.99-4.14,3.05-2.63,2.06-5.12,4.31-7.43,6.73-4.62,4.84-8.57,10.34-11.68,16.27-1.49,2.85,2.82,5.38,4.32,2.52h0Z"/>
  <path class="cls-14" d="M246.34,230.23c2.56-2.38,4.24-5.44,6.47-8.09,2.37-2.83,5.31-5.09,8.2-7.35s5.71-4.66,8.74-6.73c1.43-.97,2.91-1.8,4.55-2.35,1.83-.61,3.72-1.04,5.53-1.7,3.66-1.33,7.1-3.17,10.79-4.43,3.45-1.18,7.01-2.05,10.6-2.64,7.34-1.2,14.89-1.12,22.26-.23,8.64,1.05,17.11,3.37,25.31,6.21,1.28.44,2.73-.5,3.08-1.75.38-1.37-.47-2.63-1.75-3.08-14.96-5.18-31-8.45-46.85-6.47-3.85.48-7.65,1.2-11.37,2.29s-7.48,2.75-11.15,4.35-7.39,2.14-10.83,3.86-6.55,4.51-9.63,6.92c-3.36,2.63-6.9,5.15-9.85,8.24-2.79,2.93-4.66,6.63-7.64,9.4-2.36,2.2,1.18,5.73,3.54,3.54h0Z"/>
  <path class="cls-14" d="M318.79,194.45c6.77-1.38,13.62.41,19.93,2.87s12.77,5.59,18.8,8.93c5.66,3.13,10.71,6.94,14.91,11.87,3.78,4.44,6.77,9.53,9.34,14.75,3.03,6.16,5.45,12.59,7.83,19.02.47,1.27,1.69,2.13,3.08,1.75,1.22-.33,2.22-1.8,1.75-3.08-4.51-12.17-9.23-24.55-17.45-34.77-4.26-5.29-9.49-9.56-15.35-12.97-6.32-3.67-13.09-6.83-19.84-9.62-7.71-3.19-15.97-5.26-24.31-3.56-1.32.27-2.09,1.84-1.75,3.08.38,1.38,1.75,2.02,3.08,1.75h0Z"/>
  <path class="cls-14" d="M361.07,213.7c3.93,2.67,7.42,5.88,10.5,9.5s5.78,7.71,8.45,11.72c.75,1.12,2.21,1.61,3.42.9,1.11-.65,1.65-2.29.9-3.42-2.9-4.37-5.83-8.73-9.23-12.73s-7.23-7.38-11.51-10.28c-1.12-.76-2.77-.21-3.42.9-.72,1.23-.22,2.66.9,3.42h0Z"/>
  <path class="cls-14" d="M237.04,293.63c-2.88,6.58-2.67,13.58-2.11,20.6.27,3.41.58,6.82.53,10.25s-.66,6.72-1.76,10c-1.27,3.78-2.56,7.39-3.01,11.38-.42,3.78-.37,7.62-.38,11.41-.03,7.88.21,15.75.72,23.61.59,9.07,1.56,18.1,2.85,27.1.19,1.34,1.89,2.07,3.08,1.75,1.44-.4,1.94-1.73,1.75-3.08-2.2-15.37-3.31-30.9-3.39-46.43-.02-3.86-.03-7.74.16-11.6.18-3.55.95-6.83,2.12-10.18s2.29-6.9,2.67-10.6c.35-3.39.18-6.8-.07-10.19-.52-7.04-1.78-14.8,1.15-21.5.54-1.24.36-2.68-.9-3.42-1.06-.62-2.88-.35-3.42.9h0Z"/>
  <path class="cls-14" d="M175.59,559.13c9.93-5.5,19.86-11.08,28.76-18.18,9.25-7.39,16.25-16.73,23.32-26.13,4.28-5.69,8.57-11.38,12.85-17.08.81-1.08.17-2.79-.9-3.42-1.28-.75-2.61-.19-3.42.9-7.19,9.55-14.13,19.36-21.73,28.6-3.63,4.42-7.58,8.54-11.97,12.21-4.16,3.48-8.64,6.55-13.23,9.42-5.3,3.31-10.76,6.34-16.22,9.37-2.82,1.56-.3,5.88,2.52,4.32h0Z"/>
  <path class="cls-14" d="M241.41,465.12c-.08,11.62-3.52,22.98-9.84,32.72-1.76,2.71,2.57,5.22,4.32,2.52,6.78-10.45,10.44-22.79,10.53-35.25.02-3.22-4.98-3.22-5,0h0Z"/>
  <path class="cls-9" d="M224.79,251.07c-3.47-1.25-6.76-2.98-9.77-5.1-1.29-.91-1.93-1.72-2.76-2.83-1.15-1.54-2.33-2.75-4.16-3.42-1.16-.42-2.52.38-2.95,1.45-.46,1.14-.07,2.48,1.02,3.12,5.65,3.32,11.07,7.04,16.16,11.17l1.1-4.18c-1.72.65-3.12.35-4.75-.5s-3.24-1.81-4.77-2.84c-2.82-1.89-5.27-4.18-6.75-7.3-.58-1.22-2.33-1.54-3.42-.9-1.25.73-1.48,2.2-.9,3.42,1.87,3.94,5.22,6.89,8.8,9.26,3.82,2.52,8.41,5.44,13.11,3.67,1.57-.59,2.71-2.88,1.1-4.18-5.42-4.4-11.15-8.41-17.17-11.95l-1.93,4.57c-.4-.14.54.35.2.1.27.2.5.47.72.72.34.39.23.27.5.63.21.29.42.57.63.86,1.2,1.58,2.62,2.73,4.25,3.84,3.22,2.19,6.74,3.9,10.4,5.22,1.27.46,2.74-.52,3.08-1.75.38-1.39-.47-2.62-1.75-3.08h0Z"/>
  <path class="cls-9" d="M226.95,252.79c2.38,5.65,6.44,12,4.08,18.3l4.91.66c.47-5.65,1.95-13.2-2.95-17.44-1.66-1.44-4.14-.46-4.27,1.77,0-.26.11-.46.31-.62-.11.03-.21.03-.32.02-.33-.16-1.12-.09-1.52-.16-1-.18-1.98-.44-2.94-.75-1.95-.63-3.79-1.53-5.59-2.5s-3.56-1.95-5.26-3.04c-1.28-.82-2.76-1.84-3.34-3.31-.5-1.25-1.67-2.13-3.08-1.75-1.19.33-2.25,1.81-1.75,3.08,1.06,2.67,2.94,4.53,5.32,6.09s4.96,3,7.53,4.25,5.47,2.41,8.42,2.86c1.64.25,3.39.44,4.91-.4,1.44-.8,2.22-2.15,2.31-3.77l-4.27,1.77c1.61,1.4,1.98,3.4,2.03,5.45.07,2.82-.31,5.65-.54,8.45-.1,1.22,1.03,2.32,2.17,2.46,1.3.15,2.29-.59,2.74-1.79,2.75-7.33-1.31-14.36-4.08-20.96-.52-1.24-1.65-2.14-3.08-1.75-1.17.32-2.27,1.82-1.75,3.08h0Z"/>
  <path class="cls-9" d="M228.88,261.2c1.15.01,2.08.79,2.03,2-.03.72-.55,1.3-.84,1.94-.2.44-.35.86-.44,1.34-.01.06-.03.94-.13,1.12.11-.22-.02.03-.11.12.15-.15-.56.28-.51.26-.57.25-1.24.39-1.84.58-1.93.59-3.75,1.47-5.53,2.42-3.4,1.82-6.77,3.45-10.49,4.52s-7.42,1.61-11.24,1.69c-3.21.07-3.22,5.07,0,5,4.84-.1,9.68-.88,14.28-2.39,2.33-.76,4.6-1.71,6.79-2.8s4.07-2.33,6.24-3.17c1.9-.74,3.99-1.02,5.6-2.37.78-.65,1.36-1.52,1.63-2.51.13-.48.04-1.03.19-1.49.14-.41.42-.78.62-1.17,2.33-4.68-1.09-10.03-6.25-10.07-3.22-.03-3.22,4.97,0,5h0Z"/>
  <path class="cls-9" d="M231.68,266.24c-5.44,3.59-11.41,6.34-17.55,8.5s-12.61,4.52-18.75,2.49c-3.06-1.01-4.37,3.81-1.33,4.82,6.9,2.28,14.39-.05,20.97-2.34s13.26-5.25,19.18-9.16c2.67-1.77.17-6.1-2.52-4.32h0Z"/>
  <path class="cls-4" d="M195.18,282.37c3.95.5,7.93.85,11.91.91,3.16.05,6.62-.41,8.82-2.92,1.75-2,0-4.52-2.43-4.18s-4.78.68-7.17,1.02c-1.15.16-2.31.33-3.46.49-.42.06-.96.04-1.35.18-.56.2,0-.23.29.45l.34,1.26-.02-.26-1.84,2.41c4.16-1.3,8.64-.26,12.84-1.49,2.11-.62,4.07-1.72,6.03-2.71,2.18-1.1,4.35-2.19,6.53-3.29l-2.52-4.32c-3.49,2.41-7.23,4.47-11.18,6.02-1.26.49-2.13,1.67-1.75,3.08.33,1.2,1.81,2.24,3.08,1.75,6.94-2.7,13.62-6,19.93-9.95l-3.67-2.82c-.33,1.14-1.02,1.84-2.07,2.37-1.63.81-1.63,3.5,0,4.32,1.86.93,3.93.86,5.71-.25,1.66-1.03,2.65-2.72,3.48-4.44l-2.16,1.24h.23c-.42-.12-.84-.23-1.26-.35l.2.12-.9-.9-.16-.57.34-1.26c.33-.24.37-.29.14-.15-.11.06-.22.13-.33.19-.32.18-.65.36-.98.53-.65.36-1.3.71-1.95,1.07-1.31.72-2.61,1.43-3.95,2.1-2.6,1.31-5.28,2.38-8.15,2.95l1.33,4.82c3.02-.72,6.28-1.18,9.18-2.31,3.09-1.2,5.34-3.89,4.61-7.35l-4.57,1.93c.9,1.59,2.55,2.59,4.38,2.7,2.15.13,3.84-.96,4.46-3.03,1.14-3.83-.66-7.88-2.06-11.38-2.98-7.41-6.75-14.45-11.32-20.99-1.83-2.62-5.81-.37-4.32,2.52,1.04,2.02,2.08,4.03,3.12,6.05l4.32-2.52c-1.7-2.28-2.96-4.75-3.74-7.49l-3.67,2.82c-.16-.31-.3-.62-.43-.94v.29c.12-.08-.11.3-.06.17-.26.61-.69,1.19-1.13,1.68-.99,1.11-2.15,1.87-3.5,2.46l3.76,2.16c.05-3.08,1.4-5.8,3.71-7.81l-4.18-1.1c-.12-.77.02-.58-.42-.21-.27.22-.56.43-.85.63-.77.55-1.57,1.06-2.39,1.53-1.52.88-3.1,1.63-4.75,2.22l3.08,1.75c.3,1.77-.46.96.07.78.31-.1.63-.4.92-.57.65-.39,1.3-.77,1.96-1.14,1.32-.73,2.67-1.41,4.03-2.05l-2.52-4.32c-2.89,2.03-6.01,3.54-9.42,4.47l2.43,4.18c2.14-2.26,4.98-3.82,8.09-4.15l-1.26-4.66c-3.72,2.2-8.12,4.34-12.45,4.95h1.33l-.29-.04,1.1.64-.2-.18.73,1.77c0,1.17-.62.5-.05.46.16-.01.48-.16.63-.2.77-.21,1.55-.36,2.32-.57,1.61-.43,3.2-.94,4.75-1.54,3.25-1.25,6.36-2.81,9.28-4.72l-3.03-.39c.57.67.71,1.68.91,2.5.32,1.33.63,2.66.94,3.99.61,2.58,1.22,5.16,1.83,7.74l4.82-1.33c-1.48-3.63-2.57-7.46-3.07-11.35l-3.16,2.41c.35.11.4.1.14-.04-.2-.14-.22-.14-.05,0,0,.02.26.36.28.38.28.44.45.96.64,1.44.56,1.44,1.11,2.89,1.53,4.37.4,1.41.68,2.83.69,4.3,0,.48.04.94-.17,1.37.16-.31.41,0-.05-.3-.54-.34-1.32-.5-1.91-.75-.64-.27-1.28-.56-1.91-.86-1.32-.62-2.63-1.29-3.9-2.01-2.62-1.47-5.12-3.13-7.51-4.95l-1.93,4.57c4.93,2.07,8.62,6.46,14.03,7.54,1.67.33,3.51.41,4.5-1.27.89-1.52.06-3.12-.83-4.39-1.63-2.33-3.52-4.58-4.15-7.42l-4.57,1.93c1.87,3.55,4.28,6.8,7.13,9.63l3.03-3.93c-2.76-2.07-6.52-1.37-9.53-2.92-3.6-1.85-7.06-4.01-10.57-6.02-2.26-1.29-4.52,1.24-3.42,3.42,4.65,9.2,14.86,12.84,24.17,15.39v-4.82l.78.15-1.93,4.57c.6.19.95.52,1.36,1.01l1.77-4.27c-.71.03-1.88-.9-2.53-1.26-1.09-.6-2.17-1.21-3.25-1.84-2.09-1.21-4.15-2.45-6.19-3.74-4.14-2.61-8.18-5.39-12.12-8.31-1.09-.8-2.79-.18-3.42.9-.75,1.29-.18,2.6.9,3.42.53.4.84,1.51,1.13,2.13.5,1.07,1.11,2.07,1.95,2.91,1.86,1.87,4.45,2.95,6.77,4.13,4.98,2.54,10.1,4.91,15.56,6.21,1.34.32,2.67-.42,3.08-1.75,1.36-4.43.52-9.06-1.08-13.3-1.71-4.51-3.95-8.83-5.99-13.19-.57-1.22-2.33-1.53-3.42-.9-1.25.73-1.47,2.19-.9,3.42,1.8,3.83,3.79,7.63,5.33,11.58,1.38,3.55,2.4,7.31,1.25,11.06l3.08-1.75c-5.21-1.24-10.03-3.48-14.77-5.91-1.84-.94-4.42-1.82-5.71-3.54-.58-.77-.89-1.74-1.32-2.59-.59-1.16-1.39-2.05-2.41-2.84l-2.52,4.32c4.18,3.1,8.49,6.04,12.91,8.8,2.18,1.36,4.38,2.67,6.61,3.94,1.08.62,2.17,1.22,3.26,1.81,1.21.66,2.41,1.34,3.83,1.27,2.27-.11,3.16-2.61,1.77-4.27-.94-1.12-2.18-1.85-3.56-2.29-2.69-.86-4.43,3.23-1.93,4.57.98.52,1.99.7,3.07.36,2.3-.74,2.45-4.15,0-4.82-8.07-2.21-17.13-5.07-21.18-13.09l-3.42,3.42c3.51,2.01,6.97,4.17,10.57,6.02,1.67.86,3.36,1.47,5.22,1.73,1.51.21,3.05.25,4.3,1.2,2.31,1.73,5-1.97,3.03-3.93-2.57-2.55-4.67-5.41-6.35-8.62-1.36-2.6-5.16-.75-4.57,1.93.43,1.94,1.32,3.74,2.39,5.4.53.81,1.1,1.59,1.66,2.38.42.59,1.14,1.4,1.22,1.87v-1.33l-.04.24.64-1.1-.15.19,1.1-.64s-1.13-.29-1.44-.38c-.5-.16-.98-.35-1.45-.57-1.3-.62-2.52-1.41-3.72-2.21-2.47-1.65-4.86-3.29-7.61-4.44-1.13-.47-2.54.42-2.95,1.45-.5,1.25,0,2.34,1.02,3.12,3.14,2.4,6.49,4.52,10.03,6.29,1.76.88,3.57,1.68,5.4,2.41,1.98.79,4.18,1.03,5.85-.56,2.8-2.68,1.68-7.8.71-11.04-.58-1.93-1.3-3.84-2.12-5.68-.73-1.65-1.93-3.15-3.78-3.54-1.4-.29-3.39.69-3.16,2.41.56,4.37,1.59,8.6,3.25,12.68.51,1.25,1.66,2.13,3.08,1.75s2.06-1.76,1.75-3.08c-.68-2.89-1.37-5.78-2.05-8.68-.64-2.73-1.04-5.56-2.92-7.76-.68-.8-2.16-.96-3.03-.39-2.86,1.86-5.89,3.44-9.11,4.59-1.64.59-3.31,1.08-5,1.48-1.54.36-3.1.79-4.22,1.99-1.43,1.55-1.59,4.37.65,5.28,1.66.67,3.83-.25,5.45-.76,3.53-1.11,6.93-2.64,10.12-4.53,1.99-1.18,1.31-4.93-1.26-4.66-4.46.47-8.53,2.34-11.63,5.61-1.69,1.79-.02,4.85,2.43,4.18,3.79-1.04,7.4-2.71,10.61-4.98,2.64-1.86.4-5.68-2.52-4.32-2.05.96-4.05,2.02-5.99,3.19-2.09,1.27-3.73,2.78-3.28,5.44.21,1.26,1.9,2.17,3.08,1.75,2.6-.94,5.12-2.13,7.43-3.65,2.48-1.63,4.96-3.38,4.47-6.68-.3-2.01-2.92-2.2-4.18-1.1-3.27,2.85-5.11,7.03-5.17,11.35-.03,2.07,2.11,2.87,3.76,2.16,2.49-1.08,4.62-2.96,6.05-5.27,1.31-2.11,1.88-5.77-.93-7.02-1.89-.84-4.32.55-3.67,2.82.88,3.13,2.3,6.08,4.24,8.68s5.83.4,4.32-2.52c-1.04-2.02-2.08-4.03-3.12-6.05l-4.32,2.52c3.19,4.57,6.02,9.38,8.43,14.4,1.14,2.39,2.19,4.81,3.12,7.29.74,1.95,2.18,4.88,1.29,6.99l.9-.9c-.29.18-.35.22-.55-.13-1.44-2.55-5.14-.78-4.57,1.93.25,1.2-2.82,1.72-3.46,1.88-2.28.55-4.56,1.09-6.84,1.63-1.31.31-2.09,1.81-1.75,3.08.38,1.38,1.75,2.01,3.08,1.75,4.38-.87,8.41-2.9,12.31-5.02.98-.53,1.95-1.07,2.93-1.6.84-.46,1.77-.88,2.43-1.59,1.81-1.97.6-5.4-2.23-5.34-.83.02-1.78.45-2.16,1.24-.21.43-1.42,3.36-2.35,2.89v4.32c2.16-1.08,3.7-3.05,4.37-5.35.6-2.06-1.82-3.98-3.67-2.82-5.94,3.72-12.2,6.91-18.74,9.45l1.33,4.82c4.37-1.72,8.51-3.86,12.38-6.53,2.64-1.82.37-5.78-2.52-4.32-2.03,1.02-4.06,2.05-6.1,3.07-1.84.93-3.68,2.03-5.69,2.54-4.07,1.03-8.35.1-12.42,1.37-.99.31-1.92,1.3-1.84,2.41.12,1.66,1.07,2.9,2.69,3.35,1.52.43,3.1.01,4.62-.21,3.46-.49,6.92-.98,10.38-1.48l-2.43-4.18c-1.59,1.81-4.41,1.49-6.6,1.41-3.54-.13-7.07-.43-10.59-.87-1.34-.17-2.5,1.27-2.5,2.5,0,1.49,1.15,2.33,2.5,2.5h0Z"/>
  <path class="cls-4" d="M226.03,258.73c1.59.3,4.12,1.02,5.03,2.55.68,1.14-.96,3.46-1.58,4.47-2.09,3.4-5.27,5.9-8.9,7.5-8.41,3.72-18,2.68-26.93,2.86-3.21.06-3.22,5.06,0,5,8.66-.17,17.59.57,25.96-2.18,3.74-1.23,7.27-3.09,10.18-5.77,2.74-2.52,5.34-6.13,6.23-9.8,1.26-5.21-4.24-8.61-8.66-9.46-1.32-.25-2.7.37-3.08,1.75-.34,1.22.41,2.82,1.75,3.08h0Z"/>
  <path class="cls-11" d="M195.2,243.79c2.08,2.58,4.93,4.39,7.62,6.27,2.95,2.06,5.9,4.12,8.85,6.17,5.28,3.68,10.89,7.36,17.38,8.34l-1.84-2.41c.36-.66.36-.78-.02-.36-.08.07-.17.13-.25.19-.38.29-.77.57-1.17.84-.67.47-1.36.92-2.05,1.36-1.51.94-3.06,1.81-4.66,2.59-3.06,1.5-6.29,2.64-9.59,3.48-6.65,1.68-13.67,2.02-20.43.84-2.38-.42-4.26,2.26-2.43,4.18,3.65,3.83,2.35,9.77,1.38,14.38-.28,1.32.39,2.7,1.75,3.08,1.24.34,2.8-.42,3.08-1.75,1.38-6.54,2.39-13.94-2.67-19.25l-2.43,4.18c8.08,1.41,16.37,1.04,24.28-1.16,3.89-1.08,7.68-2.61,11.24-4.51,1.75-.93,3.44-1.97,5.07-3.1,1.8-1.26,3.89-2.53,3.91-4.98,0-.99-.78-2.25-1.84-2.41-6.1-.92-11.22-4.38-16.19-7.83-2.76-1.92-5.51-3.84-8.26-5.76-2.55-1.78-5.23-3.45-7.2-5.9-.85-1.05-2.65-.88-3.54,0-1.04,1.04-.85,2.48,0,3.54h0Z"/>
  <path class="cls-11" d="M180.08,302.22c-7.96-5.38-15.74-10.95-24.57-14.84-1.21-.53-2.47-.9-3.71-.18s-1.65,2.27-1.63,3.62c.04,2.24,1.16,4.54,2.01,6.57,1.79,4.28,4.01,8.33,6.71,12.1.79,1.1,2.18,1.62,3.42.9,1.08-.63,1.69-2.32.9-3.42-1.88-2.63-3.56-5.39-5-8.29-.69-1.39-1.31-2.8-1.87-4.24-.43-1.12-1.47-2.96-1.08-4.15l-.64,1.1.21-.25-1.1.64.31-.09h-1.33c1.02.16,2.05.82,2.98,1.26,1.1.52,2.2,1.06,3.28,1.63,2.14,1.13,4.22,2.39,6.25,3.69,4.16,2.67,8.23,5.51,12.33,8.28,2.67,1.81,5.18-2.52,2.52-4.32h0Z"/>
  <path class="cls-8" d="M156.19,281.64l-6.93-.07c-2.05-.02-4.15-.17-6.2.04-1.93.2-3.72.97-5.65,1.1-2.13.15-4.27.18-6.41.26-3.21.12-3.22,5.13,0,5,2.13-.08,4.28-.11,6.41-.26.98-.07,1.96-.17,2.92-.39s1.8-.57,2.73-.71c2.01-.3,4.17-.07,6.2-.04l6.93.07c3.22.03,3.22-4.97,0-5h0Z"/>
  <path class="cls-8" d="M160.01,247.05c4.29-1.18,8.12-3.2,11.67-5.85,1.5-1.12,2.99-1.9,4.84-2.29s3.93-.38,5.89-.43c4.09-.11,7.95-.6,11.68-2.39s6.65-4.51,8.89-7.82c1.8-2.67-2.53-5.18-4.32-2.52-1.89,2.81-4.66,5.05-7.79,6.35-3.39,1.4-6.95,1.32-10.55,1.45-4.07.15-7.84.85-11.17,3.34s-6.59,4.27-10.48,5.34c-3.1.85-1.78,5.68,1.33,4.82h0Z"/>
  <path class="cls-8" d="M167.92,234.99c-1.62,1.61-2.66,3.42-2.2,5.77.07.35.76,2.33.75,2.34-.03-.11-.02-.22.06-.33.03-.36.24-.57.66-.65.85-.55.58-.41.01-.32-.68.11-1.26.4-1.75.9-1.45,1.49-.78,4.01-.84,5.87-.07,2.01-.32,4-.59,5.99-.18,1.34.32,2.68,1.75,3.08,1.17.32,2.89-.4,3.08-1.75.27-1.95.54-3.91.69-5.87.07-.9.1-1.8.09-2.7,0-.48-.03-.96-.05-1.44-.02-.19-.03-.38-.04-.58.05-.73-.19-.35-.74,1.12l-1.26.34c1.24-.08,2.23-.3,3.05-1.3s1.01-2.25.75-3.5c-.15-.73-.62-1.58-.74-2.18,0-.01.02-.46,0-.25-.02.18.06-.12.11-.18.09-.11.53-.6.77-.83,2.29-2.27-1.25-5.8-3.54-3.54h0Z"/>
  <path class="cls-6" d="M73.33,332.88c-1.17,1.3-1.99,2.82-2.25,4.56-.15.97-.04,1.95-.19,2.92-.08.55-.34,1.28-.57,1.85-1.32,3.3-2.93,6.51-4.39,9.75-.56,1.23-.35,2.69.9,3.42,1.07.63,2.86.34,3.42-.9,1.44-3.2,2.93-6.38,4.33-9.6.74-1.7,1.29-3.31,1.35-5.17.05-1.34.08-2.35.94-3.3.91-1,.99-2.55,0-3.54-.92-.92-2.63-1.01-3.54,0h0Z"/>
  <path class="cls-6" d="M73.35,488.42c-5.15-5.81-6.28-13.92-8.13-21.17-.49-1.93-1.04-3.85-1.72-5.73s-1.55-3.68-2.25-5.54-1.13-3.69-1.11-5.7.29-4.06.27-6.1c-.04-4.64-1.25-9.17-3.39-13.28-1.49-2.86-5.8-.33-4.32,2.52,1.76,3.39,2.71,7.16,2.71,10.98,0,2.12-.3,4.23-.27,6.36s.42,4.17,1.13,6.15c.67,1.87,1.55,3.66,2.24,5.52s1.3,3.93,1.82,5.94c1.01,3.93,1.8,7.92,3.05,11.78,1.41,4.32,3.39,8.4,6.42,11.82,2.14,2.41,5.66-1.13,3.54-3.54h0Z"/>
  <path class="cls-6" d="M52.22,389.2c-.25,4.67.54,9.28.97,13.91s.38,9.37.33,14.06c-.11,9.51.37,18.91,1.84,28.32.21,1.34,1.88,2.07,3.08,1.75,1.42-.39,1.96-1.74,1.75-3.08-1.43-9.12-1.76-18.27-1.66-27.48.05-4.6.08-9.21-.35-13.8s-1.19-9.08-.94-13.67c.17-3.22-4.83-3.21-5,0h0Z"/>
</svg>