<?xml version="1.0" encoding="UTF-8"?>
<svg id="Calque_1" data-name="Calque 1" xmlns="http://www.w3.org/2000/svg" viewBox="0 0 511.71 572.45">
  <defs>
    <style>
      .cls-1 {
        fill: #5c7763;
      }

      .cls-2 {
        fill: #3c3e2d;
      }

      .cls-3 {
        fill: #48432d;
      }

      .cls-4 {
        fill: #453f2e;
      }

      .cls-5 {
        fill: #73b184;
      }

      .cls-6 {
        fill: #948949;
      }

      .cls-7 {
        fill: #484431;
      }

      .cls-8 {
        fill: #79ef9b;
      }

      .cls-9 {
        fill: #e5ca33;
      }

      .cls-10 {
        fill: #e5a433;
      }

      .cls-11 {
        fill: #77ea98;
      }

      .cls-12 {
        fill: #3d4841;
      }

      .cls-13 {
        fill: #79ee9a;
      }

      .cls-14 {
        fill: #72af83;
      }

      .cls-15 {
        fill: #4b4333;
      }
    </style>
  </defs>
  <g>
    <path class="cls-1" d="M355.2,238.97c12.55-10.99,28.93-38.81,30.51-55.49.65-6.8.77-28.36-7.69-30.27-20.78,1.21-41.27-2.93-61.75-4.25-2.93-.19-17.91.72-18.54.04-.4-.43.83-4.36-1-5-.58,5.47.09,9.32-1,15,3.99,0,8.01,0,12,0,1.33,0,2.67-.02,4,0,13.66.24,26.89,2.19,40.46,3.04,4.01.25,19.33-1.08,21.05.95,2.08,2.44,1.81,15.75,1.38,19.4-1.23,10.47-11.15,27.91-17.92,36.08-6.81,8.21-21.18,16.49-20.97,27.53.21,11.28,6.08,21.5,14,28.99-3.62-.09-8.87-.2-12.26-1.23-3.9-1.2-5.87-5.75-10.74-4.76-.62,1.58-1.83,5.72-2,6l4.01,6.5,13.99,15.49c-1.32,1.38-12.04.36-14.45-.03-2.47-.4-5.84-4.15-9.07-.97-3.65,3.58.09,7.54.47,10.57.68,5.38.1,10.9,2.05,16.44-9.69,2.04-9.78-8.78-18-8.99-22.98,30.96-36.76,49.64-73.64,65.86-6.53,2.87-25.58,10.75-31.61,9.91-8.25-1.15-20.19-4.83-27.99-8.03-13.35-5.47-64.41-29.79-69.76-41.74l-19-2.01c2.36-6.61,5.25-11.47,4-18.99-.36-.36-3.86-4.71-4-5-3.53-.38-21.71.91-22.95-1.07-1.97-3.14,3.96-4.01,5.89-5.49,5.61-4.3,7.46-15.66,9.06-22.44.14-.59-.14-1.41,0-2-7.05-5.48-8.73,3.82-11.66,4.83-6.04,2.08-18.01-1.85-21.34-7.83h15.5c6.83,0,13.96-13.08,20.5-14,.16-1.18,1.91-2.65,1.92-4.49.04-6.46-10.69-5.51-14.87-7.06-19.48-7.21-31.68-36.72-40.66-54.34-1.61-3.16-9.66-16.16-9.98-18.06-.76-4.6.02-11.25-.42-16.05,10.09,1.78,20.35.35,30.49,1.02,4.54.3,9.82,1.47,14.51,1.99,2.67-1.63,8.16-1.24,11.57-1.05,2.21.12,3.26,1.05,3.43,1.05,8.08.31,15.24-.74,23-1,1.32-.04,2.68-.03,4,0,2.09-4.43-.66-7.55-1-10l-30.39,1.9c-17.65-.21-35.56-1.99-53.12-2.89-9.67-.5-10.54.55-11.32,8.21.07,1.59.08,3.19-.03,4.79-.04.65-.2,1.28-.44,1.86-.09.69-.24,1.46-.5,2.41.03.34.05.67.09,1.01.06.63,0,1.19-.14,1.69,2.52-.25,1.64.14,1.84,2.02.1.89.08,2.09,0,3l1,2c.32.4,1.66,8.43,2,10,2.13-.24,2.24-.12,2,2,.23.25-.15,2.19,0,3,2.13-.24,2.24-.12,2,2,.23.26-.15,2.19,0,3,2.05-.29,2.29-.05,2,2,1,.79,10.22,20.47,11,23,1.9-.35,2.32.11,2,2,4.42,4.36,8.23,15.53,13.97,21.53,3.63,3.8,18.76,11.86,19.03,12.98,1.71,7.17-28.66,1.85-31.53,7.48-4.27,8.36,13.78,20.99,20.55,23.49,2.46.91,7.7,1.24,7.99,1.52,4.13,4.1-13.99,6.42-15.03,7.47-4.37,4.39,5.7,11.66,9.09,13.96,5.68,3.87,13.9,8.07,20.93,7.57,1.23,5.32-10.59,8.13-8.55,12.97,1.82,4.31,14.23,6.12,18.55,7.03,1.18,1.33-6.53,6.85-7.97,8.52-12.99,15.04-24.35,62.88-13.48,79.43,7.44,11.31,16.91.96,25.45-1.95,3.07,24.41.48,49.91,5.47,74.03,3.32,16.05,11.88,31.26,19.27,45.73,5.56,10.9,9.22,26.95,25.6,16.07,12.52-8.32,22.37-26.23,36.13-34.87,23.6-14.8,74.56-15.49,96.54,2.52,11.95,9.79,29.97,42.82,47.5,23.52,6.61-7.28,17.89-31.38,19.49-41.01.37-2.21-.54-5.35-.01-7.35.28-1.05,1.96-.56,2.01-.65.64-1.08,2.87-22.06,3-25,0-.22-1.21-1.8-.97-4.36.21-2.22,1.83-3.85,1.97-4.64,3.52-19.59-3.29-35.37-7-53.99,1.81-1.59,21.14,10.9,23-5.51.65-5.74-.34-22.05-2-27.5-.8-2.62-2.09-6.19-3-9-1.11-3.42-8.18-18.94-8-20-3.11-.18-4.78-3.15-4-6-2.5-.86-4.81-2.57-7-4-3.65-2.38-9.55-5.18-8-11-2.17-.07-15.92-7.09-13.99-9l5.44,1.05,17.56-1.06c1.61-1.54,3.48-3.52,5-5l-8.24-8.26c-.82-1.54-1.3-7.88-.65-8.64.47-.55,11.49-2.31,14.17-3.33,3.11-1.18,12.65-6.49,13.54-9.49,2.61-8.74-12.04-4.29-12.81-12.28,4.78.66,21.57-3.4,22.05-8.55.44-4.79-7.61-5.73-10.99-8.02-5.35-3.63-12.59-15.29-11.12-21.73.13-.57,7.97-5.37,9.52-6.73ZM338.53,372.69c7.14,12.74,8.48,27.97,8.19,42.31-7.01,1.66-15.85-8.53-22-5.51-5.12,2.52-.93,9.36-.26,13.26,1.96,11.33,6.58,22.96,7.3,33.7,1.03,15.33-2.73,39.33-6.04,54.54-2.58,11.85-7.9,26.95-13.82,37.68-6.13,11.1-8.23,6.84-16.19-.16-2.55-2.24-12.59-12.03-12.99-14.51-3.5,1.08-2.82-1.87-3-2-.2-.15-2.15-.03-3.53-.94-1.93-1.27-2.25-3.88-2.47-4.06-24.66-20.6-94.28-19.02-118.01,5.49l-12.99,13.51c-.75,8.1-1.96,5.52-7,8-.42.2-1.92.92-2,1-.23.24-.19,1.93-1.45,3-1.28,1.09-6.07,4.95-7.5,3.96-.61-.42-4.84-11.69-5.87-13.64-4.47-8.45-9.41-16.54-13.18-25.32-.12-.28.12-.71,0-1-1.83.8-3.3-2.55-3.59-4.06-.46-2.39.61-2.79.59-2.94-2.95-25.71-3.65-49.98-5.99-75.51-.54-5.94,1.41-15.45-3.28-20.22-7.39-7.51-16.37,7.42-22.34,9.63-1.86.69-3.16-5.27-3.31-6.49-1.12-9.43-.16-26.29,2.36-35.47.61-2.23,8.61-21.05,9.51-22.24.59-.77,2.16-1.58,3.04-1.71.08-4.24,9.52-12.83,13.29-11.87,1.17.3,5.03,4.75,6.98,6.1,22.99,15.94,44.33,28.76,71.29,36.71,15.15,4.46,29.33,8.73,44.45,1.58,11.28-5.34,24.3-10.5,35.31-16.69,18.48-10.38,32.65-26.1,45.31-42.77,1.44-.43,8.85,4.64,10.66,5.92.89.63.62,1.95.7,2.02,9.99,7.94,21.21,16.92,27.81,28.69Z"/>
    <path class="cls-15" d="M261.73,114c1.16-10.06.29-22.14,1.01-32.49,1.52-21.81,6.99-41.01.27-62.29-2.15-6.8-13.49-24.4,2.11-17.11,21.21,9.91,35.36,41.45,35.61,63.89,1.03,1.08,11.65-4.02,13.33-5.16,2.53-1.72,7.69-8.27,9.37-8.7,2.19-.56,4.88,1.19,5.29,3.36,3.54,18.91-21.43,36.43-25.72,55.28-.91,3.99-.64,8.99-1.48,12.52-.65,2.71-3.32,3.79-3.77,6.23-.67,3.59-.56,10.12-1.02,14.48-.58,5.47.09,9.32-1,15-.71,3.68-1.29,4.92-3,8-5.02-.16-6.42,3.02-8,7-.27.69-.71,1.32-1,2-3.3-.39-6.89.47-10.28-.23-5.26-1.07-13.97-7.94-15.95-13.06-.95-2.45-.37-4.04-.78-5.71,1.41-3.16,2.81-13.97-2-14-.09-6.03-.59-10.37,2-16s4.16-5.69,5-13ZM274.71,20c-1-.97-2.08-.21-1.99,1.48.4,7.44,3.2,13.42,3.04,22.06-.28,14.78-1.94,32.9-3.05,47.95-.55,7.42-3.79,9.54-.19,18.21,2.02,4.87,10.31,10.75,15.47,10.11,6.58-.82,4.53-6.68,6.03-12.01,1.33-4.71,3.84-9.48,6.28-13.72,1.41-2.45,16.42-22.12,15.41-23.08-3.47.27-5.99,3.23-9.16,4.33-2.14.74-5.59.27-6.87,1.13-.81.55-3.5,9.95-8.06,4.12-2.14-2.73-.26-23.56-1.36-29.64-1.99-11.02-7.2-17.19-13.38-25.61-1.02-1.39-1.97-5.13-2.18-5.34ZM290.7,130.04c-8.86-.46-15.18-5.37-22.97-8.04-.73,10.91-7.59,33,1.48,41.02,6.26,5.53,13.05,6.54,17.07-1.96l4.42-31.01Z"/>
    <path class="cls-15" d="M97.73,137c-.9-8.23-3.37-17.77-5.25-26.25-3.68-16.54-20.77-29.31-24.47-43.53-1.15-4.42-3.3-16.91,4.78-14.84,1.58.4,5.91,6.61,8.6,8.46,1.68,1.15,12.3,6.24,13.33,5.16-.8-10.64,2.77-21.02,6.82-30.68C108.24,19.37,119.46,3.05,137.72,0c1.67,1.82-5.28,16.01-6.28,19.21-6.57,21.1-1.24,40.64.27,62.29.73,10.36-.13,22.48,1.01,32.49.97,8.5,2.57,6.57,5,11,3.62,6.6,2.73,30.61-.82,37.68-4.14,8.26-21.99,20.41-28.18,10.32-2.31-3.76.78-4.39-6-5-.98-.09-2.01.03-3,0,2.09-4.43-.66-7.55-1-10-.18-1.26.11-2.7,0-4l.99-1.49-.99-.51c-.35-4.32-.66-8.68-1-13l.99-1.49-.99-.51ZM119.73,22c-9.61,15.67-16.38,22.11-16.04,42.54.06,3.61,3.4,19.58-4.27,17.31-2.84-.84-3.22-5.3-3.85-5.69-.78-.48-4.59-.16-6.68-.83-.99-.32-10.72-6.84-9.15-2.85,7.32,10.84,18.86,23.24,21.75,36.25,1.1,4.95-1.33,12.66,8,10.62,12.21-2.68,14.83-11.16,14.23-22.35-.1-1.78-.99-1.89-1-2-.24-4.06-.73-7.99-1-12-.03-.41.13-2.14,0-4-.29-4.02-.75-8-1-12,0-.13.06-.87,0-2-.21-3.73-.85-7.3-1-11-.02-.41.02-2.17,0-3-.07-2.65-.03-5.35,0-8,.02-1.33-.04-2.67,0-4,.18-6.47.33-9.7,2-16,1.47-5.55.86-5.67-2-1ZM126.72,122c-3.58-.21-5.8,3.08-8.99,4.49-2.96,1.31-12.45,2.64-12.92,4.14,2.73,8.31,1.14,27.65,5.9,33.88,5.67,7.42,17.36-1.73,18.81-8.23.84-3.77-1.13-33.16-2.8-34.29Z"/>
    <path class="cls-12" d="M436.73,368c-.13-1.35-2.03-4.46-1.01-7-2.51,2.35-3.91,1.65-6.99,1,.74-9.15,2.53-24.94,6-33,.51-1.18,13.52-14.07,15.31-15.19,11.91-7.5,33.12-4.18,36.25,11.14.65,3.16.09,5.78.44,8.58.13,1.02-.25,2.15,1.49,1.47,7.83-3.06,14.76-13.83,13.45-22.43-1.52-9.96-22.13-20.47-30.98-23.02-20.96-6.04-59.12,1.83-78.95,10.45-18.38,7.99-43.53,27.68-55.97,43.53-1.95,2.48-3.73,4.16-2.03,7.47-3.65-2.38-9.55-5.18-8-11,.45-1.69,7.14-7.23,9-9,1.61-1.54,3.48-3.52,5-5,33.67-32.82,75.56-50.2,123.54-46.04,16.06,1.39,48.46,17.85,48.45,36.54,0,15.36-21.6,32.45-36.52,30.56-10.67-1.36-.14-11.66.49-15.61,2.33-14.61-14.93-13.46-23.3-7.29-7.44,5.49-13.42,23.53-14.53,32.47-.46,3.73.92,8.19-1.12,11.38Z"/>
    <path class="cls-1" d="M208.73,86c4.54,5.31,7.46,10.07,7.35,10.16-.11.09-3.22-4.19-3.69-3.9-.35.22.82,2.81,2.86,6.74,2.57.38,1.17-1.49.84-2.85-.58-2.39-3.16-9.27-5.35-10.16-1.21-10.01,14.2-2.69,18.67-.17,10.34,5.84,16.78,18.32,22.61,21.89,1.03.64,2.84.16,4.29,1.19,2.32,1.64,1.2,6.24,5.43,5.09-.84,7.31-2.46,7.48-5,13-3.73-1.06-5.86,5.85-9.04,3.54-.8-.58-1.73-9-2.51-11.49-1.53-4.91-5.88-11.86-9.4-15.6-.84-.89-8.04-7.22-8.56-7.44-1.68-.73-1.32.6-1.6,1.36-2.18,6-2.04,14.67-9.83,17.18-9.89,3.2-7.28-4.98-8.5-10.61-1.48-6.84-6-13.3-11.51-17.49-1.8-1.37-3.27-3.03-4.02.04-2.49,10.21-7.62,21.32-17.66,26.36-12.01,6.03-9.08-7.77-11.25-13.49-.28-.73.09-2.09-1.6-1.36-.85.36-8.78,8.54-10.03,9.98-4.69,5.4-7.99,12.54-13.49,17.01-2.43-4.43-4.03-2.5-5-11,3.34.75,2.46-.65,3.51-1.96,6.19-7.67,11.68-14.29,19.47-20.55,13.31-10.7,17.08-11.4,16.02,8.51,7.29-.71,9.2-11.32,9.98-17.51.7-5.58-2.43-15.66,7.36-11.32,8.5,3.76,15.08,9.48,19.65,14.84Z"/>
    <path class="cls-12" d="M436.73,437c-3.25,15.4-8.84,26.18-17.59,38.91-14.58,21.23-21.58,24.63-45.45,33.55-11.7,4.37-25.54,9.72-37.96,9.54.37-2.21-.54-5.35-.01-7.35.28-1.05,1.96-.56,2.01-.65-.54,2.89,1.14,2.11,3.25,1.75,5.16-.86,10.7-2.57,13.75-5.75,3.82-3.98,6.03-2.58,10-4,3.49,1.63,9.04-.84,12.51-1.99,2.23-.74,11.66-4.07,12.88-4.93,1.01-.71.49-1.98.6-2.08,16.6-14.18,21.31-21.83,31.17-41.33,1.87-3.7,1.61-6.74,4.83-9.67.06-.06.87.12,1.68-.36.41-.24.12-1.7.83-1.68,1.83.05,2.44,2.47,4.48,2.03.75-.69-.48-6.82,3.01-6Z"/>
    <path class="cls-2" d="M436.73,368c.09.98,0,2.01,0,3-2.91-.97-2.74,3.31-1,5-.58,5.99-1.11,10.86-1,17-1.59.33-1.17,2.3,0,3,.18,3.81.88,7.72,1,12l1,2c.01,1,0,2,0,3,0,.09-.92-.09-.97,1.48-.06,1.83-.37,11.06-.03,11.52.12.16,1.44-.1,2,0-.04,2.27.22,4.81,0,7-2.26-.37-2.84.45-1,2-.11.62.13,1.4,0,2-3.48-.82-2.26,5.31-3.01,6-2.05.44-2.65-1.98-4.48-2.03-.71-.02-.43,1.44-.83,1.68-.81.47-1.61.3-1.68.36,0-1.33,0-2.67,0-4,2.98.88,3.18-3.78,0-3,1.41-9.45,2.64-15.92,2-26,2.76-1.87.15-5.75,0-7-.39-3.32-.55-6.65-1-10,1.61-1.69,1.21-6.09,1.05-8.57-.14-2.16-1.05-3.25-1.05-3.43-.1-5.87.52-13.06,1-19,3.08.65,4.48,1.35,6.99-1-1.02,2.54.88,5.65,1.01,7Z"/>
    <path class="cls-12" d="M437.73,426c-.56-.09-1.88.17-2,0-.35-.46-.03-9.7.03-11.52.05-1.58.97-1.4.97-1.48,1.77,3.53,1.08,8.87,1,13Z"/>
    <path class="cls-12" d="M436.73,371c.02,2.68-.89,3.85-1,5-1.74-1.69-1.91-5.97,1-5Z"/>
    <path class="cls-12" d="M434.73,396c-1.17-.7-1.59-2.67,0-3,.01.71-.01,2.72,0,3Z"/>
    <path class="cls-12" d="M437.73,433c-.18,1.75-.98,1.89-1,2-1.84-1.55-1.26-2.37,1-2Z"/>
    <path class="cls-1" d="M98.73,154c-.1-1.15.01-1.84,0-2l.99.51-.99,1.49Z"/>
    <path class="cls-1" d="M97.73,139c-.08-1.05.01-1.88,0-2l.99.51-.99,1.49Z"/>
    <path class="cls-12" d="M436.73,410l-1-2c0,.11.98.23,1,2Z"/>
    <path class="cls-8" d="M311.73,159c13.66.24,26.89,2.19,40.46,3.04,4.01.25,19.33-1.08,21.05.95,2.08,2.44,1.81,15.75,1.38,19.4-1.23,10.47-11.15,27.91-17.92,36.08s-21.18,16.49-20.97,27.53c-2.52-.52-3.14,3.1-3.74,4.75-2.16,5.92-2.98,12.43-5.26,18.25-.62,1.58-1.83,5.72-2,6-.11.18-1.76-.27-3.09,2.39-2.83,5.7-2.61,16.28-5.47,21.54-1.17,2.16-6.14,4.86-8.41,7.59-2.1,2.53-2.92,5.98-4.03,7.47-22.98,30.96-36.76,49.64-73.64,65.86-6.53,2.87-25.58,10.75-31.61,9.91-8.25-1.15-20.19-4.83-27.99-8.03-13.35-5.47-64.41-29.79-69.76-41.74-1.63-3.65-1.13-6.85-4.16-11.34-3.17-4.69-7.91-6.72-10.84-9.66-.36-.36-3.86-4.71-4-5-3.55-7.23-2.43-21.57-8-29,.14-.59-.14-1.41,0-2,1.51-6.49,2.11-10.52,3-17,.16-1.18,1.91-2.65,1.92-4.49.04-6.46-10.69-5.51-14.87-7.06-19.48-7.21-31.68-36.72-40.66-54.34-1.61-3.16-9.66-16.16-9.98-18.06-.76-4.6.02-11.25-.42-16.05,10.09,1.78,20.35.35,30.49,1.02,4.54.3,9.82,1.47,14.51,1.99.21.02,1.11.92,2.42,1.04,3.62.33,9.38.49,12.58-1.04,8.08.31,15.24-.74,23-1,7.89,22.75,39.96,12.48,49.43-4.07,4.25-7.44,2.06-12.18,9.1-18.9,24.61-23.5,70.03-26.32,87.64,6.3,12.59,23.32,10.31,36.5,44.33,32.67,10.29-1.16,24.44-14.48,25.5-25ZM185.98,175.26l-20.47,39.01c-1.39,2.86-1.04,5.35.35,8.09,2.59,5.1,17.16,26.25,21.49,28.5,2.4,1.25,4.83,1.77,7.36.61s20.35-25.25,23.43-29.57c2.78-3.89,7.84-8.52,5.45-13.26-2.98-5.88-11.81-12.92-16.39-17.63-3.12-3.21-14.29-16.37-17.2-16.85-1.25-.21-3.12.21-4.02,1.09ZM250.48,273.26c-19.32,2.74-30.55,23.83-19.6,41.07,10.67,16.79,31.31,1.15,39.81-9.86,13.82-17.89.64-34.17-20.22-31.21ZM133.45,284.22c-6.32,1.29-10.62,8.47-11.46,14.53-2.78,19.97,21.8,33.34,39.26,31.27,11.97-1.43,12.53-18.69,9.52-27.56-5.3-15.62-21.88-21.37-37.31-18.23Z"/>
    <path class="cls-13" d="M310.73,344c9.99,7.94,21.21,16.92,27.81,28.69,7.14,12.74,8.48,27.97,8.19,42.31-7.01,1.66-15.85-8.53-22-5.51-5.12,2.52-.93,9.36-.26,13.26,1.96,11.33,6.58,22.96,7.3,33.7,1.03,15.33-2.73,39.33-6.04,54.54-13.25-4.72-25.91-6.5-40-4-.06-6.97-1.28-12.35-2-19-.61-5.69-1.22-11.33-2-17-.4-2.86-.24-6.56-2-9,.03-.65.04-1.35,0-2-.14-2.44-1.64-3.68-2-5-.63-2.34-1.33-4.67-2-7-1.09-3.82-1.17-1.19-2-2-.08-.08-.55-1.34-1-2-.33-.49.86-2.66-2-2-6.13-13.52-25.35-22.57-39-26.5-55.62-16.01-85.73,15.48-94,67.5-1.45,9.12-2.22,16.71-3,26-6.37-.36-14.47,3.18-19.5,7-3.04,2.31-5.13,7.21-9.5,7-.12-.28.12-.71,0-1-.94-2.3-1.18-5.07-3-7-2.95-25.71-3.65-49.98-5.99-75.51-.54-5.94,1.41-15.45-3.28-20.22-7.39-7.51-16.37,7.42-22.34,9.63-1.86.69-3.16-5.27-3.31-6.49-1.12-9.43-.16-26.29,2.36-35.47.61-2.23,8.61-21.05,9.51-22.24.59-.77,2.16-1.58,3.04-1.71,8.39-1.19,11.92,5.29,17.66,8.84,11.18,6.91,29.1,9.67,41.87,14.13,20.51,7.16,53.33,24.56,74.42,18.49,22.55-6.49,70.57-29.68,85.05-47.95,3-3.79,4.69-9.73,9-12.5Z"/>
    <path class="cls-14" d="M434.73,329c-3.47,8.06-5.26,23.85-6,33-.48,5.94-1.1,13.13-1,19-2.58,3.68-.46,8.57,0,12s.61,6.68,1,10c-2.69,2.39-.09,5.63,0,7,.64,10.08-.59,16.55-2,26-.13.89,0,2.03,0,3,0,1.33,0,2.67,0,4-3.21,2.93-2.95,5.97-4.83,9.67-9.87,19.5-14.58,27.15-31.17,41.33-9.09,1.43-17.42,5.93-26,9-3.97,1.42-6.18.02-10,4l-17,4c.64-1.08,2.87-22.06,3-25,15.05-3.25,31.3-16.84,40.41-29.09,19-25.54,18.7-43.95,26.06-72.94,2.09-8.24,7.01-15.73,6.52-24.98.95-.27.96-1.15,1-2,.05-.98.06-2.02,0-3,1.79-1.16,1.63-2.73,1.99-4.5,1.91-9.34,2.27-13.91,7.01-22.5,3.47,1.84,7.09,2.32,11,2Z"/>
    <path class="cls-5" d="M137.73,125c5.5-4.47,8.8-11.61,13.49-17.01,1.25-1.44,9.18-9.62,10.03-9.98,1.69-.73,1.32.62,1.6,1.36,2.17,5.72-.76,19.52,11.25,13.49,10.04-5.04,15.17-16.15,17.66-26.36.75-3.07,2.22-1.41,4.02-.04,5.51,4.19,10.03,10.65,11.51,17.49,1.22,5.63-1.39,13.81,8.5,10.61,7.79-2.52,7.65-11.18,9.83-17.18.27-.75-.08-2.08,1.6-1.36.52.22,7.73,6.56,8.56,7.44,3.52,3.74,7.88,10.68,9.4,15.6.78,2.49,1.71,10.91,2.51,11.49,3.19,2.31,5.31-4.61,9.04-3.54-2.59,5.63-2.09,9.97-2,16s.59,8.2,2,14c.41,1.68-.17,3.26.78,5.71,1.98,5.12,10.69,11.99,15.95,13.06,3.39.69,6.97-.16,10.28.23.36.04,2.12,1.59,3.73,1.82,8.04,1.15,22.33-9.25,20.27-18.82,1.33,0,2.67-.02,4,0-1.06,10.52-15.21,23.85-25.5,25-34.03,3.83-31.74-9.35-44.33-32.67-17.61-32.62-63.03-29.8-87.64-6.3-7.03,6.72-4.85,11.46-9.1,18.9-9.47,16.55-41.54,26.82-49.43,4.07,1.32-.04,2.68-.03,4,0,.99.03,2.02-.09,3,0,.93,2.97,2.83,4.7,6,5,6.2,10.1,24.04-2.06,28.18-10.32,3.55-7.08,4.44-31.09.82-37.68Z"/>
    <path class="cls-9" d="M204.73,487c11.04-.82,22.34-.2,34-1,.64-.04,2.79,1.15,5.33.92,10.02-.93,19.63-5.08,29.67-5.92,3.66,14.71,5.09,31.49,0,46.01-24.66-20.6-94.28-19.02-118.01,5.49l-12.99,13.51c1.45-15.66.55-33.6,2.02-49.48.53-5.8,2.63-11.67,2.99-17.51,8.67,3.17,18.44,7.7,27.62,8.87,11.46,1.46,18.76-.09,29.38-.88Z"/>
    <path class="cls-3" d="M270.73,442c.45.98-1.14,2.53,2,2,.45.66.92,1.92,1,2-.3,2.03-.03,2.29,2,2,.67,2.33,1.37,4.66,2,7-1.55,1.15-.29,6.04,2,5,.04.65.03,1.35,0,2-.11,2.26-3.68,8.58,2,9,.78,5.67,1.39,11.31,2,17l-.81.73c.28,1.57-.19,3.42-.19,4.77v17c0,.26.68.91.66,1.78-.18,6.72-1.08,13.51-3.66,19.72-.2-.15-2.15-.03-3.53-.94-1.93-1.27-2.25-3.88-2.47-4.06,5.09-14.52,3.66-31.29,0-46.01-10.04.85-19.65,4.99-29.67,5.92-2.54.24-4.69-.96-5.33-.92-4.21-1.42-3.15-2.06-2-6,.67,0,1.33,0,2,0,10.5-.16,16.91-.07,27-5,1.48-.73,6.71-2.91,6.88-3.57-1.37-8.78-3.08-17.73-8.08-25.22-7.61.59-15.17,1.23-22.8,1.78l-.67-.81c-4.42-.63-10.73,1.24-9.33-5.19,6.63-.23,15.24-3.47,22.32-3.18,1.17-.24,2.27-1.96,1.67-2.8-.41-.58-10.78-6.43-12.32-7.2-23.09-11.45-57.39-16.78-75.19,6.17-.77,1-1.93,1.28-1.49,3,5.53.53,11.68,2.36,17,3.01,3.09,6.12-3.14,3.23-3,7-6.75-.85-13.39-1.86-19.88-3.92-4.77,8.88-8.94,18.38-11.2,28.27,1.94,2.84,12.25,3.04,13.08,4.65.22.42-.51,1.79.51,2.04,2.16.54,4.2.27,3.49-2.04,1.34.18,2.66.83,4,1-.59,2.99,1.45,1.79,3.3,2.14,5.54,1.05,11.64,2.26,17.21,2.84,4.28.45,14.15-2.42,13.49,4.01-10.62.79-17.92,2.34-29.38.88-9.18-1.17-18.95-5.7-27.62-8.87-.36,5.84-2.46,11.71-2.99,17.51-1.46,15.89-.57,33.82-2.02,49.48-.75,8.1-1.96,5.52-7,8,.27-2.59.11-5.11-3-5-.11-3.96-.1-8.04,0-12,4.71-.34,2.68-9.15,3.02-12.49.77-7.72,1.35-15.22,1.99-23.01.42-5.12,3.93-14.88,0-18.5,8.27-52.02,38.38-83.51,94-67.5,13.65,3.93,32.87,12.98,39,26.5Z"/>
    <path class="cls-4" d="M398.73,316l11.06,8.46c.45,2.41,3.82,3.28,3.94,3.54.23.51-.31,2.33.06,3.39,2.97,8.47.42,13.73.94,22.61.06.98.05,2.02,0,3-3.96-.41-1.02,1.59-1,2,.49,9.24-4.43,16.73-6.52,24.98-7.36,28.99-7.06,47.4-26.06,72.94-9.11,12.24-25.37,25.84-40.41,29.09,0-.22-1.21-1.8-.97-4.36.21-2.22,1.83-3.85,1.97-4.64,11.92-4.12,38.76-26.14,39.99-38.59.68-6.86-9.23-29.24-13.16-35.73-2.92-4.82-6.89-11.47-12.82-12.68-.8-2.62-2.09-6.19-3-9,20.44.07,27.13,24.45,34.91,39.58.53,1.04-.53,1.89,2.08,1.42,2.38-8.83,5.17-17.73,6.74-26.77.7-4.01,2.63-14.03,1.82-17.24-2.1-8.33-20.79-20.61-28.53-24.51-3.9-1.96-10.54-5.9-14.58-3.53-1.02.6-10.31,10.3-10.44,11.05-3.11-.18-4.78-3.15-4-6,.22-.8,7.14-9.36,8.35-10.65,3.63-3.85,13.34-12.53,17.65-15.35.31-.2,1.88.07,2.91-.55,4.61-2.77,6.87-7.15,12.09-3.45-.41.27-4.49,6.07-7.01,6.49l-9.98,10c8.17,4.37,16.81,8.18,24.32,13.68,2.86,2.1,11.43,11.08,13.19,11.82s1.6-.96,1.95-1.99c4.28-12.47,4.14-22.62.54-35-.02-.08.94-.7.8-1.35-.46-2.15-13.37-10.3-16.8-8.65.49-5.96,6.7-3.25,10-3.99Z"/>
    <path class="cls-5" d="M82.73,363c.08-4.24,9.52-12.83,13.29-11.87,1.17.3,5.03,4.75,6.98,6.1,22.99,15.94,44.33,28.76,71.29,36.71,15.15,4.46,29.33,8.73,44.45,1.58,11.28-5.34,24.3-10.5,35.31-16.69,18.48-10.38,32.65-26.1,45.31-42.77,1.44-.43,8.85,4.64,10.66,5.92.89.63.62,1.95.7,2.02-4.31,2.77-6,8.71-9,12.5-14.48,18.27-62.49,41.46-85.05,47.95-21.09,6.07-53.91-11.33-74.42-18.49-12.78-4.46-30.69-7.22-41.87-14.13-5.75-3.55-9.28-10.02-17.66-8.84Z"/>
    <path class="cls-6" d="M341.73,477c3.52-19.59-3.29-35.37-7-53.99,1.81-1.59,21.14,10.9,23-5.51.65-5.74-.34-22.05-2-27.5,5.93,1.21,9.9,7.86,12.82,12.68,3.93,6.5,13.84,28.87,13.16,35.73-1.23,12.45-28.06,34.47-39.99,38.59Z"/>
    <path class="cls-6" d="M344.73,361c.13-.75,9.43-10.45,10.44-11.05,4.04-2.37,10.67,1.57,14.58,3.53,7.74,3.9,26.44,16.18,28.53,24.51.81,3.21-1.13,13.23-1.82,17.24-1.57,9.04-4.36,17.94-6.74,26.77-2.61.46-1.54-.38-2.08-1.42-7.78-15.13-14.47-39.51-34.91-39.58-1.11-3.42-8.18-18.94-8-20Z"/>
    <path class="cls-5" d="M325.73,511c-2.58,11.85-7.9,26.95-13.82,37.68-6.13,11.1-8.23,6.84-16.19-.16-2.55-2.24-12.59-12.03-12.99-14.51-.37-2.32,2.66-11.77,2.98-15.52s.05-7.79.02-11.48c14.09-2.5,26.75-.72,40,4Z"/>
    <path class="cls-14" d="M134.73,509c-.78,9.35-1.76,18.6-2,28-.1,3.96-.11,8.04,0,12,.06,2.08-.26,4.14,1,6-.23.24-.19,1.93-1.45,3s-6.07,4.95-7.5,3.96c-.61-.42-4.84-11.69-5.87-13.64-4.47-8.45-9.41-16.54-13.18-25.32,4.37.21,6.46-4.69,9.5-7,5.03-3.82,13.13-7.36,19.5-7Z"/>
    <path class="cls-14" d="M391.73,300c-1.08,3.95-.66,7.72,2,11-9.52,4.61-19.59,10.38-27,18-4.31,2.82-14.02,11.5-17.65,15.35-1.21,1.29-8.13,9.85-8.35,10.65-2.5-.86-4.81-2.57-7-4-1.69-3.31.09-4.99,2.03-7.47,12.44-15.85,37.59-35.54,55.97-43.53Z"/>
    <path class="cls-5" d="M324.73,275l4.01,6.5,13.99,15.49c-1.32,1.38-12.04.36-14.45-.03s-5.84-4.15-9.07-.97c-3.65,3.58.09,7.54.47,10.57.68,5.38.1,10.9,2.05,16.44-9.69,2.04-9.78-8.78-18-8.99,1.11-1.49,1.92-4.94,4.03-7.47,2.27-2.73,7.23-5.44,8.41-7.59,2.87-5.26,2.64-15.85,5.47-21.54,1.33-2.67,2.98-2.21,3.09-2.39Z"/>
    <path class="cls-14" d="M76.73,266c-.89,6.48-1.49,10.51-3,17-7.05-5.48-8.73,3.82-11.66,4.83-6.04,2.08-18.01-1.85-21.34-7.83h15.5c6.83,0,13.96-13.08,20.5-14Z"/>
    <path class="cls-14" d="M81.73,314c-3.53-.38-21.71.91-22.95-1.07-1.97-3.14,3.96-4.01,5.89-5.49,5.61-4.3,7.46-15.66,9.06-22.44,5.57,7.43,4.45,21.77,8,29Z"/>
    <path class="cls-5" d="M335.73,246c.21,11.28,6.08,21.5,14,28.99-3.62-.09-8.87-.19-12.26-1.23-3.9-1.2-5.87-5.75-10.74-4.76,2.28-5.82,3.1-12.33,5.26-18.25.6-1.65,1.22-5.27,3.74-4.75Z"/>
    <path class="cls-14" d="M307.73,159c2.05,9.57-12.24,19.97-20.27,18.82-1.6-.23-3.36-1.77-3.73-1.82.29-.68.73-1.31,1-2,3.82.14,6.36-4.05,8-7s2.29-4.32,3-8c3.99,0,8.01,0,12,0Z"/>
    <path class="cls-5" d="M100.73,340l-19-2.01c2.36-6.61,5.25-11.47,4-18.99,2.93,2.95,7.66,4.98,10.84,9.66,3.03,4.48,2.53,7.68,4.16,11.34Z"/>
    <path class="cls-2" d="M285.73,507c.03,3.7.3,7.87-.02,11.48s-3.36,13.2-2.98,15.52c-3.5,1.08-2.82-1.87-3-2,2.57-6.21,3.48-13,3.66-19.72.02-.87-.66-1.52-.66-1.78v-17c0-1.35.47-3.2.19-4.77l.81-.73c.72,6.65,1.94,12.03,2,19Z"/>
    <path class="cls-5" d="M72.73,169c-3.2,1.54-8.96,1.38-12.58,1.04-1.31-.12-2.21-1.02-2.42-1.04,2.67-1.63,8.16-1.24,11.56-1.05,2.21.12,3.26,1.05,3.44,1.05Z"/>
    <path class="cls-2" d="M135.73,554c-.42.2-1.92.92-2,1-1.26-1.86-.94-3.92-1-6,3.11-.11,3.27,2.41,3,5Z"/>
    <path class="cls-1" d="M105.73,522c-1.83.8-3.3-2.55-3.59-4.06-.46-2.39.61-2.79.59-2.94,1.82,1.93,2.06,4.7,3,7Z"/>
    <path class="cls-10" d="M274.71,20c.21.2,1.16,3.95,2.18,5.34,6.18,8.43,11.39,14.59,13.38,25.61,1.1,6.08-.78,26.9,1.36,29.64,4.56,5.83,7.24-3.58,8.06-4.12,1.28-.86,4.73-.39,6.87-1.13,3.16-1.1,5.69-4.06,9.16-4.33,1,.96-14,20.63-15.41,23.08-2.45,4.24-4.96,9.01-6.28,13.72-1.5,5.33.55,11.19-6.03,12.01-5.16.64-13.44-5.24-15.47-10.11-3.6-8.67-.36-10.79.19-18.21,1.11-15.05,2.77-33.17,3.05-47.95.16-8.64-2.64-14.63-3.04-22.06-.09-1.69.99-2.45,1.99-1.48Z"/>
    <path class="cls-10" d="M290.7,130.04l-4.42,31.01c-4.02,8.5-10.81,7.49-17.07,1.96-9.07-8.01-2.21-30.11-1.48-41.02,7.79,2.67,14.11,7.58,22.97,8.04Z"/>
    <path class="cls-2" d="M256.73,157c-1.41-5.8-1.91-7.75-2-14,4.81.03,3.41,10.84,2,14Z"/>
    <path class="cls-2" d="M292.73,167c-1.64,2.95-4.18,7.14-8,7,1.58-3.98,2.98-7.16,8-7Z"/>
    <path class="cls-10" d="M121.73,23c-1.67,6.3-1.82,9.53-2,16-2.97-1.09-3.23,4.91,0,4-.03,2.65-.07,5.35,0,8-1.56.34-1.07,2.25,0,3,.15,3.7.79,7.27,1,11l-.84.62.84,1.38c.25,4,.71,7.98,1,12-1.69.58-1.22,3.02,0,4,.27,4.01.76,7.94,1,12-1.8,1.61-1.29,2.35,1,2,.6,11.19-2.02,19.68-14.23,22.35-9.33,2.04-6.9-5.66-8-10.62-2.9-13.01-14.43-25.41-21.75-36.25-1.57-3.99,8.16,2.53,9.15,2.85,2.09.66,5.9.35,6.68.83.62.39,1.01,4.85,3.85,5.69,7.67,2.27,4.33-13.7,4.27-17.31-.34-20.43,6.43-26.87,16.04-42.54l2,1Z"/>
    <path class="cls-10" d="M126.72,122c1.67,1.13,3.64,30.51,2.8,34.29-1.46,6.5-13.15,15.65-18.81,8.23-4.76-6.24-3.18-25.57-5.9-33.88.48-1.5,9.96-2.83,12.92-4.14,3.2-1.41,5.41-4.7,8.99-4.49Z"/>
    <path class="cls-2" d="M108.73,173c-3.17-.3-5.07-2.03-6-5,6.78.61,3.69,1.24,6,5Z"/>
    <path class="cls-6" d="M119.73,22c2.86-4.67,3.47-4.55,2,1l-2-1Z"/>
    <path class="cls-6" d="M119.73,39c-.04,1.33.02,2.67,0,4-3.23.91-2.97-5.09,0-4Z"/>
    <path class="cls-6" d="M121.73,83c-1.22-.98-1.69-3.42,0-4,.13,1.86-.03,3.59,0,4Z"/>
    <path class="cls-6" d="M119.73,54c-1.07-.75-1.56-2.66,0-3,.02.83-.02,2.59,0,3Z"/>
    <path class="cls-6" d="M123.73,97c-2.29.35-2.8-.39-1-2,0,.11.9.22,1,2Z"/>
    <path class="cls-6" d="M120.73,67l-.84-1.38.84-.62c.06,1.13,0,1.87,0,2Z"/>
    <path class="cls-11" d="M391.73,300c19.84-8.62,57.99-16.49,78.95-10.45,8.85,2.55,29.46,13.05,30.98,23.02,1.31,8.6-5.62,19.37-13.45,22.43-1.74.68-1.36-.44-1.49-1.47-.35-2.8.21-5.42-.44-8.58-3.13-15.31-24.34-18.64-36.25-11.14-1.79,1.13-14.8,14.01-15.31,15.19-3.91.32-7.53-.16-11-2,2.07-3.75,4.08-7.35,7.01-10.49,2.41-2.59,14.74-11.8,15.52-13.51,1.54-3.37-1.94-4.99-5-5.02-14.93-.17-34.15,6.54-47.53,13.03-2.66-3.28-3.08-7.05-2-11Z"/>
    <path class="cls-2" d="M390.73,494c-.11.1.4,1.37-.6,2.08-1.23.86-10.65,4.2-12.88,4.93-3.47,1.15-9.03,3.62-12.51,1.99,8.58-3.07,16.91-7.57,26-9Z"/>
    <path class="cls-2" d="M354.73,507c-3.05,3.18-8.59,4.89-13.75,5.75-2.11.35-3.78,1.13-3.25-1.75l17-4Z"/>
    <path class="cls-12" d="M427.73,393c-.46-3.43-2.58-8.32,0-12,0,.18.91,1.26,1.05,3.43.16,2.48.57,6.88-1.05,8.57Z"/>
    <path class="cls-12" d="M428.73,410c-.09-1.37-2.69-4.61,0-7,.15,1.25,2.76,5.13,0,7Z"/>
    <path class="cls-12" d="M426.73,436c3.18-.78,2.98,3.88,0,3,0-.97-.13-2.11,0-3Z"/>
    <path class="cls-4" d="M133.45,284.22c15.43-3.14,32.01,2.61,37.31,18.23,3.01,8.87,2.45,26.14-9.52,27.56-17.45,2.08-42.03-11.3-39.26-31.27.84-6.06,5.14-13.24,11.46-14.53Z"/>
    <path class="cls-4" d="M250.48,273.26c20.86-2.96,34.03,13.32,20.22,31.21-8.5,11.01-29.15,26.66-39.81,9.86-10.95-17.25.27-38.33,19.6-41.07Z"/>
    <path class="cls-7" d="M185.98,175.26c.9-.88,2.77-1.3,4.02-1.09,2.91.48,14.08,13.65,17.2,16.85,4.57,4.71,13.41,11.75,16.39,17.63,2.4,4.74-2.66,9.37-5.45,13.26-3.08,4.31-20.81,28.36-23.43,29.57s-4.96.64-7.36-.61c-4.33-2.25-18.9-23.4-21.49-28.5-1.39-2.74-1.75-5.23-.35-8.09l20.47-39.01ZM193.59,238.85l20.14-26.37c-2.69-3.28-22.76-25.9-24.48-25.48-6.6,8.8-9.51,19.8-14.52,29.53.04,1.36,14.47,21.16,15.98,21.98.86.47,1.95.88,2.87.35Z"/>
    <path class="cls-2" d="M137.73,483c3.94,3.63.42,13.38,0,18.5-.63,7.79-1.22,15.29-1.99,23.01-.33,3.34,1.69,12.14-3.02,12.49.24-9.4,1.22-18.65,2-28s1.55-16.88,3-26Z"/>
    <path class="cls-2" d="M281.73,471c-5.68-.42-2.11-6.74-2-9,1.76,2.44,1.6,6.14,2,9Z"/>
    <path class="cls-2" d="M279.73,460c-2.29,1.04-3.55-3.85-2-5,.36,1.32,1.86,2.56,2,5Z"/>
    <path class="cls-3" d="M268.23,439.42c2.08.35,3.78,1.66,4.38,3.45.43,1.29.17,2.45,0,2.99-.04-.85-.52-1.56-1.21-1.8-.49-.17-.94-.05-1.13.02-.34-.72-.68-1.46-1.02-2.23-.36-.82-.7-1.63-1.02-2.43Z"/>
    <path class="cls-2" d="M273.73,446c.83.81.91-1.82,2,2-2.03.29-2.3.03-2-2Z"/>
    <path class="cls-2" d="M423.73,327c-4.74,8.59-5.1,13.16-7.01,22.5-.36,1.77-.21,3.34-1.99,4.5-.52-8.88,2.03-14.14-.94-22.61-.37-1.06.17-2.88-.06-3.39,1.93-2.89,3.4-6.18,5.58-8.92,1.28-1.59,12.7-11.93,11.41-13.08-11.42-.66-21.75,7.67-32,9.99-3.29.75-9.5-1.96-10,3.99,3.42-1.65,16.34,6.5,16.8,8.65.14.66-.82,1.28-.8,1.35-3.77-2.26-12.06-8.73-16.27-7.86-.36.07-6.43,2.66-6.73,2.86-5.21-3.69-7.48.68-12.09,3.45-1.03.62-2.61.35-2.91.55,7.41-7.62,17.48-13.39,27-18,13.37-6.48,32.59-13.19,47.53-13.03,3.06.03,6.54,1.65,5,5.02-.78,1.71-13.11,10.92-15.52,13.51-2.93,3.15-4.94,6.75-7.01,10.49Z"/>
    <path class="cls-2" d="M414.73,357c-.04.85-.05,1.73-1,2-.02-.41-2.96-2.41,1-2Z"/>
    <path class="cls-2" d="M236.73,480c-1.15,3.94-2.21,4.58,2,6-11.66.8-22.96.18-34,1,.67-6.43-9.21-3.57-13.49-4.01-5.57-.58-11.67-1.8-17.21-2.84-1.86-.35-3.89.85-3.3-2.14,23.11,2.93,42.92,2.27,66,2Z"/>
    <path class="cls-9" d="M180.73,448c20.04,2.54,41.11,1.44,61,0,7.63-.55,15.19-1.19,22.8-1.78,5,7.49,6.71,16.43,8.08,25.22-.17.66-5.4,2.84-6.88,3.57l-27,5c-.67,0-1.33,0-2,0-23.08.27-42.89.93-66-2-1.34-.17-2.66-.82-4-1-1.27-.17-2.7.12-4,0-.83-1.61-11.14-1.81-13.08-4.65,2.26-9.9,6.44-19.39,11.2-28.27,6.49,2.06,13.13,3.07,19.88,3.92Z"/>
    <path class="cls-9" d="M183.73,441c-5.31-.65-11.47-2.48-17-3.01-.44-1.72.71-2,1.49-3,17.79-22.95,52.09-17.62,75.19-6.17,1.54.76,11.9,6.61,12.32,7.2.59.84-.5,2.56-1.67,2.8-7.08-.29-15.69,2.95-22.32,3.18-4.92.17-11.52,0-16.5,0h-16c-5.23,0-10.29-.37-15.5-1Z"/>
    <path class="cls-4" d="M231.73,442c-1.4,6.43,4.91,4.56,9.33,5.19l.67.81c-19.89,1.44-40.96,2.54-61,0-.14-3.77,6.09-.88,3-7,5.21.63,10.27,1,15.5,1h16c4.98,0,11.58.17,16.5,0Z"/>
    <path class="cls-2" d="M265.73,475c-10.09,4.93-16.5,4.84-27,5l27-5Z"/>
    <path class="cls-2" d="M166.73,477c.72,2.31-1.32,2.58-3.49,2.04-1.03-.26-.3-1.62-.51-2.04,1.3.12,2.73-.17,4,0Z"/>
    <path class="cls-6" d="M404.73,330c3.61,12.38,3.74,22.52-.54,35-.35,1.03-.26,2.71-1.95,1.99s-10.33-9.72-13.19-11.82c-7.51-5.51-16.15-9.32-24.32-13.68l9.98-10c2.52-.42,6.6-6.22,7.01-6.49.31-.2,6.38-2.78,6.73-2.86,4.2-.87,12.49,5.6,16.27,7.86Z"/>
    <path class="cls-9" d="M398.73,316c10.24-2.33,20.57-10.66,32-9.99,1.28,1.15-10.14,11.48-11.41,13.08-2.19,2.73-3.65,6.03-5.58,8.92-.12-.25-3.49-1.13-3.94-3.54l-11.06-8.46Z"/>
    <path class="cls-10" d="M193.59,238.85c-.92.53-2.01.12-2.87-.35-1.51-.82-15.95-20.62-15.98-21.98,5.01-9.73,7.92-20.73,14.52-29.53,1.72-.42,21.78,22.2,24.48,25.48l-20.14,26.37Z"/>
    <path class="cls-1" d="M4.47,174.6c-1.11,2.5-1.26,5.06-.63,7.72.55,2.35,1.71,4.5,2.63,6.72,1.9,4.6,2.91,9.5,4.18,14.29s3.05,9.74,5.57,14.24,5.08,8.74,8.21,12.58c1.75,2.15,3.89,3.88,6.12,5.5s4.42,3.27,7.07,4.07c3.09.93,4.41-3.9,1.33-4.82-1.92-.58-3.56-1.91-5.17-3.06-1.77-1.26-3.48-2.6-4.95-4.22-2.98-3.28-5.28-7.4-7.51-11.21s-4.01-7.91-5.25-12.24-2.18-8.93-3.61-13.3c-.8-2.45-1.89-4.76-2.87-7.13-.81-1.97-1.72-4.54-.79-6.63.55-1.23.36-2.69-.9-3.42-1.07-.62-2.87-.34-3.42.9h0Z"/>
  </g>
  <path class="cls-1" d="M13.83,155.57c-.7-.06-16.08-2.06-13.54,20.43s24,55.09,28.51,63.42,16.29,19.48,19.29,18.49-26.35-49.26-34.26-69.45-4.23-22.87.71-23.43,23.42-7.34-.71-9.46Z"/>
  <path class="cls-3" d="M271.76,442.65c-.06-.09-.1-.18-.16-.27-.15-.26.22.58.08.19-.13-.36-.27-.72-.43-1.07-.33-.69-.89-1.19-1.5-1.63-.16-.12-.33-.24-.49-.34.55.35.29.23.15.09-.08-.07-.16-.15-.24-.23s-.15-.17-.22-.25c-.19-.2.36.53.11.13-.12-.19-.23-.38-.33-.58-.56-1.11-2.04-1.48-3.12-1.02s-1.9,1.79-1.45,2.95c.61,1.54,1.42,2.93,2.6,4.11.46.46.98.84,1.44,1.28.1.1.2.21.3.31.17.2.12.13-.14-.19.05.07.1.15.15.23.04.06.07.12.1.18.09.17.05.08-.12-.29,0,.15.1.35.12.51l-.09-.66c.01.19,0,.37-.02.56l.09-.66c-.15.85-.32,1.67-.1,2.53s.81,1.78,1.64,2.13c.64.28,1.22.45,1.93.25.58-.16,1.21-.61,1.49-1.15.31-.58.46-1.28.25-1.93-.19-.57-.57-1.24-1.15-1.49-.16-.08-.13-.05.08.09.18.12.33.28.44.47l.17.4c-.02-.07-.04-.14-.05-.21l.09.66c-.02-.17,0-.34.02-.51l-.09.66c.09-.55.24-1.11.22-1.67-.02-.74-.22-1.37-.52-2.03-.39-.84-1.06-1.54-1.76-2.14-.29-.25-.59-.49-.86-.76-.14-.13-.27-.27-.39-.41-.06-.07-.13-.14-.19-.21-.06-.06-.27-.34-.03-.02s.03.04-.02-.03c-.06-.08-.11-.15-.16-.23-.1-.16-.2-.32-.3-.48s-.18-.33-.27-.5c-.04-.08-.08-.17-.12-.26-.13-.27.25.61.06.14l-4.57,1.93c.55,1.1,1.4,1.95,2.39,2.67.09.07.18.13.28.19.31.2-.18-.16-.18-.16.03-.01.4.45.06.03-.3-.37,0-.02,0,.07,0-.1-.24-.6-.09-.19.04.1.07.2.11.29.14.35.28.72.49,1.04.72,1.09,2.25,1.65,3.42.9,1.09-.7,1.66-2.25.9-3.42h0Z"/>
  <path class="cls-3" d="M271.25,455.89c.32.35.64.7.96,1.06.06.07.39.53.47.53-.07,0-.28-.41-.07-.09.06.1.13.19.19.29.23.39.44.77.72,1.14.23.3.46.59.69.88.07.08.13.17.2.25-.16-.17-.26-.37-.07-.06.06.09.1.19.16.27.14.23-.11-.43-.08-.16.01.09.05.21.07.3.09.29-.02-.5-.03-.2-.01.43,0,.85-.04,1.28-.09,1.07-.13,2.09.13,3.15.31,1.27,1.81,2.15,3.08,1.75s2.08-1.71,1.75-3.08c-.02-.09-.03-.23-.07-.31.09.17.05.55.03.11,0-.21,0-.43,0-.64.02-.46.08-.92.11-1.38.07-1.24-.13-2.55-.8-3.62-.05-.08-1.06-1.48-1.12-1.45.02-.01.32.46.1.13-.06-.09-.12-.18-.18-.28-.14-.22-.25-.46-.39-.68-.62-1-1.49-1.86-2.28-2.73-.88-.97-2.65-.96-3.54,0-.95,1.04-.94,2.5,0,3.54h0Z"/>
  <path class="cls-3" d="M275.15,463.41c.03,2.42.66,4.76,1.09,7.12.05.3.1.59.15.89-.06-.41.04.34.05.38.06.57.11,1.14.15,1.71.07,1.19.1,2.37.13,3.56.03,1.31,1.13,2.56,2.5,2.5s2.53-1.1,2.5-2.5c-.06-2.47-.16-4.93-.56-7.37-.18-1.1-.43-2.19-.65-3.28-.06-.29-.11-.59-.17-.88-.01-.09-.13-.8-.06-.35-.08-.59-.12-1.19-.12-1.79-.02-1.31-1.14-2.56-2.5-2.5s-2.52,1.1-2.5,2.5h0Z"/>
  <path class="cls-3" d="M274.44,463.22c.51,1.11,1.1,2.17,1.67,3.25l.11.23c-.08-.2-.07-.15.03.13.06.25.13.5.18.75-.08-.42.05.52.05.62.02.27.03.54.05.8.15,2.61.3,5.22.45,7.82.08,1.3,1.1,2.56,2.5,2.5,1.29-.06,2.58-1.1,2.5-2.5-.16-2.79-.31-5.58-.48-8.37-.1-1.5-.31-2.91-.96-4.27-.56-1.18-1.24-2.3-1.79-3.48s-2.36-1.58-3.42-.9c-1.23.79-1.49,2.15-.9,3.42h0Z"/>
  <path class="cls-3" d="M278.73,489.85c-.22-.31-.26-.35-.13-.12-.13-.33-.17-.41-.12-.23.03.2.1.39.15.59.04.18.07.36.11.54.02.13.18.72.02.06.18.75.14,1.61.16,2.37.04,1.59-.02,3.19.05,4.78.06,1.3,1.11,2.56,2.5,2.5,1.3-.06,2.56-1.1,2.5-2.5-.08-1.78,0-3.56-.07-5.33-.08-2.09-.22-4.54-1.63-6.19-.85-1-2.67-.94-3.54,0-.98,1.06-.91,2.47,0,3.54h0Z"/>
  <path class="cls-3" d="M280.12,498.63c-.4,2.82.25,5.46.77,8.22.05.31.05.34.02.1.02.13.03.26.04.39.03.3.05.6.05.9,0,.34,0,.67-.04,1.01.04-.44-.04.21-.06.31-.07.32-.16.64-.26.95-.02.07-.29.69-.11.32-.28.6-.63,1.15-1.02,1.68-.79,1.05-.2,2.84.9,3.42,1.32.7,2.57.22,3.42-.9,1.66-2.2,2.4-5.07,2.12-7.81-.15-1.44-.46-2.83-.73-4.25-.05-.25-.1-.51-.14-.77-.03-.17-.06-.34-.08-.51.03.24.03.21,0-.1-.02-.34-.05-.68-.05-1.02,0-.09.07-1.04,0-.61.18-1.29-.32-2.75-1.75-3.08-1.18-.27-2.88.36-3.08,1.75h0Z"/>
  <path class="cls-3" d="M280.67,512.93c.05.26.09.52.13.78l-.09-.66c.16,1.31.11,2.62-.06,3.92l.09-.66c-.14,1.02-.36,2.03-.61,3.03-.26,1.06-.24,2.25.65,3.04,1.3,1.16,3.18.89,4.12-.57.71-1.1.26-2.81-.9-3.42-1.24-.66-2.66-.28-3.42.9l-.04.06,1.49-1.15-.07.02h1.33l-.08-.02,1.1.64-.06-.05.64,1.1-.03-.1.09.66v-.11c-.03.22-.06.44-.09.66.33-1.56.69-3.07.85-4.66s.08-3.17-.23-4.73c-.26-1.29-1.86-2.14-3.08-1.75-1.37.44-2.02,1.7-1.75,3.08h0Z"/>
  <path class="cls-3" d="M280.05,519.29c-.58,1.24-.77,2.47-.91,3.82-.03.29-.03.25.02-.1-.02.12-.04.25-.06.37-.05.29-.13.57-.2.85-.15.56-.33,1.1-.47,1.66-.3,1.24-.45,2.52-.58,3.79-.07.68-.2,1.37,0,2.05.14.48.42.94.77,1.29.7.71-.32-.37-.29-1.16l1.84-2.41-.11.03,1.93.25-.1-.06c-1.13-.66-2.79-.3-3.42.9s-.31,2.72.9,3.42c.67.39,1.39.47,2.14.28,1.09-.28,1.8-1.32,1.84-2.41.03-.86-.37-1.64-.99-2.21-.69-.64.29,1.6.42.97.05-.24.05-.49.07-.74.03-.28.06-.56.09-.84.04-.29.03-.28,0,.04.02-.14.04-.28.06-.42.08-.49.17-.97.28-1.45.25-1.03.61-2.02.76-3.07.09-.6.13-1.2.22-1.8-.11.71.04-.13.07-.26.04-.15.34-.88.06-.28.55-1.18.37-2.75-.9-3.42-1.11-.59-2.83-.37-3.42.9h0Z"/>
  <path class="cls-3" d="M282.95,530.82c-.05.75,0,.09.06-.11.09-.25.07-.2-.07.15.05-.1.09-.19.14-.29.17-.34.37-.67.54-1.01.53-1.09.8-2.15.78-3.38-.01-.97.01-1.92.12-2.88.04-.29.03-.27,0,.06.02-.13.04-.27.06-.4.03-.2.07-.4.1-.6.09-.53.2-1.07.3-1.6.25-1.28-.36-2.76-1.75-3.08-1.23-.28-2.81.37-3.08,1.75-.42,2.17-.79,4.35-.75,6.57,0,.22,0,.44,0,.66-.02.29-.01.25.03-.11-.02.11-.05.23-.08.34-.03.1-.07.2-.1.3.15-.35.17-.4.05-.15-.09.17-.18.34-.27.51-.57,1.06-1,2.06-1.08,3.27-.09,1.31,1.22,2.56,2.5,2.5,1.43-.06,2.4-1.1,2.5-2.5h0Z"/>
  <path class="cls-3" d="M415.34,356.8c-.13-3.97-.3-8.05.7-11.93s3.54-7,4.19-10.89c.22-1.33-.35-2.69-1.75-3.08-1.2-.33-2.85.41-3.08,1.75-.67,4-3.35,7.34-4.29,11.3-1,4.21-.92,8.56-.78,12.85.1,3.21,5.1,3.22,5,0h0Z"/>
  <path class="cls-3" d="M373.01,330.62c2.19-2.11,4.74-3.71,7.3-5.33s5.3-3.51,8.05-5.08c1-.57,1.99-1.01,3.16-.78,1.4.27,2.64,1.17,3.8,1.96,2.75,1.88,5.48,3.8,8.22,5.7,1.11.77,2.78.2,3.42-.9.73-1.24.22-2.65-.9-3.42-2.97-2.06-5.9-4.22-8.94-6.19-3.2-2.08-6.62-2.92-10.2-1.26-3.13,1.45-6.02,3.67-8.94,5.52s-5.96,3.78-8.51,6.24c-2.32,2.24,1.22,5.77,3.54,3.54h0Z"/>
  <path class="cls-3" d="M390.73,320.74c.42-.31.1,0-.06-.12.13.11.55.33.77.53.71.63,1.37,1.31,2.11,1.9,1.77,1.42,3.66,2.54,5.77,3.37,1.62.64,3.75.8,5.09,1.78.65.47,1.23,1.15,1.7,1.77.42.55,1.21,1.48,1.29,2.04v-1.33l-.08.27c-.87,3.1,3.96,4.43,4.82,1.33.44-1.58-.32-2.81-1.18-4.07-.7-1.03-1.45-2.06-2.34-2.94-.97-.96-2.08-1.71-3.34-2.22s-2.58-.72-3.85-1.16c-2.16-.74-4.11-2.05-5.76-3.61-.94-.89-1.86-1.77-3.08-2.25-1.41-.56-3.14-.54-4.4.39-1.09.8-1.63,2.17-.9,3.42.63,1.07,2.33,1.7,3.42.9h0Z"/>
  <path class="cls-3" d="M416.51,328.64c-2.45,4.39-4.5,9-6.1,13.77-.77,2.28-1.43,4.6-1.98,6.94-.29,1.24-.55,2.5-.78,3.75-.2,1.09-.24,2.33-.82,3.29-1.67,2.76,2.66,5.28,4.32,2.52,1.27-2.1,1.34-4.79,1.86-7.14s1.18-4.82,1.94-7.18c1.51-4.67,3.49-9.15,5.88-13.43,1.57-2.81-2.75-5.34-4.32-2.52h0Z"/>
  <path class="cls-3" d="M413.87,337.13c-1.64,2.44-1.29,5.35-1.76,8.11s-1.38,5.39-2.44,7.96c-2.17,5.26-4.91,10.3-6.09,15.91-.28,1.32.39,2.7,1.75,3.08,1.24.34,2.8-.42,3.08-1.75,1.15-5.47,3.8-10.41,5.93-15.53,1.04-2.5,1.97-5.07,2.49-7.74.27-1.4.43-2.82.53-4.24.08-1.17.17-2.27.84-3.27,1.8-2.68-2.53-5.19-4.32-2.52h0Z"/>
  <path class="cls-1" d="M217.88,101.34c-.24-1.25-.88-2.42-1.42-3.56-.46-.96-.93-1.92-1.48-2.83-1.23-2.05-2.81-3.89-4.87-5.13-.92-.55-2.29-.42-3.03.39-.82.89-.86,1.96-.39,3.03,1.16,2.66,2.33,5.32,3.49,7.99.23.54.96,1,1.49,1.15.6.16,1.4.09,1.93-.25s1-.86,1.15-1.49c.16-.7.03-1.28-.25-1.93-1.16-2.66-2.33-5.32-3.49-7.99l-3.42,3.42c.22.13.43.27.64.41.28.19-.08-.04-.14-.12.07.09.21.17.29.24.34.29.67.61.97.95.17.19.33.39.49.58.21.25-.3-.41-.11-.14.07.1.15.21.22.31.28.4.54.81.79,1.23.49.83.92,1.69,1.34,2.56.2.43.4.85.6,1.28.01.03.24.55.09.19s.06.16.07.19c.1.28.17.56.23.85.25,1.29,1.86,2.14,3.08,1.75,1.37-.44,2.01-1.7,1.75-3.08h0Z"/>
  <path class="cls-1" d="M216.42,100.5l1.22-1.33c.24-.23.42-.49.52-.8.16-.3.23-.62.22-.96.01-.34-.06-.67-.22-.96-.1-.31-.27-.58-.52-.8l-.51-.39c-.39-.23-.81-.34-1.26-.34l-.66.09c-.42.12-.79.33-1.1.64l-1.22,1.33c-.24.23-.42.49-.52.8-.16.3-.23.62-.22.96-.01.34.06.67.22.96.1.31.27.58.52.8l.51.39c.39.23.81.34,1.26.34l.66-.09c.42-.12.79-.33,1.1-.64h0Z"/>
  <path class="cls-1" d="M142.9,552.96c1.9,1.03,4.2-.46,3.91-2.64-.26-1.96-2.44-2.9-4.11-1.9-.77.46-1.4,1.27-2.01,1.92-.53.56-1.04,1.14-1.55,1.72-2.17,2.49-4.17,5.12-5.98,7.88-.72,1.1-.25,2.81.9,3.42,1.25.66,2.65.27,3.42-.9.62-.94,1.26-1.87,1.92-2.78.32-.43.61-.92.98-1.31-.13.14-.21.27-.04.05.1-.13.2-.25.3-.38.18-.23.36-.45.54-.68.69-.85,1.4-1.68,2.13-2.49.39-.43.78-.86,1.18-1.28.18-.19.35-.37.53-.56.11-.12.22-.23.34-.35.39-.39.32-.06-.54.21h-1.33l.13.02-1.1-.64.06.06-.64-1.1v.08c.01-.44.01-.89.01-1.33l.19-.44.9-.9-.06.03h2.52l-.06-.03c-1.15-.62-2.77-.32-3.42.9s-.33,2.76.9,3.42h0Z"/>
  <path class="cls-1" d="M144.3,546.45c-3.25,2.85-6.72,5.56-9.34,9.02-1.22,1.62-2.13,3.41-2.72,5.35-.5,1.64-.79,3.63-1.74,4.76-.87,1.03-1.01,2.52,0,3.54.89.89,2.66,1.04,3.54,0,1.4-1.67,2.09-3.58,2.66-5.66.51-1.86,1.08-3.38,2.22-4.96,2.33-3.24,5.91-5.86,8.93-8.51,1.02-.89.91-2.62,0-3.54-1.01-1.01-2.52-.89-3.54,0h0Z"/>
  <path class="cls-1" d="M270.78,531.32c.28.18.55.37.82.56.13.1.27.19.4.3-.21-.16-.02,0,.08.07.51.43,1,.86,1.47,1.33s.91.96,1.33,1.47c.09.11.21.29.06.07.09.13.19.26.28.4s.16.28.25.41l.11.21c-.07-.2-.08-.21-.02-.05.05.16.1.31.14.48.1.41-.01-.29.02.13.02.36.02.72.02,1.08,0,.84.09,1.67.21,2.5.23,1.56.75,3.03,1.43,4.45.57,1.18,2.35,1.59,3.42.9,1.22-.78,1.5-2.15.9-3.42-.07-.16-.15-.31-.22-.47.13.3-.05-.15-.08-.25-.12-.33-.22-.66-.31-1-.1-.38-.18-.76-.25-1.15-.02-.13-.05-.39-.02-.11-.02-.17-.03-.35-.04-.52-.12-1.84-.03-3.52-.93-5.21-.7-1.32-1.78-2.51-2.84-3.56-1.12-1.11-2.37-2.09-3.68-2.95-1.1-.72-2.81-.25-3.42.9-.66,1.25-.27,2.65.9,3.42h0Z"/>
  <path class="cls-1" d="M318.46,344.24c5.11,4.81,10.7,8.95,16.62,12.71,2.5,1.59,4.23,3.42,5.27,6.22s1.62,5.62,2.7,8.34c.5,1.25,1.67,2.13,3.08,1.75,1.19-.33,2.25-1.81,1.75-3.08-1.13-2.84-1.72-5.85-2.83-8.69-1.28-3.27-3.11-5.85-5.99-7.9s-6.03-3.85-8.9-6-5.56-4.45-8.15-6.89c-2.34-2.2-5.88,1.32-3.54,3.54h0Z"/>
  <path class="cls-1" d="M319.29,342.77c11.24,5.7,16.95,17.46,20.13,29.1.85,3.1,5.67,1.78,4.82-1.33-3.51-12.82-10.07-25.82-22.43-32.08-2.86-1.45-5.4,2.86-2.52,4.32h0Z"/>
  <path class="cls-1" d="M327.74,348.26c3.39.1,5.47,4.7,7.01,7.23,2.07,3.39,3.95,6.87,4.89,10.76.76,3.12,5.58,1.8,4.82-1.33-1.13-4.63-3.46-8.84-5.95-12.86s-5.42-8.64-10.77-8.8c-3.22-.1-3.22,4.9,0,5h0Z"/>
  <path class="cls-15" d="M106.17,163.33l-.46-.84c-1.2-2.18-4.68-1.19-4.66,1.26.06,5.64,4,10.44,9.23,12.26s12.93.66,16.39-4.05c.8-1.09.18-2.79-.9-3.42-1.27-.74-2.62-.2-3.42.9-.98,1.33-3.32,1.86-4.82,2.16-1.97.39-4.02.25-5.92-.41-1.54-.54-2.92-1.58-3.86-2.77-1.11-1.4-1.68-3.03-1.69-4.67l-4.66,1.26.46.84c1.55,2.82,5.87.3,4.32-2.52h0Z"/>
  <path class="cls-15" d="M97.7,131.18c-1.17,5.87-.2,11.72,1.08,17.49,1.03,4.63,2.12,9.71,5.9,12.95,1.03.88,2.53,1.01,3.54,0,.9-.9,1.03-2.65,0-3.54-3.1-2.65-3.78-6.96-4.62-10.74-1.08-4.84-2.07-9.89-1.08-14.83.26-1.32-.38-2.7-1.75-3.08-1.23-.34-2.81.42-3.08,1.75h0Z"/>
  <path class="cls-15" d="M99.59,146.23c-1.23,2.82-1.45,5.77-1.47,8.81-.01,1.5-.01,3.06.44,4.5.5,1.61,1.42,2.86,2.76,3.86,1.05.78,2.84.21,3.42-.9.69-1.31.23-2.58-.9-3.42.58.43-.42-.56.02.03-.13-.17-.22-.35-.33-.53-.12-.26-.13-.25-.01.03-.04-.1-.07-.2-.11-.3-.08-.25-.14-.5-.2-.75-.13-.54-.02.16-.05-.35-.02-.34-.04-.68-.05-1.02,0-.55,0-1.09,0-1.64.01-1.11.05-2.21.17-3.31.06-.59-.06.23.05-.3.07-.32.12-.64.2-.95.06-.23.12-.47.2-.7.03-.08.36-.95.18-.54.52-1.2.39-2.74-.9-3.42-1.08-.57-2.86-.38-3.42.9h0Z"/>
  <path class="cls-15" d="M101.68,162.05c-.94,1.35-.59,3.13-.18,4.6.35,1.25.87,2.52,1.65,3.57.84,1.14,1.86,2.14,3.17,2.73,1.51.67,3.04.91,4.67.54,1.28-.29,2.15-1.83,1.75-3.08-.43-1.34-1.71-2.06-3.08-1.75-.12.03-.23.05-.35.07l.66-.09c-.4.05-.79.05-1.18,0l.66.09c-.4-.06-.78-.17-1.15-.33l.6.25c-.45-.19-.86-.44-1.25-.74l.51.39c-.39-.31-.73-.67-1.04-1.07l.39.51c-.39-.52-.7-1.08-.96-1.67l.25.6c-.36-.86-.63-1.78-.77-2.71l.09.66c-.03-.23-.04-.46-.01-.7l-.09.66c.02-.11.04-.22.08-.33l-.25.6c.05-.11.1-.2.16-.29.35-.51.41-1.35.25-1.93s-.61-1.21-1.15-1.49c-1.28-.67-2.62-.25-3.42.9h0Z"/>
  <path class="cls-10" d="M119.53,79.29l.68-.13-3.16-2.41c.44,7.08.61,14.17.49,21.26-.05,3.22,4.95,3.22,5,0,.12-7.09-.05-14.18-.49-21.26-.11-1.71-1.5-2.73-3.16-2.41l-.68.13c-1.33.25-2.08,1.85-1.75,3.08.38,1.39,1.74,2,3.08,1.75h0Z"/>
  <path class="cls-10" d="M114.83,38.95c-.63,5.62-1.27,11.23-1.9,16.85-.15,1.34,1.26,2.5,2.5,2.5,1.48,0,2.35-1.15,2.5-2.5.63-5.62,1.27-11.23,1.9-16.85.15-1.34-1.26-2.5-2.5-2.5-1.48,0-2.35,1.15-2.5,2.5h0Z"/>
  <path class="cls-10" d="M115.07,45.07c-.3,4.36-.32,8.74-.06,13.1.08,1.3,1.1,2.56,2.5,2.5,1.29-.06,2.58-1.1,2.5-2.5-.26-4.37-.23-8.74.06-13.1.09-1.31-1.21-2.56-2.5-2.5-1.43.06-2.41,1.1-2.5,2.5h0Z"/>
  <path class="cls-10" d="M117.25,62.15c-1.49,1.25-1.39,3.43-1.5,5.19-.11,1.6-.21,3.2-.32,4.8-.09,1.31,1.21,2.56,2.5,2.5,1.43-.06,2.41-1.1,2.5-2.5.08-1.17.16-2.35.24-3.52s.11-2.25.24-3.36l-.09.66c.04-.28.1-.54.21-.8l-.25.6c.05-.1.25-.38-.02-.04s-.04.08.04,0c.47-.39.73-1.18.73-1.77,0-.61-.27-1.35-.73-1.77s-1.1-.76-1.77-.73-1.23.29-1.77.73h0Z"/>
  <path class="cls-10" d="M121.98,22.79l.99-1.89c.13-.25.1-.58-.06-.81-.18-.24-.54-.39-.83-.42-.72-.07-1.54.22-1.89.89l-.99,1.89c-.13.25-.1.58.06.81.18.24.54.39.83.42.72.07,1.54-.22,1.89-.89h0Z"/>
  <path class="cls-10" d="M120.61,19.51l-2.57,5.69c-.28.63.26,1.12.87,1.17.66.05,1.59-.21,1.89-.87l2.57-5.69c.28-.63-.26-1.12-.87-1.17-.66-.05-1.59.21-1.89.87h0Z"/>
  <path class="cls-10" d="M116.04,37.09c.33,11.34-2.34,22.92.89,34.04.32,1.09,3.21.31,2.9-.78-3.22-11.1-.56-22.71-.89-34.04-.03-1.01-2.93-.42-2.9.78h0Z"/>
  <path class="cls-15" d="M255.89,140.13c-.36,2.1-.77,4.2-1.09,6.3s-.17,4.07.3,6.11c.74,3.18,1.57,7.03,4.47,8.95.89.59,3.53-.68,2.28-1.51-2.6-1.72-3.32-5.77-3.93-8.6-.84-3.88.23-7.72.89-11.56.22-1.25-2.72-.8-2.91.31h0Z"/>
  <path class="cls-15" d="M256.87,140.2c-2.25,3.78-2.87,8.33-1.72,12.58.3,1.09.68,2.16.93,3.27.27,1.21.24,2.41.32,3.64.13,1.94.83,3.62,2.65,4.48.76.36,1.85-.12,2.22-.82.93-1.78.72-4.07.65-6.01-.08-2.1-.28-4.2-.47-6.3-.39-4.47-.72-9.08.66-13.43.52-1.65-2.24-1.58-2.78-.38-3.24,7.17-3.66,15.4-1.11,22.84.47,1.37,3.16.64,2.9-.78-1.1-6.03-2.19-12.07-3.29-18.1-.26-1.43-2.7-.57-2.92.49-1.16,5.56-.59,11.45,1.58,16.7,2,4.84,5.67,10.78,11.15,11.99,1.47.32,2.9-1.76.98-2.18-2.55-.56-4.48-2.87-5.97-4.87s-2.8-4.38-3.69-6.82c-1.76-4.82-2.15-10-1.11-15.02l-2.92.49c1.1,6.03,2.19,12.07,3.29,18.1l2.9-.78c-2.43-7.09-2.1-14.85.99-21.69l-2.78-.38c-1.32,4.16-1.27,8.43-.93,12.74.17,2.21.42,4.42.53,6.64.1,1.93.48,4.58-.45,6.36l2.22-.82c-1.67-.79-1.36-3.34-1.45-4.83-.12-2.01-.86-3.83-1.33-5.76-.93-3.76-.25-7.67,1.72-10.98.38-.64-.34-1.19-.9-1.28-.75-.12-1.5.27-1.88.9h0Z"/>
  <path class="cls-15" d="M278.61,174.17c2.1.41,4.29-.12,6.22-.96,1.82-.79,3.72-1.74,5.15-3.13,2.65-2.58,2.3-6.54,3.63-9.76.23-.57-.96-.5-1.21-.47-.55.08-1.42.32-1.67.9-.7,1.6-1.39,3.2-2.09,4.79s-1.23,3.16-2.11,4.57c-1.4,2.23-3.84,3.26-6.33,3.72-.5.09-1.1.25-1.47.62-.2.21-.36.59.07.7,4.37,1.07,9.16-1.01,11.82-4.56,1.35-1.79,2.23-3.89,2.83-6.04.31-1.1.54-2.21.75-3.33s.39-2.28,1.14-3.18c.43-.52-.37-.68-.74-.68-.63,0-1.5.24-1.92.75-1.2,1.44-1.29,3.39-1.68,5.15-.42,1.9-.98,3.78-1.87,5.52-1.46,2.86-4.45,5.96-7.98,5.09l-1.4,1.32c3.22-.59,6.67-1.73,8.85-4.32,1.15-1.36,1.77-3.1,2.48-4.71.85-1.95,1.7-3.89,2.54-5.84l-2.88.43c-1.08,2.63-.92,5.76-2.44,8.21-.8,1.3-2.1,2.06-3.42,2.75-1.41.74-2.82,1.38-4.44,1.07-.64-.13-1.56.13-2.05.55-.45.39-.36.74.23.85h0Z"/>
  <path class="cls-15" d="M170.86,482.27c2.75.07,5.36.89,8.01,1.51,2.46.57,4.95.85,7.47.97,5.48.26,10.99.23,16.47.28,10.75.1,21.54.25,32.29-.11,5.78-.19,11.51-.85,17.02-2.65.3-.1,1.13-.4.87-.81-.24-.37-1.6.08-1.86.17-4.76,1.55-9.79,1.98-14.76,2.14s-10.31.13-15.46.15c-10.49.02-21.01.07-31.5-.28-2.91-.1-5.77-.39-8.6-1.07-2.67-.64-5.3-1.39-8.06-1.46-.64-.02-1.54.14-2.05.55-.38.31-.46.61.17.62h0Z"/>
  <path class="cls-15" d="M195.66,486.03c10.31.96,20.67,1.11,31.02,1.04,10.09-.07,20.2.27,29.82-3.26,1.73-.64,1.28-2.5-.57-2.13-9.42,1.88-18.98,2.88-28.56,3.46s-19.25,1.05-28.84.96c-5.36-.05-10.6-1.18-15.81-2.35-1.5-.34-2.88,1.8-.97,2.23,4.71,1.06,9.45,2.1,14.29,2.32s9.71-.07,14.55-.2c9.82-.28,19.64-.7,29.41-1.77,5.53-.61,11.04-1.43,16.5-2.52l-.57-2.13c-4.65,1.71-9.45,2.66-14.4,2.9s-9.75.19-14.62.23c-10.1.07-20.21-.07-30.27-1.01-.69-.06-1.61.2-1.88.91-.25.66.24,1.25.91,1.32h0Z"/>
  <path class="cls-15" d="M174.69,481.65c10.2,1.07,20.46,2.57,30.72,2.86,5.19.14,10.39-.02,15.58-.17s10.31-.21,15.45-.48c5.5-.3,10.99-.94,16.26-2.61.41-.13,1.42-.49,1.26-1.1s-1.26-.44-1.64-.32c-9.29,2.96-19.31,2.61-28.95,2.87-5.04.14-10.09.31-15.13.24s-9.81-.53-14.7-1.04c-5.69-.59-11.38-1.19-17.07-1.78-.69-.07-1.53.05-2.05.55-.39.38-.39.94.27,1.01h0Z"/>
  <path class="cls-15" d="M243.52,481.55c12.11-1.53,24.05-4.09,35.97-6.66.34-.07,1.68-.33,1.69-.82s-.84-.4-1.17-.33c-11.92,2.57-23.86,5.14-35.97,6.66-.34.04-1.68.35-1.69.82-.01.53.84.37,1.17.33h0Z"/>
  <path class="cls-15" d="M276.47,469.12c-1.69.58-2.87,1.81-4.02,3.11-1.29,1.45-2.74,2.43-4.61,2.97-3.96,1.16-8.09,1.19-11.82,3.16-.42.22-.84.71-.28,1.02s1.54-.03,2.04-.3c3.47-1.83,7.68-1.65,11.37-2.9,1.74-.59,3.43-1.43,4.77-2.71,1.15-1.09,2.1-2.8,3.65-3.33.37-.13,1.17-.59.8-1.06s-1.49-.11-1.9.03h0Z"/>
  <path class="cls-3" d="M137.57,552.28c.98-3.72,1.06-7.56,1.05-11.39s.08-7.98.34-11.96c.5-7.65,1.19-15.68,3.54-23.01.41-1.29-.48-2.73-1.75-3.08-1.38-.38-2.63.47-3.08,1.75-1.11,3.15-1.51,6.53-1.15,9.85l1.24-2.16-.2.11,1.93-.25.94.84-.08-.46c0-.24-.08-.49-.11-.73-.08-.62-.12-1.25-.14-1.87-.05-1.32.01-2.64.15-3.96.26-2.52.83-5.01,1.34-7.49,1.1-5.34,2.3-10.67,3.57-15.97.48-1.98-1.21-3.39-3.08-3.08-2.13.36-3.91,2.14-4.35,4.24-.26,1.22.26,2.33.11,3.52-.12.98-.56,1.98-.8,2.94-.56,2.32-.89,4.72-.98,7.1s-.13,4.76,1.59,6.52c2.25,2.31,5.78-1.23,3.54-3.54-.24-.24-.15-1.05-.15-1.36,0-.77.01-1.55.06-2.32.1-1.72.37-3.4.77-5.08s1.07-3.21.97-4.9c-.06-1.04-.73-2.1.58-2.32l-3.08-3.08c-1.58,6.55-3.07,13.13-4.33,19.75-.59,3.11-1.08,6.3-.89,9.47.09,1.55.11,3.55.9,4.92.89,1.55,2.67,2.2,4.27,1.3.7-.39,1.33-1.32,1.24-2.16-.32-2.94-.01-5.74.97-8.52l-4.82-1.33c-1.17,3.63-1.79,7.4-2.33,11.17-.58,4.05-1.03,8.11-1.32,12.19s-.41,7.86-.41,11.8.1,7.54-.87,11.21c-.82,3.11,4,4.44,4.82,1.33h0Z"/>
  <path class="cls-3" d="M163.53,442.31c2.33,1.63,5.1,2.49,7.85,3.11,2.92.65,5.86,1.25,8.8,1.76,6.38,1.1,12.83,1.51,19.3,1.58,12.91.13,25.85-.35,38.76-.59,3.42-.06,6.82-.04,10.14-.99,3-.86,5.93-2.27,9.11-2.2s3.2-4.85,0-5c-10.95-.51-21.78,1.45-32.68,2.04-5.46.3-10.91.09-16.37-.14-5.44-.23-10.89-.43-16.33-.7-5.97-.3-11.93-.79-17.76-2.14-3.13-.72-4.47,4.1-1.33,4.82,10.69,2.47,21.81,2.45,32.71,2.91,5.54.23,11.09.55,16.63.36s10.91-.79,16.34-1.32c6.24-.61,12.5-1.12,18.78-.83v-5c-2.91-.06-5.64.82-8.37,1.73s-5.28,1.36-8.16,1.42c-6.37.12-12.74.23-19.11.34-12.38.22-24.99,1.02-37.3-.63-3.43-.46-6.83-1.18-10.21-1.89-2.91-.61-5.81-1.22-8.28-2.95-1.11-.77-2.78-.2-3.42.9-.73,1.25-.21,2.64.9,3.42h0Z"/>
  <path class="cls-3" d="M158.67,481.13c3.28.03,6.5.93,9.72,1.48s6.51,1.02,9.78,1.43c6.58.82,13.2,1.35,19.82,1.7s12.95.51,19.43.63,13.31.3,19.96.17c3.73-.07,7.46-.28,11.16-.77,3.08-.4,7.58-.73,7.72-4.79.11-3.22-4.89-3.21-5,0,.03-.99.89-.89-.2-.63-.65.16-1.32.24-1.98.34-1.54.23-3.09.39-4.65.52-3.07.25-6.16.34-9.24.36-6.24.04-12.49-.1-18.73-.21-12.38-.23-24.77-.69-37.08-2.16-3.39-.4-6.77-.9-10.13-1.48s-7.01-1.54-10.57-1.57c-3.22-.03-3.22,4.97,0,5h0Z"/>
  <path class="cls-3" d="M242.96,484.29c5.79-.22,11.54-1.09,17.22-2.23,2.78-.56,5.54-1.19,8.3-1.83,2.37-.55,6.76-1.35,5.59-4.89-1-3.04-5.83-1.74-4.82,1.33l.08.25v-1.33l-.06.24.64-1.1c-.24.3-2.14.54-2.76.68-1.1.26-2.21.51-3.31.76-2.29.52-4.58,1.01-6.89,1.44-4.62.88-9.28,1.5-13.99,1.68-3.21.12-3.22,5.12,0,5h0Z"/>
  <path class="cls-3" d="M265.58,443.55c2.43,2.33,4.61,4.65,5.89,7.81s2,6.65,2.78,9.99,1.2,6.92,1.46,10.48.74,7.15,2.31,10.48c.58,1.22,2.33,1.54,3.42.9,1.25-.73,1.48-2.2.9-3.42-1.42-3.01-1.51-6.44-1.74-9.7-.27-3.89-.93-7.67-1.85-11.46-.83-3.46-1.66-6.91-3.11-10.16s-3.91-5.95-6.52-8.45c-2.32-2.23-5.86,1.3-3.54,3.54h0Z"/>
  <path class="cls-3" d="M282.39,529.4c.91-1.69,1.22-3.45,1.45-5.34.21-1.75.38-3.51.5-5.26.25-3.7.13-7.47-.91-11.05-.89-3.08-5.72-1.77-4.82,1.33s.95,6.2.76,9.35c-.1,1.6-.26,3.2-.43,4.8-.13,1.23-.26,2.54-.85,3.65-1.52,2.83,2.79,5.36,4.32,2.52h0Z"/>
  <path class="cls-12" d="M433.71,352.84c-1.37,2.14-2.04,4.61-2.69,7.04-.75,2.77-1.47,5.56-2.04,8.37-1.14,5.65-1.6,11.37-.49,17.06.47,2.43,4.28,2.34,4.82,0,1.25-5.38,2.13-10.84,2.64-16.34.25-2.64.41-5.28.47-7.93.06-2.26-.2-4.79.94-6.83l-4.57-1.93c-1.4,4-2.8,8.02-3.73,12.16s-1.27,8.19-1.18,12.37c.2,8.74.63,17.48.95,26.22.12,3.21,5.12,3.22,5,0-.32-8.58-.71-17.16-.94-25.74-.11-4.06.16-8,1.09-11.97s2.28-7.85,3.63-11.71c.94-2.69-3.2-4.37-4.57-1.93s-1.54,4.91-1.59,7.53c-.05,2.78-.16,5.55-.38,8.33-.45,5.54-1.34,11.03-2.59,16.45h4.82c-.96-4.93-.43-10,.58-14.87.52-2.5,1.16-4.98,1.82-7.44.58-2.18,1.08-4.39,2.31-6.3,1.74-2.72-2.58-5.23-4.32-2.52h0Z"/>
  <path class="cls-12" d="M428.64,402.92c.42,7.39.83,14.79.48,22.19-.17,3.62-.52,7.23-1.19,10.79s-1.71,7.3-2.08,11.04c-.13,1.35,1.25,2.5,2.5,2.5,1.46,0,2.37-1.15,2.5-2.5.36-3.6,1.46-7.1,2.08-10.66s1.02-7.43,1.2-11.17c.35-7.4-.06-14.8-.48-22.19-.18-3.2-5.18-3.22-5,0h0Z"/>
  <path class="cls-12" d="M432.48,418.17c.44,5.55-.63,10.94-2.21,16.23s-3.63,10.92-5.5,16.36c-.8,2.34,2.54,4.27,4.18,2.43,2.53-2.85,3.75-6.4,4.72-10.03,1.03-3.85,1.76-7.76,2.25-11.71,1-7.94.62-15.74-.38-23.65-.59-4.64-.71-9.29-.31-13.96.12-1.35-1.23-2.5-2.5-2.5-1.45,0-2.38,1.15-2.5,2.5-.43,4.99-.22,9.93.43,14.89s1.01,9.65.88,14.53-.67,9.55-1.66,14.23c-.47,2.24-1.02,4.48-1.71,6.67-.61,1.97-1.38,3.93-2.77,5.49l4.18,2.43c1.92-5.58,3.98-11.14,5.63-16.81s2.71-11.32,2.25-17.11c-.11-1.35-1.07-2.5-2.5-2.5-1.27,0-2.61,1.15-2.5,2.5h0Z"/>
  <path class="cls-12" d="M340.17,515.96c5.08-1.16,10.19-2.24,15.24-3.52s9.28-3.36,14.03-4.75c4.48-1.31,9.07-2.2,13.53-3.57,2.28-.7,4.52-1.54,6.67-2.57,1.99-.95,4.21-2.11,5.12-4.25s-.55-4.06-2.82-3.67c-11.49,1.98-21.91,7.7-31.47,14.15-1.44.97-1.55,2.62-.51,3.93.77.96,2.13,1.25,3.28.91,3.08-.9,1.77-5.73-1.33-4.82l.19-.05,1.26.34.14.09-.51,3.93c9.24-6.24,19.16-11.74,30.27-13.65l-2.82-3.67c-.71,1.66-3.16,2.43-4.71,3.07-2,.83-4.09,1.47-6.18,2.05-4.22,1.17-8.52,2.03-12.7,3.34-4.46,1.39-8.68,3.36-13.24,4.49-4.91,1.21-9.85,2.28-14.78,3.4-3.14.72-1.81,5.54,1.33,4.82h0Z"/>
  <path class="cls-12" d="M367.04,503.22l-2.66.89,1.93,4.57c2.22-1.58,4.69-2.61,7.21-3.6,2.79-1.1,5.59-2.17,8.4-3.2,5.63-2.07,11.31-3.99,17.03-5.79,3.06-.96,1.75-5.79-1.33-4.82-5.88,1.84-11.71,3.82-17.49,5.95-2.81,1.04-5.61,2.11-8.4,3.21s-5.52,2.2-7.95,3.93c-1.01.72-1.55,1.92-1.02,3.12.48,1.08,1.75,1.85,2.95,1.45l2.66-.89c3.04-1.01,1.74-5.84-1.33-4.82h0Z"/>
  <path class="cls-12" d="M432.28,427.36c.36,1.81.52,3.7.28,5.53-.22,1.66-.84,3.24-1.45,4.79-1.34,3.41-2.55,6.9-4.38,10.08-1.6,2.8,2.72,5.32,4.32,2.52,2.1-3.66,3.5-7.72,5.03-11.65,1.62-4.16,1.89-8.23,1.02-12.61-.26-1.33-1.84-2.09-3.08-1.75-1.38.38-2.01,1.75-1.75,3.08h0Z"/>
  <path class="cls-12" d="M433.74,432.65l.67-8.46c.16-2.05-2.94-3.46-4.27-1.77-1.74,2.22-1.98,4.68-2.33,7.39s-.7,5.28-1.15,7.91c-.91,5.28-2.17,10.57-4.45,15.44-.57,1.22-.34,2.7.9,3.42,1.08.63,2.84.33,3.42-.9,2.28-4.87,3.74-10.01,4.72-15.29.48-2.61.86-5.24,1.21-7.87.18-1.35.33-2.71.53-4.06.11-.77.19-1.86.69-2.5l-4.27-1.77-.67,8.46c-.11,1.35,1.23,2.5,2.5,2.5,1.44,0,2.39-1.15,2.5-2.5h0Z"/>
  <path class="cls-12" d="M429.75,360.16c.37,5.1.83,10.2,1.1,15.3s-.47,9.92-.79,14.93c-.64,9.98-.03,20.23,2.11,30,.69,3.14,5.51,1.81,4.82-1.33-2.08-9.5-2.58-19.47-1.9-29.16.34-4.84,1.01-9.57.76-14.44s-.72-10.2-1.1-15.3c-.1-1.35-1.08-2.5-2.5-2.5-1.28,0-2.6,1.15-2.5,2.5h0Z"/>
  <path class="cls-12" d="M434.23,348.93c-1.41,2.12-1.84,4.58-2.15,7.06-.32,2.63-.57,5.28-.8,7.92-.48,5.47-.8,10.96-.83,16.46s.31,10.98.86,16.45,1.05,10.9.94,16.4c-.12,6.14-.64,12.29-.15,18.43.11,1.35,1.07,2.5,2.5,2.5,1.27,0,2.61-1.15,2.5-2.5-.43-5.33-.1-10.67.08-16,.18-5.32-.05-10.58-.58-15.88s-1.04-10.61-1.13-15.95.12-10.82.51-16.22c.22-2.95.49-5.89.79-8.83.26-2.49.35-5.17,1.77-7.31,1.78-2.69-2.55-5.2-4.32-2.52h0Z"/>
  <path class="cls-12" d="M433.92,348.11c-1.74,3.35-2.22,7.01-2.44,10.73-.24,4.07-.41,8.14-.61,12.2-.41,8.28-.81,16.55-1.2,24.83-.15,3.22,4.85,3.21,5,0,.37-7.95.76-15.89,1.15-23.84.2-3.97.39-7.95.6-11.92.16-3.22.31-6.57,1.83-9.49s-2.83-5.38-4.32-2.52h0Z"/>
  <path class="cls-4" d="M418.49,325.56c-2.78,2.1-4.13,5.06-4.95,8.38-.94,3.8-1.72,7.65-2.6,11.46-1.87,8.1-3.81,16.18-5.63,24.29-1.04,4.66-2.04,9.32-2.97,14.01-.26,1.32.38,2.7,1.75,3.08,1.23.34,2.81-.42,3.08-1.75,1.98-10.01,4.31-19.95,6.63-29.88,1.16-4.97,2.33-9.94,3.44-14.91.46-2.07.85-4.17,1.45-6.2.43-1.47,1.04-3.19,2.32-4.15,1.08-.81,1.64-2.16.9-3.42-.62-1.06-2.34-1.72-3.42-.9h0Z"/>
  <path class="cls-4" d="M406.07,379.23c-.01-3.79,1.12-7.38,2.33-10.94,1.27-3.76,2.5-7.5,3.3-11.39,1.6-7.79,1.96-15.8.99-23.69l-1.24,2.16c-1.07.64-.21-.53-.25.13,0,.1,0,.11.04.24.28.68-.11,1.99-.2,2.68-.34,2.43-.46,4.88-.49,7.33-.04,4.52.28,9.15-.48,13.63s-2.62,8.86-4.26,13.16c-1.78,4.66-3.56,9.31-5.34,13.97-.48,1.26.53,2.74,1.75,3.08,1.41.39,2.59-.48,3.08-1.75,1.57-4.11,3.15-8.22,4.72-12.34s3.21-7.9,4.28-12.01c2.14-8.21.59-16.71,1.76-25.03.31-2.2.39-4.59-1.23-6.34-1.51-1.64-3.93-2.25-5.9-1.06-.69.41-1.34,1.31-1.24,2.16.96,7.75.67,15.64-1,23.28s-5.64,14.84-5.61,22.74c.01,3.22,5.01,3.22,5,0h0Z"/>
  <path class="cls-4" d="M368.47,335.2l12.6-8.65,6.1-4.19c2.01-1.38,4.34-2.65,5.93-4.52,1.51-1.77.39-3.98-1.77-4.27-2.58-.34-4.85,1.09-6.81,2.58-2.16,1.65-4.47,2.96-6.83,4.3-4.54,2.59-8.59,5.91-11.84,10.01-.7.88-1,1.99-.39,3.03.53.91,1.79,1.51,2.82,1.15,3.52-1.22,5.97-3.92,8.84-6.15s6.1-4.21,9.44-5.65c1.6-.69,3.34-1.24,5.09-1.22s3.32.78,4.82,1.59c2.98,1.6,5.78,3.51,8.03,6.06,2.75,3.12,3.91,7.25,6.29,10.61,1.11,1.57,3.22,1.64,4.32,0,1.45-2.16.79-4.76-.29-6.91s-2.42-4.18-3.83-6.1c-2.91-3.97-6.32-7.78-10.38-10.61-2.04-1.43-4.36-2.46-6.85-2.72-2.34-.24-5.21.35-6.42,2.61-1.6,3,1.23,4.94,3.47,6.27s4.54,2.42,6.84,3.57c4.5,2.25,9.25,4.75,12.03,9.13.98,1.54,3.37,1.69,4.32,0,3.04-5.47,7.45-9.97,12.87-13.11l-3.03-3.93c-5.55,4.66-8.5,11.01-9.69,18.04-.68,4-2,7.71-3.37,11.51s-2.83,7.87-4.25,11.81c-.46,1.27.52,2.74,1.75,3.08,1.39.38,2.62-.47,3.08-1.75,1.33-3.7,2.67-7.41,4-11.11s2.77-7.37,3.46-11.27c.58-3.3,1.14-6.52,2.7-9.52,1.46-2.81,3.44-5.21,5.86-7.25,2.21-1.86-.63-5.32-3.03-3.93-6.12,3.55-11.22,8.71-14.66,14.9h4.32c-4.43-6.99-12.15-9.82-19.09-13.6-.93-.51-1.85-1.04-2.74-1.61-.68-.44-.58-.66-.56.46.03,1.41-.18.65.48.68.86.04,1.51-.04,2.36.2s1.63.61,2.39,1.06c3.31,1.94,6.09,4.98,8.5,7.92,1.36,1.65,2.58,3.42,3.7,5.25.56.91,2.48,3.31,1.74,4.42h4.32c-2.3-3.25-3.54-7.11-5.98-10.28s-5.52-5.54-8.9-7.49c-3.75-2.18-7.52-3.55-11.89-2.58-3.94.87-7.76,3.06-11.1,5.28-1.92,1.27-3.75,2.68-5.49,4.18-1.47,1.27-2.94,2.72-4.82,3.37l2.43,4.18c2.91-3.66,6.39-6.67,10.44-9.01,2.12-1.22,4.3-2.34,6.27-3.8,1.54-1.14,3.17-2.89,5.23-2.62l-1.77-4.27c-1.43,1.68-3.53,2.78-5.33,4.02l-6.1,4.19-12.19,8.37c-1.11.76-1.61,2.2-.9,3.42.64,1.1,2.3,1.66,3.42.9h0Z"/>
</svg>