<?xml version="1.0" encoding="UTF-8"?>
<svg id="Calque_1" data-name="Calque 1" xmlns="http://www.w3.org/2000/svg" viewBox="0 0 361.53 568.48">
  <defs>
    <style>
      .cls-1 {
        fill: #938849;
      }

      .cls-2 {
        fill: #6d8775;
      }

      .cls-3 {
        fill: #807461;
      }

      .cls-4 {
        fill: #74ba87;
      }

      .cls-5 {
        fill: #444030;
      }

      .cls-6 {
        fill: #5c5f44;
      }

      .cls-7 {
        fill: #8c9e92;
      }

      .cls-8 {
        fill: #79ef9b;
      }

      .cls-9 {
        fill: #73b084;
      }

      .cls-10 {
        fill: #e5c933;
      }

      .cls-11 {
        fill: #6a8672;
      }

      .cls-12 {
        fill: #555139;
      }

      .cls-13 {
        fill: #e6a534;
      }

      .cls-14 {
        fill: #64816d;
      }
    </style>
  </defs>
  <path class="cls-11" d="M239.07,153.69c-.13.1.08,2.26-1.5,2.88-1.29.51-2.88-.11-3.98.14-.56.13-1.37.74-2.74,1,.91,2.91-5.58,2.59-8.21,3.01-2.82.46-6.35.47-9.13,1-.26.05-1.73,1.34-4.56,2.01-11.45,2.68-24.77,2.2-36.51,2.01-3.11-.05-1.77-.19-4.37-.81-2.36-.56-7.05,2.95-6.58-1.2-1.34.31-2.36.96-3.88.78-5.82-.66-17.19-6.77-22.19-6.88-2.59-.06-3.67,1.4-5.88,2.08-.12.84-.05,2.1,0,3.01.23,4.35.11,5.84,0,10.04-.12,4.7.3,7.57.91,12.05.81,5.9,2.06,12.35,3.65,18.08,2.1,7.56,7.62,15.63,13.69,20.09.45.33,5.93,1.86,6.41,3.51,1.02,3.5-4.35,2.78-6.41,4.52-.09.32.1.73,0,1-.89,2.52-.97,6.35-4.61,4.57-.98-4.87-3.19-8.89-4.52-13.61-.09-.3.08-.69,0-1-5.93,2.97-6.01-2.13-8.21-6.03-2.01-3.56-2.05-3.21-4.56-6.03l-4.56,2.01c2.81,2.66,2.85,3.69,1.83,7.03-.15.5.1,1.39,0,2.01,2.49,4.36,6.11,7.76,8.6,12.14,1.52,2.67,3.68,9.71,4.67,10.97,1.14,1.45,3.56.14,3.88,3.73.38,4.26-4.59,19.35-5.21,24.98-2.9,26.6,6.36,56.71,8.14,82.79,2.52-.59,1.78,1.36,2.11,3.15,2.06,10.95,2.47,25.55.6,36.55-.45,2.66,1,2.78-2.71,2.49-.96,12.65-6.5,25.54-8.06,38.84-1.05,8.92-1.36,17.43-1.07,26.45-1.94.37-3.71-.78-5.47-1.01-.21-.03-1.04.98-2.08.73-7.56-1.81-14.57-10.44-20.73-14.79.36,1.71-.47,3.77.47,6.01,1.25,2.98,15.62,11.89,18.99,13.26,2.11.86,8.36,1.69,8.71,1.99.46.39,0,1.66.13,1.84.24.31.6.59.91,1,.1.13,1.23-.53,1.84.69,1.78,3.58,2.62,14.74,5.01,20.4,2.37,5.63,6.66,11.88,9.58,18.08.31.65.62,1.35.91,2.01,1.84-.08,2.76.98,2.74,3.01.85,1.39,1.5,3.25,2.74,5.02,1.88-.28,2.09-.06,1.83,2.01,2.59,3.64,5.4,7.35,8.21,11.05,3.59.17,4.17,4.03,5.48,6.03,2.5,3.82,3.09,3.42,5.48,6.03,1.82.03,2.83.99,2.74,3.01,7.27,6.92,21.89,18.25,31.62,19.02,6.74.53,21.36-10.48,27.27-14.98,19.6-14.91,31.89-30.66,47.9-49.24-3.76.07-6.7-3.7-8.21-7.03-3.73,1.37-3.08,5.32-4.39,7.73-7.12,13.11-29.99,32.68-41.25,43.5-5.96,5.73-15.78,13.86-23.95,12.8-2.86-.37-4.82-1.93-7.09-2.76-6.52-2.38-15.39-5.43-18.25-13.05,1.33-1.43,6.1,6.37,8.21,3.01-13.78-12.86-24.09-23-34.68-39.17-10.84-16.55-16.09-25.21-17.33-46.72-.53-9.12,1.04-23.49,1.93-33.01.7-7.52,4.41-14.33,5.36-21.72.4-3.09-1.44-8.94,1.83-8.04-.04-.66.02-1.34,0-2.01-.22-9.79.4-20.42,0-30.63-.19-4.82-1.23-5.77-.9-11.56.06-1.07.16-5.79,0-6.03-.11-.16-1.3.1-1.82,0-.37-1.05.9-1.89.91-2,.08-1.33.22-7.72,0-8.04-.11-.16-1.3.1-1.82,0-.37-1.05.9-1.89.91-2,.14-2.25.05-4.76,0-7.03-3.77.48-1.11-2.49-.91-4.02.08-.6.09-2.9,0-3.01-.15-.18-1.29.11-1.82,0-.32-.9.92-1.88.91-2-.37-4.9-.85-8.86-.91-14.06-3.02,1.15-2.71-8.58,0-7.03-.13-7.99.37-16.14,0-24.11,0-.18-.77-.8-.84-1.6-1.18-12.47,3.52-3.74,8.42-1.22,1.71.88,16.59,6.84,17.52,6.84h15.06c-1.58,6.5-1.79,29.24,3.12,33.22,3.51,2.84,8.1.02,9.65-4.09,2.7-7.14,9.6-12,16.44-14.56,1.68-.63,8.45-3.29,7.1.78-.96,2.88-5.4,11.43-8.93,10.76-.97,1.86-3.3,2.99-3.63,6.62-.79,8.52,7.74,2.52,11.42,2.37,7.99-.32,17.67,9.29,25.59,12.04,7.12,2.47,12.39,1.98,19.1,3.08,6.93,1.14,13.76,3.01,20.81,3.21,1.69.52,3.62,4.04,4.29,5.82,1.67-.82-.35-5.43,3.09-3.91,1.31.58,3.11,4.19,5.12,5.92l.91-1c-.06-1.67.04-3.35,0-5.02-.7-.02-2.63.14-2.74,0-.6-.79-.13-4.14,1.54-4.83,5.89-2.4,14.96-2.13,21.02-5,10.1,3.63,15.88-.24,24.9-4.23,3.7-1.64,5.19-2.73,9.13-4.02-.56-2.62,1.78-2.48,3.65-3.01,1.69-1.99,2.4-1.91,3.65-5.02-3.36.29-2.5-2.86.91-2.01.05-.32-.03-.67,0-1,.22-2.14.2-5.88,0-8.04-3.38-.17-3.85-4.43-3.72-7.58.05-1.3.98-2.33.98-2.47.04-2.72.14-6.85,0-9.04-.04-.66.06-1.35,0-2.01-.78,0-1.29-.72-1.83-1-4.49-2.4-2.11-2.52-2.74-7.03-.29-2.1-.49-5.17-.91-7.03-2.95.12-3.12-3.5-3.65-6.03-.12-.58.11-1.39,0-2.01l-1.22-.03c-.81-2.93-6.01-3.21-5.17.03.32,1.01.09,3.07.62,4.81,3.05,9.85,13.92,38.3,9.88,47.43-1.06,2.4-3.3,1.5-4.12,2-26.53,16.08-68.98,19.54-97.86,9.76-4.93-1.67-9.73-5.22-14.18-6.5-4.69-1.35-10.85-1.23-15.74-3.27-1.29-1.63,6.89-14.98,7.18-17.77.18-1.72-1.38-1.81-1.7-2.31h-3.65c-1.47,0-3.17-.18-4.56,0,.53,2.56-1.2,1.98-2.64,2.57-5.92,2.41-10.57,5.75-16.53,8.48-2.11.97-2.26.42-3.65,3.01-.28.52.55,1.67-.46,2.02-2.49.86-2.14-.24-2.28-2.02-.5-6.42-2.47-11.92-1.82-18.59.51-5.25,4.09-8.82,4.42-12.31.84-8.84-10.09-.73-12.22-.29-4.39.92-19.55-1.81-23.76-3.9-1.38-.69-2.56-1.03-2.21-3.08,4.75.77,8.76-2.22,12.79-4.5,3.79-2.15,14.68-11.9,16.14-12.37,4.92-1.62,12.6,2.45,16.7-.75.94-.73.72-2.24.92-2.47.39-.47,4.02,1.08,0-3.01v3.01c-1.82.27-2.36-1.63-4.13-1.98-2.82-.57-9.22,1-11.19-1.28-.43-.5-.06-1.56-.19-1.76-2.06-3.13-5.54-1.95-9.32-3.31-13.2-4.73-20.12-10.58-29.93-20.8-3.89.79-2.34-1.39-2.74-2.01-1.43-2.22-3.16-3.8-4.56-6.03-4.47-1.85-3.41-3.95-4.56-8.04-.09-.3.08-.69,0-1-.03-.11-.58-1.03-.91-2.01-.18-.53.2-1.82,0-2.01-.24-.23-1.62.22-1.82,0-.57-.64.9-1.89.91-2,.11-1.65-.03-3.36,0-5.02-2.76.56-1.77-1.54-1.83-3.47-.22-7.2.16-14.45,0-21.64,1.63.33,6.88-.34,6.38,3.01,1.58.26,3.12.8,4.56,1,8.13,1.12,16.92,2.73,25.43,4.71,1.62.38,3.4-.45,2.86,2.32,20.06,1.26,35.99-2.84,54.99-7.29,3.95-.93,8.31-3.48,12.25-3.68,3.16-.16,5.79,1.2,8.99.95,2.67-.21.94-2.6,1.36-4.04-.09-.05.31-1.36-.66-1.99-.76-.49-10.74-3.41-11.21-3.04ZM152.86,239.64c.82-1.58,3.64-6.77,5.26-6.48.8.15,12.36,7.24,14.34,8.43.72.44,2.46.15,1.79,1.97-1.28,3.47-10.36,8.25-13.7,10.08-.84.46-2.63.38-2.72.49-.37.42,1.33,3.61.91,4h-11.86c-.42-1.82,1.25-2.34,1.59-3.76,1.35-5.49,1.88-9.93,4.38-14.74Z"/>
  <path class="cls-2" d="M234.5,136.61c-.25.02-1.15,1.09-1.83,1,.26,3.12.18,5.3,2.11,8.77.27.48,1.49.18,1.54.27-.52-3.1,1.39-1.78,3.14-2.04,6.29-.91,18.18,2.81,24.71,5.04,8.96,3.06,21.44,9.8,29.27,15,24.93,16.57,40.61,60.67,49.67,89.48-.83-3.24,4.36-2.96,5.17-.03l1.22.03c-3.61-20.87-9.28-29.81-15.52-48.21-.1-.29.09-.7,0-1-2.59.64-2.04-2.13-2.74-4.02-.96-2.61-1.78-5.42-2.74-8.04-2.6.61-2.87-3.82-3.65-6.03-.1-.29.1-.71,0-1-2.27.49-3.03-2.97-3.65-5.02-3.92-4.57-7.69-8.77-11.87-13.06-1.86,0-2.74-1.01-2.74-3.01-12.07-11.88-19.41-14.78-34.68-20.09-1.71-.59-3.26-1.89-3.65-2.01-.51-.16-1.31.16-1.83,0-6.13-1.84-12.91-3.98-19.17-5.02-1.4-.23-3.1.17-4.56,0-.6-.07-1.23.06-1.83,0-2.11-.19-3.77-1.26-6.39-1Z"/>
  <path class="cls-12" d="M30.05,250.12c2.13.28,3.75-.42,3.65-3.01,1.55-.96,1.96-1.21,3.65-2.01,4.84-2.27,7.94-3.35,13.24-4.06,1.71-.23,3.7,1.26,3.19-1.97,1.71-.05,3.84-.2,5.48,0l.91,5.02c-3.95-.34-9.44,1.61-13.69,1.5,4.93,3.81,9.31,8.8,12.35,14.54,1.42,2.69,4.68,13.42,5.19,13.92.63.63,1.85,0,2.54.17.23.06.62.93,1.37.93.73,0,1.24-.93,1.37-.93,1.9.06,4.04-.29,5.87.06,2.55.5,4.53,3.21,6.87,2.45,1.94-.63,10.82-11.45,11-14.56.79.29,3.38-.33,3.66,0,.31.36-.26,3.87,0,5.03-2.34,4.74-6.25,7.84-9.13,12.05l-.91,1v1c-.5-.04-1.54,1.32-3.65.6-2.41-.82-4.38-3.95-7.82-4.55-5.05-.89-14.5,1.55-16.8,6.91-.5.39-.97.83-1.41,1.3-.41.27-.72.71-.98,1.18-.48.64-.91,1.34-1.32,2.09,0,0,0,0,0,0-1.08.8-2.13.27-2.7.5-.81-5.51,6.93-10.46,7.33-13.62.94-7.31-11.5-24.27-17.38-28.12-3.85-1.85-24.84,24.25-21.9,31.7,4.7-1.76,26.15,11.12,27.39,14.06.75,1.78-1.91,3.81,3.66,3.01v1c-.13.33-.26.66-.39.99-.51.63-.99,1.28-1.43,1.98-1.53-.09-3.6-.31-4.57-.96-.48-.32-1.91-2.99-3.22-4-6.46-4.99-13.42-9.84-21.42-11.07-.13,10.62,2.22,21.14,8.23,29.6,1,1.4,9.8,11.25,10.49,11.57,1.89.87,1.26-1.43,1.35-2.5.63-8.37,2.39-13.01,3.66-20.59,2.78-.49,1.84,1.28,1.58,3.23-.37,2.78-1.38,5.52-1.57,8.34-.29,4.34.5,9.45-.02,13.54-.19,1.52-1.29,2.81-2.74,3.01-4.79.68-13.92-8.96-16.82-13.13-15.16-21.72-12.24-49.19,5.87-67.23Z"/>
  <path class="cls-6" d="M298.4,341.52c-2.01-1.73-3.81-5.34-5.12-5.92-3.44-1.52-1.42,3.09-3.09,3.91.46,1.21.53,2.75.91,4.02.3-.02.61.03.91,0,.1,0,.71-1.44,1.82-1,.06.65-.07,1.35,0,2s-.06,1.35,0,2.01c2.7-.47,1.63.77,1.83,3.01.06.65,0,1.35,0,2.01,5.43,1.11.2,1.84,0,2.01-1.57,1.35-5.47,8.03-6.39,10.04-1.13,2.49-2.69,6.43-3.65,9.04-13.84,37.6-22.42,87.22-5.48,124.55,1.51,3.33,4.46,7.1,8.21,7.03,2.6-3.01,5.05-4.73,8.21-9.04.27-3.25.21-3.31-2.74-3.01-1.7,1.84-2.43,3.65-5,5.06-.92.5-.7,1.68-1.8-.08-3.25-5.15-9.6-29.15-8.71-35.12-4.26.2-1.85-6.82-1.83-9.04.13-13.62.2-27.25,4.56-40.18-4.08-2.7-3.51-5.52.91-7.03,1.1-5.36,2.93-10.56,4.34-15.82.69-2.6.25-5.29,1.33-8.58,1.91-5.79,6.82-12.61,8.21-19.08.93-2.6,4.96-3.41,6.28-1.05.97,1.75,6.23,20.42,6.83,23.38.44,2.19.41,3.9.4,6.08l2.74-1c-.83-6.44-.7-11.1-2.48-17.86-2.43-9.23-8.9-20.57-10.3-29.35-.38-.23-.6-.74-.91-1Z"/>
  <path class="cls-12" d="M93.95,289.29l-3.64.48c5.44,12.08,9.33,28.55,8.19,42.19-.42,5.03-1.91,12.29-2.72,17.59-.1.63.1,1.39,0,2.01-.75,4.58-2.39,9.18-3.38,12.59-3.39,11.63-9.97,23.94-3.92,35.62h3.65c.28-1.13,7.3-7,8.98-9.71,3.16-5.09,6.6-13.64,8.37-19.42.9-2.96,1.26-9.81,3.65-9.04.01-.67.01-1.34,0-2.01,0-.14-.96-1.12-.95-2.43.07-8.62,2.16-17.47.04-25.7-1.23,7.8-5.02,16.33-3.66,25.11-15.17-7.01-4.11-24.75-6.38-38.16l10.95,1c0-1.33.06-2.69,0-4.02-12.11-1.3-12.79-3.42-15.52-15.07-2.97.54-3.01-6.16-3.65-9.04-.13-.59.15-1.47,0-2.01ZM100.33,357.59c5.41,6.9,9,2.88,3.54,15.45-3.43,7.89-5.99,13.14-11.75,18.71-.28.27.7,3.12-1.82,2.01-.14-.62.15-1.54,0-2.01-3.74-11.34,5.06-16.93,5.48-25.11,0-.11-1.41-1.47-.91-2,.22-.23,1.58.22,1.82,0,.07-.07.07-1.56,0-2.01-.02-.11-1.51-1.31-.91-2,.2-.23,1.55.23,1.82,0,.11-.1.58-2.2.91-3.01.38-.92-.89-2.49,1.36-2.02.98-.08.23,1.71.47,2.02Z"/>
  <path class="cls-2" d="M45.57,327.46h-1.83c-.19,1.52-1.29,2.81-2.74,3.01l3.65,12.05c-17.41-4.49-26.73-16.09-34.22-33.14-1.59-3.62-.29-4.9-3.19-8.04-.13-.14-1.19.56-1.83-.7-.97-1.89-.47-5.59-1.12-7.61-.52-1.61-2.13-2.16-2.51-4.26-1.33-7.44,1.72-18.14-.93-25.6-2.75,27.65.31,57.95,22.36,76.34,6.39,5.33,23.02,12.75,30.54,8.5,5.2-2.94-2.85-8.4-4.56-11.99-.6-1.26-3.5-8.11-3.62-8.57Z"/>
  <path class="cls-12" d="M239.07,33.15c-2.73.71-2.13,1.15-2.74,3.01,5.91,3.73,5.87,11.23,8.32,16.46,4.29,9.21,11.89,19.94,13.37,30.49.92,6.56-2.55,15.1,6.6,11.31l1.83,48.21c.52.16,1.32-.16,1.83,0,2.16-2.39,0-5.28,0-6.53v-48.21c0-4.31-3.83-1.37-4.95-1.61-.9-.19-5.46-15.7-6.75-18.66-3.35-7.66-8.45-18.26-12.28-25.67-1.39-2.7-4.19-4.25-4.32-7.8-.3-.35-.61-.67-.91-1Z"/>
  <path class="cls-11" d="M180.65,126.57c-.11,0-.61,1.01-2,.85-5.49-.65-9.81-6.3-16.55-2.63-1.53.84-1.21,3.33-3.36,2.79-.14.52.1,1.38,0,2.01,1.79,2.83-.09,6.71,4.56,6.03-.15-2.77-.78-6.56,2.3-7.08,3.58-.61,15.96,4.82,20.51,5.07,2.36-2.84,1.69.87,1.83,1,2.12,2.05,7.41,2.4,10.04,3.01.04-1.86.89-3.38,2.73-3.01.16,1.37.65,2.67.92,4.01,1.5,7.38-2.76,5.67-8.21,6.03l.91,5.02c3.75-1.27,9.65-1.96,13.69-3.01,0-1.78,1.84-4.47,2.74-6.03-.31-.49.75-2.62-1.83-4.02-1.83-.99-1.3,1.77-2.74-2.01-.19-.51-.79-.73-.91-2.01-1.78-.72-3.83.81-5.08.88-.16,0-.28-1.05-2.23-1.89l-.53.76c-2.18-.74-5.71.19-4.94-2.77-1.2-.38-2.42-.75-3.65-1-1.58,1.71-2.1,1.37-1.83-1-.55-.06-1.29-.07-1.83,0-.93.13-3.16,3.05-2.74-1-.61,0-1.22,0-1.83,0Z"/>
  <path class="cls-3" d="M186.13,18.09c-.14.03-.28.05-.41.05-.34-1.23-.86-2.39-1.55-3.45-.15-1.09-.51-2.17-1.01-3.17-.16-.33-.35-.61-.54-.87-1.44-6.63-3.06-13.16,5.84-9.69,18.53,7.24,24.68,34.27,32.82,51.3.97,2.04.38,2.45,3.18,1.98-.12.18-1.77,3.8-1.83,4.02l-2.74-1c.69-1.1-5.25-18.71-6.33-20.41-.9-1.41-3.99-2.22-5.54-2.7-3.77-8.46-10.02-25.56-20.08-26.12-.91-.05-1.83,0-2.74,0-.3.38.67,8.85.91,10.05Z"/>
  <path class="cls-14" d="M6.32,237.06c-.23.76.22,2.21,0,3.01-1.45,5.37-2.72,10.05-3.63,15.64-.3,1.87,1.04,4.02-1.85,3.44-.15,1.29.13,2.72,0,4.02,2.64,7.46-.41,18.16.93,25.6.38,2.11,2,2.66,2.51,4.26.65,2.02.15,5.72,1.12,7.61.65,1.25,1.7.55,1.83.7-.02-19.15-4.2-45.07,5.12-62.17,1.37-2.51,4.01-5.89,5.83-8.15-4.83-2.77-7.27,5.28-11.87,6.03Z"/>
  <path class="cls-2" d="M63.83,192.86c.15.01,1.01.95,2.21,1.05,3.33.26,6.76-.26,10.11-.05l-.45,4.02c.14,0,1.27.9,2.74,1-.11-3.48-.57-2.79,2.25-3.03,10.74-.89,32.46,8.33,40.65,16.08l4.56-2.01c-8.57-9.61-38.49-21.07-50.55-19.96-3.38.31-8.19,1.79-11.52,2.89Z"/>
  <path class="cls-14" d="M62,192.86c.52,4.25-2.68,1.11-3.65,1-.59-.06-1.23,0-1.83,0-.03.56.22,1.7-.05,1.93-.36.32-7.57,1.73-9.08,2.09-.8.19-1.92-.18-2.74,0,.57,2.79-1.88,2.31-3.65,3.01-1.95.78-2.76,1.15-4.56,2.01.58,2.85-1.93,2.26-3.65,3.01-.27.12-.67-.12-.91,0-.32,1.68-.6,3.45-1.44,4.94-2.43,4.32-8.54,10-10.51,13.63-1.02,1.88-.46,2.7.09,4.54,1.87-2.03,3.49-4.4,5.48-5.02,7.28-17.66,24.88-23.12,41.07-25.11-.89-2.92,3.02-2.75,4.56-1,1.51-.06,3.05-.03,4.56,0l.45-4.02c-3.34-.21-6.77.31-10.11.05-1.2-.09-2.05-1.03-2.21-1.05-.6-.05-1.22.05-1.83,0Z"/>
  <path class="cls-2" d="M344.03,321.43c-9.01,4-14.8,7.86-24.9,4.23-6.06,2.86-15.13,2.6-21.02,5-1.68.68-2.15,4.04-1.54,4.83.11.14,2.04-.02,2.74,0,18.53.52,23.9-.47,40.19-9.5,1.44-.8,4.84-2.25,4.53-4.56Z"/>
  <path class="cls-3" d="M309.35,390.74c0,1,0,2.01,0,3.01,1.27-.55,3.72,0,2.73,2.51-.6,1.53-2.31-.32-2.73,4.52-.76,8.64-.89,22.2-.91,31.14,0,2.17,2.29,11.85.68,13.87-.36.45-1.54.1-1.59.2-1.15,1.9.92,12.07.91,14.06,2.1-11.42,4.76-25.04,5.47-36.67.73-12-.37-22.4-1.82-33.64l-2.74,1Z"/>
  <path class="cls-3" d="M239.98,34.16c.13,3.56,2.93,5.11,4.32,7.8,3.82,7.41,8.93,18,12.28,25.67,1.29,2.96,5.85,18.46,6.75,18.66,1.13.24,4.95-2.7,4.95,1.61v48.21c0,1.25,2.16,4.14,0,6.53.39.12,1.94,1.42,3.65,2.01-.05-2.21-1.83-6.95-1.83-8.54v-51.73c0-.41-6.07-2.03-6.85-3.01-1.04-1.3-1.72-7.54-2.73-10.06-4.78-11.88-13.11-28.46-20.54-37.16Z"/>
  <path class="cls-11" d="M88.47,399.78h-1.83c.51,3.48,0,9.21,0,13.06,1.26,1.53,1.45,4.04,1.83,6.03.32,1.69.49,3.34.91,5.02,1.86-.29,2.1-.04,1.83,2.01.26.22,1.39,5.82,1.83,7.03l8.21,9.04c-.17-4.09-3.6-7.07-4.23-11.09-.36-2.28.6-2.83.58-2.98-1.18-8.29-7.63-19.47-5.48-28.12h-3.65Z"/>
  <path class="cls-14" d="M190.69,144.65c.33,2.95-.34,1.66-1.83,2.01-3.79.89-11.4,3.83-14.6,6.03-2.81,1.93-5.62,4.61-9.13,7.03-.09.06-.28,1.1-.91,2.01-.14.19.33,1.38-.14,1.85-.57.57-1.9,0-2.59.16-.47,4.15,4.22.63,6.58,1.2,2.61.62,1.27.76,4.37.81-.68-3.35.59-2.47,1.79-3.53,6.11-5.4,12.55-9.97,20.12-12.54l-.91-5.02c-.9.06-1.85-.11-2.74,0Z"/>
  <path class="cls-2" d="M6.32,237.06c4.6-.75,7.03-8.79,11.87-6.03.43-.54,1.28-1.42,1.83-2.01-.55-1.83-1.11-2.66-.09-4.54,1.97-3.63,8.09-9.31,10.51-13.63.84-1.49,1.12-3.26,1.44-4.94-11.65,5.86-21.55,17.7-25.56,31.14Z"/>
  <path class="cls-2" d="M165.14,159.71c3.51-2.42,6.32-5.11,9.13-7.03-6.93-.71-10.59-10.23-10.95-17.08-4.66.68-2.77-3.2-4.56-6.03-1.25,7.64-1.48,13.33,1.65,20.78,1.56,3.71,4.58,5.37,4.74,9.35Z"/>
  <path class="cls-6" d="M237.24,47.22c-3.14,2.04-6.86,3.03-10.04,5.02-1.21.76-1.3-.22-2.74,2.01-.12.18-1.77,3.8-1.83,4.02-.26,1.02.18,2.82,0,4.02,2.96-2.15,4.07-4.76,6.99-6.85,2.92-2.09,2.64-1.36,4.87-1.18,2.08.17,3.49-.75,4.56,2.01.29-1.77,1.87-3.21,1.61-6.33-.33-3.83-1.95-2.2-3.43-2.72Z"/>
  <path class="cls-7" d="M135.02,472.1c.34,12.82,5.75,26.52,12.92,36.5,1.02,1.42,1.55,2.7,3.51,2.67-2.92-6.2-7.21-12.45-9.58-18.08-2.39-5.66-3.23-16.82-5.01-20.4-.61-1.22-1.74-.56-1.84-.69Z"/>
  <path class="cls-3" d="M95.77,351.57c-2.73-.62-1.58,1.53-2.07,3.2-3.03,10.39-10.7,26.29-9.69,36.37.34,3.38,2.31,6.48,2.63,8.65h1.83c-6.05-11.68.53-23.99,3.92-35.62.99-3.41,2.63-8.01,3.38-12.59Z"/>
  <path class="cls-6" d="M307.52,445.99c-.99-6.14-2.5-.2-2.74,0,1.67,1.03.85,3.61.66,5.22-.91,7.65-3.14,15.13-3.39,22.9.24-.26,1.83-.17,2.78-1.42,1.43-1.89.96-4.9,2.7-6.62.22-2.04.9-3.58.91-6.03.01-2-2.06-12.16-.91-14.06Z"/>
  <path class="cls-3" d="M302.05,474.11c-1.09,1.16-1.24,3.86-1.83,5.02,2.16,1.98.47,6.26-1.35,8.1-.76.76-2.14.76-2.3.94-1.15,1.31-1.87,3.08-2.74,4.02,2.95-.3,3.01-.24,2.74,3.01.06-.08,1.15.26,1.86-.69,4.39-5.86,8.28-20.88,9.09-28.44-1.74,1.72-1.26,4.73-2.7,6.62-.95,1.25-2.54,1.16-2.78,1.42Z"/>
  <path class="cls-2" d="M129.54,159.71c2.22-.68,3.29-2.14,5.88-2.08,4.99.11,16.37,6.22,22.19,6.88,1.52.17,2.53-.47,3.88-.78.69-.16,2.02.41,2.59-.16.47-.47,0-1.66.14-1.85-9.36,3.62-21.21-5.77-29.7-6.09-2.99-.11-4.52.75-4.98,4.08Z"/>
  <path class="cls-2" d="M158.75,127.57c2.15.54,1.83-1.95,3.36-2.79,6.74-3.68,11.06,1.98,16.55,2.63,1.39.16,1.89-.84,2-.85-7.63-2.18-18.57-11.11-21.91,1Z"/>
  <path class="cls-2" d="M6.32,240.07c-2.03-.49-2.02,1.1-2.61,2.61-2.04,5.27-2.2,10.89-2.87,16.48,2.89.58,1.54-1.57,1.85-3.44.91-5.59,2.18-10.27,3.63-15.64Z"/>
  <path class="cls-2" d="M130.45,184.83c-1.93,4,.24,10.99,1.38,15.1.46,1.65-.14,3.55,2.27,2.98-1.59-5.73-2.84-12.18-3.65-18.08Z"/>
  <path class="cls-2" d="M147.8,223c2.82,2.9.92,4.64,0,8.04,2.06-1.75,7.43-1.02,6.41-4.52-.48-1.65-5.96-3.18-6.41-3.51Z"/>
  <path class="cls-3" d="M230.85,31.14c-1.18,2.43-1.52,9.91-.95,12.43.27,1.2,1.67.45,1.87.63-.2-3.81.31-7.77-.03-11.57-.15-1.62-.87-1.4-.89-1.49Z"/>
  <path class="cls-2" d="M129.54,172.77c.11-4.2.23-5.7,0-10.04-1.54,2.65-1.53,7.42,0,10.04Z"/>
  <path class="cls-2" d="M56.52,193.87c-2.03,0-10.05,1.45-9.13,4.02,1.5-.36,8.71-1.77,9.08-2.09.27-.23.02-1.37.05-1.93Z"/>
  <path class="cls-7" d="M167.88,534.38c1.22,1.61,1.89,6.03,5.48,6.03-1.31-1.99-1.89-5.86-5.48-6.03Z"/>
  <path class="cls-3" d="M230.85,29.14l4.56-1c-1.11-1.06-1.14-2.91-4.02-1.94-2.62.89-.6,2.66-.54,2.94Z"/>
  <path class="cls-7" d="M324.86,186.84c.78,2.21,1.06,6.63,3.65,6.03-.81-2.2-1.03-6.64-3.65-6.03Z"/>
  <path class="cls-2" d="M192.52,129.58c-.76,2.97,2.76,2.04,4.94,2.77l.53-.76c-2.24-.96-3.16-1.28-5.48-2.01Z"/>
  <path class="cls-7" d="M321.21,180.81c.62,2.05,1.38,5.51,3.65,5.02-1.79-5.41-2.01-3.11-3.65-5.02Z"/>
  <path class="cls-7" d="M86.64,412.84c0,1.16-1.95,6.52,1.83,6.03-.38-1.99-.56-4.5-1.83-6.03Z"/>
  <path class="cls-2" d="M44.66,197.88c-1.87.42-4.22.5-3.65,3.01,1.77-.7,4.22-.22,3.65-3.01Z"/>
  <path class="cls-2" d="M36.44,202.91c-1.68.8-4.24.1-3.65,3.01,1.72-.75,4.23-.16,3.65-3.01Z"/>
  <path class="cls-2" d="M58.35,193.87c.97.1,4.17,3.25,3.65-1-1.36-.11-2.6-.15-3.65,1Z"/>
  <path class="cls-7" d="M331.25,200.9c.7,1.89.14,4.66,2.74,4.02-.62-1.97-.22-4.64-2.74-4.02Z"/>
  <path class="cls-7" d="M356.81,314.4c-1.87.53-4.21.39-3.65,3.01,4.61-1.5,2.45-1.59,3.65-3.01Z"/>
  <path class="cls-7" d="M306.61,164.74c0,2.01.88,3.01,2.74,3.01-.71-.73-1.36-1.65-2.74-3.01Z"/>
  <path class="cls-7" d="M178.83,546.43c1,1.1,1.04,1.4,2.74,3.01.09-2.03-.92-2.99-2.74-3.01Z"/>
  <path class="cls-7" d="M152.36,513.28c1.65,3.66,2.62,2.81,2.74,3.01.02-2.03-.9-3.1-2.74-3.01Z"/>
  <path class="cls-2" d="M182.48,126.57c-.43,4.05,1.81,1.13,2.74,1-.44-1.26-1.74-1.02-2.74-1Z"/>
  <path class="cls-2" d="M361.37,307.37c-3.41-.85-4.27,2.3-.91,2.01.24-.59.72-.81.91-2.01Z"/>
  <path class="cls-7" d="M89.38,423.89c.93,3.69.85,1.18,1.83,2.01.27-2.05.03-2.3-1.83-2.01Z"/>
  <path class="cls-2" d="M298.4,341.52c.31.27.53.77.91,1-.02-.13.04-.97,0-2.01l-.91,1Z"/>
  <path class="cls-2" d="M187.04,127.57c-.28,2.38.24,2.72,1.83,1-.1-.02-.25-.83-1.83-1Z"/>
  <path class="cls-7" d="M157.84,521.32c1.34,1.93,1.72,1.86,1.83,2.01.26-2.07.06-2.29-1.83-2.01Z"/>
  <path class="cls-2" d="M361.37,298.33c-.3-3.23-.96-7.38-2.74-10.04,0,.13-.93,1.17-.98,2.47-.13,3.15.34,7.4,3.72,7.58Z"/>
  <path class="cls-8" d="M145.06,276.23c.37,7.97-.13,16.12,0,24.11.04,2.34-.03,4.69,0,7.03.06,5.2.55,9.16.91,14.06l.91,2.01c.09.11.08,2.42,0,3.01,1.37.7.88,2.7.91,4.02.05,2.27.14,4.78,0,7.03l.91,2.01c.22.32.08,6.71,0,8.04l.91,2.01c.16.24.06,4.95,0,6.03.99,2.06,2.74,8.66,2.74,10.55v23.1c0,1.17-1.2,7.05-1.83,8.54.02.67-.04,1.35,0,2.01.18,2.8.95,9.18-1.83,8.04-.96,7.39-4.66,14.2-5.36,21.72-.89,9.52-2.45,23.89-1.93,33.01,1.24,21.51,6.5,30.17,17.33,46.72l19.79,16.89c6.25,4.77,25.33,17.78,32,19.03,8.09,1.51,16.67-2.23,23.97,3.25,11.26-10.82,34.13-30.39,41.25-43.5,1.31-2.41.65-6.36,4.39-7.73-16.95-37.33-8.37-86.96,5.48-124.55-2.25.04-2.85-1.26-2.83-3.52.02-2.08,5.08-11.12,6.48-5.52.92-2.02,4.82-8.7,6.39-10.04,0-.67,0-1.34,0-2.01s.06-1.36,0-2.01c-2.69.47-1.64-.76-1.83-3.01-.06-.66.07-1.36,0-2.01l-1.83-1c-.3.03-.61-.02-.91,0-22.82,1.21-44.55-6.8-65.9-14.36-3.56-1.26-8.96-1.67-11.9-2.98-2.79-1.24-3.3-5.01-4.95-5.61-4.8-1.75-12.43-.98-18.55-3.69-7.19-3.18-5.49-5.82-8.76-10.45-1.73-2.45-4.08-4.22-5.71-6.78-1.58-2.49-2.57-6.93-4.22-8.41-2.04-1.84-5.33-1.5-7.54-2.75-5.87-3.34-12.02-9.63-18.51-12.27ZM265.54,364.62c3.51-.29,1.21,1.05.91,2.01-1.26,4.1-1.71,7.72-1.83,12.05-.06,2.33-.04,4.7,0,7.03.41,26.69-2.89,38.45-12.9,62.65-3.54,8.56-13.78,24.3-23.58,17.17-2.56-1.87-2.29-4.35-3.72-5.95-3.8-4.27-10.92-6.25-16.37-13.12-11.71-14.77-22.51-35.33-25.58-54.71-1.06-6.69-3.09-22.53-1.64-28.46.29-1.18,1.43-1.34,1.64-1.67.17-.27-.49-1.81.53-2.07,4.92-1.23,4.74,4.67,4.95,8.09.2,3.26-.32,6.88,0,10.04,2.4-.78,2.21,2.75,2.74,5.02.13.55-.09,1.37,0,2.01.01.11.83.25.91,2.01.03.62.08,1.43,0,2.01.93.29.78,1.19.91,2.01.94,5.66,12.9,23.98,16.87,29.14,3.18,4.13,20.32,23.14,24.46,21.95,1.16-.33,7.82-8.78,8.86-10.41,10.82-16.93,12.28-48.79,18.69-68.83.55-1.73,2.8-4.49,4.12-2.99.19.22-.06,3.89,0,5.02Z"/>
  <path class="cls-8" d="M250.93,158.71c-.42,1.44,1.31,3.84-1.36,4.04-3.2.25-5.83-1.12-8.99-.95-3.94.2-8.3,2.76-12.25,3.68-18.99,4.45-34.93,8.55-54.99,7.29-9.28-.58-19.81-2.95-28.29-7.03-1.45-.2-2.99-.75-4.56-1-.89-.15-3.31-1.34-3.64-1.01-1.55,7.56-.77,15.4-.92,23.11-.03,1.66.11,3.37,0,5.02l.91,2.01c.2.19-.18,1.48,0,2.01l.91,2.01c.08.31-.09.7,0,1,1.86,2.44,2.91,5.4,4.56,8.04,1.4,2.23,3.14,3.81,4.56,6.03,1.82-.24,1.96,1.2,2.74,2.01,9.81,10.22,16.73,16.08,29.93,20.8,3.77,1.35,7.26.17,9.32,3.31,6.59.82,10.12-3.49,15.52,2.01,4.02,4.1.39,2.55,0,3.01-.19.23.03,1.73-.92,2.47-4.1,3.2-11.78-.87-16.7.75-1.45.48-12.35,10.23-16.14,12.37-4.04,2.29-8.04,5.27-12.79,4.5-.35,2.05.84,2.39,2.21,3.08,4.21,2.1,19.36,4.82,23.76,3.9,2.13-.45,13.06-8.55,12.22.29-.33,3.49-3.91,7.05-4.42,12.31-.64,6.67,1.32,12.17,1.82,18.59h2.74c1.4-2.59,1.54-2.04,3.65-3.01,2.69-6.72,12.98-10.27,19.17-11.05,1.39-.18,3.1,0,4.56,0-.34-2.26.22-2.34,2.33-2.05,2.3.32.99,1.53,1.32,2.05s1.88.59,1.7,2.31c-.29,2.78-8.48,16.14-7.18,17.77,4.89,2.05,11.05,1.92,15.74,3.27,4.44,1.28,9.25,4.83,14.18,6.5,28.88,9.78,71.33,6.31,97.86-9.76.33-13.7-6.86-25.95-11.43-38.15-6.35-16.91-13.15-34.37-20.15-51.15-8.59-20.61-38.54-48.3-57.25-57.53-2.81-1.38-9.01-2.42-9.74-2.84ZM271.23,208.19c8.84,1.33,19.07,7.37,24.42,15.31,15.7,23.29-12.64,36.69-30.1,29.11-6.85-2.98-15.12-14.29-16.23-22.31-2.29-16.67,7.68-24.24,21.9-22.1Z"/>
  <path class="cls-9" d="M25.49,224c-1.98.62-3.61,2.99-5.48,5.02-.55.59-1.39,1.47-1.83,2.01-1.82,2.26-4.46,5.63-5.83,8.15-9.32,17.1-5.14,43.01-5.12,62.17,2.9,3.15,1.6,4.42,3.19,8.04,7.49,17.05,16.82,28.64,34.22,33.14l-3.65-12.05c-4.79.68-13.92-8.96-16.82-13.13-15.16-21.72-12.24-49.19,5.87-67.23,1.82-1.81,1.29-1.54,3.65-3.01,1.55-.96,1.96-1.21,3.65-2.01-.45-2.29,1.01-2.19,2.38-2.85,5.11-2.47,8.53-3.01,14.05-3.18,1.71-.05,3.84-.2,5.48,0,39.56,4.78,61.92,49.13,58.41,89.89-.52,6.02-2.93,12.87-3.52,19.22-.35,3.74.78,8.23-1.03,11.42.01.67.01,1.34,0,2.01-.05,2.22-1.4,10.02-3.65,9.04-1.77,5.79-5.2,14.34-8.37,19.42-1.68,2.7-8.7,8.58-8.98,9.71-2.15,8.66,4.29,19.83,5.48,28.12,5.82,9.71,13.58,17.43,20.98,25.63l10.05,8.53c1.77.23,3.53,1.38,5.47,1.01-.29-9.02.02-17.53,1.07-26.45,1.57-13.3,7.1-26.19,8.06-38.84.87-11.45.79-30.67,0-42.19-1.78-26.08-11.04-56.19-8.14-82.79.61-5.63,5.59-20.72,5.21-24.98-.32-3.59-2.74-2.28-3.88-3.73-.99-1.25-3.15-8.29-4.67-10.97-2.49-4.38-6.1-7.78-8.6-12.14-8.65-.99-17.35-3.2-26.02-4.01-25.68-2.38-46.96-.66-71.64,7.02Z"/>
  <path class="cls-4" d="M343.12,254.13c-9.06-28.81-24.74-72.91-49.67-89.48-7.83-5.2-20.3-11.94-29.27-15-6.54-2.23-18.43-5.94-24.71-5.04-1.74.25-3.66-1.06-3.14,2.04,1.1,1.85,2.77,4.97,2.74,7.03.47-.37,10.45,2.55,11.21,3.04.96.62.57,1.94.66,1.99.74.42,6.94,1.45,9.74,2.84,18.72,9.23,48.66,36.92,57.25,57.53,7,16.79,13.8,34.24,20.15,51.15,4.57,12.19,11.76,24.44,11.43,38.15.82-.5,3.06.4,4.12-2,4.04-9.13-6.83-37.59-9.88-47.43-.54-1.74-.31-3.8-.62-4.81Z"/>
  <path class="cls-4" d="M198,309.38c-1.56,4.11-6.15,6.94-9.65,4.09-4.91-3.98-4.7-26.72-3.12-33.22h-15.06c-.93,0-15.81-5.96-17.52-6.84-4.9-2.52-9.6-11.25-8.42,1.22.08.8.83,1.42.84,1.6,6.5,2.64,12.64,8.93,18.51,12.27,2.21,1.25,5.49.92,7.54,2.75,1.65,1.48,2.64,5.93,4.22,8.41,1.62,2.56,3.98,4.33,5.71,6.78,3.27,4.63,1.57,7.27,8.76,10.45,6.12,2.71,13.76,1.94,18.55,3.69,1.65.6,2.15,4.37,4.95,5.61,2.94,1.31,8.34,1.72,11.9,2.98,21.36,7.55,43.08,15.57,65.9,14.36-.38-1.27-.46-2.81-.91-4.02-.67-1.78-2.61-5.3-4.29-5.82-7.06-.2-13.88-2.07-20.81-3.21-6.71-1.1-11.98-.61-19.1-3.08-7.92-2.75-17.6-12.36-25.59-12.04-3.68.15-12.21,6.15-11.42-2.37.34-3.63,2.66-4.76,3.63-6.62.74-1.41,5.3-8.98,2.3-8.02-4.51,1.44-12.14,8.75-16.9,11.03Z"/>
  <path class="cls-8" d="M71.13,197.88c-.32.01-3.08.82-4.56,1-16.19,1.99-33.79,7.45-41.07,25.11,24.68-7.68,45.96-9.4,71.64-7.02,8.67.8,17.37,3.01,26.02,4.01.1-.62-.15-1.51,0-2.01-9.02-10.73-22.46-17.31-35.55-19.64-3.32-.59-6.03-.22-9.18-.45-1.47-.11-2.59-1-2.74-1-1.51-.03-3.05-.06-4.56,0Z"/>
  <path class="cls-9" d="M158.75,509.27c10.59,16.18,20.9,26.31,34.68,39.17,1.72,1.61,3.73,2.91,5.49,4.51,1.43,1.3,4.52,3.45,4.55,5.54,2.27.83,4.23,2.39,7.09,2.76,8.17,1.06,17.98-7.07,23.95-12.8-7.3-5.49-15.88-1.74-23.97-3.25-6.67-1.25-25.75-14.26-32-19.03l-19.79-16.89Z"/>
  <path class="cls-9" d="M194.34,149.67c-7.56,2.57-14.01,7.14-20.12,12.54-1.2,1.06-2.47.18-1.79,3.53,11.74.19,25.06.67,36.51-2.01.02-4.53-.02-9.07,0-13.61,0-1.46-.91-2.95-.92-3.47-4.04,1.05-9.94,1.74-13.69,3.01Z"/>
  <path class="cls-9" d="M152.86,239.64c-2.5,4.81-3.03,9.25-4.38,14.74-.35,1.42-2.01,1.94-1.59,3.76h11.86c.41-.39-1.29-3.58-.91-4,.1-.11,1.88-.03,2.72-.49,3.34-1.83,12.43-6.61,13.7-10.08.67-1.83-1.07-1.54-1.79-1.97-1.98-1.2-13.54-8.29-14.34-8.43-1.62-.29-4.44,4.9-5.26,6.48Z"/>
  <path class="cls-13" d="M213.51,142.64c-2.59,6.17.72,12.71,0,19.08,2.77-.54,6.31-.55,9.13-1-.75-3.33,5.71-2.53,8.21-3.01,1.37-.26,2.18-.88,2.74-1-1.19-1.8-4.06-12.64-4.58-13.06-.59-.48-4,1.98-5.88,2.03-2.19.07-7.66-1.75-9.62-3.04Z"/>
  <path class="cls-5" d="M228.12,132.59c-1.94.58-2.89,5.96-6.85,5.96-3.59,0-5.22-5.5-8.67-5.96-.91.96-2.45,1.73-3.65,2.01v2.01c2.58,1.4,1.52,3.53,1.83,4.02.09.15,2.3,1.72,2.74,2.01,1.96,1.29,7.43,3.11,9.62,3.04,1.88-.06,5.29-2.51,5.88-2.03.51.41,3.39,11.25,4.58,13.06,1.09-.25,2.69.37,3.98-.14,1.58-.62,1.37-2.78,1.5-2.88.04-2.06-1.64-5.18-2.74-7.03-.06-.09-1.28.21-1.54-.27-1.93-3.47-1.85-5.65-2.11-8.77-.14-1.74-.42-3.37-.91-5.02-1.1.19-2.7-.28-3.65,0Z"/>
  <path class="cls-14" d="M101.25,441.97c.26.38.64.65.91,1,2.65-.03,2.12,1.46,2.74,3.01.26.65.79,1.42.91,2.01,6.17,4.35,13.18,12.99,20.73,14.79,1.04.25,1.87-.76,2.08-.73l-10.05-8.53c-7.41-8.2-15.16-15.92-20.98-25.63.02.15-.94.7-.58,2.98.63,4.02,4.06,7,4.23,11.09Z"/>
  <path class="cls-14" d="M121.33,211.95c-8.19-7.76-29.91-16.97-40.65-16.08-2.82.23-2.36-.45-2.25,3.03,3.15.23,5.86-.14,9.18.45,13.09,2.33,26.53,8.91,35.55,19.64,1.03-3.35.99-4.37-1.83-7.03Z"/>
  <path class="cls-14" d="M143.23,355.58c.79,11.52.87,30.73,0,42.19,3.71.29,2.26.17,2.71-2.49,1.87-11,1.46-25.6-.6-36.55-.34-1.78.4-3.74-2.11-3.15Z"/>
  <path class="cls-14" d="M198,309.38c4.77-2.29,12.39-9.59,16.9-11.03,3-.96-1.56,6.61-2.3,8.02,3.53.66,7.97-7.88,8.93-10.76,1.36-4.07-5.42-1.41-7.1-.78-6.84,2.56-13.74,7.42-16.44,14.56Z"/>
  <path class="cls-6" d="M208.04,146.66c0,.52.92,2.01.92,3.47-.02,4.54.01,9.08,0,13.61,2.84-.66,4.3-1.96,4.56-2.01.72-6.38-2.59-12.92,0-19.08-.43-.29-2.64-1.86-2.74-2.01-.9,1.55-2.74,4.25-2.74,6.03Z"/>
  <path class="cls-2" d="M150.53,397.77c.63-1.49,1.83-7.37,1.83-8.54v-23.1c0-1.88-1.74-8.48-2.74-10.55-.33,5.79.71,6.74.9,11.56.41,10.2-.21,20.84,0,30.63Z"/>
  <path class="cls-2" d="M193.43,548.44c-2.11,3.36-6.88-4.44-8.21-3.01,2.86,7.62,11.73,10.67,18.25,13.05-.03-2.09-3.13-4.24-4.55-5.54-1.75-1.59-3.76-2.9-5.49-4.51Z"/>
  <path class="cls-2" d="M145.06,165.74c8.48,4.09,19.02,6.45,28.29,7.03.54-2.78-1.24-1.95-2.86-2.32-8.51-1.98-17.3-3.59-25.43-4.71Z"/>
  <path class="cls-2" d="M140.49,164.74c.5-3.35-4.75-2.69-6.38-3.01.15,7.19-.22,14.44,0,21.64.06,1.93-.93,4.03,1.83,3.47.15-7.71-.63-15.55.92-23.11.34-.33,2.75.86,3.64,1.01Z"/>
  <path class="cls-2" d="M199.82,299.33c5.95-2.74,10.6-6.08,16.53-8.48,1.44-.59,3.17,0,2.64-2.57-6.18.78-16.48,4.33-19.17,11.05Z"/>
  <path class="cls-14" d="M188.87,239.07c.13.2-.23,1.26.19,1.76,1.97,2.28,8.37.71,11.19,1.28,1.77.36,2.31,2.26,4.13,1.98v-3.01c-5.4-5.5-8.92-1.19-15.52-2.01Z"/>
  <path class="cls-2" d="M230.85,157.71c-2.51.48-8.96-.32-8.21,3.01,2.63-.43,9.12-.1,8.21-3.01Z"/>
  <path class="cls-2" d="M150.53,399.78c-3.26-.9-1.42,4.95-1.83,8.04,2.78,1.14,2-5.24,1.83-8.04Z"/>
  <path class="cls-2" d="M356.81,276.23c-.76-2.36-.35-5.96-2.74-7.03.62,4.51-1.76,4.63,2.74,7.03Z"/>
  <path class="cls-4" d="M145.06,300.34c-2.71-1.55-3.02,8.18,0,7.03-.03-2.34.04-4.69,0-7.03Z"/>
  <path class="cls-2" d="M349.51,256.14c.53,2.53.7,6.15,3.65,6.03-.44-1.92-1.75-6.85-3.65-6.03Z"/>
  <path class="cls-2" d="M227.2,288.29c-.34-.52.98-1.73-1.32-2.05-2.11-.29-2.67-.21-2.33,2.05h3.65Z"/>
  <path class="cls-2" d="M146.88,326.46c-.2,1.53-2.85,4.5.91,4.02-.03-1.32.46-3.32-.91-4.02Z"/>
  <path class="cls-2" d="M193.43,302.35c.14,1.78-.21,2.87,2.28,2.02,1.01-.35.18-1.5.46-2.02h-2.74Z"/>
  <path class="cls-2" d="M137.76,198.89c1.15,4.09.09,6.18,4.56,8.04-1.66-2.64-2.7-5.6-4.56-8.04Z"/>
  <path class="cls-2" d="M146.88,212.95c.4.62-1.15,2.8,2.74,2.01-.77-.81-.92-2.25-2.74-2.01Z"/>
  <path class="cls-2" d="M145.97,321.43c0,.12-1.23,1.1-.91,2,.53.12,1.67-.17,1.82,0l-.91-2.01Z"/>
  <path class="cls-2" d="M148.71,347.55c0,.11-1.27.95-.91,2,.52.11,1.71-.15,1.82,0l-.91-2.01Z"/>
  <path class="cls-2" d="M135.93,191.86c0,.11-1.48,1.36-.91,2,.2.23,1.58-.22,1.82,0l-.91-2.01Z"/>
  <path class="cls-2" d="M147.8,337.5c0,.11-1.27.95-.91,2,.52.11,1.71-.15,1.82,0l-.91-2.01Z"/>
  <path class="cls-2" d="M137.76,197.88l-.91-2.01c.33.98.89,1.9.91,2.01Z"/>
  <path class="cls-3" d="M235.42,46.21c.86.08,1.37.85,1.83,1,1.48.52,3.1-1.11,3.43,2.72.27,3.12-1.32,4.56-1.61,6.33-.22,1.35-.76,2.65-.91,4.02-.02.21,0,3.19,0,4.02,0,1.56.89,3.7.91,6.03l4.51,8.59c1.11,6.47-.9,14.88-.86,20.54.03,4.22,1.39,8.79,1.83,13.06.84,8.36,2.24,16.7,2.74,25.11,6.26,1.05,13.03,3.19,19.17,5.02l-1.83-48.21c-9.16,3.79-5.68-4.75-6.6-11.31-1.48-10.55-9.08-21.28-13.37-30.49-2.44-5.23-2.4-12.74-8.32-16.46-1.19,3.65-1.07,6.12-.91,10.04Z"/>
  <path class="cls-12" d="M244.54,112.51c-2.56-.96-3.26,1.4-3.65,4.02-.06.37-.06,1.94,0,2.01.12.14,1.77-.46,1.91.63.18,1.35-.94,2.04-1,2.38-.21,1.21.56,3.28-.91,4.02.12,1.31-.07,2.69,0,4.02,3.34-.89,1.34,5.03,1.83,8.04,1.46.17,3.17-.23,4.56,0-.5-8.41-1.89-16.75-2.74-25.11Z"/>
  <path class="cls-7" d="M240.89,129.58c.14,2.66-.1,5.37,0,8.04.6.06,1.23-.07,1.83,0-.49-3,1.51-8.92-1.83-8.04Z"/>
  <path class="cls-7" d="M231.77,132.59c.5,1.65.77,3.29.91,5.02.68.09,1.57-.98,1.83-1-.03-1.32-1.69-3.27-1.83-4.02h-.91Z"/>
  <path class="cls-1" d="M51.96,289.29c-.81-5.51,6.93-10.46,7.33-13.62.94-7.31-11.5-24.27-17.38-28.12-3.85-1.85-24.84,24.25-21.9,31.7,4.7-1.76,26.15,11.12,27.39,14.06,2.75.93,1.92-3.01,2.89-3.89.49-.44,1.32.01,1.68-.13Z"/>
  <path class="cls-1" d="M60.17,244.09c-3.95-.34-9.44,1.61-13.69,1.5,4.93,3.81,9.31,8.8,12.35,14.54,1.42,2.69,4.68,13.42,5.19,13.92.63.63,1.85,0,2.54.17.13-1.51,2.61-1.51,2.74,0,1.9.06,4.04-.29,5.87.06,2.55.5,4.53,3.21,6.87,2.45,1.94-.63,10.82-11.45,11-14.56-1.44-.52-7.31-6.81-10.01-8.57-4.29-2.8-18.23-9.11-22.85-9.51Z"/>
  <path class="cls-6" d="M59.26,239.07l.91,5.02c4.62.4,18.56,6.7,22.85,9.51,2.7,1.76,8.57,8.05,10.01,8.57.79.29,3.38-.33,3.66,0,.31.36-.26,3.87,0,5.03,1.18,5.36,11.65,20.34,13.75,27.56,1.38,4.74,2.45,15.49,2.68,20.66.06,1.33,0,2.68,0,4.02.02,4.1-.28,8.04-.91,12.05,2.12,8.22.04,17.08-.04,25.7-.01,1.3.95,2.29.95,2.43,1.81-3.19.68-7.68,1.03-11.42.6-6.36,3.01-13.2,3.52-19.22,3.51-40.76-18.85-85.11-58.41-89.89Z"/>
  <path class="cls-1" d="M44.66,299.33c-.48-.32-1.91-2.99-3.22-4-6.46-4.99-13.42-9.84-21.42-11.07-.13,10.62,2.22,21.14,8.23,29.6,1,1.4,9.8,11.25,10.49,11.57,1.89.87,1.26-1.43,1.35-2.5.63-8.37,2.39-13.01,3.66-20.59.14-.84.95-1.94.91-3.01Z"/>
  <path class="cls-1" d="M87.56,279.25c-.26.38-.59.7-.91,1v1c1.49.13,6.76,6.12,7.3,8.04.15.53-.13,1.42,0,2.01,2.73-.66,3.02,6.33,3.65,9.04,2.73,11.65,3.41,13.77,15.52,15.07-.23-5.17-1.3-15.92-2.68-20.66-2.1-7.22-12.57-22.2-13.75-27.56-2.34,4.74-6.25,7.84-9.13,12.05Z"/>
  <path class="cls-6" d="M53.79,239.07c-5.52.17-8.94.71-14.05,3.18-1.37.66-2.83.56-2.38,2.85,4.84-2.27,7.94-3.35,13.24-4.06,1.71-.23,3.7,1.26,3.19-1.97Z"/>
  <path class="cls-6" d="M30.05,250.12c2.13.28,3.75-.42,3.65-3.01-2.36,1.47-1.83,1.2-3.65,3.01Z"/>
  <path class="cls-1" d="M66.56,274.22c.23.06.62.93,1.37.93s1.24-.93,1.37-.93c-.13-1.51-2.61-1.51-2.74,0Z"/>
  <path class="cls-3" d="M86.64,280.25c.33-.31.65-.63.91-1l-.91,1Z"/>
  <path class="cls-10" d="M281.05,412.84c-4.37,12.92-4.44,26.56-4.56,40.18,3.94-.38,8.44-2.58,12.11-4.25,7.63-3.47,18.24-7.03,19.83-16.84.02-8.94.15-22.5.91-31.14-8.53,6.58-17.7,11.32-28.29,12.05Z"/>
  <path class="cls-10" d="M278.32,462.06c-.89,5.97,5.46,29.97,8.71,35.12,1.11,1.76.89.58,1.8.08,2.57-1.42,3.3-3.22,5-5.06.86-.94,1.59-2.7,2.74-4.02.18-3.61,2.21-6.17,3.65-9.04.58-1.16.73-3.86,1.83-5.02.25-7.77,2.49-15.25,3.39-22.9.19-1.61,1.01-4.2-.66-5.22-7.48,6.36-16.62,10.38-25.58,13.57-.95.59-.75,1.56-.89,2.5Z"/>
  <path class="cls-10" d="M281.97,405.81c4.82-1.65,11.4-2.32,16.35-4.6,3.41-1.57,8.37-6.31,11.03-7.45,0-1,0-2.01,0-3.01.01-2.18.04-3.89-.4-6.08-.59-2.96-5.85-21.63-6.83-23.38-1.31-2.36-5.34-1.55-6.28,1.05-1.39,6.47-6.31,13.29-8.21,19.08-1.08,3.29-.64,5.98-1.33,8.58-1.4,5.26-3.24,10.45-4.34,15.82Z"/>
  <path class="cls-12" d="M276.49,453.02c-.02,2.22-2.44,9.24,1.83,9.04.14-.94-.05-1.91.89-2.5,8.95-3.19,18.1-7.21,25.58-13.57.24-.2,1.75-6.14,2.74,0,.06-.1,1.24.26,1.59-.2,1.61-2.02-.69-11.7-.68-13.87-1.59,9.82-12.21,13.37-19.83,16.84-3.67,1.67-8.17,3.87-12.11,4.25Z"/>
  <path class="cls-12" d="M309.35,393.75c-2.66,1.14-7.61,5.88-11.03,7.45-4.96,2.28-11.53,2.95-16.35,4.6-4.42,1.51-5,4.33-.91,7.03,10.59-.74,19.77-5.48,28.29-12.05.42-4.84,2.13-2.99,2.73-4.52.99-2.51-1.46-3.06-2.73-2.51Z"/>
  <path class="cls-8" d="M289.27,363.62c-1.4-5.6-6.46,3.44-6.48,5.52-.02,2.27.58,3.56,2.83,3.52.96-2.61,2.52-6.55,3.65-9.04Z"/>
  <path class="cls-11" d="M293.83,346.54c.19,2.25-.87,3.49,1.83,3.01-.2-2.24.88-3.49-1.83-3.01Z"/>
  <path class="cls-11" d="M295.66,351.57c0,.67,0,1.34,0,2.01.2-.17,5.43-.9,0-2.01Z"/>
  <path class="cls-11" d="M292.01,343.53l1.83,1c-.07-.65.06-1.35,0-2-1.11-.44-1.72.99-1.82,1Z"/>
  <path class="cls-1" d="M113.11,319.42l-10.95-1c2.27,13.41-8.79,31.15,6.38,38.16-1.36-8.78,2.42-17.31,3.66-25.11.63-4.02.93-7.95.91-12.05Z"/>
  <path class="cls-1" d="M98.51,357.59c-.33.81-.8,2.91-.91,3.01l-.91,2.01c.07.45.07,1.94,0,2.01l-.91,2.01c-.41,8.18-9.21,13.77-5.48,25.11h1.83c5.76-5.56,8.33-10.82,11.75-18.71,5.46-12.57,1.87-8.55-3.54-15.45h-1.83Z"/>
  <path class="cls-1" d="M93.95,291.3c.64,2.88.68,9.58,3.65,9.04-.63-2.71-.92-9.7-3.65-9.04Z"/>
  <path class="cls-6" d="M113.11,361.61c-2.4-.77-2.75,6.08-3.65,9.04,2.26.98,3.6-6.83,3.65-9.04Z"/>
  <path class="cls-6" d="M97.6,360.61c-.27.23-1.62-.22-1.82,0-.6.69.89,1.89.91,2l.91-2.01Z"/>
  <path class="cls-6" d="M90.29,391.74c.15.47-.13,1.38,0,2.01,2.52,1.12,1.54-1.73,1.82-2.01h-1.83Z"/>
  <path class="cls-6" d="M100.33,357.59c-.24-.31.52-2.1-.47-2.02-2.25-.47-.98,1.09-1.36,2.02h1.83Z"/>
  <path class="cls-6" d="M96.68,364.62c-.24.23-1.6-.22-1.82,0-.5.53.91,1.89.91,2l.91-2.01Z"/>
  <path class="cls-13" d="M187.96,8.04c-.84,5.42,3.09,8.75,4.77,13.38.51,1.42.41,2.84.71,3.7,6.25,18.33,8.77,37.88,10.95,57.25.52,4.63,1.58,9.37,1.83,14.06,3.95,2.62,4.05,7.82,10.47,8.14,9.17.46,5.88-7.28,10.52-8.14.24-5.37-.46-10.98.24-16.31.89-6.83,5.58-14.34,7.06-21.86.22-1.14-.15-2.77,0-4.02-2.24-.18-1.96-.91-4.87,1.18-2.92,2.09-4.03,4.71-6.99,6.85-.76.55-.43,1.77-2.74,2.01-.6.06-1.22-.01-1.82,0-.09-.65.08-1.37,0-2.01-.07-.58-.05-1.41,0-2.01l-7.1-20.81c-1.53-1.72-2.05-3.3-2.94-5.3-3.77-8.46-10.02-25.56-20.08-26.12Z"/>
  <path class="cls-13" d="M217.16,112.51c-.34.08-.9,1.05-2.25,1.1-2.05.07-2.19-1.08-2.31-1.1-1.1-.21-2.49.14-3.65,0,1.03,6.62.25,14.06,3.65,20.09,3.45.46,5.08,5.95,8.67,5.96,3.96,0,4.91-5.38,6.85-5.96-.92-6.57-1.76-16.57-.91-23.1-3.54.75-6.39,2.16-10.04,3.01Z"/>
  <path class="cls-5" d="M208.95,112.51c1.17.14,2.55-.21,3.65,0,1.09-1.27,3.72-1.8,4.56,0,3.65-.85,6.5-2.27,10.04-3.01.32-2.5,1.89-5.99,4.56-5.02.11-2.66-.16-5.38,0-8.04-1.45.18-3.19-.25-4.56,0-4.63.86-1.35,8.59-10.52,8.14-6.43-.32-6.52-5.52-10.47-8.14-.59-.39-2.02-.32-2.74-1,.02.33-.96,2.08-.96,3.5,0,8.67,5.5,7.62,6.43,13.57Z"/>
  <path class="cls-6" d="M204.38,82.37c-2.57-.04-2.96-.82-2.73,2.47.24,3.49,1.59,7.01,1.82,10.59.72.69,2.15.62,2.74,1-.24-4.69-1.3-9.44-1.83-14.06Z"/>
  <path class="cls-2" d="M206.21,134.6c1.44,3.77.91,1.02,2.74,2.01v-2.01c-.78.19-1.87-.13-2.74,0Z"/>
  <path class="cls-9" d="M163.31,135.61c.36,6.85,4.02,16.36,10.95,17.08,3.2-2.19,10.82-5.14,14.6-6.03-.26-2.76.1-1.79,1.83-2.01.89-.11,1.84.06,2.74,0,5.46-.36,9.72,1.35,8.21-6.03-1.55.75-2.86-.82-3.65-1-2.63-.61-7.92-.96-10.04-3.01l-1.83-1c-4.56-.25-16.93-5.68-20.51-5.07-3.09.52-2.45,4.31-2.3,7.08Z"/>
  <path class="cls-2" d="M198,137.62c.79.18,2.1,1.75,3.65,1-.27-1.35-.77-2.64-.92-4.01-1.84-.37-2.69,1.15-2.73,3.01Z"/>
  <path class="cls-2" d="M186.13,133.6l1.83,1c-.14-.13.54-3.85-1.83-1Z"/>
  <path class="cls-6" d="M208.04,34.16c.89,2,1.41,3.58,2.94,5.3l7.1,20.81c.44-4.81,1.43-2.39,1.83-3.01.69-1.1-5.25-18.71-6.33-20.41-.9-1.41-3.99-2.22-5.54-2.7Z"/>
  <path class="cls-12" d="M219.9,57.26c-.39.62-1.39-1.8-1.83,3.01-.05.6-.07,1.43,0,2.01,1.94-.24,2.04-.13,1.83,2.01,2.31-.24,1.98-1.46,2.74-2.01.18-1.2-.26-3,0-4.02l-2.74-1Z"/>
  <path class="cls-2" d="M71.13,197.88c-1.54-1.75-5.45-1.92-4.56,1,1.48-.18,4.25-.99,4.56-1Z"/>
  <path class="cls-11" d="M190.69,144.65c-1.72.22-2.09-.75-1.83,2.01,1.48-.35,2.16.94,1.83-2.01Z"/>
  <path class="cls-11" d="M102.16,442.97c.4.51-.04,3.47,2.74,3.01-.62-1.55-.09-3.04-2.74-3.01Z"/>
  <path class="cls-12" d="M234.5,54.25c-.15,1.25.22,2.88,0,4.02l.92,3.01,2.73-1.01c.16-1.37.69-2.67.91-4.02-1.07-2.76-2.48-1.84-4.56-2.01Z"/>
  <path class="cls-6" d="M296.57,488.17c.16-.18,1.55-.18,2.3-.94,1.81-1.84,3.51-6.12,1.35-8.1-1.44,2.87-3.47,5.43-3.65,9.04Z"/>
  <path class="cls-11" d="M265.54,364.62c-.06-1.13.18-4.8,0-5.02-1.32-1.5-3.57,1.26-4.12,2.99-6.41,20.04-7.88,51.9-18.69,68.83-1.04,1.63-7.71,10.08-8.86,10.41-4.14,1.19-21.28-17.82-24.46-21.95-3.98-5.16-15.94-23.48-16.87-29.14-3.6.36-1-1.39-.91-2.01.08-.57.03-1.39,0-2.01-2.07.38-2.59-.45-.91-2.01-.09-.64.13-1.46,0-2.01-2.12.91-2.53-2.97-2.74-5.02-.32-3.17.2-6.79,0-10.04-3.84.7.5-6.98-5.48-6.03-.21.33-1.35.49-1.64,1.67-1.45,5.93.58,21.77,1.64,28.46,2.21-.53,1.89,1.23,2.57,2.64,2.24,4.66,3.14,7.42,6.56,11.42,8.25,9.67,17.73,22.53,25.56,33.15.28.39.35.76.91,1,1.91.82,4.13-.66,3.65,4.02,2.05,1.49.55,1.01,3.65,2.01,2.13.69,5.39.85,7.73,2.03l9.62-1.03c5.6-7.4,8.87-11.23,11.87-21.09-1.7-1.21-2.13,3.94-3.65,2-1.03-1.33,3.02-9.55,3.55-11.65,2.29-8.99,4.13-18.24,6.25-27.27.66-2.81-.61-11.52,3.88-10.29.11-4.34.57-7.96,1.83-12.05-.88-.27-.87-1.16-.91-2.01Z"/>
  <path class="cls-9" d="M254.58,425.9c-3,9.87-6.26,13.69-11.87,21.09-.85,1.13-1.28,4.38-3.67,5.5-5.72,2.68-9.97-2.5-13.67-6.5-3.1-1-1.6-.52-3.65-2.01-1.62-1.17-3.24-.89-3.65-4.02-.56-.24-.63-.62-.91-1-5.69-2.61-12.33-10.27-16.4-15.6-3.88-5.06-7.87-10.98-9.15-17.55-3.41-4-4.32-6.76-6.56-11.42-.68-1.41-.37-3.17-2.57-2.64,3.08,19.39,13.87,39.95,25.58,54.71,5.45,6.87,12.57,8.86,16.37,13.12,1.43,1.6,1.16,4.09,3.72,5.95,9.8,7.13,20.04-8.61,23.58-17.17,10.01-24.2,13.31-35.96,12.9-62.65-3.55,13.42-6.01,26.93-10.04,40.18Z"/>
  <path class="cls-14" d="M264.62,378.69c-4.49-1.22-3.22,7.48-3.88,10.29-2.12,9.03-3.96,18.29-6.25,27.27-.53,2.09-4.59,10.32-3.55,11.65,1.51,1.94,1.94-3.22,3.65-2,4.03-13.25,6.49-26.75,10.04-40.18-.04-2.33-.06-4.7,0-7.03Z"/>
  <path class="cls-9" d="M187.96,367.64c-.21-3.43-.03-9.33-4.95-8.09-1.01.25-.35,1.79-.53,2.07,5.98-.96,1.63,6.72,5.48,6.03Z"/>
  <path class="cls-9" d="M187.96,377.68c.2,2.06.62,5.93,2.74,5.02-.53-2.27-.34-5.8-2.74-5.02Z"/>
  <path class="cls-9" d="M265.54,364.62c.04.85.03,1.74.91,2.01.29-.95,2.6-2.29-.91-2.01Z"/>
  <path class="cls-9" d="M190.69,384.71c-1.68,1.56-1.15,2.38.91,2.01-.08-1.76-.9-1.9-.91-2.01Z"/>
  <path class="cls-9" d="M191.61,388.73c-.09.62-2.68,2.37.91,2.01-.14-.82.01-1.72-.91-2.01Z"/>
  <path class="cls-5" d="M271.23,208.19c-14.22-2.13-24.19,5.43-21.9,22.1,1.1,8.03,9.38,19.34,16.23,22.31,17.46,7.58,45.79-5.82,30.1-29.11-5.35-7.94-15.59-13.98-24.42-15.31Z"/>
  <path class="cls-6" d="M231.77,104.47c-2.67-.97-4.24,2.53-4.56,5.02-.85,6.53-.01,16.53.91,23.1.95-.28,2.55.19,3.65,0h.91c-.15-.86.06-2.04,0-3.01-2.76.56-1.77-1.54-1.83-3.47-.18-6.02.73-12.07.91-17.62.04-1.34-.06-2.68,0-4.02Z"/>
  <path class="cls-6" d="M227.2,96.43c1.37-.25,3.11.18,4.56,0,.18-2.98-.22-6.07,0-9.04-1.64-2.65-1.76-11.47,1.83-11.05.63-2.92,1.2-4.42,2.74-7.03-.26-2.5-.68-5.92,1.83-5.02,0-.83-.02-3.81,0-4.02l-2.73,1.01-.92-3.01c-1.48,7.51-6.18,15.03-7.06,21.86-.69,5.34,0,10.94-.24,16.31Z"/>
  <path class="cls-12" d="M239.07,70.32c.01,1.31-.02,2.64,0,4.02.09,5.01-.03,10.06,0,15.07.01,2.3.44,2.26,0,6.03-.15,1.29.1,2.71,0,4.02h3.65c-.04-5.66,1.97-14.07.86-20.54l-4.51-8.59Z"/>
  <path class="cls-6" d="M239.07,99.45c-.29,3.61-1.08,6.6-.91,11.05,3.66-.46,1.05,1.93.91,3.01-.11.9-.02,2.06,0,3.01h1.83c.39-2.62,1.09-4.98,3.65-4.02-.43-4.27-1.8-8.83-1.83-13.06h-3.65Z"/>
  <path class="cls-7" d="M238.16,64.29c-2.51-.89-2.09,2.52-1.83,5.02.19,1.82,1.07,6.24,2.74,5.02-.02-1.37.01-2.71,0-4.02-.02-2.33-.92-4.47-.91-6.03Z"/>
  <path class="cls-7" d="M231.77,87.39c.2-2.67,1.16-7.95,1.83-11.05"/>
  <path class="cls-7" d="M239.07,95.43c.44-3.77.01-3.73,0-6.03-1.41,1.71-1.43,4.28,0,6.03Z"/>
  <path class="cls-6" d="M240.89,118.53l-.91,1c.06.66-.05,1.35,0,2.01h1.83c.06-.34,1.18-1.03,1-2.38-.14-1.1-1.79-.5-1.91-.63Z"/>
  <path class="cls-7" d="M239.98,121.55c.15,1.98.86,3.41.91,4.02,1.47-.74.7-2.81.91-4.02h-1.83Z"/>
  <path class="cls-7" d="M238.16,110.5c.04,1.1-.28,2.53.91,3.01.13-1.09,2.75-3.47-.91-3.01Z"/>
  <path class="cls-7" d="M239.07,116.52c.04,1.74.89,2.73.91,3.01l.91-1c-.06-.07-.06-1.63,0-2.01h-1.83Z"/>
  <path class="cls-6" d="M218.08,62.28c.08.64-.09,1.35,0,2.01.6-.01,1.22.06,1.82,0,.22-2.13.11-2.25-1.83-2.01Z"/>
  <path class="cls-3" d="M212.6,112.51c.12.02.26,1.17,2.31,1.1,1.35-.05,1.92-1.02,2.25-1.1-.84-1.8-3.47-1.27-4.56,0Z"/>
  <path class="cls-14" d="M191.61,405.81c1.28,6.57,5.27,12.49,9.15,17.55,4.08,5.32,10.72,12.99,16.4,15.6-7.83-10.62-17.31-23.48-25.56-33.15Z"/>
  <path class="cls-14" d="M225.38,445.99c3.7,4,7.95,9.18,13.67,6.5,2.39-1.12,2.82-4.37,3.67-5.5l-9.62,1.03c-2.34-1.19-5.6-1.35-7.73-2.03Z"/>
  <path class="cls-14" d="M218.08,439.96c.41,3.13,2.04,2.85,3.65,4.02.48-4.68-1.74-3.2-3.65-4.02Z"/>
  <path class="cls-11" d="M96,437.12c4.95,6.22,7.34,15.11,15.14,18.62,1.23.56,2.69.35,3.42-.9.63-1.07.34-2.86-.9-3.42-3.26-1.47-5.44-4.21-7.34-7.21-2.25-3.57-4.15-7.31-6.78-10.63-.84-1.06-2.66-.88-3.54,0-1.04,1.04-.84,2.48,0,3.54h0Z"/>
  <path class="cls-11" d="M87.03,414.03c.94,5.12,2.18,10.17,3.77,15.13,1.46,4.57,3.11,9.2,5.64,13.29s6.34,7.25,10.26,10.28,8.05,6.32,12.2,9.3c4.47,3.2,9.21,6.01,14.46,7.74,3.06,1.01,4.38-3.82,1.33-4.82-8.9-2.93-16.26-9.43-23.55-15.06-3.47-2.68-7.2-5.25-9.7-8.92s-4.07-7.83-5.45-12.02c-1.76-5.31-3.12-10.75-4.13-16.25-.24-1.33-1.86-2.08-3.08-1.75-1.4.38-1.99,1.74-1.75,3.08h0Z"/>
  <path class="cls-12" d="M80.64,281.51c.41.55.81,1.03,1.35,1.46s1.12.84,1.69,1.24c.89.63,1.78,1.25,2.66,1.91.08.06.16.12.24.18-.6-.43-.16-.12-.04-.03.19.16.38.32.56.48s.36.34.52.52c.07.07.13.15.2.22.04.04.35.43.09.09s.02.04.07.11c.07.11.14.22.21.33.13.22.25.45.37.69.06.12.11.24.17.35.2.41-.15-.38-.04-.09.11.27.22.54.32.8.25.63.55,1.14,1.15,1.49.54.31,1.33.45,1.93.25,1.18-.38,2.26-1.77,1.75-3.08-.45-1.14-.88-2.32-1.57-3.34s-1.47-1.83-2.4-2.56-1.94-1.45-2.93-2.15c-.49-.35-.98-.7-1.47-1.05-.1-.07-.2-.16-.3-.22.18.1.39.32.1.07-.09-.08-.19-.17-.28-.25-.12-.12-.41-.51,0,.04-.4-.54-.82-.96-1.49-1.15-.6-.16-1.4-.09-1.93.25-1.04.67-1.73,2.29-.9,3.42h0Z"/>
  <path class="cls-12" d="M92.07,291.96c3.22,0,3.22-5,0-5s-3.22,5,0,5h0Z"/>
  <path class="cls-12" d="M54.91,281.85c-.68,1.21-1.43,2.39-2.33,3.45s-1.95,1.94-2.84,3c-1.9,2.24-2.67,5.2-3.67,7.91-2.12,5.77-4.34,11.53-5.59,17.56-.27,1.32.39,2.7,1.75,3.08,1.24.34,2.8-.42,3.08-1.75,1.22-5.88,3.36-11.5,5.43-17.13.86-2.33,1.44-5.06,3.22-6.88,2.02-2.07,3.85-4.18,5.28-6.72,1.58-2.81-2.74-5.33-4.32-2.52h0Z"/>
  <path class="cls-5" d="M236.43,49.69c-1.09,5.98-2.78,11.84-5.1,17.46-1.17,2.83-2.47,5.63-3.19,8.62s-.84,6.23-.87,9.37c-.14,12.84-.56,25.72,0,38.55.31,7.16,1.01,14.3,2.36,21.34.25,1.33,1.85,2.08,3.08,1.75,1.39-.38,2-1.74,1.75-3.08-2.33-12.19-2.49-24.66-2.4-37.04.04-6.26.12-12.53.19-18.79.03-3.04-.11-6.16.4-9.17s1.59-5.62,2.72-8.32c2.64-6.27,4.68-12.67,5.9-19.37.24-1.33-.36-2.7-1.75-3.08-1.21-.33-2.83.41-3.08,1.75h0Z"/>
  <path class="cls-5" d="M236.18,47.79c-6.59,2.79-12.57,6.84-17.76,11.77l3.93,3.03c1.46-1.93,1.44-4.72.65-6.92-.89-2.44-2.78-4.34-3.68-6.76s-1.18-4.89-1.75-7.32-1.57-4.88-2.85-7.11c-2.51-4.35-5.66-8.18-7.57-12.88s-3.74-9.57-7.62-13.18-9.02-5.83-14.08-7.59c-1.3-.45-2.71.52-3.08,1.75-1.54,5.16,1.25,10.6,3.41,15.17s4.47,8.58,6.27,13.06c1.91,4.76,2.84,9.46,2.69,14.59-.08,2.87-.2,5.71.11,8.57s.82,5.48,1.46,8.18c1.21,5.1,2.84,10.16,3.45,15.39.65,5.55-.34,11.15.94,16.64,1.21,5.19,3.92,9.86,5.39,14.97s1.77,10.43,2.07,15.71c.17,3.04.33,6.09.68,9.12.18,1.58.39,3.15.68,4.71s.66,3.01.7,4.55c.09,2.99-1.08,6-1.5,8.95-.48,3.35-.67,6.71-.53,10.1.13,3.21,5.13,3.22,5,0-.12-2.91-.04-5.83.35-8.72s1.22-5.49,1.57-8.27-.36-5.6-.84-8.39c-.44-2.55-.67-5.13-.84-7.71-.37-5.45-.51-10.92-1.39-16.33s-2.97-10.02-4.89-14.99c-.93-2.4-1.78-4.91-2.03-7.48-.27-2.75-.07-5.53-.07-8.28-.01-5.46-1.22-10.78-2.57-16.04s-2.72-10.21-2.82-15.49c-.05-2.88.24-5.75.12-8.63-.11-2.58-.54-5.15-1.22-7.64-1.48-5.38-4.1-10.38-6.59-15.35-1.18-2.34-2.36-4.7-3.35-7.12s-2.19-5.26-1.39-7.93l-3.08,1.75c3.81,1.32,7.71,2.87,10.87,5.43,3.59,2.91,5.33,6.85,7.01,11.04.92,2.31,1.88,4.6,3.14,6.75,1.15,1.95,2.48,3.79,3.73,5.69s2.39,3.7,3.12,5.75c.8,2.25,1.14,4.62,1.66,6.94.61,2.72,1.64,5.13,3.16,7.46.98,1.51,2.53,3.63,1.22,5.37-.74.98-.25,2.55.64,3.23,1.01.75,2.36.68,3.28-.2,4.89-4.65,10.53-8.36,16.74-10.99,1.24-.53,1.52-2.36.9-3.42-.75-1.29-2.17-1.43-3.42-.9h0Z"/>
  <path class="cls-12" d="M260.6,95.26c-3.77,3.31-4.46,9.33-2.01,13.6,1.01,1.76,4.15,1.57,4.57-.6.76-3.98,1.36-7.99,1.8-12.01l-4.91.66c1.15,4.03,1.87,8.14,2.1,12.32h5c-.61-5.12-1.22-10.24-1.83-15.36-.15-1.24-.84-2.3-2.17-2.46-1.16-.14-2.49.55-2.74,1.79-.9,4.37-1.3,8.82-1.14,13.29h5c-.28-5.03-1.08-10.01-2.43-14.87-.73-2.65-5.08-2.22-4.91.66.24,4.16.79,8.3,1.64,12.38l4.82-1.33c-1.4-4.87-2.57-9.8-3.5-14.78-.53-2.81-4.93-2.1-4.91.66.04,6.48.08,12.96.13,19.44h5c-.95-9.22-1.92-18.51-4.55-27.43-.77-2.6-5.14-2.24-4.91.66.35,4.3,1.06,8.56,2.18,12.73.75,2.79,4.78,2.11,4.91-.66.26-5.43.21-10.87-.16-16.3-.22-3.24-4.69-3.19-5,0s.12,6.52,1.26,9.55c.44,1.16,1.44,1.99,2.74,1.79,1.15-.17,2.26-1.2,2.17-2.46-.33-4.45-1.45-8.69-3.43-12.69-1.17-2.37-4.53-1.03-4.66,1.26-.27,4.95.39,9.94,1.98,14.63l4.82-1.33c-2.55-6.61-5.1-13.22-7.65-19.82-.98-2.55-4.82-2.3-4.91.66-.18,6,.47,12,1.9,17.83.68,2.76,4.89,2.14,4.91-.66.05-7.53-.64-15.04-2-22.44l-4.82,1.33c1.27,3.11,2.53,6.22,3.8,9.33l1.85,4.55c.3.73.63,1.45.89,2.19.43,1.23-.14.5.8-.05l3.67,1.49c-1.66-6.37-3.69-12.63-6.09-18.77-.49-1.26-1.68-2.13-3.08-1.75-1.21.33-2.23,1.81-1.75,3.08,1.64,4.3,3.7,8.4,6.26,12.22,1.58,2.35,5.18.9,4.57-1.93-1.03-4.74-3.03-9.27-5.93-13.16-.74-1-1.9-1.56-3.12-1.02-1.13.5-1.79,1.72-1.45,2.95,1.28,4.64,3.09,9.13,5.37,13.36,1.38,2.56,5.21.77,4.57-1.93-1.36-5.77-4.05-11.09-7.86-15.63-1.57-1.86-5.08.13-4.18,2.43,2.72,6.95,4.65,14.23,5.61,21.63l4.66-1.26c-2.59-5.8-4.11-12.02-5.59-18.17-.66-2.75-4.93-2.14-4.91.66.06,7.39-.41,14.79-1.5,22.11l4.91.66c-.56-5.22-.64-10.46-.25-15.69l-4.91.66c2.01,7.12,3.56,14.36,4.63,21.68.18,1.21,1.65,1.96,2.74,1.79,1.25-.19,2.12-1.18,2.17-2.46.22-5.66-.04-11.31-.79-16.92-.18-1.34-1.02-2.5-2.5-2.5-1.38,0-2.47,1.14-2.5,2.5-.17,6.95-.18,13.9-.03,20.85.06,2.77,4.2,3.46,4.91.66,1.37-5.36,1.53-10.84.62-16.28-.46-2.75-5.22-2.14-4.91.66.81,7.4,1.84,14.77,3.09,22.1.48,2.8,4.96,2.11,4.91-.66-.11-6.2-.46-12.4-1.04-18.57h-5c.75,7.04,1.5,14.08,2.25,21.12l4.91-.66c-3.08-9.62-6.17-19.24-9.25-28.87-.87-2.7-4.78-2.18-4.91.66-.37,8.07-.13,16.15.72,24.19.14,1.34,1.05,2.5,2.5,2.5,1.36,0,2.5-1.14,2.5-2.5,0-3.72.02-7.43.03-11.15,0-2.72-4.44-3.52-4.91-.66-1.04,6.37-.5,12.91,1.92,18.93.42,1.04,1.22,1.84,2.41,1.84,1.03,0,2.21-.77,2.41-1.84.93-4.94,1.16-9.93.57-14.92h-5c1.01,7.71,2.42,15.34,4.32,22.88.71,2.81,4.78,2.09,4.91-.66.4-8.63-.35-17.27-2.16-25.72-.58-2.7-5.26-2.16-4.91.66,1.17,9.49,2.17,19,2.99,28.53.27,3.16,4.92,3.27,5,0,.23-9.18.07-18.37-.48-27.54l-4.91.66c1.71,10.11,3.44,20.24,6.31,30.09.8,2.76,4.76,2.13,4.91-.66.36-6.93-.24-13.88-1.75-20.65-.6-2.7-5.22-2.17-4.91.66,1.01,9.29,2.02,18.58,3.02,27.87l4.91-.66c-.68-4.58-.78-9.23-.41-13.84l-4.91.66c.96,6.14,1.92,12.28,2.88,18.42.38,2.42,4.38,2.35,4.82,0,.97-5.2,1.05-10.38.3-15.61-.18-1.21-1.65-1.96-2.74-1.79-1.22.18-2.16,1.19-2.17,2.46-.02,3.03-.05,6.06-.07,9.09-.01,1.35,1.16,2.5,2.5,2.5,1.47,0,2.36-1.15,2.5-2.5.74-7.26.27-14.59-1.3-21.72l-4.82,1.33c1.55,6.85,3.1,13.71,4.65,20.56.27,1.2,1.57,1.97,2.74,1.79,1.31-.2,2.04-1.18,2.17-2.46.97-9.46-.19-19.14-3.42-28.08-.92-2.54-4.95-2.31-4.91.66.11,8.59.22,17.17.33,25.76.04,3.22,4.97,3.22,5,0,.08-7.95.09-16.03-2.1-23.75-.76-2.67-4.99-2.21-4.91.66.27,10.12.53,20.25.8,30.37l4.91-.66c-1.57-7.85-4.2-15.45-7.81-22.6-1.16-2.29-4.62-1.1-4.66,1.26-.1,6.12-.05,12.24.15,18.36l4.91-.66c-1.67-5.95-3.33-11.9-5-17.85-.74-2.65-5.04-2.22-4.91.66.26,5.69.52,11.38.79,17.07l4.91-.66c-1.03-7.06-1.6-14.17-1.76-21.3h-5c.35,6.33,1.24,12.62,2.66,18.8.65,2.81,4.84,2.1,4.91-.66.19-7.2-.9-14.44-3.28-21.24-.9-2.58-4.9-2.27-4.91.66-.02,7.06,1.22,14.11,3.77,20.7.45,1.16,1.43,1.99,2.74,1.79,1.22-.18,2.16-1.19,2.17-2.46.06-7.43-.88-14.86-2.81-22.03l-4.82,1.33c2.1,7.58,4.81,14.96,8.07,22.12.45.99,1.84,1.42,2.82,1.15,1.14-.31,1.71-1.3,1.84-2.41.36-3.23.36-6.46.02-9.68l-4.91.66c1.14,5.71,3.16,11.23,5.97,16.33.85,1.55,2.71,1.46,3.93.51.61-.48,1.1-1.11,1.45-1.8l-4.57-.6c.64,2.08,1.13,4.19,1.45,6.34.38,2.52,4.24,2.24,4.82,0,.65-2.5.7-4.95.31-7.49l-4.82,1.33c.66,2.83,1.32,5.66,1.99,8.49l4.82-1.33c-.56-1.93-1.64-3.37-3.23-4.57-1.27-.96-3.35.05-3.67,1.49-.13.58-.26,1.17-.39,1.75l3.08-1.75c-2.19-.55-4.38-1.09-6.58-1.64v4.82c.58-.13,1.16-.25,1.75-.38,2.76-.6,2.14-4.98-.66-4.91-1.7.04-3.07-.49-4.42-1.5v4.32c2.15-1.03,4.31-2.06,6.46-3.09,1.86-.89,1.49-4.22-.6-4.57-2.72-.46-5.44-.63-8.19-.4-1.35.11-2.5,1.07-2.5,2.5,0,1.29,1.15,2.59,2.5,2.5,2.85-.18,5.69-.1,8.52.24l-.66-4.91c-2.91.73-5.86,1.28-8.85,1.59-3.21.33-3.21,4.66,0,5,1.73.18,3.47.37,5.2.55v-5c-2.43.21-4.86.42-7.28.63-1.35.12-2.5,1.07-2.5,2.5,0,1.34,1.14,2.52,2.5,2.5,1.17-.02,2.35-.04,3.52-.06,3.21-.05,3.22-4.99,0-5-1.46,0-2.91-.01-4.37-.02-3.22-.01-3.22,4.96,0,5s6.32.08,9.48.12l-.66-4.91c-2.61.59-5.22.94-7.89,1.06-3.2.14-3.24,4.98,0,5,2.3.01,4.6.02,6.9.03v-5c-1.91,0-3.82,0-5.73,0v5c4.02,0,8.04-.01,12.06-.02v-5c-3.23.06-6.47.13-9.7.19-1.23.02-2.31.93-2.46,2.17-.13,1.11.55,2.55,1.79,2.74,3.95.62,7.91,1.23,11.86,1.85l.66-4.91c-3.49.02-6.99.03-10.48.05v5c2.65-.07,5.19.28,7.72,1.05,2.37.72,4.24-2.47,2.43-4.18-.93-.88-1.99-1.41-3.18-1.84-.76-.27-1.92-.5-2.24-.88-.43-.51-.35-2.23-.42-3.05-.15-1.65-.29-3.3-.44-4.95-.12-1.35-1.06-2.5-2.5-2.5-1.26,0-2.62,1.15-2.5,2.5.17,1.89.33,3.77.5,5.66.15,1.66.14,3.47,1.06,4.93.81,1.29,2.08,2.01,3.46,2.53.97.37,2.09.54,2.72,1.13l2.43-4.18c-2.93-.89-5.99-1.3-9.05-1.23-3.21.08-3.23,5.02,0,5,3.49-.02,6.99-.03,10.48-.05,1.23,0,2.31-.95,2.46-2.17.13-1.11-.55-2.55-1.79-2.74-3.95-.62-7.91-1.23-11.86-1.85l-.66,4.91c3.23-.06,6.47-.13,9.7-.19s3.23-5.01,0-5c-4.02,0-8.04.01-12.06.02-3.22,0-3.22,5,0,5,1.91,0,3.82,0,5.73,0,3.22,0,3.22-4.98,0-5-2.3-.01-4.6-.02-6.9-.03v5c3.1-.14,6.19-.56,9.22-1.24,2.79-.63,2.11-4.88-.66-4.91-3.16-.04-6.32-.08-9.48-.12v5c1.46,0,2.91.01,4.37.02v-5c-1.17.02-2.35.04-3.52.06v5c2.43-.21,4.86-.42,7.28-.63,3.23-.28,3.19-4.66,0-5-1.73-.18-3.47-.37-5.2-.55v5c3.43-.35,6.83-.93,10.18-1.77,1.19-.3,1.97-1.55,1.79-2.74-.2-1.32-1.18-2.02-2.46-2.17-2.83-.34-5.67-.42-8.52-.24v5c2.29-.19,4.59-.16,6.86.22l-.6-4.57c-2.15,1.03-4.31,2.06-6.46,3.09-1.87.89-1.36,3.31,0,4.32,2,1.49,4.46,2.24,6.94,2.18l-.66-4.91c-.58.13-1.16.25-1.75.38-2.43.52-2.34,4.24,0,4.82,2.19.55,4.38,1.09,6.58,1.64,1.26.31,2.78-.4,3.08-1.75.13-.58.26-1.17.39-1.75l-3.67,1.49c.49.37.76,1.01.93,1.58.9,3.09,5.55,1.8,4.82-1.33-.66-2.83-1.32-5.66-1.99-8.49-.31-1.31-1.81-2.09-3.08-1.75-1.43.39-1.95,1.74-1.75,3.08.25,1.62.1,3.26-.31,4.83h4.82c-.33-2.15-.81-4.26-1.45-6.34-.6-1.94-3.55-2.59-4.57-.6-.19.37-.33.53-.67.79l3.93.51c-2.61-4.74-4.41-9.83-5.47-15.14-.54-2.72-5.21-2.16-4.91.66.34,3.23.34,6.46-.02,9.68l4.66-1.26c-3.07-6.76-5.58-13.77-7.56-20.92-.86-3.1-5.66-1.79-4.82,1.33,1.82,6.77,2.69,13.69,2.63,20.7l4.91-.66c-2.4-6.2-3.61-12.72-3.59-19.37l-4.91.66c2.24,6.42,3.28,13.11,3.1,19.91l4.91-.66c-1.32-5.75-2.15-11.58-2.48-17.47-.18-3.19-5.08-3.24-5,0,.18,7.58.84,15.13,1.94,22.63.41,2.79,5.04,2.12,4.91-.66-.26-5.69-.52-11.38-.79-17.07l-4.91.66c1.67,5.95,3.33,11.9,5,17.85.75,2.67,5,2.21,4.91-.66-.19-6.12-.24-12.24-.15-18.36l-4.66,1.26c3.41,6.77,5.82,13.98,7.3,21.41.55,2.78,4.98,2.13,4.91-.66-.27-10.12-.53-20.25-.8-30.37l-4.91.66c2.08,7.29,2,14.9,1.93,22.42h5c-.11-8.59-.22-17.17-.33-25.76l-4.91.66c3.1,8.58,4.17,17.68,3.24,26.75l4.91-.66c-1.55-6.85-3.1-13.71-4.65-20.56-.71-3.14-5.51-1.81-4.82,1.33,1.47,6.7,1.81,13.57,1.12,20.39h5c.02-3.03.05-6.06.07-9.09l-4.91.66c.62,4.28.5,8.7-.3,12.95h4.82c-.96-6.14-1.92-12.28-2.88-18.42-.19-1.21-1.64-1.96-2.74-1.79-1.29.19-2.07,1.18-2.17,2.46-.4,5.08-.16,10.13.59,15.17.41,2.76,5.22,2.14,4.91-.66-1.01-9.29-2.02-18.58-3.02-27.87l-4.91.66c1.41,6.35,1.91,12.83,1.57,19.32l4.91-.66c-2.87-9.86-4.6-19.98-6.31-30.09-.47-2.77-5.08-2.14-4.91.66.54,9.17.7,18.35.48,27.54h5c-.82-9.53-1.82-19.04-2.99-28.53l-4.91.66c1.72,8.02,2.36,16.2,1.99,24.39l4.91-.66c-1.78-7.1-3.19-14.29-4.14-21.55-.18-1.34-1.02-2.5-2.5-2.5-1.23,0-2.66,1.15-2.5,2.5.54,4.53.46,9.11-.39,13.6h4.82c-2.07-5.15-2.82-10.78-1.92-16.27l-4.91-.66c0,3.72-.02,7.43-.03,11.15h5c-.85-8.04-1.09-16.12-.72-24.19l-4.91.66c3.08,9.62,6.17,19.24,9.25,28.87.38,1.18,1.49,1.98,2.74,1.79,1.12-.17,2.3-1.2,2.17-2.46-.75-7.04-1.5-14.08-2.25-21.12-.14-1.34-1.05-2.5-2.5-2.5-1.25,0-2.63,1.15-2.5,2.5.58,6.18.93,12.37,1.04,18.57l4.91-.66c-1.18-6.89-2.15-13.82-2.91-20.77l-4.91.66c.76,4.53.52,9.18-.62,13.62l4.91.66c-.15-6.95-.14-13.9.03-20.85h-5c.74,5.61,1.01,11.26.79,16.92l4.91-.66c-1.07-7.32-2.62-14.56-4.63-21.68-.8-2.81-4.7-2.08-4.91.66-.39,5.23-.31,10.47.25,15.69.13,1.24.85,2.3,2.17,2.46,1.11.13,2.56-.55,2.74-1.79,1.15-7.76,1.74-15.58,1.68-23.43l-4.91.66c1.58,6.61,3.32,13.15,6.09,19.37.98,2.2,4.97,1.16,4.66-1.26-1.01-7.87-2.89-15.56-5.79-22.96l-4.18,2.43c3.26,3.87,5.42,8.51,6.58,13.42l4.57-1.93c-2.09-3.87-3.7-7.93-4.87-12.17l-4.57,1.93c2.68,3.59,4.47,7.6,5.43,11.97l4.57-1.93c-2.32-3.45-4.27-7.14-5.76-11.02l-4.82,1.33c2.39,6.13,4.42,12.4,6.09,18.77.41,1.57,2.29,2.29,3.67,1.49,3.8-2.2.85-7.2-.32-10.06-1.58-3.87-3.15-7.74-4.73-11.61-1.2-2.95-5.41-1.89-4.82,1.33,1.28,6.97,1.86,14.03,1.82,21.11l4.91-.66c-1.33-5.41-1.89-10.93-1.72-16.5l-4.91.66c2.55,6.61,5.1,13.22,7.65,19.82.49,1.26,1.68,2.13,3.08,1.75,1.25-.34,2.18-1.79,1.75-3.08-1.46-4.32-2.06-8.75-1.81-13.3l-4.66,1.26c1.56,3.17,2.49,6.64,2.74,10.17l4.91-.66c-1.01-2.68-1.36-5.37-1.08-8.22h-5c.37,5.43.42,10.87.16,16.3l4.91-.66c-1.01-3.74-1.69-7.54-2.01-11.4l-4.91.66c2.51,8.5,3.46,17.31,4.37,26.1.14,1.34,1.05,2.5,2.5,2.5,1.35,0,2.51-1.14,2.5-2.5-.04-6.48-.08-12.96-.13-19.44l-4.91.66c.93,4.98,2.1,9.91,3.5,14.78.9,3.11,5.47,1.81,4.82-1.33-.76-3.65-1.25-7.33-1.46-11.05l-4.91.66c1.23,4.43,1.99,8.94,2.25,13.54.18,3.19,5.12,3.23,5,0-.15-4.02.15-8.01.96-11.96l-4.91-.66c.61,5.12,1.22,10.24,1.83,15.36.16,1.34,1.03,2.5,2.5,2.5,1.29,0,2.58-1.15,2.5-2.5-.26-4.62-1.01-9.2-2.28-13.65-.82-2.87-4.61-2.02-4.91.66-.4,3.58-.95,7.14-1.63,10.68l4.57-.6c-1.4-2.43-.88-5.69,1.22-7.54,1.01-.89.91-2.62,0-3.54-1.01-1.01-2.52-.89-3.54,0h0Z"/>
  <path class="cls-12" d="M248.58,61.98c-.61-2.49-1.22-4.99-1.82-7.48s-4.21-2.36-4.82,0c-1.68,6.45-2.5,13.11-2.45,19.77h5c-.13-5.49.74-10.87,2.62-16.03l-4.57.6c3.81,5.02,6.94,10.49,9.39,16.29.96,2.26,4.9,1.13,4.66-1.26-.42-4.23-1.75-8.28-4.21-11.76-.95-1.35-3.5-1.89-4.32,0-6.62,15.33-3.45,31.99-3.55,48.11-.03,4.71-.37,9.4-1.38,14.01l4.18-1.1c-1.19-1.43-1.29-3.65-1.45-5.42-.24-2.77-.42-5.55-.54-8.32-.23-5.48-.22-10.96,0-16.44.14-3.22-4.86-3.21-5,0-.25,5.97-.24,11.94.06,17.91.14,2.83.29,5.67.63,8.48s.96,5.18,2.75,7.32c1.19,1.43,3.79.64,4.18-1.1,3.56-16.15-.58-32.59,1.34-48.85.48-4.11,1.45-8.27,3.09-12.07h-4.32c1.94,2.74,3.19,5.89,3.53,9.24l4.66-1.26c-2.45-5.8-5.59-11.27-9.39-16.29-1.32-1.74-3.79-1.54-4.57.6-2.02,5.54-2.95,11.46-2.8,17.36.08,3.21,5.02,3.23,5,0-.05-6.24.7-12.4,2.27-18.44h-4.82c.61,2.49,1.22,4.99,1.82,7.48.76,3.12,5.58,1.8,4.82-1.33h0Z"/>
  <path class="cls-12" d="M231.96,33.46c.28,1.56,1.17,2.84,1.99,4.15s.88,2.35,1.22,3.95c.37,1.77,1.35,3.21,2.35,4.67,1.06,1.54,2.13,3.08,3.19,4.62,1.63,2.36,5.1.9,4.57-1.93-.65-3.46-2.92-6.54-4.67-9.52-1.92-3.26-3.84-6.52-5.76-9.78l-2.82,3.67c.81.25,1.37.67,2.04,1.37.72.74,1.21,1.51,1.75,2.48,1.25,2.25,2.11,4.68,3.46,6.88l3.93-3.03c-3.05-3.8-5.87-7.78-8.48-11.89-1.32-2.08-4.62-1.27-4.66,1.26s.27,5.17.95,7.64c.3,1.1.76,2.16,1.06,3.27.12.45.2.82.17,1.12.01-.15-.12.5-.12.48-.03-.63,3.03.02,1.63-.57l1.1.64c-.43-.36.06.63.1.24.01-.13-.1-.39-.12-.52-.08-.4-.14-.81-.19-1.22-.12-1.09-.16-2.19-.13-3.29.06-2.04.42-4.01,1.03-5.96h-4.82c1.42,4.06,3.05,8.53,1.96,12.86-.53,2.1,1.76,3.93,3.67,2.82.61-.35,1.22-.7,1.83-1.06,2.79-1.61.27-5.93-2.52-4.32-.61.35-1.22.7-1.83,1.06l3.67,2.82c1.33-5.28-.22-10.53-1.96-15.52-.81-2.31-4.06-2.44-4.82,0-.92,2.95-1.35,6.11-1.19,9.19.13,2.65.6,8.26,4.7,7.11,1.54-.43,2.54-2.01,2.85-3.51.32-1.6.03-3.18-.49-4.69-.98-2.84-1.57-5.6-1.53-8.61l-4.66,1.26c2.84,4.47,5.94,8.77,9.26,12.9.77.96,2.4.9,3.28.2.95-.76,1.31-2.14.64-3.23-2.92-4.75-4.24-11.14-10.24-13.02-2.1-.66-3.9,1.84-2.82,3.67,1.86,3.15,3.71,6.31,5.57,9.46.88,1.49,1.76,2.98,2.63,4.47.78,1.35,1.44,2.64,1.73,4.18l4.57-1.93c-.99-1.44-1.98-2.87-2.98-4.31-.91-1.32-1.84-2.5-2.13-4.11s-.58-3.03-1.43-4.45c-.71-1.19-1.5-2.14-1.72-3.32-.24-1.33-1.86-2.08-3.08-1.75-1.4.38-1.99,1.74-1.75,3.08h0Z"/>
  <path class="cls-12" d="M240.62,47.5c1.12,3.9,1.46,8.05.75,12.06s-2.43,7.94-2.7,12.14h5c0-6.32.54-12.62,1.67-18.84l-4.91-.66c.16,3.39-2,6.4-3.21,9.43-1.55,3.88-1.22,7.87.1,11.77s2.96,7.76,3.99,11.83,1.73,8.17,2.22,12.32c.57,4.79.92,9.6,1.26,14.4.1,1.35,1.08,2.5,2.5,2.5,1.28,0,2.6-1.15,2.5-2.5-.61-8.56-1.23-17.18-3.08-25.58-.9-4.11-2.2-8.06-3.72-11.98-1.39-3.61-2.54-7.11-1.16-10.89s3.79-7.08,3.6-11.29c-.06-1.24-.91-2.31-2.17-2.46-1.14-.14-2.52.55-2.74,1.79-1.21,6.66-1.84,13.41-1.84,20.17,0,3.24,4.79,3.19,5,0,.27-4.19,2.18-8.11,2.74-12.27.6-4.44.26-8.95-.98-13.26-.89-3.09-5.71-1.77-4.82,1.33h0Z"/>
  <path class="cls-12" d="M237.87,83.02c.95,3.96-.36,8.34-.58,12.34-.24,4.4-.05,8.81.33,13.2.76,8.76,2.24,17.45,2.65,26.25.15,3.2,5.15,3.22,5,0-.41-8.95-1.94-17.8-2.69-26.73-.37-4.39-.54-8.8-.27-13.2s1.43-8.81.38-13.19c-.75-3.13-5.57-1.8-4.82,1.33h0Z"/>
  <path class="cls-14" d="M146.72,236.35c-2.83-5.93-6.45-11.45-10.76-16.41-2.04-2.35-4.25-4.56-6.6-6.6-1.28-1.1-2.6-2.15-3.95-3.17s-3.1-2.19-4.93-1.44c-1.25.51-2.14,1.66-1.75,3.08.32,1.18,1.82,2.26,3.08,1.75-.23.09-.53-.24.11.22.27.2.54.39.81.59.47.35.94.71,1.4,1.08,1.1.89,2.17,1.81,3.21,2.77,2.1,1.93,4.06,4,5.89,6.19,3.68,4.39,6.72,9.3,9.18,14.47.58,1.22,2.33,1.54,3.42.9,1.25-.73,1.48-2.2.9-3.42h0Z"/>
  <path class="cls-14" d="M139.52,228.12c-2.35-2.41-3.85-5.49-5.92-8.14-2.18-2.8-4.85-5.11-7.53-7.41-2.9-2.49-5.73-5.09-8.77-7.4-2.85-2.16-5.99-3.11-9.32-4.26s-6.68-3.16-10.1-4.52-6.85-2.33-10.4-2.99c-7.1-1.32-14.34-1.43-21.49-.52-8.55,1.08-16.84,3.43-24.88,6.49-1.26.48-2.13,1.68-1.75,3.08.33,1.21,1.81,2.23,3.08,1.75,13.14-5,27.38-8.37,41.49-6.34,3.42.49,6.8,1.3,10.07,2.42s6.33,2.77,9.5,4.19,6.56,1.97,9.44,3.76,5.5,4.38,8.13,6.64c2.92,2.51,6.01,4.96,8.44,7.97,2.3,2.85,3.89,6.19,6.47,8.84,2.25,2.31,5.79-1.23,3.54-3.54h0Z"/>
  <path class="cls-14" d="M71.11,190.82c-7.02-1.56-14,.04-20.51,2.77s-12.69,6-18.61,9.6c-5.56,3.38-10.54,7.51-14.55,12.65s-6.86,10.35-9.39,16.03c-2.94,6.59-5.3,13.4-7.6,20.23-1.03,3.06,3.8,4.37,4.82,1.33,3.75-11.12,7.59-22.49,14.36-32.19,3.33-4.77,7.46-8.85,12.3-12.08,5.42-3.63,11.35-6.66,17.23-9.47,6.35-3.04,13.53-5.64,20.64-4.05,3.13.7,4.47-4.12,1.33-4.82h0Z"/>
  <path class="cls-14" d="M28.73,210.7c-4.01,3-7.55,6.45-10.62,10.4s-5.79,8.39-8.44,12.75c-1.67,2.76,2.65,5.28,4.32,2.52,4.79-7.92,9.74-15.74,17.26-21.36,1.08-.81,1.63-2.16.9-3.42-.62-1.06-2.33-1.71-3.42-.9h0Z"/>
  <path class="cls-14" d="M140.25,297.39c2.53,6.36,1.93,13.22,1.45,19.9-.25,3.46-.51,6.94-.37,10.42s.8,7.16,1.89,10.64,2.23,6.92,2.52,10.6.26,7.34.27,11c.02,7.86-.21,15.71-.68,23.55-.53,8.81-1.37,17.61-2.51,26.36-.17,1.34,1.27,2.5,2.5,2.5,1.5,0,2.33-1.15,2.5-2.5,2.05-15.74,3.12-31.59,3.18-47.46.03-7.67.2-15.34-2.12-22.73-1.06-3.38-2.17-6.7-2.45-10.25s-.1-6.93.14-10.39c.53-7.65,1.42-15.65-1.5-22.97-.5-1.25-1.67-2.13-3.08-1.75-1.19.33-2.25,1.81-1.75,3.08h0Z"/>
  <path class="cls-14" d="M203.29,558.28c-8.88-5.41-17.83-10.85-25.64-17.77-8.31-7.36-14.43-16.44-20.65-25.54-3.8-5.55-7.6-11.11-11.41-16.66-.76-1.11-2.2-1.61-3.42-.9-1.1.65-1.66,2.3-.9,3.42,6.74,9.85,13.24,19.96,20.41,29.51,3.37,4.48,7,8.72,11.13,12.53s8.26,6.95,12.7,10.01c4.96,3.43,10.11,6.58,15.26,9.71,2.76,1.68,5.27-2.64,2.52-4.32h0Z"/>
  <path class="cls-14" d="M135.86,468.02c.08,12.41,3.35,24.76,9.66,35.46,1.63,2.77,5.96.26,4.32-2.52-5.88-9.96-8.91-21.39-8.98-32.94-.02-3.22-5.02-3.22-5,0h0Z"/>
  <path class="cls-9" d="M157.12,257.47c3.41-1.35,6.64-3.06,9.59-5.26,1.51-1.13,2.83-2.25,3.92-3.8.4-.58.76-1.18,1.18-1.74-.16.21-.05.05.05-.06.13-.14.27-.28.4-.42.27-.29-.25.24.02-.03.07-.07.54-.28.11-.11l-1.93-4.57c-5.55,3.59-10.82,7.62-15.76,12.02-.65.58-.87,1.61-.64,2.43.25.92.91,1.4,1.75,1.75,4.46,1.85,8.85-1.26,12.32-3.8s6.32-5.37,7.97-9.2c.54-1.24.37-2.68-.9-3.42-1.06-.62-2.88-.35-3.42.9-.35.81-.75,1.58-1.22,2.32s-.69,1.04-1.24,1.67-1.17,1.26-1.8,1.83c-.59.53-1.27,1.1-1.7,1.42-1.35,1.01-2.78,1.94-4.23,2.8-.77.45-1.39.8-2.22,1-.69.17-1.39,0-2.23-.34l1.1,4.18c4.62-4.12,9.54-7.88,14.74-11.24,1.04-.67,1.53-1.96,1.02-3.12-.46-1.04-1.78-1.91-2.95-1.45-1.72.68-2.82,1.81-3.86,3.32-.19.27-.37.55-.55.83-.09.14-.18.28-.28.41,0-.01-.38.52-.24.34.13-.17-.19.22-.21.24-.14.15-.29.3-.44.44-.34.32-.69.61-1.06.9-2.59,2.01-5.66,3.77-8.64,4.95-1.25.5-2.13,1.67-1.75,3.08.33,1.19,1.81,2.25,3.08,1.75h0Z"/>
  <path class="cls-9" d="M149.26,253.03c-2.57,6.72-6.23,13.75-3.74,21.08.4,1.17,1.47,1.98,2.74,1.79,1.15-.17,2.26-1.2,2.17-2.46-.21-2.8-.55-5.62-.5-8.43.04-1.99.29-4.13,1.8-5.57l-4.27-1.77c.53,7.64,10.88,3.33,14.69,1.27,2.32-1.25,4.61-2.66,6.76-4.19,2.27-1.63,4.07-3.51,5.04-6.17.46-1.27-.52-2.74-1.75-3.08-1.39-.38-2.61.47-3.08,1.75-.51,1.41-1.71,2.45-2.89,3.29-1.51,1.08-3.11,2.05-4.71,3s-3.26,1.9-5.01,2.54c-.93.34-1.88.63-2.85.82-.33.07-.66.13-1,.16-.9.07-.26-.1-.21.6-.15-2.14-2.64-3.32-4.27-1.77-4.63,4.4-3.19,11.88-2.77,17.54l4.91-.66c-2.15-6.32,1.53-12.66,3.74-18.42.48-1.26-.53-2.74-1.75-3.08-1.41-.39-2.59.48-3.08,1.75h0Z"/>
  <path class="cls-9" d="M152.11,257.81c-4.82.05-7.86,5.13-6.16,9.52.2.53.64,1.1.78,1.64.1.39.06.87.13,1.26.16.95.58,1.84,1.25,2.55,1.36,1.44,3.26,1.82,5.03,2.5,2.07.8,3.92,2.12,5.84,3.21s4.08,2.07,6.23,2.87c4.32,1.62,8.92,2.45,13.53,2.56,3.22.08,3.22-4.92,0-5-3.59-.09-7.11-.69-10.53-1.8s-6.47-2.84-9.58-4.65c-1.62-.94-3.29-1.74-5.07-2.33-.5-.17-1.04-.3-1.47-.56-.32-.19-.31-.23-.35-.4-.21-.97-.25-1.81-.69-2.74-.26-.56-.57-.98-.59-1.61-.04-1.04.54-2.01,1.64-2.02,3.22-.03,3.22-5.03,0-5h0Z"/>
  <path class="cls-9" d="M147.13,272.22c5.41,3.93,11.49,6.89,17.71,9.26s12.88,4.59,19.19,2.31c1.27-.46,2.12-1.7,1.75-3.08-.34-1.22-1.8-2.21-3.08-1.75-5.57,2.02-11.74-.45-16.96-2.47-5.67-2.2-11.17-5.02-16.09-8.59-1.09-.79-2.79-.19-3.42.9-.74,1.26-.2,2.62.9,3.42h0Z"/>
  <path class="cls-4" d="M182.28,279.2c-3.04.42-6.12.67-9.19.79-2.03.08-4.34.3-5.73-1.43l-2.43,4.18c3.28.51,6.56,1.03,9.83,1.54,1.33.21,2.68.55,4.01.16,1.59-.47,2.51-1.73,2.62-3.36.07-1.14-.84-2.07-1.84-2.41-3.69-1.26-7.62-.35-11.32-1.37-1.82-.5-3.46-1.6-5.1-2.51-1.89-1.05-3.78-2.1-5.68-3.14-1.18-.65-2.73-.29-3.42.9-.75,1.28-.18,2.6.9,3.42,3.34,2.53,6.94,4.65,10.78,6.31l2.52-4.32c-6.21-2.66-12.13-5.93-17.69-9.76-1.86-1.28-4.2.83-3.67,2.82.6,2.27,2.02,4.24,4.1,5.38v-4.32c.24-.13.21.27-.19-.12-.14-.13-.3-.25-.43-.41-.56-.69-.89-1.6-1.24-2.4-.33-.75-1.37-1.28-2.16-1.24-2.71.16-4.07,3.3-2.19,5.35,1.28,1.4,3.39,2.29,5.01,3.25,3.53,2.11,7.2,4.13,11.25,5.01,3.13.68,4.46-4,1.33-4.82-2.15-.56-4.31-1.11-6.46-1.69-.71-.19-3.04-.67-2.81-1.85s-.24-2.46-1.45-2.95c-1.1-.44-2.54-.1-3.12,1.02-.2.39.09.34-.21.14l1.15,1.49c-.91-2.35-.03-4.75.73-7.02.88-2.6,1.85-5.18,2.94-7.7,2.21-5.12,4.84-10.05,7.83-14.75l-4.32-2.52c-.95,2.03-1.9,4.06-2.86,6.09-1.36,2.9,2.49,5.21,4.32,2.52s3.11-5.63,3.9-8.73c.57-2.22-1.75-3.76-3.67-2.82-2.67,1.3-2.17,4.76-1,6.9,1.27,2.32,3.29,4.29,5.68,5.43,1.65.79,3.79-.14,3.76-2.16-.06-4.27-1.7-8.43-4.8-11.41-1.21-1.16-3.91-.86-4.18,1.1-.44,3.2,1.73,4.92,4.09,6.64,2.15,1.56,4.48,2.75,6.94,3.73,1.16.46,2.89-.51,3.08-1.75.39-2.55-.96-4.01-2.96-5.36-1.81-1.21-3.69-2.31-5.63-3.31-1.1-.57-2.46-.38-3.23.64-.67.89-.8,2.51.2,3.28,3.11,2.41,6.49,4.25,10.27,5.4,2.54.77,3.97-2.39,2.43-4.18-2.79-3.24-6.58-5.15-10.79-5.64-1.07-.13-2.14.87-2.41,1.84-.3,1.1.22,2.22,1.15,2.82,2.91,1.89,6.04,3.42,9.31,4.56,1.41.49,3.31,1.33,4.82.89,2.29-.68,2.43-3.41,1.22-5.09-.88-1.22-2.25-1.81-3.66-2.19-1.6-.43-3.18-.88-4.72-1.47-3.09-1.18-5.99-2.85-8.68-4.78-.8-.57-2.4-.42-3.03.39-1.77,2.28-2.13,5.04-2.72,7.8-.62,2.91-1.25,5.82-1.87,8.73-.68,3.18,3.71,4.33,4.82,1.33,1.53-4.13,2.47-8.39,2.98-12.76.2-1.69-1.75-2.75-3.16-2.41-1.92.46-2.99,2.07-3.69,3.79s-1.29,3.48-1.79,5.25c-.9,3.22-2.08,8.36.49,11.15,1.55,1.68,3.67,1.59,5.63.76,1.73-.73,3.42-1.55,5.06-2.46,3.45-1.9,6.68-4.19,9.69-6.73.94-.79.91-2.38.2-3.28-.82-1.03-2.06-1.18-3.23-.64-2.4,1.11-4.44,2.77-6.56,4.32-.99.73-2.01,1.44-3.09,2.03-.49.27-.99.51-1.52.69-.28.09-.56.18-.85.25l-.35.08c-.49.08-.47.09.07.03l1.49,1.15.07.17v1.33c.05-.32.17-.44.44-.87.22-.34.44-.68.66-1.02.51-.79,1.04-1.58,1.52-2.39,1-1.68,1.83-3.5,2.21-5.43.24-1.22-.25-2.47-1.45-2.95-1.07-.43-2.58-.12-3.12,1.02-1.51,3.16-3.41,6.09-5.78,8.67-2.21,2.41,1.08,5.55,3.54,3.54.91-.75,2.56-.68,3.66-.86,1.63-.27,3.15-.9,4.59-1.72,3.28-1.87,6.43-4.02,9.63-6.03l-3.42-3.42c-3.58,7.78-11.56,10.86-19.25,13.18-2.37.71-2.38,4.11,0,4.82,1.06.32,2,.16,2.97-.36,2.47-1.3.77-5.52-1.93-4.57-1.61.56-2.72,1.46-3.74,2.81-1.21,1.59.46,3.72,2.16,3.76,2.42.05,4.82-1.99,6.79-3.23,2.08-1.31,4.14-2.66,6.17-4.06,4.12-2.84,8.12-5.87,12-9.03l-3.54-3.54c-1.67,1.42-1.87,3.54-3.09,5.23-1.13,1.58-3.36,2.46-5,3.39-4.31,2.43-8.7,4.71-13.51,5.97l3.08,1.75c-1.06-3.79-.12-7.62,1.18-11.24,1.4-3.92,3.18-7.73,4.82-11.56.53-1.24.37-2.68-.9-3.42-1.05-.62-2.89-.35-3.42.9-1.86,4.36-3.92,8.7-5.47,13.19s-2.27,8.97-1.02,13.46c.37,1.31,1.76,2.09,3.08,1.75,5.21-1.36,10.04-3.85,14.71-6.48,2.01-1.13,4.24-2.2,5.82-3.93.91-.99,1.46-2.08,1.97-3.3.34-.8.63-1.6,1.31-2.17,1.03-.87.9-2.64,0-3.54-1.04-1.04-2.49-.86-3.54,0-3.43,2.8-6.97,5.46-10.61,7.99-1.77,1.23-3.56,2.42-5.38,3.58-.91.58-1.82,1.15-2.73,1.71-.66.4-2.17,1.58-2.7,1.57l2.16,3.76c.17-.22.49-.42.76-.51l-1.93-4.57-.33.17,1.26-.34-.05.02v4.82c8.85-2.67,18.13-6.54,22.24-15.48.47-1.02.45-2.19-.39-3.03-.77-.77-2.1-.98-3.03-.39-3.31,2.08-6.56,4.38-10,6.24-1.37.74-2.77.96-4.3,1.19-1.75.26-3.22.83-4.59,1.96l3.54,3.54c2.65-2.89,4.87-6.14,6.56-9.68l-4.57-1.93c-.55,2.75-2.18,4.98-3.67,7.3-.83,1.29-1.65,2.71-.99,4.27.78,1.84,2.64,1.95,4.35,1.6,5.28-1.07,8.82-5.68,13.57-7.87l-3.03-3.93c-2.07,1.74-4.26,3.31-6.57,4.72-1.14.69-2.3,1.35-3.48,1.96-.59.3-1.18.6-1.78.88-.13.06-1.86.7-1.87.79,0,.05.66.26.61.33-.04.05-.14-.43-.16-.51-.09-.48-.07-.99-.05-1.48.04-1.32.28-2.6.61-3.87.36-1.42.83-2.8,1.33-4.18.17-.49.32-1,.54-1.46.08-.18.4-.6.31-.57l-3.16-2.41c-.46,3.91-1.44,7.74-2.8,11.43l4.82,1.33c.56-2.6,1.11-5.19,1.67-7.79.27-1.26.54-2.52.81-3.78.18-.84.28-2.06.83-2.76l-3.03.39c2.61,1.87,5.4,3.42,8.36,4.67,1.44.61,2.91,1.15,4.41,1.59.66.19,1.33.35,1.99.53.16.04.47.19.64.2.57.04-.01.69,0-.37l.73-1.77-.18.18,1.1-.64-.27.04h1.33c-3.99-.62-8-2.81-11.34-4.98l-1.26,4.66c2.89.34,5.4,2.02,7.26,4.18l2.43-4.18c-2.9-.88-5.66-2.25-8.06-4.11l-3.03,3.93c1.27.65,2.51,1.34,3.72,2.09.58.35,1.15.72,1.71,1.09.24.16.49.39.75.51.59.26-.16,1,.1-.67l3.08-1.75c-1.51-.6-2.96-1.38-4.33-2.26-.67-.43-1.32-.88-1.95-1.37-.27-.22-.55-.44-.81-.67-.51-.47-.36-.7-.46.08l-4.18,1.1c2.16,2.08,3.29,4.88,3.33,7.87l3.76-2.16c-1.22-.58-2.29-1.35-3.12-2.42-.39-.5-.84-1.14-1.04-1.74.07.21-.17-.31-.02-.18v-.29c-.04.38-.21.69-.5.93l-3.67-2.82c-.7,2.72-1.82,5.21-3.4,7.54l4.32,2.52c.95-2.03,1.9-4.06,2.86-6.09,1.35-2.88-2.57-5.28-4.32-2.52-4.21,6.62-7.67,13.7-10.36,21.07-1.27,3.48-2.83,7.34-2,11.1.47,2.14,1.96,3.47,4.2,3.44,1.83-.02,3.53-1.11,4.37-2.72l-4.57-1.93c-.58,3,.96,5.82,3.74,7.1s6.06,1.81,9.03,2.59l1.33-4.82c-2.62-.57-5.01-1.64-7.35-2.94-1.17-.65-2.33-1.34-3.48-2.03-.61-.37-1.22-.73-1.82-1.1-.27-.16-.54-.33-.82-.49-1.34-.77-.34-.21-.33-.18l.34,1.26v.06c-.21.37-.42.74-.64,1.1l.2-.19-1.77.73h.26c-.72-.43-1.44-.84-2.16-1.25.74,1.68,1.61,3.32,3.15,4.39,1.68,1.16,3.75,1.29,5.55.32,1.64-.88,1.62-3.43,0-4.32-.98-.54-1.51-1.31-1.8-2.39l-3.67,2.82c5.56,3.83,11.48,7.11,17.69,9.76,1.24.53,2.68.37,3.42-.9.62-1.06.35-2.88-.9-3.42-3.84-1.66-7.44-3.78-10.78-6.31l-2.52,4.32c1.96,1.09,3.92,2.17,5.89,3.26,1.83,1.02,3.66,2.13,5.67,2.78,3.82,1.22,7.95.19,11.74,1.49l-1.84-2.41v-.19c.2-.37.42-.74.63-1.1.2-.26.66.02.14-.16-.32-.11-.74-.12-1.07-.17-1.07-.17-2.13-.33-3.2-.5-2.21-.35-4.43-.69-6.64-1.04-2.53-.4-4.05,2.17-2.43,4.18,2.01,2.5,5.35,3,8.37,2.93,3.82-.09,7.63-.48,11.41-1,1.34-.19,2.07-1.9,1.75-3.08-.4-1.44-1.73-1.93-3.08-1.75h0Z"/>
  <path class="cls-4" d="M153.45,255.51c-3.59.76-8.06,3.48-8.27,7.55-.1,1.99.81,3.97,1.65,5.72s1.87,3.25,3.06,4.7c4.82,5.89,12.33,8.35,19.66,9.06,4.92.48,9.87.21,14.8.32,3.22.07,3.22-4.93,0-5-8.23-.18-17.19.86-24.79-3.01-3.33-1.7-6.02-4.2-7.84-7.47-.57-1.03-2.03-3.33-1.39-4.51.79-1.45,2.96-2.22,4.44-2.53,3.15-.67,1.81-5.49-1.33-4.82h0Z"/>
  <path class="cls-11" d="M179.15,242.27c-1.65,2.25-4.13,3.88-6.31,5.55-2.53,1.94-5.06,3.89-7.6,5.82-4.39,3.35-8.99,6.81-14.56,7.73-1.06.18-1.84,1.4-1.84,2.41.02,2.31,1.79,3.55,3.45,4.82,1.52,1.17,3.09,2.25,4.74,3.22,3.25,1.92,6.76,3.47,10.37,4.58,7.26,2.24,14.97,2.62,22.43,1.19l-2.43-4.18c-4.74,5.48-3.75,12.78-2.5,19.35.25,1.33,1.85,2.08,3.08,1.75,1.39-.38,2-1.74,1.75-3.08-.87-4.53-2.15-10.6,1.21-14.48,1.67-1.93.06-4.66-2.43-4.18-6.17,1.18-12.57.83-18.61-.85-3.04-.85-5.96-2.02-8.73-3.52-1.44-.77-2.83-1.63-4.17-2.55-.65-.44-1.28-.9-1.9-1.38-.3-.23-.59-.47-.87-.71-.14-.11-.27-.23-.4-.35-.36-.42-.34-.3.05.36l-1.84,2.41c6.14-1.02,11.28-4.81,16.1-8.5,2.75-2.1,5.49-4.21,8.24-6.31s5.16-3.92,7.12-6.59c.8-1.09.18-2.79-.9-3.42-1.27-.74-2.62-.19-3.42.9h0Z"/>
  <path class="cls-11" d="M199.17,308.43c3.75-2.79,7.47-5.63,11.28-8.33,1.8-1.27,3.63-2.49,5.53-3.61.99-.58,1.99-1.12,3-1.65.86-.45,2.05-1.23,2.87-1.37h-1.33l.28.09-1.49-1.15c0-.31.01-.31.01-.01.01.15,0,.3-.02.45-.06.44-.22.9-.35,1.32-.21.68-.44,1.36-.67,2.03-.51,1.47-1.08,2.93-1.72,4.35-1.3,2.89-2.83,5.67-4.56,8.32s2.56,5.21,4.32,2.52c2.43-3.73,4.43-7.71,6.05-11.86.8-2.06,1.72-4.25,1.92-6.46.1-1.11-.03-2.25-.66-3.18-.94-1.39-2.57-1.57-4.01-.94-8.42,3.7-15.65,9.7-22.97,15.15-1.08.8-1.63,2.16-.9,3.42.62,1.07,2.33,1.71,3.42.9h0Z"/>
  <path class="cls-8" d="M218.62,288.41c2.11-.02,4.23-.05,6.34-.07,1.77-.02,3.66-.23,5.42.01.86.12,1.67.47,2.51.7.95.25,1.94.37,2.92.44,1.95.15,3.91.18,5.86.26,3.22.14,3.21-4.86,0-5-1.95-.08-3.91-.13-5.86-.26-1.77-.12-3.4-.91-5.17-1.11-1.87-.21-3.79-.07-5.67-.04-2.11.02-4.23.05-6.34.07-3.22.04-3.22,5.04,0,5h0Z"/>
  <path class="cls-8" d="M216.39,243.75c-3.44-1.04-6.38-2.84-9.16-5.09-3.22-2.62-6.68-3.48-10.77-3.65-3.25-.13-6.51-.04-9.51-1.48s-5.31-3.61-7.01-6.37-6.01-.23-4.32,2.52c1.96,3.19,4.68,5.94,7.98,7.74s6.98,2.41,10.8,2.52c1.75.05,3.54.02,5.26.37,1.89.38,3.26,1.23,4.73,2.44,3.19,2.62,6.72,4.61,10.69,5.81,3.09.94,4.41-3.89,1.33-4.82h0Z"/>
  <path class="cls-8" d="M204.5,240c.24.26.5.56.59.71.05.08.19.39.18.34-.03-.13-.01-.11-.04.07-.1.69-.53,1.57-.67,2.36-.21,1.15-.12,2.25.53,3.25.75,1.15,1.86,1.46,3.15,1.55l-1.26-.34c-.58-1.48-.84-1.85-.79-1.12,0,.19-.02.39-.03.58-.03.48-.05.97-.05,1.45,0,.85.02,1.69.07,2.54.11,1.81.34,3.62.56,5.42.17,1.34,1.03,2.5,2.5,2.5,1.22,0,2.67-1.15,2.5-2.5-.25-2.04-.51-4.09-.6-6.15-.05-1.03-.05-2.06,0-3.08.06-1.11.03-2.17-.66-3.1-.34-.45-.76-.78-1.28-.98-.34-.13-.7-.23-1.07-.22-.59-.06-.21.19,1.14.75l.16.54-.03.11.07-.27c.05-.19.12-.39.18-.58.15-.46.32-.92.42-1.4.47-2.4-.45-4.22-2.04-5.95-.91-.99-2.61-.93-3.54,0-.99.99-.92,2.54,0,3.54h0Z"/>
  <path class="cls-6" d="M291.05,338.5c.67.81.76,1.81.79,3.01.04,1.73.39,3.32,1.02,4.92,1.28,3.24,2.64,6.44,3.96,9.66.51,1.25,1.66,2.13,3.08,1.75,1.18-.32,2.26-1.82,1.75-3.08-1.4-3.41-2.93-6.8-4.19-10.27-.23-.64-.49-1.39-.57-2.02-.1-.8-.02-1.61-.11-2.42-.21-1.95-.95-3.59-2.19-5.1-.86-1.04-2.65-.89-3.54,0-1.03,1.03-.86,2.49,0,3.54h0Z"/>
  <path class="cls-6" d="M297.8,495c5.09-6.31,6.6-14.22,8.31-21.94.87-3.95,2.03-7.71,3.47-11.49.73-1.92,1.32-3.85,1.57-5.9s.07-4.27-.04-6.41c-.24-4.54.43-9.03,2.38-13.16.58-1.22.34-2.7-.9-3.42-1.09-.64-2.84-.33-3.42.9-1.79,3.78-2.85,7.78-3.08,11.96s.74,8.08-.41,12.03c-.53,1.82-1.28,3.56-1.94,5.33-.71,1.93-1.28,3.91-1.77,5.91-.96,3.9-1.65,7.87-2.72,11.74s-2.46,7.77-4.99,10.91c-.85,1.05-1.03,2.51,0,3.54.88.88,2.68,1.06,3.54,0h0Z"/>
  <path class="cls-6" d="M308.96,391.62c.22,4.53-.45,9.01-.84,13.52s-.39,9.42-.34,14.13c.09,9.26-.2,18.48-1.51,27.66-.19,1.33.33,2.69,1.75,3.08,1.17.32,2.88-.4,3.08-1.75,1.35-9.47,1.79-18.93,1.69-28.49-.05-4.72-.09-9.44.3-14.14s1.11-9.3.88-14c-.16-3.2-5.16-3.22-5,0h0Z"/>
</svg>